<?xml version="1.0" encoding="UTF-8" standalone="no"?>
<!-- Created with Inkscape (http://www.inkscape.org/) -->
<svg
   xmlns:dc="http://purl.org/dc/elements/1.1/"
   xmlns:cc="http://creativecommons.org/ns#"
   xmlns:rdf="http://www.w3.org/1999/02/22-rdf-syntax-ns#"
   xmlns:svg="http://www.w3.org/2000/svg"
   xmlns="http://www.w3.org/2000/svg"
   xmlns:xlink="http://www.w3.org/1999/xlink"
   xmlns:sodipodi="http://sodipodi.sourceforge.net/DTD/sodipodi-0.dtd"
   xmlns:inkscape="http://www.inkscape.org/namespaces/inkscape"
   width="48px"
   height="48px"
   id="svg57"
   sodipodi:version="0.32"
   inkscape:version="0.46"
   sodipodi:docbase="/home/marco/Scrivania/UltimateGnome/scalable/emblems"
   sodipodi:docname="emblem-generic.svg"
   inkscape:output_extension="org.inkscape.output.svg.inkscape">
  <defs
     id="defs3">
    <linearGradient
       id="linearGradient3711">
      <stop
         style="stop-color:#fef17c;stop-opacity:1"
         offset="0.0000000"
         id="stop3713" />
      <stop
         style="stop-color:#e86400;stop-opacity:1;"
         offset="1"
         id="stop3715" />
    </linearGradient>
    <linearGradient
       id="linearGradient3591">
      <stop
         id="stop3593"
         offset="0"
         style="stop-color:#000000;stop-opacity:1;" />
      <stop
         id="stop3595"
         offset="1"
         style="stop-color:#000000;stop-opacity:0;" />
    </linearGradient>
    <filter
       inkscape:collect="always"
       x="-0.13259723"
       width="1.2651945"
       y="-0.6847359"
       height="2.3694718"
       id="filter3616">
      <feGaussianBlur
         inkscape:collect="always"
         stdDeviation="2.0103976"
         id="feGaussianBlur3618" />
    </filter>
    <linearGradient
       id="linearGradient5335"
       inkscape:collect="always">
      <stop
         id="stop5337"
         offset="0"
         style="stop-color:#ffffff;stop-opacity:1;" />
      <stop
         id="stop5339"
         offset="1"
         style="stop-color:#ffffff;stop-opacity:0;" />
    </linearGradient>
    <radialGradient
       inkscape:collect="always"
       xlink:href="#linearGradient3591"
       id="radialGradient3921"
       gradientUnits="userSpaceOnUse"
       gradientTransform="matrix(1,0,0,0.195124,0,39.338316)"
       cx="25.75"
       cy="48.875"
       fx="25.75"
       fy="48.875"
       r="18.1705" />
    <linearGradient
       inkscape:collect="always"
       xlink:href="#linearGradient5335"
       id="linearGradient3931"
       gradientUnits="userSpaceOnUse"
       gradientTransform="matrix(1.2396842,0,0,1.2396842,-6.2401097,-1.0710825)"
       x1="24.75"
       y1="3.1875"
       x2="24.75"
       y2="38.198643" />
    <linearGradient
       inkscape:collect="always"
       xlink:href="#linearGradient3711"
       id="linearGradient3934"
       gradientUnits="userSpaceOnUse"
       gradientTransform="matrix(1.2396842,0,0,1.2396842,-6.2401097,-1.0710826)"
       x1="24.75"
       y1="38.441875"
       x2="24.75"
       y2="1.5615001" />
  </defs>
  <sodipodi:namedview
     showborder="true"
     id="base"
     pagecolor="#ffffff"
     bordercolor="#000000"
     borderopacity="1"
     inkscape:pageopacity="0"
     inkscape:pageshadow="2"
     inkscape:zoom="10.24"
     inkscape:cx="33.915537"
     inkscape:cy="22.934296"
     inkscape:current-layer="layer3"
     showgrid="true"
     inkscape:grid-bbox="true"
     inkscape:document-units="px"
     inkscape:window-width="1272"
     inkscape:window-height="922"
     inkscape:window-x="0"
     inkscape:window-y="25"
     inkscape:showpageshadow="false"
     inkscape:object-nodes="true"
     inkscape:object-points="true"
     inkscape:object-bbox="true"
     inkscape:guide-bbox="true"
     inkscape:grid-points="true"
     fill="#2e3436"
     showguides="true">
    <inkscape:grid
       id="GridFromPre046Settings"
       type="xygrid"
       originx="0px"
       originy="0px"
       spacingx="1px"
       spacingy="1px"
       color="#0000ff"
       empcolor="#0000ff"
       opacity="0.2"
       empopacity="0.4"
       empspacing="4" />
  </sodipodi:namedview>
  <metadata
     id="metadata4">
    <rdf:RDF>
      <cc:Work
         rdf:about="">
        <dc:format>image/svg+xml</dc:format>
        <dc:type
           rdf:resource="http://purl.org/dc/dcmitype/StillImage" />
        <dc:title />
        <dc:date />
        <dc:creator>
          <cc:Agent>
            <dc:title>Marco Tessarotto</dc:title>
          </cc:Agent>
        </dc:creator>
        <dc:subject>
          <rdf:Bag />
        </dc:subject>
        <dc:publisher>
          <cc:Agent>
            <dc:title />
          </cc:Agent>
        </dc:publisher>
        <cc:license
           rdf:resource="http://creativecommons.org/licenses/by-nc-sa/2.5/" />
        <dc:contributor>
          <cc:Agent>
            <dc:title />
          </cc:Agent>
        </dc:contributor>
      </cc:Work>
      <cc:License
         rdf:about="http://creativecommons.org/licenses/by-nc-sa/2.5/">
        <cc:permits
           rdf:resource="http://web.resource.org/cc/Reproduction" />
        <cc:permits
           rdf:resource="http://web.resource.org/cc/Distribution" />
        <cc:requires
           rdf:resource="http://web.resource.org/cc/Notice" />
        <cc:requires
           rdf:resource="http://web.resource.org/cc/Attribution" />
        <cc:prohibits
           rdf:resource="http://web.resource.org/cc/CommercialUse" />
        <cc:permits
           rdf:resource="http://web.resource.org/cc/DerivativeWorks" />
        <cc:requires
           rdf:resource="http://web.resource.org/cc/ShareAlike" />
      </cc:License>
    </rdf:RDF>
  </metadata>
  <g
     inkscape:groupmode="layer"
     id="layer2"
     inkscape:label="shadow"
     style="display:inline" />
  <g
     id="layer1"
     inkscape:label="Layer 1"
     inkscape:groupmode="layer"
     style="display:inline">
    <g
       id="g3783"
       transform="matrix(2.7092713,0,0,2.6264441,-33.116996,-39.665799)">
      <g
         style="display:inline"
         inkscape:label="shadow"
         id="g3785" />
      <g
         inkscape:label="Layer 1"
         id="g3787" />
    </g>
    <g
       id="g2424"
       transform="matrix(0.190868,0.16126,0.16126,-0.190868,52.344729,41.890766)"
       inkscape:r_cx="true"
       inkscape:r_cy="true"
       style="opacity:0.5;fill:none;fill-opacity:1;stroke:#ffffff;stroke-opacity:1" />
  </g>
  <g
     inkscape:groupmode="layer"
     id="layer3"
     inkscape:label="arrows"
     style="display:inline">
    <path
       sodipodi:type="arc"
       style="opacity:0.46464646;fill:url(#radialGradient3921);fill-opacity:1;stroke:#000000;stroke-width:0.84100002;stroke-linecap:round;stroke-linejoin:round;stroke-miterlimit:4;stroke-dasharray:none;stroke-opacity:0;display:inline;filter:url(#filter3616)"
       id="path3534"
       sodipodi:cx="25.75"
       sodipodi:cy="48.875"
       sodipodi:rx="17.75"
       sodipodi:ry="3.125"
       d="M 43.5,48.875 A 17.75,3.125 0 1 1 43.499997,48.873052"
       sodipodi:start="0"
       sodipodi:end="6.2825619"
       sodipodi:open="true"
       transform="matrix(0.9025216,0,0,1.006323,1.2110263,-4.7295368)" />
    <path
       id="path3471"
       style="fill:url(#linearGradient3934);fill-opacity:1;stroke:#000000;stroke-width:0.677;stroke-linecap:square;stroke-linejoin:round;stroke-miterlimit:4;stroke-dashoffset:0;stroke-opacity:1;stroke-dasharray:none"
       d="M 24.442075,1.2533254 C 12.032382,1.2533254 1.9727983,11.312908 1.9727983,23.722602 C 1.9727983,36.132295 12.032382,46.191879 24.442075,46.191879 C 36.851768,46.191879 46.911353,36.132294 46.911352,23.722602 C 46.911352,11.312909 36.851767,1.2533255 24.442075,1.2533254 z M 24.442075,7.5292262 C 33.475122,7.5292262 40.790411,14.775094 40.790411,23.722602 C 40.79041,32.67011 33.475122,39.915977 24.442075,39.915977 C 15.409029,39.915975 8.0937393,32.67011 8.0937393,23.722602 C 8.0937393,14.775093 15.409028,7.5292262 24.442075,7.5292262 z M 24.207678,10.734475 C 23.676189,10.752609 23.223439,11.126127 23.104635,11.644486 L 21.58795,18.014562 L 15.466058,15.587866 C 14.965942,15.394247 14.398203,15.564569 14.087254,16.001507 C 13.774968,16.42041 13.460194,16.851223 13.177243,17.352736 C 12.910789,17.824309 13.001975,18.417016 13.397852,18.786692 L 18.196091,23.336747 L 12.929058,27.500736 C 12.512083,27.826763 12.365198,28.391704 12.570569,28.87954 C 12.80314,29.417864 13.061215,29.884077 13.315124,30.313497 C 13.590794,30.778874 14.149009,30.995324 14.666352,30.837443 L 21.09158,28.934692 L 22.084319,35.635682 C 22.164444,36.16784 22.5965,36.577157 23.132211,36.628421 C 23.595761,36.67664 24.042484,36.711149 24.483439,36.711149 C 24.535548,36.711149 24.614567,36.71259 24.704048,36.711149 C 25.235537,36.693015 25.688286,36.319496 25.807091,35.801138 L 27.378928,29.210453 L 33.611124,31.692301 C 34.118952,31.900537 34.70328,31.728676 35.017504,31.27866 C 35.301644,30.883961 35.591546,30.441658 35.872363,29.927432 C 35.972495,29.760199 36.029361,29.570645 36.03782,29.37591 L 36.03782,29.348334 C 36.033662,29.022081 35.893766,28.712311 35.651754,28.493475 L 30.770787,23.888268 L 35.955091,19.779431 C 36.372066,19.453405 36.518951,18.888464 36.313581,18.400627 C 36.076206,17.8744 35.795308,17.395009 35.513874,16.939094 C 35.241258,16.485979 34.699106,16.271376 34.190222,16.415149 L 27.875298,18.290323 L 26.910135,11.809942 C 26.83001,11.277783 26.397954,10.868467 25.862243,10.817203 C 25.383883,10.76631 24.92979,10.734475 24.483439,10.734475 C 24.416431,10.734475 24.322674,10.732093 24.207678,10.734475 z " />
    <path
       style="opacity:0.64141415;fill:url(#linearGradient3931);fill-opacity:1;stroke:none;stroke-width:0.62699997;stroke-linecap:square;stroke-linejoin:round;stroke-miterlimit:4;stroke-dashoffset:0;stroke-opacity:1;display:inline"
       d="M 24.442075,2.8804109 C 12.903893,2.8804109 3.5998843,12.184419 3.5998833,23.722602 L 6.4666533,23.722602 C 6.4666533,13.896105 14.546625,5.9021406 24.442075,5.9021406 C 34.337525,5.9021406 42.417496,13.896106 42.417496,23.722602 L 45.284266,23.722602 C 45.284266,12.184421 35.980256,2.8804111 24.442075,2.8804109 z M 24.597036,12.371743 L 23.163651,18.415204 C 23.055011,18.871667 22.766767,19.245418 22.350108,19.461187 C 21.93345,19.676956 21.429687,19.713353 20.994203,19.538668 L 15.221924,17.21426 C 15.048167,17.448566 14.895685,17.657364 14.757042,17.872842 L 19.328378,22.172997 C 19.668888,22.495938 19.854321,22.943917 19.831999,23.412681 C 19.827032,23.517009 19.817696,23.622792 19.793259,23.722602 L 29.129631,23.722602 C 29.171625,23.283306 29.400103,22.872396 29.749473,22.599138 L 34.66947,18.725125 C 34.553773,18.487717 34.406093,18.280079 34.282069,18.066543 L 28.354828,19.848589 C 27.905775,19.981213 27.431769,19.907711 27.037664,19.654888 C 26.64356,19.402067 26.368262,18.994883 26.301601,18.531424 L 25.371838,12.410483 C 25.110142,12.389986 24.839844,12.374438 24.597036,12.371743 z "
       id="path3796" />
  </g>
</svg>
