<?xml version="1.0" encoding="UTF-8" standalone="no"?>
<!-- Created with Inkscape (http://www.inkscape.org/) -->
<svg
   xmlns:dc="http://purl.org/dc/elements/1.1/"
   xmlns:cc="http://creativecommons.org/ns#"
   xmlns:rdf="http://www.w3.org/1999/02/22-rdf-syntax-ns#"
   xmlns:svg="http://www.w3.org/2000/svg"
   xmlns="http://www.w3.org/2000/svg"
   xmlns:xlink="http://www.w3.org/1999/xlink"
   xmlns:sodipodi="http://sodipodi.sourceforge.net/DTD/sodipodi-0.dtd"
   xmlns:inkscape="http://www.inkscape.org/namespaces/inkscape"
   inkscape:export-ydpi="240.00000"
   inkscape:export-xdpi="240.00000"
   inkscape:export-filename="/home/jimmac/gfx/novell/pdes/trunk/docs/BIGmime-text.png"
   sodipodi:docname="disks.svg"
   sodipodi:docbase="/home/marco/Scrivania/UltimateGnome/scalable/apps"
   inkscape:version="0.46"
   sodipodi:version="0.32"
   id="svg249"
   height="48.000000px"
   width="48.000000px"
   inkscape:output_extension="org.inkscape.output.svg.inkscape">
  <sodipodi:namedview
     inkscape:window-y="25"
     inkscape:window-x="0"
     inkscape:window-height="947"
     inkscape:window-width="1272"
     inkscape:document-units="px"
     inkscape:grid-bbox="true"
     showgrid="true"
     inkscape:current-layer="layer5"
     inkscape:cy="14.25883"
     inkscape:cx="46.929085"
     inkscape:zoom="11.313709"
     inkscape:pageshadow="2"
     inkscape:pageopacity="0.0"
     borderopacity="1"
     bordercolor="#666"
     pagecolor="#ffffff"
     id="base"
     inkscape:showpageshadow="false"
     showguides="true"
     inkscape:guide-bbox="true" />
  <defs
     id="defs3">
    <linearGradient
       inkscape:collect="always"
       id="linearGradient23419-681">
      <stop
         offset="0"
         id="stop4443"
         style="stop-color:#000000;stop-opacity:1;" />
      <stop
         offset="1"
         id="stop4445"
         style="stop-color:#000000;stop-opacity:0;" />
    </linearGradient>
    <linearGradient
       inkscape:collect="always"
       id="linearGradient3290-496">
      <stop
         offset="0"
         id="stop4457"
         style="stop-color:#ffffff;stop-opacity:1;" />
      <stop
         offset="1"
         id="stop4459"
         style="stop-color:#ffffff;stop-opacity:0;" />
    </linearGradient>
    <linearGradient
       inkscape:collect="always"
       id="linearGradient3426-193">
      <stop
         offset="0"
         id="stop4463"
         style="stop-color:#ffffff;stop-opacity:1;" />
      <stop
         offset="1"
         id="stop4465"
         style="stop-color:#ffffff;stop-opacity:0;" />
    </linearGradient>
    <linearGradient
       id="linearGradient3205-287-406-170-409-110-938"
       y2="14.2033"
       x2="35.391201"
       y1="32.4165"
       gradientUnits="userSpaceOnUse"
       x1="12.2744">
      <stop
         offset="0"
         id="stop4863"
         style="stop-color:#6fdef8;stop-opacity:1;" />
      <stop
         offset="0.5"
         id="stop4865"
         style="stop-color:#0074be;stop-opacity:1;" />
      <stop
         offset="1"
         id="stop4867"
         style="stop-color:#52a1fe;stop-opacity:1;" />
    </linearGradient>
    <filter
       inkscape:collect="always"
       id="filter3193">
      <feGaussianBlur
         inkscape:collect="always"
         id="feGaussianBlur3195"
         stdDeviation="0.10158995" />
    </filter>
    <radialGradient
       inkscape:collect="always"
       id="radialGradient2444"
       r="22.627417"
       gradientTransform="matrix(1,0,0,0.25,0,31.22703)"
       cx="23.334524"
       cy="41.63604"
       gradientUnits="userSpaceOnUse"
       xlink:href="#linearGradient23419-681"
       fy="41.63604"
       fx="23.334524" />
    <linearGradient
       inkscape:collect="always"
       id="linearGradient3222"
       x1="62.967869"
       y1="60.897659"
       gradientTransform="matrix(0.4145402,-0.5635525,0.5635525,0.4145402,-55.310662,21.446923)"
       x2="82.312675"
       gradientUnits="userSpaceOnUse"
       xlink:href="#linearGradient3426-193"
       y2="73.653732" />
    <linearGradient
       inkscape:collect="always"
       id="linearGradient3225"
       x1="42"
       y1="83.5"
       gradientTransform="matrix(0.4145402,-0.5635525,0.5635525,0.4145402,-55.310662,21.446923)"
       x2="90.5"
       gradientUnits="userSpaceOnUse"
       xlink:href="#linearGradient3426-193"
       y2="83.5" />
    <linearGradient
       inkscape:collect="always"
       id="linearGradient3228"
       x1="90.348267"
       y1="36.441792"
       gradientTransform="matrix(0.8456238,0,0,0.8456238,-57.192715,-12.08161)"
       x2="107.70921"
       gradientUnits="userSpaceOnUse"
       spreadMethod="reflect"
       xlink:href="#linearGradient3426-193"
       y2="48.816158" />
    <linearGradient
       inkscape:collect="always"
       id="linearGradient3231"
       x1="71.910507"
       y1="68.269913"
       gradientTransform="matrix(0.7583761,0.3740929,-0.3740929,0.7583761,-8.8964586,-58.647811)"
       x2="57.16671"
       gradientUnits="userSpaceOnUse"
       xlink:href="#linearGradient3290-496"
       y2="52.006454" />
    <linearGradient
       inkscape:collect="always"
       id="linearGradient3236"
       x1="42"
       y1="83.5"
       gradientTransform="matrix(0.4145402,-0.5635525,0.5635525,0.4145402,-55.310662,21.446923)"
       x2="90.5"
       gradientUnits="userSpaceOnUse"
       xlink:href="#linearGradient3205-287-406-170-409-110-938"
       y2="83.5" />
    <radialGradient
       inkscape:collect="always"
       id="radialGradient2480-279-716-871-538-348-300-817-171-97-991-128-873-494-502-713"
       r="22.627417"
       gradientTransform="matrix(1,0,0,0.25,0,31.22703)"
       cx="23.334524"
       cy="41.63604"
       gradientUnits="userSpaceOnUse"
       xlink:href="#linearGradient23419-78-453-804-383-743-363-308-843-780-155-934-307-597-860-598"
       fy="41.63604"
       fx="23.334524" />
    <linearGradient
       inkscape:collect="always"
       id="linearGradient23419-78-453-804-383-743-363-308-843-780-155-934-307-597-860-598">
      <stop
         offset="0"
         id="stop19332"
         style="stop-color:#000000;stop-opacity:1;" />
      <stop
         offset="1"
         id="stop19334"
         style="stop-color:#000000;stop-opacity:0;" />
    </linearGradient>
    <linearGradient
       inkscape:collect="always"
       id="linearGradient2551-417-116-694-703-460-728-420-420-351-238-208-719-117-799-259"
       y2="42.53656"
       y1="1.9768898"
       gradientTransform="matrix(0.5431031,0,0,0.5431031,21.838956,22.292919)"
       x2="44.823242"
       gradientUnits="userSpaceOnUse"
       xlink:href="#linearGradient3243-26-441-724-893-668-773-0-918-295-426-341-997-872-900-512"
       x1="3.6788144" />
    <linearGradient
       id="linearGradient3243-26-441-724-893-668-773-0-918-295-426-341-997-872-900-512">
      <stop
         offset="0"
         id="stop19338"
         style="stop-color:#14999a;stop-opacity:1;" />
      <stop
         offset="1"
         id="stop19340"
         style="stop-color:#2688da;stop-opacity:1;" />
    </linearGradient>
    <linearGradient
       inkscape:collect="always"
       id="linearGradient2548-737-425-651-92-862-94-890-558-682-149-435-48-631-732-144"
       y2="18.239347"
       y1="4.3531318"
       gradientTransform="matrix(0.5431031,0,0,0.5431031,21.838956,22.292919)"
       x2="39.045437"
       gradientUnits="userSpaceOnUse"
       xlink:href="#linearGradient3275-948-465-703-327-716-871-968-834-565-724-437-772-535-955-10"
       x1="22.612532" />
    <linearGradient
       id="linearGradient3275-948-465-703-327-716-871-968-834-565-724-437-772-535-955-10">
      <stop
         offset="0"
         id="stop19344"
         style="stop-color:#828282;stop-opacity:1;" />
      <stop
         offset="0.5"
         id="stop19346"
         style="stop-color:#ffffff;stop-opacity:1;" />
      <stop
         offset="1"
         id="stop19348"
         style="stop-color:#a4a4a4;stop-opacity:1;" />
    </linearGradient>
    <linearGradient
       inkscape:collect="always"
       id="linearGradient2545-605-40-104-405-535-528-877-859-538-96-87-869-981-223-665"
       y2="41.430237"
       y1="19.81575"
       gradientTransform="matrix(0.5431031,0,0,0.5431031,21.838956,22.292919)"
       x2="38.210445"
       gradientUnits="userSpaceOnUse"
       xlink:href="#linearGradient3256-358-801-801-464-347-788-882-541-544-970-271-209-89-254-591"
       x1="9.4056292" />
    <linearGradient
       id="linearGradient3256-358-801-801-464-347-788-882-541-544-970-271-209-89-254-591">
      <stop
         offset="0"
         id="stop19352"
         style="stop-color:#cccccc;stop-opacity:1;" />
      <stop
         offset="1"
         id="stop19354"
         style="stop-color:#ffffff;stop-opacity:1;" />
    </linearGradient>
    <linearGradient
       inkscape:collect="always"
       id="linearGradient2542-325-31-119-191-170-452-642-544-956-587-355-816-531-402-832"
       y2="42.53656"
       y1="1.9768898"
       gradientTransform="matrix(0.5431031,0,0,0.5431031,21.846425,22.288067)"
       x2="44.823242"
       gradientUnits="userSpaceOnUse"
       xlink:href="#linearGradient3260-608-836-656-557-52-718-939-986-378-503-596-194-503-249-901"
       x1="3.6788144" />
    <linearGradient
       id="linearGradient3260-608-836-656-557-52-718-939-986-378-503-596-194-503-249-901">
      <stop
         offset="0"
         id="stop19358"
         style="stop-color:#ffffff;stop-opacity:1;" />
      <stop
         offset="1"
         id="stop19360"
         style="stop-color:#ffffff;stop-opacity:0.49484536;" />
    </linearGradient>
    <linearGradient
       inkscape:collect="always"
       id="linearGradient2490-430-973-492-835-811-320-75-879-552-805-851-345-249-818-763"
       y2="14.094857"
       y1="16.143429"
       gradientTransform="translate(1.3752e-2,-8.9331e-3)"
       x2="22.847645"
       gradientUnits="userSpaceOnUse"
       xlink:href="#linearGradient3286-770-554-654-730-592-5-347-271-874-85-493-461-956-205-181"
       x1="8.9551706" />
    <linearGradient
       id="linearGradient3286-770-554-654-730-592-5-347-271-874-85-493-461-956-205-181">
      <stop
         offset="0"
         id="stop19364"
         style="stop-color:#0f7e7d;stop-opacity:1;" />
      <stop
         offset="1"
         id="stop19366"
         style="stop-color:#18b0cf;stop-opacity:1;" />
    </linearGradient>
    <linearGradient
       inkscape:collect="always"
       id="linearGradient2492-872-101-288-824-735-330-777-198-881-515-666-34-954-180-692"
       y2="8.3626423"
       y1="13.802742"
       gradientTransform="translate(1.3752e-2,-8.9331e-3)"
       x2="36.653488"
       gradientUnits="userSpaceOnUse"
       xlink:href="#linearGradient3286-766-839-538-547-918-713-105-87-708-221-930-868-631-999-516"
       x1="26.47209" />
    <linearGradient
       id="linearGradient3286-766-839-538-547-918-713-105-87-708-221-930-868-631-999-516">
      <stop
         offset="0"
         id="stop19370"
         style="stop-color:#0f7e7d;stop-opacity:1;" />
      <stop
         offset="1"
         id="stop19372"
         style="stop-color:#18b0cf;stop-opacity:1;" />
    </linearGradient>
    <linearGradient
       inkscape:collect="always"
       id="linearGradient2537-807-964-446-879-353-436-422-547-764-105-655-331-280-124-138"
       y2="-27.500231"
       y1="-28.402624"
       gradientTransform="matrix(0.5431031,0,0,0.5574244,21.51323,44.601865)"
       x2="20.931284"
       gradientUnits="userSpaceOnUse"
       xlink:href="#linearGradient3260-810-117-567-537-422-488-65-174-785-971-949-326-935-392-272"
       x1="10.59375" />
    <linearGradient
       id="linearGradient3260-810-117-567-537-422-488-65-174-785-971-949-326-935-392-272">
      <stop
         offset="0"
         id="stop19376"
         style="stop-color:#ffffff;stop-opacity:1;" />
      <stop
         offset="1"
         id="stop19378"
         style="stop-color:#ffffff;stop-opacity:0.49484536;" />
    </linearGradient>
    <linearGradient
       inkscape:collect="always"
       id="linearGradient2534-890-254-233-475-626-204-878-411-631-472-488-207-589-199-788"
       y2="-25.09375"
       y1="-34.973816"
       gradientTransform="matrix(0.5431031,0,0,0.5431031,21.838956,44.017043)"
       x2="33.59375"
       gradientUnits="userSpaceOnUse"
       xlink:href="#linearGradient3260-464-221-387-842-529-737-923-917-273-151-410-118-668-140-157"
       x1="28.8144" />
    <linearGradient
       id="linearGradient3260-464-221-387-842-529-737-923-917-273-151-410-118-668-140-157">
      <stop
         offset="0"
         id="stop19382"
         style="stop-color:#ffffff;stop-opacity:1;" />
      <stop
         offset="1"
         id="stop19384"
         style="stop-color:#ffffff;stop-opacity:0.49484536;" />
    </linearGradient>
    <linearGradient
       inkscape:collect="always"
       id="linearGradient2531-977-120-20-684-652-450-610-754-567-261-980-89-246-22-519"
       y2="41.008999"
       y1="38.250172"
       gradientTransform="matrix(0.5431031,0,0,0.5431031,21.838956,22.292919)"
       x2="7.2501259"
       gradientUnits="userSpaceOnUse"
       xlink:href="#linearGradient3193-0-497-178-878-734-595-642-735-632-343-603-449-486-137-3"
       x1="5.0500002" />
    <linearGradient
       id="linearGradient3193-0-497-178-878-734-595-642-735-632-343-603-449-486-137-3">
      <stop
         offset="0"
         id="stop19388"
         style="stop-color:#000000;stop-opacity:0.53608245;" />
      <stop
         offset="1"
         id="stop19390"
         style="stop-color:#000000;stop-opacity:0;" />
    </linearGradient>
    <linearGradient
       inkscape:collect="always"
       id="linearGradient2500-187-294-204-906-103-639-59-560-109-665-115-4-145-849-373"
       y2="12.205784"
       y1="10.064095"
       x2="33.619186"
       gradientUnits="userSpaceOnUse"
       xlink:href="#linearGradient3197-868-404-695-221-961-465-610-151-241-203-969-20-437-585-902"
       x1="9.601" />
    <linearGradient
       inkscape:collect="always"
       id="linearGradient3197-868-404-695-221-961-465-610-151-241-203-969-20-437-585-902">
      <stop
         offset="0"
         id="stop19394"
         style="stop-color:#ffffff;stop-opacity:1;" />
      <stop
         offset="1"
         id="stop19396"
         style="stop-color:#ffffff;stop-opacity:0;" />
    </linearGradient>
    <radialGradient
       inkscape:collect="always"
       id="radialGradient2526-770-178-718-662-242-162-492-978-526-521-531-851-607-193-549"
       r="20.59375"
       gradientTransform="matrix(1.113462e-6,-0.1844999,0.1170478,7.0636891e-7,20.340286,52.969237)"
       cx="50.518444"
       cy="42.818485"
       gradientUnits="userSpaceOnUse"
       xlink:href="#linearGradient3197-233-315-202-10-910-223-160-919-911-296-217-748-84-424-487"
       fy="42.818485"
       fx="50.518444" />
    <linearGradient
       inkscape:collect="always"
       id="linearGradient3197-233-315-202-10-910-223-160-919-911-296-217-748-84-424-487">
      <stop
         offset="0"
         id="stop19400"
         style="stop-color:#ffffff;stop-opacity:1;" />
      <stop
         offset="1"
         id="stop19402"
         style="stop-color:#ffffff;stop-opacity:0;" />
    </linearGradient>
    <radialGradient
       inkscape:collect="always"
       id="radialGradient2523-430-200-829-861-228-137-139-545-857-487-531-312-992-752-822"
       r="20.59375"
       gradientTransform="matrix(8.3114082e-3,-0.4204749,0.1135341,2.2441962e-3,39.119366,64.103455)"
       cx="48.405941"
       cy="53.150963"
       gradientUnits="userSpaceOnUse"
       xlink:href="#linearGradient3197-690-644-844-620-672-926-63-28-598-593-197-937-255-199-2"
       fy="53.150963"
       fx="48.405941" />
    <linearGradient
       inkscape:collect="always"
       id="linearGradient3197-690-644-844-620-672-926-63-28-598-593-197-937-255-199-2">
      <stop
         offset="0"
         id="stop19406"
         style="stop-color:#ffffff;stop-opacity:1;" />
      <stop
         offset="1"
         id="stop19408"
         style="stop-color:#ffffff;stop-opacity:0;" />
    </linearGradient>
    <linearGradient
       inkscape:collect="always"
       id="linearGradient2520-211-146-674-191-446-999-274-45-168-103-902-741-565-31-825"
       y2="17.5"
       y1="1.4865907"
       gradientTransform="matrix(0.5431031,0,0,0.5431031,21.838956,22.292919)"
       x2="36.438164"
       gradientUnits="userSpaceOnUse"
       xlink:href="#linearGradient3260-316-68-828-450-245-577-368-25-285-409-161-652-814-660-762"
       x1="18.767841" />
    <linearGradient
       id="linearGradient3260-316-68-828-450-245-577-368-25-285-409-161-652-814-660-762">
      <stop
         offset="0"
         id="stop19412"
         style="stop-color:#ffffff;stop-opacity:1;" />
      <stop
         offset="1"
         id="stop19414"
         style="stop-color:#ffffff;stop-opacity:0.49484536;" />
    </linearGradient>
    <linearGradient
       inkscape:collect="always"
       id="linearGradient2511-332-789-237-445-896-647-921-827-73-640-199-206-57-548-758"
       y2="41.430237"
       y1="19.81575"
       gradientTransform="matrix(0.5431031,0,0,0.5431031,21.838956,22.292919)"
       x2="38.210445"
       gradientUnits="userSpaceOnUse"
       xlink:href="#linearGradient3260-329-104-630-166-331-897-972-916-533-995-913-621-393-84-142"
       x1="9.4056292" />
    <linearGradient
       id="linearGradient3260-329-104-630-166-331-897-972-916-533-995-913-621-393-84-142">
      <stop
         offset="0"
         id="stop19418"
         style="stop-color:#ffffff;stop-opacity:1;" />
      <stop
         offset="1"
         id="stop19420"
         style="stop-color:#ffffff;stop-opacity:0.49484536;" />
    </linearGradient>
  </defs>
  <metadata
     id="metadata4">
    <rdf:RDF>
      <cc:Work
         rdf:about="">
        <dc:format>image/svg+xml</dc:format>
        <dc:type
           rdf:resource="http://purl.org/dc/dcmitype/StillImage" />
        <dc:title />
        <dc:subject>
          <rdf:Bag />
        </dc:subject>
        <cc:license
           rdf:resource="http://creativecommons.org/licenses/by-nc-sa/2.5/" />
        <dc:creator>
          <cc:Agent>
            <dc:title>Marco Tessarotto</dc:title>
          </cc:Agent>
        </dc:creator>
        <dc:source />
      </cc:Work>
      <cc:License
         rdf:about="http://creativecommons.org/licenses/by-nc-sa/2.5/">
        <cc:permits
           rdf:resource="http://web.resource.org/cc/Reproduction" />
        <cc:permits
           rdf:resource="http://web.resource.org/cc/Distribution" />
        <cc:requires
           rdf:resource="http://web.resource.org/cc/Notice" />
        <cc:requires
           rdf:resource="http://web.resource.org/cc/Attribution" />
        <cc:prohibits
           rdf:resource="http://web.resource.org/cc/CommercialUse" />
        <cc:permits
           rdf:resource="http://web.resource.org/cc/DerivativeWorks" />
        <cc:requires
           rdf:resource="http://web.resource.org/cc/ShareAlike" />
      </cc:License>
    </rdf:RDF>
  </metadata>
  <g
     inkscape:groupmode="layer"
     id="layer6"
     inkscape:label="Shadow" />
  <g
     inkscape:groupmode="layer"
     id="layer5"
     inkscape:label="file"
     style="display:inline">
    <path
       inkscape:r_cx="true"
       id="path23417"
       inkscape:r_cy="true"
       sodipodi:cx="23.334524"
       sodipodi:cy="41.63604"
       transform="matrix(0.7604483,0,0,0.7698256,1.4632369,3.9236952)"
       d="M 45.961941 41.63604 A 22.627417 5.6568542 0 1 1  0.70710754,41.63604 A 22.627417 5.6568542 0 1 1  45.961941 41.63604 z"
       sodipodi:type="arc"
       style="opacity:0.25;color:#000000;fill:url(#radialGradient2444);fill-opacity:1;fill-rule:evenodd;stroke:none;stroke-width:2;stroke-linecap:butt;stroke-linejoin:miter;marker:none;marker-start:none;marker-mid:none;marker-end:none;stroke-miterlimit:4;stroke-dasharray:none;stroke-dashoffset:0;stroke-opacity:1;visibility:visible;display:inline;overflow:visible"
       sodipodi:ry="5.6568542"
       sodipodi:rx="22.627417" />
    <path
       id="path2206"
       d="M 4.7341228,8.0780917 C -1.1434006,16.068375 0.57130356,27.323405 8.5615862,33.200929 C 16.551869,39.078452 27.806902,37.363748 33.684428,29.373466 C 39.561944,21.383183 37.847248,10.128152 29.856964,4.2506295 C 21.866188,-1.6195798 10.609313,0.090981153 4.7341228,8.0780917 z M 13.972675,14.873821 C 16.093959,11.99001 20.176096,11.369693 23.06123,13.489181 C 25.946188,15.611309 26.568,19.69278 24.445873,22.577737 C 22.323743,25.462696 18.242273,26.084506 15.357315,23.962378 C 12.472355,21.840249 11.850546,17.758779 13.972675,14.873821 z "
       style="fill:#a9cee4;fill-opacity:1;stroke:none;stroke-width:0.773;stroke-miterlimit:4;stroke-dasharray:none;stroke-opacity:1" />
    <path
       id="path2214"
       d="M 5.5515365,8.6792602 C 0.0025030415,16.222974 1.6191471,26.834368 9.1628627,32.383404 C 16.706577,37.93244 27.317973,36.315793 32.867011,28.77208 C 38.416047,21.228364 36.799405,10.616969 29.255688,5.0679345 C 21.711504,-0.47419753 11.09837,1.1385371 5.5515365,8.6792602 z M 11.556426,13.096359 C 14.663582,8.8722898 20.612579,7.9682996 24.83858,11.072822 C 29.064332,14.181212 29.970516,20.129234 26.862123,24.35498 C 23.75373,28.580726 17.805709,29.486906 13.579962,26.378517 C 9.3542145,23.270126 8.4480331,17.322105 11.556426,13.096359 z "
       style="opacity:0.72727272;fill:url(#linearGradient3236);fill-opacity:1;stroke:none;stroke-width:0.373;stroke-miterlimit:4;stroke-dasharray:none;stroke-opacity:1" />
    <path
       id="path2222"
       d="M 13.972675,14.873821 C 11.850546,17.758779 12.472355,21.840249 15.357315,23.962378 C 18.242273,26.084506 22.323743,25.462696 24.445873,22.577737 C 26.568,19.69278 25.946188,15.611309 23.06123,13.489181 C 20.176096,11.369693 16.093959,11.99001 13.972675,14.873821 z M 16.314243,16.596242 C 17.492174,14.994886 19.736719,14.653815 21.338809,15.83075 C 22.940801,17.009149 23.282702,19.253324 22.104302,20.855317 C 20.9259,22.457313 18.681727,22.79921 17.079736,21.620809 C 15.477741,20.442406 15.135842,18.198235 16.314243,16.596242 z "
       style="fill:#ffffff;fill-opacity:0.17486339;stroke:#000000;stroke-width:0.56910485;stroke-miterlimit:4;stroke-dasharray:none;stroke-opacity:0.34426228" />
    <path
       id="path3248"
       d="M 4.7341228,8.0780917 C -1.1434006,16.068375 0.57130356,27.323408 8.5615862,33.200927 C 16.551869,39.078452 27.806902,37.363747 33.684428,29.373463 C 39.561944,21.38318 37.847248,10.128152 29.856964,4.2506295 C 21.866186,-1.6195764 10.609313,0.090981153 4.7341228,8.0780917 z M 16.314243,16.596239 C 17.492174,14.994882 19.736719,14.653815 21.338809,15.830746 C 22.940804,17.009149 23.282702,19.253324 22.104302,20.855317 C 20.925904,22.45731 18.681727,22.799211 17.079736,21.620809 C 15.477741,20.442407 15.135842,18.198232 16.314243,16.596239 z "
       style="fill:none;fill-opacity:0.16393445;stroke:#000000;stroke-width:0.5;stroke-miterlimit:4;stroke-dasharray:none;stroke-opacity:1;display:inline" />
    <path
       id="path3285"
       d="M 26.482734,4.1521176 C 18.092109,0.013179548 7.9369075,3.4591678 3.7979675,11.849794 C 1.8978822,15.701726 1.5916016,19.925838 2.6331195,23.768741 C 6.3034902,21.328542 10.32393,19.462578 14.527772,18.232843 C 14.606178,17.916919 14.692091,17.601056 14.841821,17.297519 C 15.969404,15.011629 18.749121,14.068385 21.035009,15.195971 C 21.749269,15.548301 22.326867,16.054369 22.756549,16.663958 C 27.06053,16.269265 31.460149,16.532657 35.79628,17.468227 C 35.170544,11.927246 31.852536,6.8009414 26.482734,4.1521176 z "
       inkscape:transform-center-y="-6.5092152"
       style="opacity:0.37373735;fill:url(#linearGradient3231);fill-opacity:1;stroke:none;stroke-width:0.63999999;stroke-miterlimit:4;stroke-dasharray:none;stroke-opacity:1;display:inline"
       inkscape:transform-center-x="-1.254751" />
    <path
       id="path3403"
       d="M 18.204948,0.78964996 C 13.033677,1.0783967 8.0326124,3.5904062 4.7278185,8.0831558 C -0.51830887,15.215081 0.29276594,24.938054 6.2076605,31.126407 L 16.619404,21.216752 C 15.426177,19.978556 15.248001,18.02552 16.302295,16.592246 C 17.249641,15.304362 18.907341,14.847298 20.345434,15.32381 L 24.917088,1.6881253 C 22.737069,0.95902173 20.449105,0.66434378 18.204948,0.78964996 z M 32.289876,6.4183338 L 21.878127,16.327989 C 23.000667,17.568874 23.147059,19.471477 22.115959,20.873216 C 21.084863,22.274957 19.22173,22.711621 17.702859,22.009523 L 13.10478,35.645208 C 20.399503,38.280038 28.862588,35.945591 33.69044,29.382306 C 38.911389,22.284596 38.127538,12.610705 32.289876,6.4183338 z "
       style="opacity:0.25252524;fill:url(#linearGradient3228);fill-opacity:1;stroke:none;stroke-width:0.63999999;stroke-miterlimit:4;stroke-dasharray:none;stroke-opacity:0.55191255;display:inline" />
    <path
       id="path3643"
       d="M 28.006134,22.267491 C 27.714573,22.988781 27.343794,23.688069 26.86166,24.343513 C 26.171758,25.281409 25.332809,26.055829 24.413018,26.659076 L 28.671525,32.754064 C 30.240652,31.695341 31.690802,30.374036 32.876801,28.761714 C 33.756161,27.566255 34.428437,26.29947 34.952823,24.982289 L 28.006134,22.267491 z M 23.29516,27.297852 C 22.839544,27.513879 22.365331,27.68966 21.88453,27.830166 L 24.146862,34.936549 C 24.979588,34.683311 25.806274,34.359238 26.595503,33.978385 L 23.29516,27.297852 z "
       style="opacity:0.25454544;fill:url(#linearGradient3225);fill-opacity:1;stroke:none;stroke-width:0.373;stroke-miterlimit:4;stroke-dasharray:none;stroke-opacity:1;display:inline" />
    <path
       id="path4985"
       d="M 15.470154,2.1992766 C 12.427031,2.8880469 9.5549912,4.4173126 7.245912,6.7239403 L 12.435967,12.07369 C 13.718073,10.767068 15.313087,9.8944967 17.013862,9.4919699 L 15.470154,2.1992766 z M 6.3409792,7.7087201 C 6.0703228,8.0252148 5.793217,8.3260556 5.5425092,8.6668841 C 5.0270994,9.3675652 4.5778727,10.102271 4.1851101,10.849369 L 10.785796,14.362637 C 11.010308,13.930791 11.260246,13.489395 11.55765,13.085085 C 11.694905,12.898493 11.835549,12.726348 11.983501,12.552772 L 6.3409792,7.7087201 z "
       style="opacity:0.44336572;fill:url(#linearGradient3222);fill-opacity:1;stroke:none;stroke-width:0.373;stroke-miterlimit:4;stroke-dasharray:none;stroke-opacity:1;display:inline" />
    <g
       id="g2255">
      <path
         inkscape:r_cx="true"
         id="path2410"
         inkscape:r_cy="true"
         sodipodi:cx="23.334524"
         sodipodi:cy="41.63604"
         transform="matrix(0.4849139,0,0,0.4908935,23.701361,24.784228)"
         d="M 45.961941 41.63604 A 22.627417 5.6568542 0 1 1  0.70710754,41.63604 A 22.627417 5.6568542 0 1 1  45.961941 41.63604 z"
         sodipodi:type="arc"
         style="opacity:0.25;color:#000000;fill:url(#radialGradient2480-279-716-871-538-348-300-817-171-97-991-128-873-494-502-713);fill-opacity:1;fill-rule:evenodd;stroke:none;stroke-width:2;stroke-linecap:butt;stroke-linejoin:miter;marker:none;marker-start:none;marker-mid:none;marker-end:none;stroke-miterlimit:4;stroke-dasharray:none;stroke-dashoffset:0;stroke-opacity:1;visibility:visible;display:inline;overflow:visible"
         sodipodi:ry="5.6568542"
         sodipodi:rx="22.627417" />
      <path
         id="path3544"
         d="M 24.36778,23.005742 C 23.947322,23.005742 23.604041,23.355805 23.604041,23.769481 L 23.604041,45.137193 C 23.604041,45.550868 23.947322,45.88396 24.36778,45.88396 L 46.278595,45.88396 C 46.593845,45.883959 46.855643,45.634236 46.855643,45.323885 L 46.855643,25.263014 C 45.937893,24.266215 45.456501,23.795514 44.564426,23.005742 L 43.47822,23.005742 C 43.230634,23.182744 43.123329,23.33982 42.867229,23.531873 C 42.570089,23.531873 27.299277,23.531873 27.151183,23.531873 C 27.017574,23.310221 26.942801,23.233316 26.794772,23.005742 L 24.36778,23.005742 z M 44.428651,43.202388 L 45.786408,43.202388 L 45.786408,44.560146 L 44.428651,44.560146 L 44.428651,43.202388 z "
         style="fill:url(#linearGradient2551-417-116-694-703-460-728-420-420-351-238-208-719-117-799-259);fill-opacity:1;stroke:#000000;stroke-width:0.5;stroke-miterlimit:4;stroke-dasharray:none;stroke-opacity:1" />
      <path
         id="path3571"
         d="M 43.044653,22.89109 L 31.813017,22.865804 L 31.793576,32.011242 C 31.793576,32.114755 31.878964,32.198765 31.984174,32.198765 L 42.848211,32.198765 C 42.95342,32.198765 43.038808,32.114755 43.038808,32.011242 L 43.044653,22.89109 z M 40.370448,24.322798 L 40.370448,30.698581 L 37.320894,30.698581 L 37.320894,24.322798 L 40.370448,24.322798 z "
         style="fill:url(#linearGradient2548-737-425-651-92-862-94-890-558-682-149-435-48-631-732-144);fill-opacity:1;stroke:#000000;stroke-width:0.16293094;stroke-miterlimit:4;stroke-dasharray:none;stroke-opacity:1"
         sodipodi:nodetypes="cccccccccccc" />
      <path
         id="path3594"
         d="M 43.419999,44.95033 C 43.419999,45.156793 43.248466,45.325377 43.038806,45.325377 L 27.409842,45.325377 C 27.200185,45.325377 27.028648,45.156793 27.028648,44.95033 L 27.028648,33.511427 C 27.028648,33.305151 27.200185,33.13638 27.409842,33.13638 L 43.038806,33.13638 C 43.248466,33.13638 43.419999,33.305151 43.419999,33.511427 L 43.419999,44.95033 z "
         style="fill:url(#linearGradient2545-605-40-104-405-535-528-877-859-538-96-87-869-981-223-665);fill-opacity:1;stroke:#000000;stroke-width:0.16293094;stroke-miterlimit:4;stroke-dasharray:none;stroke-opacity:1" />
      <path
         id="path3266"
         d="M 24.36778,23.243349 C 24.075687,23.243351 23.841649,23.473294 23.841649,23.752509 L 23.841649,41.607023 C 24.786848,40.887294 25.779559,40.22306 26.811744,39.60433 L 26.811744,33.49442 C 26.811744,33.159534 27.083926,32.883429 27.422735,32.883429 L 43.053921,32.883429 C 43.392728,32.883431 43.664912,33.159536 43.664912,33.49442 L 43.664912,34.801262 C 43.93854,34.794995 44.204294,34.78429 44.479566,34.78429 C 45.196412,34.78429 45.912792,34.810084 46.618035,34.852178 L 46.618035,25.364846 C 45.764495,24.43998 45.309299,23.979783 44.479566,23.243349 L 43.597024,23.243349 C 43.479315,23.330904 43.39235,23.421911 43.291528,23.514901 L 43.291528,32.000887 C 43.291528,32.231948 43.100544,32.425186 42.867229,32.425186 L 33.651448,32.425186 L 33.634476,32.425186 C 33.607433,32.435874 33.578691,32.441622 33.549617,32.442158 L 32.056083,32.425186 L 31.988195,32.425186 L 27.575482,32.37427 C 27.39253,32.377816 27.193658,32.333135 27.032379,32.187579 C 26.8711,32.042023 26.775144,31.828131 26.743856,31.542644 C 26.743065,31.531343 26.743065,31.520001 26.743856,31.5087 L 26.743856,23.345181 C 26.722034,23.313523 26.699073,23.27859 26.675968,23.243349 L 24.36778,23.243349 z M 25.301238,24.465331 L 26.081949,25.56851 L 25.623706,25.56851 L 25.623706,26.281332 L 24.876939,26.26436 L 24.876939,25.56851 L 24.45264,25.56851 L 25.301238,24.465331 z "
         style="opacity:0.467033;fill:url(#linearGradient2542-325-31-119-191-170-452-642-544-956-587-355-816-531-402-832);fill-opacity:1;stroke:none;stroke-width:0.60000002;stroke-miterlimit:4;stroke-dasharray:none;stroke-opacity:1;display:inline" />
      <path
         id="path3270"
         inkscape:radius="-0.18027389"
         transform="matrix(0.5431031,0,0,0.5431031,21.621715,22.564335)"
         inkscape:original="M 9.9375 2.28125 L 10.03125 16.9375 C 10.02671 17.234985 9.928282 17.578769 10.59375 17.625 L 18.34375 17.71875 L 18.375 2.28125 C 14.903314 2.2812499 10.156026 2.28125 9.9375 2.28125 z "
         d="M 10.125,2.46875 L 10.21875,16.9375 C 10.216193,17.105058 10.191883,17.252795 10.21875,17.3125 C 10.232183,17.342353 10.259189,17.347561 10.3125,17.375 C 10.365811,17.402439 10.4431,17.427034 10.59375,17.4375 L 18.15625,17.53125 L 18.1875,2.46875 C 14.818676,2.4687499 10.523407,2.46875 10.125,2.46875 z "
         sodipodi:type="inkscape:offset"
         style="fill:url(#linearGradient2490-430-973-492-835-811-320-75-879-552-805-851-345-249-818-763);fill-opacity:1;stroke:none;stroke-width:0.60000002;stroke-miterlimit:4;stroke-dasharray:none;stroke-opacity:1;display:inline" />
      <path
         id="path3292"
         inkscape:radius="-0.46558473"
         transform="matrix(0.5431031,0,0,0.5431031,21.838956,22.292919)"
         inkscape:original="M 28.53125 3.71875 L 28.53125 15.46875 L 34.15625 15.46875 L 34.15625 3.71875 L 28.53125 3.71875 z "
         d="M 29,4.1875 L 29,15 L 33.6875,15 L 33.6875,4.1875 L 29,4.1875 z "
         sodipodi:type="inkscape:offset"
         style="fill:url(#linearGradient2492-872-101-288-824-735-330-777-198-881-515-666-34-954-180-692);fill-opacity:1;stroke:none;stroke-width:0.60000002;stroke-miterlimit:4;stroke-dasharray:none;stroke-opacity:1;display:inline" />
      <path
         id="path3282"
         d="M 27.269987,23.9392 L 27.303931,28.521633 C 28.55084,28.230731 29.823059,27.988371 31.139597,27.791838 L 31.139597,23.9392 C 29.472512,23.9392 27.67719,23.9392 27.269987,23.9392 z "
         style="opacity:0.40109893;fill:url(#linearGradient2537-807-964-446-879-353-436-422-547-764-105-655-331-280-124-138);fill-opacity:1;stroke:none;stroke-width:0.60000002;stroke-miterlimit:4;stroke-dasharray:none;stroke-opacity:1;display:inline" />
      <path
         id="path3304"
         d="M 37.79261,24.770827 L 37.79261,27.011127 C 38.291405,26.971578 38.79433,26.943239 39.303115,26.943239 C 39.517012,26.943239 39.718871,26.953145 39.931078,26.960211 L 39.931078,24.770827 L 37.79261,24.770827 z "
         style="opacity:0.41818183;fill:url(#linearGradient2534-890-254-233-475-626-204-878-411-631-472-488-207-589-199-788);fill-opacity:1;stroke:none;stroke-width:0.60000002;stroke-miterlimit:4;stroke-dasharray:none;stroke-opacity:1;display:inline" />
      <rect
         id="rect3308"
         x="24.65576"
         y="43.140839"
         width="1.3500606"
         height="1.3500606"
         style="fill:url(#linearGradient2531-977-120-20-684-652-450-610-754-567-261-980-89-246-22-519);fill-opacity:1;stroke:#000000;stroke-width:0.14826715;stroke-miterlimit:4;stroke-dasharray:none;stroke-opacity:1" />
      <path
         id="path3321"
         d="M 26.972024,23.37925 L 26.99731,31.626816 C 26.986671,32.179122 27.270899,32.192266 27.863662,32.169919 L 32.032578,32.195205"
         style="fill:none;fill-rule:evenodd;stroke:#000000;stroke-width:0.16293094;stroke-linecap:butt;stroke-linejoin:miter;stroke-miterlimit:4;stroke-dasharray:none;stroke-opacity:1"
         sodipodi:nodetypes="cccc" />
      <path
         d="M 9.851,2.4311893 L 9.8975584,16.686023 C 9.8779691,17.702968 9.9357253,17.72717 11.492748,17.686023 L 18.237683,17.686023"
         transform="matrix(0.5431031,0,0,0.5431031,21.838956,22.292919)"
         id="path3323"
         style="opacity:0.53939394;fill:none;fill-rule:evenodd;stroke:url(#linearGradient2500-187-294-204-906-103-639-59-560-109-665-115-4-145-849-373);stroke-width:0.5;stroke-linecap:butt;stroke-linejoin:miter;stroke-miterlimit:4;stroke-dasharray:none;stroke-opacity:1;display:inline;filter:url(#filter3193)"
         sodipodi:nodetypes="cccc" />
      <path
         d="M 26.387444,40.385041 C 25.65754,40.839471 24.943357,41.303992 24.265948,41.810687 L 24.265948,43.049641 C 24.301409,42.886416 24.417215,42.755004 24.588415,42.727173 C 24.593751,42.721203 24.599418,42.715537 24.605387,42.710201 C 24.622843,42.70873 24.638813,42.709466 24.656303,42.710201 C 24.662133,42.710446 24.667457,42.709711 24.673275,42.710201 L 26.014061,42.710201 C 26.103748,42.709552 26.218818,42.728266 26.319557,42.829005 C 26.375733,42.885181 26.372816,42.940405 26.387444,42.998725 L 26.387444,40.385041 z M 24.265948,44.577118 L 24.265948,45.137193 C 24.265948,45.186053 24.288842,45.222053 24.36778,45.222053 L 26.43836,45.222053 C 26.410822,45.131749 26.387444,45.033084 26.387444,44.933529 L 26.387444,44.628034 C 26.372815,44.685927 26.375733,44.741577 26.319557,44.797754 C 26.218818,44.898492 26.103748,44.917207 26.014061,44.916558 L 24.656303,44.916558 C 24.566617,44.917207 24.451546,44.898492 24.350808,44.797754 C 24.278157,44.725103 24.275304,44.649903 24.265948,44.577118 z "
         id="path3293"
         style="opacity:0.40659341;fill:url(#radialGradient2526-770-178-718-662-242-162-492-978-526-521-531-851-607-193-549);fill-opacity:1;stroke:none;stroke-width:0.60000002;stroke-miterlimit:4;stroke-opacity:1;display:inline" />
      <path
         d="M 44.479566,35.20859 C 44.35521,35.20859 44.219435,35.220776 44.089211,35.225562 L 44.089211,42.981753 C 44.151453,42.885216 44.240365,42.814633 44.360763,42.795061 C 44.366099,42.789091 44.371765,42.783425 44.377735,42.778089 C 44.395189,42.776619 44.41116,42.777354 44.428651,42.778089 C 44.434481,42.778334 44.439804,42.777599 44.445623,42.778089 L 45.786408,42.778089 C 45.876095,42.77744 45.991165,42.796154 46.091904,42.896893 C 46.176168,42.981157 46.188744,43.070299 46.193736,43.151472 L 46.193736,35.276477 C 45.620844,35.245682 45.053729,35.20859 44.479566,35.20859 z M 46.193736,44.611062 C 46.188742,44.69188 46.176168,44.781378 46.091904,44.865642 C 45.991165,44.966381 45.876095,44.985094 45.786408,44.984445 L 44.428651,44.984445 C 44.338964,44.985094 44.223894,44.966381 44.123155,44.865642 C 44.095067,44.837553 44.105333,44.810285 44.089211,44.780782 L 44.089211,44.933529 C 44.089211,45.033084 44.065833,45.13175 44.038295,45.222053 L 46.193736,45.222053 L 46.193736,44.611062 z "
         id="path3295"
         style="opacity:0.40659341;fill:url(#radialGradient2523-430-200-829-861-228-137-139-545-857-487-531-312-992-752-822);fill-opacity:1;stroke:none;stroke-width:0.60000002;stroke-miterlimit:4;stroke-opacity:1;display:inline" />
      <path
         id="path3233"
         d="M 32.023514,23.049719 L 32.208831,31.797223 L 32.97257,31.797223 C 33.999503,30.069543 35.3334,28.548386 36.910067,27.316623 L 36.910067,24.329556 C 36.907628,24.116556 37.071043,23.938285 37.28345,23.922228 C 37.29476,23.921753 37.306085,23.921753 37.317394,23.922228 L 40.372349,23.922228 C 40.480664,23.921292 40.58428,23.96444 40.660873,24.041032 C 40.737464,24.117625 40.780613,24.221241 40.779677,24.329556 L 40.779677,25.093294 C 41.378059,24.851381 41.998095,24.651723 42.629622,24.482303 L 42.629622,23.294265 L 32.023514,23.049719 z "
         style="opacity:0.56666667;fill:url(#linearGradient2520-211-146-674-191-446-999-274-45-168-103-902-741-565-31-825);fill-opacity:1;stroke:none;stroke-width:0.30000001;stroke-miterlimit:4;stroke-dasharray:none;stroke-opacity:1;display:inline"
         sodipodi:nodetypes="cccccsccsccccc" />
      <path
         id="path3262"
         d="M 28.520316,35.837895 L 41.859665,35.938802"
         style="opacity:0.44242422;fill:none;fill-rule:evenodd;stroke:#000000;stroke-width:0.28314015;stroke-linecap:butt;stroke-linejoin:miter;stroke-miterlimit:4;stroke-dasharray:none;stroke-opacity:1" />
      <path
         id="path3264"
         d="M 28.520316,40.715082 L 41.859665,40.81599"
         style="opacity:0.44242422;fill:none;fill-rule:evenodd;stroke:#000000;stroke-width:0.28314015;stroke-linecap:butt;stroke-linejoin:miter;stroke-miterlimit:4;stroke-dasharray:none;stroke-opacity:1;display:inline" />
      <path
         id="path3269"
         d="M 28.520316,38.276488 L 41.859665,38.377396"
         style="opacity:0.44242422;fill:none;fill-rule:evenodd;stroke:#000000;stroke-width:0.28314015;stroke-linecap:butt;stroke-linejoin:miter;stroke-miterlimit:4;stroke-dasharray:none;stroke-opacity:1;display:inline" />
      <path
         id="path3271"
         d="M 27.022596,44.796535 L 26.99731,45.886023"
         style="opacity:0.66666667;fill:none;fill-rule:evenodd;stroke:#000000;stroke-width:0.16293094;stroke-linecap:butt;stroke-linejoin:miter;stroke-miterlimit:4;stroke-dasharray:none;stroke-opacity:1"
         sodipodi:nodetypes="cc" />
      <path
         id="path3273"
         d="M 43.427065,44.750209 L 43.401778,45.839697"
         style="opacity:0.66666667;fill:none;fill-rule:evenodd;stroke:#000000;stroke-width:0.16293094;stroke-linecap:butt;stroke-linejoin:miter;stroke-miterlimit:4;stroke-dasharray:none;stroke-opacity:1;display:inline"
         sodipodi:nodetypes="cc" />
      <path
         id="path2231"
         d="M 24.873282,25.576824 L 24.873282,26.258453 L 25.631863,26.283739 L 25.631863,25.576824 L 26.078962,25.576824 L 25.296188,24.465331 L 24.449653,25.576824 L 24.873282,25.576824 z "
         style="opacity:0.61212122;fill:none;fill-rule:evenodd;stroke:#000000;stroke-width:0.10862062;stroke-linecap:butt;stroke-linejoin:miter;stroke-miterlimit:4;stroke-dasharray:none;stroke-opacity:1"
         sodipodi:nodetypes="cccccccc" />
      <path
         id="path3206"
         d="M 27.405763,33.443505 C 27.357341,33.443505 27.337875,33.465679 27.337875,33.511392 L 27.337875,44.950501 C 27.337875,44.996548 27.35716,45.018389 27.405763,45.018389 L 28.407109,45.018389 C 31.170678,39.462683 36.661069,35.489706 43.121809,34.86915 L 43.121809,33.511392 C 43.121809,33.482321 43.085372,33.443505 43.036949,33.443505 L 27.405763,33.443505 z "
         style="opacity:0.6454545;fill:url(#linearGradient2511-332-789-237-445-896-647-921-827-73-640-199-206-57-548-758);fill-opacity:1;stroke:none;stroke-width:0.30000001;stroke-miterlimit:4;stroke-dasharray:none;stroke-opacity:1;display:inline" />
    </g>
  </g>
</svg>
