<?xml version="1.0" encoding="UTF-8" standalone="no"?>
<!-- Created with Inkscape (http://www.inkscape.org/) -->
<svg
   xmlns:dc="http://purl.org/dc/elements/1.1/"
   xmlns:cc="http://creativecommons.org/ns#"
   xmlns:rdf="http://www.w3.org/1999/02/22-rdf-syntax-ns#"
   xmlns:svg="http://www.w3.org/2000/svg"
   xmlns="http://www.w3.org/2000/svg"
   xmlns:xlink="http://www.w3.org/1999/xlink"
   xmlns:sodipodi="http://sodipodi.sourceforge.net/DTD/sodipodi-0.dtd"
   xmlns:inkscape="http://www.inkscape.org/namespaces/inkscape"
   width="48px"
   height="48px"
   id="svg57"
   sodipodi:version="0.32"
   inkscape:version="0.46"
   sodipodi:docbase="/home/marco/Scrivania/UltimateGnome/scalable/apps"
   sodipodi:docname="gnome-system-config.svg"
   inkscape:output_extension="org.inkscape.output.svg.inkscape">
  <defs
     id="defs3">
    <linearGradient
       id="linearGradient3187">
      <stop
         style="stop-color:#000000;stop-opacity:1;"
         offset="0"
         id="stop3189" />
      <stop
         style="stop-color:#ffffff;stop-opacity:0;"
         offset="1"
         id="stop3191" />
    </linearGradient>
    <linearGradient
       id="linearGradient259">
      <stop
         style="stop-color:#ffffff;stop-opacity:1;"
         offset="0"
         id="stop260" />
      <stop
         style="stop-color:#e8e3dd;stop-opacity:1;"
         offset="1"
         id="stop261" />
    </linearGradient>
    <linearGradient
       id="linearGradient269">
      <stop
         style="stop-color:#ffffff;stop-opacity:1;"
         offset="0"
         id="stop270" />
      <stop
         style="stop-color:#ffffff;stop-opacity:0;"
         offset="1"
         id="stop271" />
    </linearGradient>
    <linearGradient
       id="linearGradient3207">
      <stop
         id="stop3209"
         offset="0"
         style="stop-color:#ffca32;stop-opacity:1;" />
      <stop
         style="stop-color:#fd3e00;stop-opacity:1;"
         offset="1"
         id="stop3211" />
    </linearGradient>
    <linearGradient
       id="linearGradient3665">
      <stop
         id="stop3667"
         offset="0"
         style="stop-color:#d4dfe1;stop-opacity:1;" />
      <stop
         id="stop3669"
         offset="1"
         style="stop-color:#939ea3;stop-opacity:1;" />
    </linearGradient>
    <linearGradient
       id="linearGradient3617">
      <stop
         style="stop-color:#ffffff;stop-opacity:1;"
         offset="0"
         id="stop3619" />
      <stop
         style="stop-color:#ffffff;stop-opacity:0;"
         offset="1"
         id="stop3621" />
    </linearGradient>
    <radialGradient
       inkscape:collect="always"
       xlink:href="#linearGradient3187"
       id="radialGradient2439"
       gradientUnits="userSpaceOnUse"
       gradientTransform="matrix(1,0,0,0.1821842,0,36.597257)"
       cx="25.375"
       cy="44.75"
       fx="25.375"
       fy="44.75"
       r="15.896" />
    <radialGradient
       inkscape:collect="always"
       xlink:href="#linearGradient3187"
       id="radialGradient2513"
       gradientUnits="userSpaceOnUse"
       gradientTransform="matrix(1,0,0,0.1821842,0,36.597257)"
       cx="25.375"
       cy="44.75"
       fx="22.719242"
       fy="44.75"
       r="15.896" />
    <radialGradient
       inkscape:collect="always"
       xlink:href="#linearGradient269"
       id="radialGradient3654"
       gradientUnits="userSpaceOnUse"
       gradientTransform="matrix(-3.8762479e-2,1.8054742,-2.5462085,-3.1458424e-2,37.394498,1.8392392)"
       cx="12.133117"
       cy="7.4347868"
       fx="12.133117"
       fy="7.4347868"
       r="15.5" />
    <radialGradient
       inkscape:collect="always"
       xlink:href="#linearGradient3207"
       id="radialGradient3661"
       gradientUnits="userSpaceOnUse"
       gradientTransform="matrix(-2.1875349e-3,-1.3784018,1.4732247,-5.0095118e-3,18.912647,86.854524)"
       cx="42.111099"
       cy="17.909124"
       fx="42.111099"
       fy="17.909124"
       r="19.849932" />
    <radialGradient
       inkscape:collect="always"
       xlink:href="#linearGradient259"
       id="radialGradient3664"
       gradientUnits="userSpaceOnUse"
       gradientTransform="matrix(-3.8633474e-2,1.8055255,-2.5377344,-3.1459318e-2,37.829516,2.082951)"
       cx="27.651968"
       cy="-3.1861894"
       fx="27.651968"
       fy="-3.1861894"
       r="15.5" />
    <linearGradient
       inkscape:collect="always"
       xlink:href="#linearGradient3617"
       id="linearGradient3667"
       gradientUnits="userSpaceOnUse"
       gradientTransform="matrix(-0.975086,-0.1321639,0.1321639,-0.975086,-137.04851,-67.381059)"
       x1="-152.91451"
       y1="-54"
       x2="-182.58549"
       y2="-85" />
    <linearGradient
       inkscape:collect="always"
       xlink:href="#linearGradient3617"
       id="linearGradient3670"
       gradientUnits="userSpaceOnUse"
       gradientTransform="matrix(-0.9750859,-0.1321639,0.1321639,-0.9750859,-137.04852,-67.381065)"
       x1="-152.91451"
       y1="-54"
       x2="-182.58549"
       y2="-85" />
    <linearGradient
       inkscape:collect="always"
       xlink:href="#linearGradient3665"
       id="linearGradient3675"
       gradientUnits="userSpaceOnUse"
       gradientTransform="matrix(-0.975086,-0.1321639,0.1321639,-0.975086,-137.04854,-67.381071)"
       x1="-183.02715"
       y1="-86.902374"
       x2="-152.43022"
       y2="-59.80838" />
  </defs>
  <sodipodi:namedview
     showborder="true"
     id="base"
     pagecolor="#ffffff"
     bordercolor="#666666"
     borderopacity="1.0"
     inkscape:pageopacity="0.0"
     inkscape:pageshadow="2"
     inkscape:zoom="11.313708"
     inkscape:cx="19.569069"
     inkscape:cy="17.768885"
     inkscape:current-layer="g3091"
     showgrid="true"
     inkscape:grid-bbox="false"
     inkscape:document-units="px"
     inkscape:window-width="1272"
     inkscape:window-height="918"
     inkscape:window-x="0"
     inkscape:window-y="25"
     inkscape:showpageshadow="false"
     inkscape:object-nodes="true"
     inkscape:object-points="false"
     inkscape:object-bbox="false"
     inkscape:guide-bbox="false"
     inkscape:grid-points="false"
     fill="#2e3436"
     objecttolerance="50"
     gridtolerance="50"
     guidetolerance="50"
     inkscape:guide-points="false"
     inkscape:object-paths="false">
    <inkscape:grid
       id="GridFromPre046Settings"
       type="xygrid"
       originx="0px"
       originy="0px"
       spacingx="1px"
       spacingy="1px"
       color="#0000ff"
       empcolor="#0000ff"
       opacity="0.2"
       empopacity="0.4"
       empspacing="4" />
  </sodipodi:namedview>
  <metadata
     id="metadata4">
    <rdf:RDF>
      <cc:Work
         rdf:about="">
        <dc:format>image/svg+xml</dc:format>
        <dc:type
           rdf:resource="http://purl.org/dc/dcmitype/StillImage" />
        <dc:title />
        <dc:date />
        <dc:creator>
          <cc:Agent>
            <dc:title>Marco Tessarotto</dc:title>
          </cc:Agent>
        </dc:creator>
        <dc:subject>
          <rdf:Bag />
        </dc:subject>
        <dc:publisher>
          <cc:Agent>
            <dc:title />
          </cc:Agent>
        </dc:publisher>
        <cc:license
           rdf:resource="http://creativecommons.org/licenses/by-nc-sa/2.5/" />
        <dc:contributor>
          <cc:Agent>
            <dc:title />
          </cc:Agent>
        </dc:contributor>
      </cc:Work>
      <cc:License
         rdf:about="http://creativecommons.org/licenses/by-nc-sa/2.5/">
        <cc:permits
           rdf:resource="http://web.resource.org/cc/Reproduction" />
        <cc:permits
           rdf:resource="http://web.resource.org/cc/Distribution" />
        <cc:requires
           rdf:resource="http://web.resource.org/cc/Notice" />
        <cc:requires
           rdf:resource="http://web.resource.org/cc/Attribution" />
        <cc:prohibits
           rdf:resource="http://web.resource.org/cc/CommercialUse" />
        <cc:permits
           rdf:resource="http://web.resource.org/cc/DerivativeWorks" />
        <cc:requires
           rdf:resource="http://web.resource.org/cc/ShareAlike" />
      </cc:License>
    </rdf:RDF>
  </metadata>
  <g
     inkscape:groupmode="layer"
     id="layer2"
     inkscape:label="shadow"
     style="display:inline" />
  <g
     id="layer1"
     inkscape:label="Layer 1"
     inkscape:groupmode="layer">
    <g
       id="g3783"
       transform="matrix(2.7092713,0,0,2.6264441,-33.116996,-39.665799)">
      <g
         style="display:inline"
         inkscape:label="shadow"
         id="g3785" />
      <g
         inkscape:label="Layer 1"
         id="g3787" />
    </g>
    <g
       id="g3341"
       transform="translate(0,-2)" />
    <g
       id="g3091"
       transform="matrix(0.8693749,0,0,0.8693749,4.6293983,-2.4198854)">
      <path
         transform="matrix(1.2647073,0,0,1.6718362,-15.388594,-28.284416)"
         sodipodi:open="true"
         sodipodi:end="6.2825619"
         sodipodi:start="0"
         d="M 40.75,44.75 A 15.375,2.375 0 1 1 40.749997,44.748519"
         sodipodi:ry="2.375"
         sodipodi:rx="15.375"
         sodipodi:cy="44.75"
         sodipodi:cx="25.375"
         id="path2205"
         style="opacity:0.41919191;fill:url(#radialGradient2513);fill-opacity:1;stroke:#000000;stroke-width:1.04200006;stroke-linecap:round;stroke-linejoin:round;stroke-miterlimit:4;stroke-dasharray:none;stroke-opacity:0"
         sodipodi:type="arc" />
      <path
         sodipodi:type="arc"
         style="opacity:0.41919191;fill:url(#radialGradient2439);fill-opacity:1;stroke:#000000;stroke-width:1.04200006;stroke-linecap:round;stroke-linejoin:round;stroke-miterlimit:4;stroke-dasharray:none;stroke-opacity:0"
         id="path2343"
         sodipodi:cx="25.375"
         sodipodi:cy="44.75"
         sodipodi:rx="15.375"
         sodipodi:ry="2.375"
         d="M 40.75,44.75 A 15.375,2.375 0 1 1 40.749997,44.748519"
         sodipodi:start="0"
         sodipodi:end="6.2825619"
         sodipodi:open="true"
         transform="matrix(1.1378534,0,0,1.504146,2.1994475,-14.69863)" />
      <path
         style="color:#000000;fill:url(#linearGradient3675);fill-opacity:1;fill-rule:nonzero;stroke:#000000;stroke-width:0;stroke-linecap:round;stroke-linejoin:round;marker:none;marker-start:none;marker-mid:none;marker-end:none;stroke-miterlimit:4;stroke-dasharray:none;stroke-dashoffset:0;stroke-opacity:1;visibility:visible;display:inline;overflow:visible;enable-background:accumulate"
         d="M 14.387962,46.225268 C 15.25611,46.342946 16.093534,46.40216 16.948231,46.41461 L 18.318879,40.955492 C 20.378441,40.820589 22.33772,40.3042 24.137379,39.442026 L 28.033608,43.502128 C 29.539113,42.621385 30.933246,41.56004 32.182974,40.343319 L 29.306504,35.506899 C 30.616634,34.001679 31.666896,32.254751 32.345164,30.305399 L 37.941207,30.433177 C 38.156734,29.606001 38.353512,28.78725 38.471184,27.91908 C 38.588877,27.050907 38.621302,26.178345 38.633756,25.323648 L 33.205605,23.957197 C 33.070719,21.897627 32.523348,19.934155 31.661172,18.134501 L 35.721275,14.238271 C 34.840536,12.732786 33.779184,11.33863 32.562465,10.088905 L 27.726046,12.965375 C 26.220834,11.65526 24.469704,10.635955 22.520349,9.9576825 L 22.648126,4.3616389 C 21.820933,4.1461305 21.002196,3.9493337 20.134029,3.8316615 C 19.26584,3.7139895 18.393293,3.6815402 17.538598,3.6690889 L 16.172146,9.0972414 C 14.112563,9.2321404 12.153304,9.7485327 10.353647,10.610707 L 6.488384,6.554802 C 4.9828789,7.435557 3.5577795,8.4926926 2.3080515,9.7094143 L 5.2154892,14.55003 C 3.9053571,16.05525 2.8550971,17.802178 2.1768285,19.75153 L -3.4192149,19.623753 C -3.6347405,20.450917 -3.835717,21.300647 -3.9533895,22.168817 C -4.0694279,23.028824 -4.1299517,23.88232 -4.1427317,24.729085 L 1.3163877,26.099733 C 1.4523044,28.158434 1.9983047,30.123811 2.8608196,31.922429 L -1.2654132,35.841232 C -0.38558814,37.345252 0.74433807,38.719253 1.959527,39.968024 L 6.7649799,37.087357 C 8.2699148,38.396583 10.022004,39.417229 11.970676,40.09505 L 11.838702,45.722061 C 12.665544,45.937443 13.520137,46.107642 14.387962,46.225268 z M 16.012308,34.241101 C 10.937753,33.553291 7.3770989,28.87234 8.0617456,23.797359 C 8.7498271,18.720789 13.428918,15.158714 18.505487,15.846797 C 23.582055,16.534878 27.144132,21.213969 26.456049,26.290538 C 25.767967,31.367107 21.088877,34.929184 16.012308,34.241101 z "
         id="path4450" />
      <path
         sodipodi:type="arc"
         style="opacity:0.41423944;color:#000000;fill:none;fill-opacity:1;fill-rule:nonzero;stroke:#000000;stroke-width:0.38011466;stroke-linecap:round;stroke-linejoin:round;marker:none;marker-start:none;marker-mid:none;marker-end:none;stroke-miterlimit:4;stroke-dasharray:none;stroke-dashoffset:0;stroke-opacity:1;visibility:visible;display:inline;overflow:visible;enable-background:accumulate"
         id="path4316"
         sodipodi:cx="24"
         sodipodi:cy="20"
         sodipodi:rx="12"
         sodipodi:ry="12"
         d="M 36,20 A 12,12 0 1 1 35.999998,19.992519"
         transform="matrix(-0.8347369,-1.0259305,1.0302174,-0.8287464,16.679457,66.225932)"
         sodipodi:start="0"
         sodipodi:end="6.2825619"
         sodipodi:open="true" />
      <path
         style="color:#000000;fill:none;fill-opacity:1;fill-rule:nonzero;stroke:#000000;stroke-width:0.57512587;stroke-linecap:round;stroke-linejoin:round;marker:none;marker-start:none;marker-mid:none;marker-end:none;stroke-miterlimit:4;stroke-dasharray:none;stroke-dashoffset:0;stroke-opacity:1;visibility:visible;display:inline;overflow:visible;enable-background:accumulate"
         d="M 14.387962,46.225268 C 15.256109,46.342946 16.093534,46.402159 16.948231,46.41461 L 18.318879,40.955492 C 20.378442,40.820588 22.33772,40.3042 24.137379,39.442025 L 28.033608,43.502128 C 29.539113,42.621385 30.933246,41.560039 32.182974,40.343318 L 29.306504,35.506899 C 30.616633,34.001679 31.666896,32.254751 32.345164,30.305399 L 37.941207,30.433177 C 38.156734,29.606 38.353512,28.787249 38.471184,27.919079 C 38.588878,27.050906 38.621303,26.178343 38.633756,25.323648 L 33.205605,23.957196 C 33.070719,21.897627 32.523349,19.934154 31.661173,18.134499 L 35.721275,14.238271 C 34.840536,12.732785 33.779184,11.338629 32.562465,10.088905 L 27.726045,12.965376 C 26.220833,11.655259 24.469703,10.635954 22.520348,9.9576817 L 22.648126,4.3616384 C 21.820934,4.1461297 21.002196,3.9493332 20.134029,3.8316612 C 19.265841,3.7139888 18.393293,3.6815393 17.538597,3.6690885 L 16.172146,9.0972408 C 14.112563,9.23214 12.153304,9.7485327 10.353647,10.610706 L 6.488384,6.5548016 C 4.982879,7.4355566 3.557779,8.4926926 2.308052,9.7094134 L 5.215489,14.550029 C 3.905357,16.055249 2.855097,17.802177 2.176829,19.75153 L -3.419214,19.623753 C -3.63474,20.450917 -3.835717,21.300646 -3.953389,22.168816 C -4.069428,23.028824 -4.129952,23.882319 -4.142732,24.729084 L 1.316388,26.099732 C 1.452305,28.158434 1.998304,30.123811 2.86082,31.922429 L -1.265413,35.841231 C -0.385588,37.345251 0.744338,38.719253 1.959527,39.968024 L 6.764979,37.087356 C 8.269915,38.396583 10.022004,39.417228 11.970676,40.095049 L 11.838702,45.722061 C 12.665544,45.937443 13.520137,46.107642 14.387962,46.225268 z M 16.012308,34.2411 C 10.937753,33.553291 7.3771,28.872339 8.061745,23.797358 C 8.749827,18.720789 13.428918,15.158714 18.505487,15.846797 C 23.582056,16.534878 27.144133,21.213968 26.45605,26.290538 C 25.767967,31.367106 21.088877,34.929183 16.012308,34.2411 z "
         id="path3170" />
      <path
         style="color:#000000;fill:url(#linearGradient3670);fill-opacity:1;fill-rule:nonzero;stroke:none;stroke-width:0.7922951;stroke-linecap:round;stroke-linejoin:round;marker:none;marker-start:none;marker-mid:none;marker-end:none;stroke-miterlimit:4;stroke-dasharray:none;stroke-dashoffset:0;stroke-opacity:1;visibility:visible;display:inline;overflow:visible;enable-background:accumulate"
         d="M 18.294585,4.7032745 L 17.419585,8.2345241 C 18.862903,8.2480333 20.24113,8.4719991 21.575834,8.8282741 L 21.638334,5.1407744 C 21.095699,5.0066247 20.554514,4.8703762 20.013334,4.7970245 C 19.462822,4.7224095 18.869053,4.7243656 18.294585,4.7032745 z M 6.3883351,7.8595236 C 5.4063152,8.4830714 4.4701832,9.176091 3.6070853,9.9532739 L 5.4508351,13.078274 C 6.4791051,12.060802 7.6262792,11.210908 8.8883351,10.484524 L 6.3883351,7.8595236 z M 32.325834,11.390774 L 29.169584,13.234523 C 29.595324,13.665625 29.974672,14.135043 30.357084,14.609523 C 31.604873,14.253467 32.86639,13.942794 34.169584,13.734524 C 33.613312,12.907159 32.999852,12.134549 32.325834,11.390774 z M -2.6116645,20.640773 C -2.7465568,21.193554 -2.9126913,21.751261 -2.9866645,22.297023 C -3.0617353,22.853403 -3.0827813,23.404667 -3.1116645,23.953274 L 0.45083536,24.859523 C 0.46412167,23.414613 0.68776984,22.039339 1.0445854,20.703274 L -2.6116645,20.640773 z M 2.7008353,33.390773 L 0.044585425,35.922023 C 0.67024463,36.883236 1.4047775,37.807848 2.2008353,38.672023 L 5.2945852,36.797023 C 4.2897812,35.776377 3.4200242,34.640327 2.7008353,33.390773 z "
         id="path3178" />
      <path
         style="color:#000000;fill:url(#linearGradient3667);fill-opacity:1;fill-rule:nonzero;stroke:none;stroke-width:0.68880147;stroke-linecap:round;stroke-linejoin:round;marker:none;marker-start:none;marker-mid:none;marker-end:none;stroke-miterlimit:4;stroke-dasharray:none;stroke-dashoffset:0;stroke-opacity:1;visibility:visible;display:inline;overflow:visible;enable-background:accumulate"
         d="M 17.388336,10.578274 C 14.129921,10.54408 10.83768,11.60043 8.1070857,13.797024 C 1.8722621,18.818963 0.8969239,27.89803 5.9508357,34.109524 C 6.5732617,34.874516 7.2488687,35.56758 7.9820857,36.172024 C 8.4260307,34.804163 8.9643927,33.485587 9.5758357,32.203274 C 7.8157287,30.322653 6.7320857,27.79282 6.7320857,25.015774 C 6.7320857,19.209721 11.457282,14.515774 17.263336,14.515774 C 19.893347,14.515774 22.29352,15.480849 24.138336,17.078274 C 25.375894,16.433089 26.663844,15.84701 27.982086,15.359524 C 25.169545,12.271431 21.321795,10.619553 17.388336,10.578274 z "
         id="path3214" />
      <path
         style="fill:url(#radialGradient3664);fill-opacity:1;fill-rule:evenodd;stroke:#000000;stroke-width:0.69015105;stroke-linecap:butt;stroke-linejoin:round;stroke-miterlimit:4;stroke-dasharray:none;stroke-opacity:0.81420767"
         d="M 15.501882,21.579089 L 15.501882,52.786734 L 46.252283,52.786734 L 46.252283,21.579089 L 15.501882,21.579089 z "
         id="path2201" />
      <rect
         style="opacity:0.7474747;color:#000000;fill:url(#radialGradient3661);fill-opacity:1;fill-rule:nonzero;stroke:#000000;stroke-width:0.55847657;stroke-linecap:butt;stroke-linejoin:miter;marker:none;marker-start:none;marker-mid:none;marker-end:none;stroke-miterlimit:4;stroke-dasharray:none;stroke-dashoffset:0;stroke-opacity:0.68852461;visibility:visible;display:inline;overflow:visible;enable-background:accumulate"
         id="rect2443"
         width="30.493725"
         height="8.2780809"
         x="15.63022"
         y="21.583702" />
      <path
         style="fill:none;fill-rule:evenodd;stroke:#000000;stroke-width:0.41256848;stroke-linecap:butt;stroke-linejoin:miter;stroke-miterlimit:4;stroke-dasharray:none;stroke-opacity:0.47033895"
         d="M 40.25263,29.757243 L 40.25263,52.813327"
         id="path2235" />
      <path
         id="path3226"
         style="fill:none;fill-rule:evenodd;stroke:#000000;stroke-width:0.41256848;stroke-linecap:butt;stroke-linejoin:miter;stroke-miterlimit:4;stroke-opacity:0.47033895"
         d="M 15.384491,46.842361 L 46.127173,46.911496 M 15.596617,41.13972 L 46.127173,41.208855 M 15.596617,35.43708 L 46.127173,35.506215"
         sodipodi:nodetypes="cccccc" />
      <path
         id="path3270"
         style="fill:none;fill-rule:evenodd;stroke:#000000;stroke-width:0.75576848px;stroke-linecap:round;stroke-linejoin:round;stroke-opacity:1"
         d="M 42.06377,43.873716 L 42.874902,45.108388 L 44.837949,43.059448"
         sodipodi:nodetypes="ccc" />
      <path
         id="path3275"
         style="fill:none;fill-rule:evenodd;stroke:#000000;stroke-width:0.71850967px;stroke-linecap:round;stroke-linejoin:round;stroke-opacity:1;display:inline"
         d="M 42.132152,49.526698 L 42.903297,50.700502 L 44.769567,48.752572"
         sodipodi:nodetypes="ccc" />
      <path
         style="opacity:0.49494946;fill:url(#radialGradient3654);fill-opacity:1;fill-rule:evenodd;stroke:#000000;stroke-width:0.53744525;stroke-linecap:butt;stroke-linejoin:round;stroke-miterlimit:4;stroke-dasharray:none;stroke-opacity:0;display:inline"
         d="M 17.036324,50.990997 C 16.676818,47.058399 20.320747,27.905052 44.816805,24.703926 C 44.816805,21.368277 44.900836,25.895778 44.900836,22.560128 C 35.987721,22.560128 25.404028,22.560128 16.490914,22.560128 C 16.490914,31.922155 17.036324,41.62897 17.036324,50.990997 z "
         id="path3201"
         sodipodi:nodetypes="ccccc" />
    </g>
  </g>
</svg>
