<?xml version="1.0" encoding="UTF-8" standalone="no"?>
<!-- Created with Inkscape (http://www.inkscape.org/) -->
<svg
   xmlns:dc="http://purl.org/dc/elements/1.1/"
   xmlns:cc="http://creativecommons.org/ns#"
   xmlns:rdf="http://www.w3.org/1999/02/22-rdf-syntax-ns#"
   xmlns:svg="http://www.w3.org/2000/svg"
   xmlns="http://www.w3.org/2000/svg"
   xmlns:xlink="http://www.w3.org/1999/xlink"
   xmlns:sodipodi="http://sodipodi.sourceforge.net/DTD/sodipodi-0.dtd"
   xmlns:inkscape="http://www.inkscape.org/namespaces/inkscape"
   inkscape:export-ydpi="240.00000"
   inkscape:export-xdpi="240.00000"
   inkscape:export-filename="/home/jimmac/gfx/novell/pdes/trunk/docs/BIGmime-text.png"
   sodipodi:docname="software-properties.svg"
   sodipodi:docbase="/home/marco/Scrivania/UltimateGnome/scalable/apps"
   inkscape:version="0.46"
   sodipodi:version="0.32"
   id="svg249"
   height="48.000000px"
   width="48.000000px"
   inkscape:output_extension="org.inkscape.output.svg.inkscape">
  <sodipodi:namedview
     inkscape:window-y="25"
     inkscape:window-x="0"
     inkscape:window-height="947"
     inkscape:window-width="1272"
     inkscape:document-units="px"
     inkscape:grid-bbox="true"
     showgrid="true"
     inkscape:current-layer="layer5"
     inkscape:cy="23.175166"
     inkscape:cx="46.929085"
     inkscape:zoom="8"
     inkscape:pageshadow="2"
     inkscape:pageopacity="0.0"
     borderopacity="1"
     bordercolor="#666"
     pagecolor="#ffffff"
     id="base"
     inkscape:showpageshadow="false"
     showguides="true"
     inkscape:guide-bbox="true" />
  <defs
     id="defs3">
    <radialGradient
       inkscape:collect="always"
       id="radialGradient3489-375-959-575"
       r="22.627417"
       gradientTransform="matrix(1,0,0,0.25,0,31.22703)"
       cx="23.334524"
       cy="41.63604"
       gradientUnits="userSpaceOnUse"
       xlink:href="#linearGradient23419-344-467-410"
       fy="41.63604"
       fx="23.334524" />
    <linearGradient
       inkscape:collect="always"
       id="linearGradient23419-344-467-410">
      <stop
         offset="0"
         id="stop5102"
         style="stop-color:#0d0d0d;stop-opacity:1;" />
      <stop
         offset="1"
         id="stop5104"
         style="stop-color:#0d0d0d;stop-opacity:0;" />
    </linearGradient>
    <linearGradient
       id="linearGradient3200-423-229-602"
       x1="12.2744"
       x2="35.391201"
       y1="32.4165"
       gradientUnits="userSpaceOnUse"
       y2="14.2033">
      <stop
         offset="0"
         id="stop5108"
         style="stop-color:#ffffff;stop-opacity:1;" />
      <stop
         offset="0.5"
         id="stop5110"
         style="stop-color:#727272;stop-opacity:1;" />
      <stop
         offset="1"
         id="stop5112"
         style="stop-color:#c0c0c0;stop-opacity:1;" />
    </linearGradient>
    <linearGradient
       inkscape:collect="always"
       id="linearGradient3290-433-54-721">
      <stop
         offset="0"
         id="stop5116"
         style="stop-color:#ffffff;stop-opacity:1;" />
      <stop
         offset="1"
         id="stop5118"
         style="stop-color:#ffffff;stop-opacity:0;" />
    </linearGradient>
    <linearGradient
       inkscape:collect="always"
       id="linearGradient3426-179-601-178">
      <stop
         offset="0"
         id="stop5122"
         style="stop-color:#ffffff;stop-opacity:1;" />
      <stop
         offset="1"
         id="stop5124"
         style="stop-color:#ffffff;stop-opacity:0;" />
    </linearGradient>
    <linearGradient
       id="linearGradient259">
      <stop
         style="stop-color:#ffffff;stop-opacity:1;"
         offset="0"
         id="stop260" />
      <stop
         style="stop-color:#e8e3dd;stop-opacity:1;"
         offset="1"
         id="stop261" />
    </linearGradient>
    <linearGradient
       id="linearGradient269">
      <stop
         style="stop-color:#ffffff;stop-opacity:1;"
         offset="0"
         id="stop270" />
      <stop
         style="stop-color:#ffffff;stop-opacity:0;"
         offset="1"
         id="stop271" />
    </linearGradient>
    <linearGradient
       id="linearGradient3187">
      <stop
         style="stop-color:#000000;stop-opacity:1;"
         offset="0"
         id="stop3189" />
      <stop
         style="stop-color:#ffffff;stop-opacity:0;"
         offset="1"
         id="stop3191" />
    </linearGradient>
    <linearGradient
       id="linearGradient3207">
      <stop
         id="stop3209"
         offset="0"
         style="stop-color:#ffca32;stop-opacity:1;" />
      <stop
         style="stop-color:#fd3e00;stop-opacity:1;"
         offset="1"
         id="stop3211" />
    </linearGradient>
    <linearGradient
       inkscape:collect="always"
       xlink:href="#linearGradient3426-179-601-178"
       id="linearGradient2448"
       gradientUnits="userSpaceOnUse"
       gradientTransform="matrix(0.8439099,0,0,0.8439099,-56.86623,-11.850563)"
       spreadMethod="reflect"
       x1="90.348267"
       y1="36.441792"
       x2="107.70921"
       y2="48.816158" />
    <linearGradient
       inkscape:collect="always"
       xlink:href="#linearGradient3290-433-54-721"
       id="linearGradient2451"
       gradientUnits="userSpaceOnUse"
       gradientTransform="matrix(0.7568391,0.3733347,-0.3733347,0.7568391,-8.6678596,-58.322385)"
       x1="71.910507"
       y1="68.269913"
       x2="57.16671"
       y2="52.006454" />
    <linearGradient
       inkscape:collect="always"
       xlink:href="#linearGradient3200-423-229-602"
       id="linearGradient2456"
       gradientUnits="userSpaceOnUse"
       gradientTransform="matrix(0.4137,-0.5624103,0.5624103,0.4137,-54.987992,21.610016)"
       x1="42"
       y1="83.5"
       x2="90.5"
       y2="83.5" />
    <radialGradient
       inkscape:collect="always"
       xlink:href="#linearGradient269"
       id="radialGradient3454"
       gradientUnits="userSpaceOnUse"
       gradientTransform="matrix(-3.2978471e-2,1.5360673,-2.1662718,-2.6764303e-2,38.56264,1.9342822)"
       cx="12.133117"
       cy="7.4347868"
       fx="12.133117"
       fy="7.4347868"
       r="15.5" />
    <radialGradient
       inkscape:collect="always"
       xlink:href="#linearGradient3207"
       id="radialGradient3467"
       gradientUnits="userSpaceOnUse"
       gradientTransform="matrix(-1.8611182e-3,-1.1727213,1.253395,-4.2620092e-3,22.838589,74.26387)"
       cx="42.111099"
       cy="17.909124"
       fx="42.111099"
       fy="17.909124"
       r="19.849932" />
    <radialGradient
       inkscape:collect="always"
       xlink:href="#linearGradient259"
       id="radialGradient3470"
       gradientUnits="userSpaceOnUse"
       gradientTransform="matrix(-3.2868715e-2,1.536111,-2.1590622,-2.6765063e-2,38.932746,2.1416278)"
       cx="27.651968"
       cy="-3.1861894"
       fx="27.651968"
       fy="-3.1861894"
       r="15.5" />
    <radialGradient
       inkscape:collect="always"
       xlink:href="#linearGradient3187"
       id="radialGradient3472"
       gradientUnits="userSpaceOnUse"
       gradientTransform="matrix(1,0,0,0.1821842,0,36.597257)"
       cx="25.375"
       cy="44.75"
       fx="25.375"
       fy="44.75"
       r="15.896" />
  </defs>
  <metadata
     id="metadata4">
    <rdf:RDF>
      <cc:Work
         rdf:about="">
        <dc:format>image/svg+xml</dc:format>
        <dc:type
           rdf:resource="http://purl.org/dc/dcmitype/StillImage" />
        <dc:title />
        <dc:subject>
          <rdf:Bag />
        </dc:subject>
        <cc:license
           rdf:resource="http://creativecommons.org/licenses/by-nc-sa/2.5/" />
        <dc:creator>
          <cc:Agent>
            <dc:title>Marco Tessarotto</dc:title>
          </cc:Agent>
        </dc:creator>
        <dc:source />
      </cc:Work>
      <cc:License
         rdf:about="http://creativecommons.org/licenses/by-nc-sa/2.5/">
        <cc:permits
           rdf:resource="http://web.resource.org/cc/Reproduction" />
        <cc:permits
           rdf:resource="http://web.resource.org/cc/Distribution" />
        <cc:requires
           rdf:resource="http://web.resource.org/cc/Notice" />
        <cc:requires
           rdf:resource="http://web.resource.org/cc/Attribution" />
        <cc:prohibits
           rdf:resource="http://web.resource.org/cc/CommercialUse" />
        <cc:permits
           rdf:resource="http://web.resource.org/cc/DerivativeWorks" />
        <cc:requires
           rdf:resource="http://web.resource.org/cc/ShareAlike" />
      </cc:License>
    </rdf:RDF>
  </metadata>
  <g
     inkscape:groupmode="layer"
     id="layer6"
     inkscape:label="Shadow" />
  <g
     inkscape:groupmode="layer"
     id="layer5"
     inkscape:label="file"
     style="display:inline">
    <path
       sodipodi:rx="22.627417"
       sodipodi:ry="5.6568542"
       style="opacity:0.25;color:#000000;fill:url(#radialGradient3489-375-959-575);fill-opacity:1;fill-rule:evenodd;stroke:none;stroke-width:2;stroke-linecap:butt;stroke-linejoin:miter;marker:none;marker-start:none;marker-mid:none;marker-end:none;stroke-miterlimit:4;stroke-dasharray:none;stroke-dashoffset:0;stroke-opacity:1;visibility:visible;display:inline;overflow:visible"
       inkscape:r_cy="true"
       d="M 45.961941 41.63604 A 22.627417 5.6568542 0 1 1  0.70710754,41.63604 A 22.627417 5.6568542 0 1 1  45.961941 41.63604 z"
       transform="matrix(0.7589071,0,0,0.7682653,1.6708392,4.122304)"
       sodipodi:cy="41.63604"
       sodipodi:cx="23.334524"
       sodipodi:type="arc"
       id="path23417"
       inkscape:r_cx="true" />
    <path
       style="fill:#f6f6f6;fill-opacity:1;stroke:none;stroke-width:0.773;stroke-miterlimit:4;stroke-dasharray:none;stroke-opacity:1"
       id="path2206"
       d="M 4.9350958,8.2682805 C -0.9305152,16.24237 0.78071363,27.474588 8.7548019,33.3402 C 16.72889,39.205811 27.961112,37.494582 33.826725,29.520495 C 39.692329,21.546405 37.981108,10.314185 30.007019,4.4485757 C 22.032438,-1.4097361 10.798379,0.297358 4.9350958,8.2682805 z M 14.154924,15.050236 C 16.271909,12.17227 20.345772,11.55321 23.225058,13.668403 C 26.104169,15.78623 26.724721,19.859428 24.606895,22.738538 C 22.489066,25.61765 18.415868,26.2382 15.536757,24.120373 C 12.657645,22.002545 12.037096,17.929347 14.154924,15.050236 z " />
    <path
       style="opacity:0.72727272;fill:url(#linearGradient2456);fill-opacity:1;stroke:none;stroke-width:0.373;stroke-miterlimit:4;stroke-dasharray:none;stroke-opacity:1"
       id="path2214"
       d="M 5.7508528,8.8682306 C 0.21306593,16.396655 1.8264334,26.986543 9.3548597,32.524332 C 16.883285,38.062121 27.473173,36.44875 33.010965,28.920327 C 38.548755,21.3919 36.935389,10.802012 29.406961,5.2642242 C 21.878068,-0.2666752 11.286444,1.3427908 5.7508528,8.8682306 z M 11.743571,13.276377 C 14.84443,9.060869 20.78137,8.1587109 24.998806,11.256941 C 29.215993,14.359031 30.120341,20.294998 27.018248,24.51218 C 23.916155,28.729361 17.980189,29.633704 13.763007,26.531615 C 9.5458236,23.429524 8.6414789,17.493559 11.743571,13.276377 z " />
    <path
       style="fill:#ffffff;fill-opacity:0.17486339;stroke:#0b0b0b;stroke-width:0.56795144;stroke-miterlimit:4;stroke-dasharray:none;stroke-opacity:0.34426228"
       id="path2222"
       d="M 14.154924,15.050236 C 12.037096,17.929347 12.657645,22.002545 15.536757,24.120373 C 18.415868,26.2382 22.489066,25.61765 24.606895,22.738538 C 26.724721,19.859428 26.104169,15.78623 23.225058,13.668403 C 20.345772,11.55321 16.271909,12.17227 14.154924,15.050236 z M 16.491745,16.769167 C 17.667289,15.171056 19.907285,14.830677 21.506128,16.005226 C 23.104873,17.181237 23.446082,19.420863 22.27007,21.01961 C 21.094056,22.618358 18.854432,22.959562 17.255687,21.78355 C 15.65694,20.607536 15.315733,18.367913 16.491745,16.769167 z " />
    <path
       style="fill:none;fill-opacity:0.16393445;stroke:#0b0b0b;stroke-width:0.711;stroke-miterlimit:4;stroke-dasharray:none;stroke-opacity:1;display:inline"
       id="path3248"
       d="M 4.9350958,8.2682807 C -0.9305152,16.24237 0.78071363,27.474591 8.7548019,33.340197 C 16.72889,39.205808 27.961112,37.494579 33.826725,29.520491 C 39.692329,21.546403 37.981108,10.314185 30.007019,4.4485755 C 22.032436,-1.4097324 10.798379,0.29735779 4.9350958,8.2682807 z M 16.491745,16.769163 C 17.667289,15.171052 19.907285,14.830677 21.506128,16.005222 C 23.104876,17.181236 23.446082,19.420863 22.27007,21.01961 C 21.09406,22.618355 18.854432,22.959564 17.255687,21.78355 C 15.65694,20.607536 15.315733,18.36791 16.491745,16.769163 z " />
    <path
       inkscape:transform-center-x="-1.254751"
       style="opacity:0.37373735;fill:url(#linearGradient2451);fill-opacity:1;stroke:none;stroke-width:0.63999999;stroke-miterlimit:4;stroke-dasharray:none;stroke-opacity:1;display:inline"
       inkscape:transform-center-y="-6.5092152"
       id="path3285"
       d="M 26.639628,4.3502635 C 18.266008,0.21971408 8.1313893,3.6587182 4.0008379,12.032339 C 2.1046036,15.876464 1.7989437,20.092015 2.8383508,23.927128 C 6.5012824,21.491875 10.513574,19.629694 14.708896,18.402451 C 14.787142,18.087167 14.872882,17.771944 15.022308,17.469023 C 16.147606,15.187766 18.921689,14.246433 21.202944,15.371733 C 21.915757,15.723349 22.492183,16.228392 22.920994,16.836746 C 27.216252,16.442853 31.606955,16.705711 35.934297,17.639384 C 35.309829,12.109633 31.998546,6.9937188 26.639628,4.3502635 z " />
    <path
       style="opacity:0.25252524;fill:url(#linearGradient2448);fill-opacity:1;stroke:none;stroke-width:0.63999999;stroke-miterlimit:4;stroke-dasharray:none;stroke-opacity:0.55191255;display:inline"
       id="path3403"
       d="M 18.378619,0.99461076 C 13.217829,1.2827723 8.2269001,3.7896905 4.9288042,8.2733343 C -0.30669041,15.390805 0.50274054,25.094072 6.405647,31.269882 L 16.796288,21.380312 C 15.60548,20.144625 15.427665,18.195547 16.479822,16.765179 C 17.425248,15.479905 19.079588,15.023767 20.514766,15.499314 L 25.077154,1.8912651 C 22.901555,1.1636393 20.618227,0.86955855 18.378619,0.99461076 z M 32.435,6.6118866 L 22.044353,16.501458 C 23.164618,17.739827 23.310713,19.638574 22.281703,21.037473 C 21.252697,22.436372 19.39334,22.872151 17.877547,22.171476 L 13.288788,35.779525 C 20.568726,38.409014 29.014658,36.079298 33.832725,29.529316 C 39.043093,22.445992 38.260831,12.791708 32.435,6.6118866 z " />
    <g
       transform="matrix(1.2336307,0,0,1.1959164,11.115642,7.434354)"
       id="g3785"
       inkscape:label="shadow"
       style="display:inline" />
    <g
       transform="matrix(1.2336307,0,0,1.1959164,11.115642,7.434354)"
       id="g3787"
       inkscape:label="Layer 1" />
    <path
       transform="matrix(0.9680667,0,0,1.2797024,8.6192776,-12.135861)"
       sodipodi:open="true"
       sodipodi:end="6.2825619"
       sodipodi:start="0"
       d="M 40.75,44.75 A 15.375,2.375 0 1 1 40.749997,44.748519"
       sodipodi:ry="2.375"
       sodipodi:rx="15.375"
       sodipodi:cy="44.75"
       sodipodi:cx="25.375"
       id="path2205"
       style="opacity:0.41919191;fill:url(#radialGradient3472);fill-opacity:1;stroke:#000000;stroke-width:1.04200006;stroke-linecap:round;stroke-linejoin:round;stroke-miterlimit:4;stroke-dasharray:none;stroke-opacity:0"
       sodipodi:type="arc" />
    <path
       id="path2201"
       d="M 19.936767,18.728618 L 19.936767,45.279562 L 46.098696,45.279562 L 46.098696,18.728618 L 19.936767,18.728618 z "
       style="fill:url(#radialGradient3470);fill-opacity:1;fill-rule:evenodd;stroke:#000000;stroke-width:0.756;stroke-linecap:butt;stroke-linejoin:round;stroke-miterlimit:4;stroke-dasharray:none;stroke-opacity:0.81420767" />
    <rect
       y="18.732542"
       x="20.045956"
       height="7.0428534"
       width="25.943554"
       id="rect2443"
       style="opacity:0.7474747;color:#000000;fill:url(#radialGradient3467);fill-opacity:1;fill-rule:nonzero;stroke:#000000;stroke-width:0.47514254;stroke-linecap:butt;stroke-linejoin:miter;marker:none;marker-start:none;marker-mid:none;marker-end:none;stroke-miterlimit:4;stroke-dasharray:none;stroke-dashoffset:0;stroke-opacity:0.68852461;visibility:visible;display:inline;overflow:visible;enable-background:accumulate" />
    <g
       id="g3848"
       transform="matrix(0.1085674,0,0,0.1085674,27.641891,35.38588)"
       style="opacity:0.12121211" />
    <g
       style="opacity:0.12121211"
       transform="matrix(0.1085674,0,0,0.1085674,61.676332,65.967132)"
       id="g2732" />
    <path
       id="path2235"
       d="M 40.994291,25.686454 L 40.994291,45.302186"
       style="fill:none;fill-rule:evenodd;stroke:#000000;stroke-width:0.35100636;stroke-linecap:butt;stroke-linejoin:miter;stroke-miterlimit:4;stroke-dasharray:none;stroke-opacity:0.47033895" />
    <path
       sodipodi:nodetypes="cccccc"
       d="M 19.836893,40.222188 L 45.992254,40.281007 M 20.017366,35.370477 L 45.992254,35.429295 M 20.017366,30.518765 L 45.992254,30.577584"
       style="fill:none;fill-rule:evenodd;stroke:#000000;stroke-width:0.35100636;stroke-linecap:butt;stroke-linejoin:miter;stroke-miterlimit:4;stroke-opacity:0.47033895"
       id="path3226" />
    <path
       sodipodi:nodetypes="ccc"
       d="M 42.535178,37.696514 L 43.225276,38.746953 L 44.895404,37.003748"
       style="fill:none;fill-rule:evenodd;stroke:#000000;stroke-width:0.64299524px;stroke-linecap:round;stroke-linejoin:round;stroke-opacity:1"
       id="path3270" />
    <path
       sodipodi:nodetypes="ccc"
       d="M 42.593357,42.505977 L 43.249434,43.50463 L 44.837226,41.847363"
       style="fill:none;fill-rule:evenodd;stroke:#000000;stroke-width:0.61129606px;stroke-linecap:round;stroke-linejoin:round;stroke-opacity:1;display:inline"
       id="path3275" />
    <path
       sodipodi:nodetypes="ccccc"
       id="path3201"
       d="M 21.242245,43.751778 C 20.936383,40.40599 24.036577,24.110641 44.877415,21.387176 C 44.877415,18.549262 44.948907,22.401184 44.948907,19.563269 C 37.365777,19.563269 28.361347,19.563269 20.778219,19.563269 C 20.778219,27.528325 21.242245,35.786721 21.242245,43.751778 z "
       style="opacity:0.49494946;fill:url(#radialGradient3454);fill-opacity:1;fill-rule:evenodd;stroke:#000000;stroke-width:0.45724946;stroke-linecap:butt;stroke-linejoin:round;stroke-miterlimit:4;stroke-dasharray:none;stroke-opacity:0;display:inline" />
  </g>
</svg>
