<?xml version="1.0" encoding="UTF-8" standalone="no"?>
<!-- Created with Inkscape (http://www.inkscape.org/) -->
<svg
   xmlns:dc="http://purl.org/dc/elements/1.1/"
   xmlns:cc="http://creativecommons.org/ns#"
   xmlns:rdf="http://www.w3.org/1999/02/22-rdf-syntax-ns#"
   xmlns:svg="http://www.w3.org/2000/svg"
   xmlns="http://www.w3.org/2000/svg"
   xmlns:xlink="http://www.w3.org/1999/xlink"
   xmlns:sodipodi="http://sodipodi.sourceforge.net/DTD/sodipodi-0.dtd"
   xmlns:inkscape="http://www.inkscape.org/namespaces/inkscape"
   sodipodi:docname="system-software-installer.svg"
   sodipodi:docbase="/home/marco/Scrivania/UltimateGnome/scalable/apps"
   inkscape:version="0.46"
   sodipodi:version="0.32"
   id="svg2963"
   height="48px"
   width="48px"
   inkscape:output_extension="org.inkscape.output.svg.inkscape">
  <sodipodi:namedview
     inkscape:window-y="63"
     inkscape:window-x="6"
     inkscape:window-height="891"
     inkscape:window-width="872"
     stroke="#c17d11"
     fill="#e9b96e"
     inkscape:showpageshadow="false"
     inkscape:document-units="px"
     inkscape:grid-bbox="true"
     showgrid="true"
     inkscape:current-layer="layer1"
     inkscape:cy="25.474432"
     inkscape:cx="25.205516"
     inkscape:zoom="5.6568539"
     inkscape:pageshadow="2"
     inkscape:pageopacity="0.0"
     borderopacity="1"
     bordercolor="#000000"
     pagecolor="#ffffff"
     id="base"
     showguides="false" />
  <defs
     id="defs3">
    <linearGradient
       id="linearGradient3640">
      <stop
         style="stop-color:#ffffff;stop-opacity:1;"
         offset="0"
         id="stop3642" />
      <stop
         style="stop-color:#9dd9e3;stop-opacity:1;"
         offset="1"
         id="stop3644" />
    </linearGradient>
    <linearGradient
       id="linearGradient3609">
      <stop
         offset="0"
         id="stop3611"
         style="stop-color:#0981af;stop-opacity:1;" />
      <stop
         offset="0.5"
         id="stop3613"
         style="stop-color:#1b94c2;stop-opacity:1;" />
      <stop
         offset="1"
         id="stop3615"
         style="stop-color:#9fe1d7;stop-opacity:1;" />
    </linearGradient>
    <filter
       inkscape:collect="always"
       id="filter4404"
       x="-0.11074279"
       y="-0.096294354"
       width="1.2214856"
       height="1.1925887">
      <feGaussianBlur
         inkscape:collect="always"
         id="feGaussianBlur4406"
         stdDeviation="1.7736621" />
    </filter>
    <linearGradient
       inkscape:collect="always"
       id="linearGradient4310-914"
       y2="15.951456"
       y1="38.413868"
       gradientTransform="matrix(0.8727474,0,0,0.851129,2.2224174,3.7823659)"
       x2="8.1178246"
       gradientUnits="userSpaceOnUse"
       xlink:href="#linearGradient3609"
       x1="24.391657" />
    <radialGradient
       inkscape:collect="always"
       id="radialGradient4314-206"
       r="14.028825"
       gradientTransform="matrix(-1.8091303,-5.2669382e-2,1.5435547e-2,-0.7340256,100.47139,26.662126)"
       cx="36.033974"
       cy="13.925887"
       gradientUnits="userSpaceOnUse"
       xlink:href="#linearGradient3609"
       fy="13.925887"
       fx="36.033974" />
    <radialGradient
       inkscape:collect="always"
       id="radialGradient4316-792"
       r="4.9652834"
       gradientTransform="matrix(-7.5714043e-2,-2.0310395,2.7424657,-7.3845069e-2,-39.06795,105.19419)"
       cx="36.542522"
       cy="28.888735"
       gradientUnits="userSpaceOnUse"
       xlink:href="#linearGradient4223-299"
       fy="28.888735"
       fx="36.542522" />
    <linearGradient
       id="linearGradient4223-299">
      <stop
         offset="0"
         id="stop2733"
         style="stop-color:#ffffff;stop-opacity:1;" />
      <stop
         offset="1"
         id="stop2735"
         style="stop-color:#ffffff;stop-opacity:0.59793812;" />
    </linearGradient>
    <linearGradient
       inkscape:collect="always"
       xlink:href="#linearGradient3609"
       id="linearGradient3438"
       x1="24.356001"
       y1="21.967142"
       x2="47.250107"
       y2="37.581001"
       gradientUnits="userSpaceOnUse" />
    <radialGradient
       inkscape:collect="always"
       xlink:href="#linearGradient3640"
       id="radialGradient22106"
       gradientUnits="userSpaceOnUse"
       gradientTransform="matrix(0.8239569,1.4322914,-0.8062307,0.6479042,-1.2680376,7.1258833)"
       cx="-5.9464235"
       cy="-0.2743766"
       fx="-5.9464235"
       fy="-0.2743766"
       r="18.916589" />
    <filter
       inkscape:collect="always"
       x="-0.26424833"
       width="1.5284967"
       y="-0.25452681"
       height="1.5090536"
       id="filter22146">
      <feGaussianBlur
         inkscape:collect="always"
         stdDeviation="2.8027769"
         id="feGaussianBlur22148" />
    </filter>
    <linearGradient
       id="linearGradient3426-179-601-178"
       inkscape:collect="always">
      <stop
         style="stop-color:#ffffff;stop-opacity:1;"
         id="stop5122"
         offset="0" />
      <stop
         style="stop-color:#ffffff;stop-opacity:0;"
         id="stop5124"
         offset="1" />
    </linearGradient>
    <linearGradient
       id="linearGradient3290-433-54-721"
       inkscape:collect="always">
      <stop
         style="stop-color:#ffffff;stop-opacity:1;"
         id="stop5116"
         offset="0" />
      <stop
         style="stop-color:#ffffff;stop-opacity:0;"
         id="stop5118"
         offset="1" />
    </linearGradient>
    <linearGradient
       y2="14.2033"
       gradientUnits="userSpaceOnUse"
       y1="32.4165"
       x2="35.391201"
       x1="12.2744"
       id="linearGradient3200-423-229-602">
      <stop
         style="stop-color:#ffffff;stop-opacity:1;"
         id="stop5108"
         offset="0" />
      <stop
         style="stop-color:#727272;stop-opacity:1;"
         id="stop5110"
         offset="0.5" />
      <stop
         style="stop-color:#c0c0c0;stop-opacity:1;"
         id="stop5112"
         offset="1" />
    </linearGradient>
    <linearGradient
       id="linearGradient23419-344-467-410"
       inkscape:collect="always">
      <stop
         style="stop-color:#0d0d0d;stop-opacity:1;"
         id="stop5102"
         offset="0" />
      <stop
         style="stop-color:#0d0d0d;stop-opacity:0;"
         id="stop5104"
         offset="1" />
    </linearGradient>
    <radialGradient
       inkscape:collect="always"
       xlink:href="#linearGradient23419-344-467-410"
       id="radialGradient3451"
       gradientUnits="userSpaceOnUse"
       gradientTransform="matrix(1,0,0,0.25,0,31.22703)"
       cx="23.334524"
       cy="41.63604"
       fx="23.334524"
       fy="41.63604"
       r="22.627417" />
    <linearGradient
       inkscape:collect="always"
       xlink:href="#linearGradient3426-179-601-178"
       id="linearGradient3460"
       gradientUnits="userSpaceOnUse"
       gradientTransform="matrix(0.5799723,0,0,0.5799723,-38.508604,10.842029)"
       spreadMethod="reflect"
       x1="90.348267"
       y1="36.441792"
       x2="107.70921"
       y2="48.816158" />
    <linearGradient
       inkscape:collect="always"
       xlink:href="#linearGradient3290-433-54-721"
       id="linearGradient3464"
       gradientUnits="userSpaceOnUse"
       gradientTransform="matrix(0.5201333,0.2565721,-0.2565721,0.5201333,-5.3845489,-21.095465)"
       x1="71.910507"
       y1="68.269913"
       x2="57.16671"
       y2="52.006454" />
    <linearGradient
       inkscape:collect="always"
       xlink:href="#linearGradient3200-423-229-602"
       id="linearGradient3470"
       gradientUnits="userSpaceOnUse"
       gradientTransform="matrix(0.284313,-0.3865133,0.3865133,0.284313,-37.217795,33.83762)"
       x1="42"
       y1="83.5"
       x2="90.5"
       y2="83.5" />
  </defs>
  <metadata
     id="metadata4">
    <rdf:RDF>
      <cc:Work
         rdf:about="">
        <dc:format>image/svg+xml</dc:format>
        <dc:type
           rdf:resource="http://purl.org/dc/dcmitype/StillImage" />
        <dc:title />
        <dc:creator>
          <cc:Agent>
            <dc:title>Marco Tessarotto</dc:title>
          </cc:Agent>
        </dc:creator>
        <dc:source />
        <dc:subject>
          <rdf:Bag />
        </dc:subject>
        <cc:license
           rdf:resource="http://creativecommons.org/licenses/by-nc-sa/2.5/" />
      </cc:Work>
      <cc:License
         rdf:about="http://creativecommons.org/licenses/by-nc-sa/2.5/">
        <cc:permits
           rdf:resource="http://web.resource.org/cc/Reproduction" />
        <cc:permits
           rdf:resource="http://web.resource.org/cc/Distribution" />
        <cc:requires
           rdf:resource="http://web.resource.org/cc/Notice" />
        <cc:requires
           rdf:resource="http://web.resource.org/cc/Attribution" />
        <cc:prohibits
           rdf:resource="http://web.resource.org/cc/CommercialUse" />
        <cc:permits
           rdf:resource="http://web.resource.org/cc/DerivativeWorks" />
        <cc:requires
           rdf:resource="http://web.resource.org/cc/ShareAlike" />
      </cc:License>
    </rdf:RDF>
  </metadata>
  <g
     inkscape:groupmode="layer"
     id="layer2"
     inkscape:label="shadow"
     style="display:inline">
    <g
       transform="matrix(0.8879366,0,0,0.9193944,6.6908422,-0.7892463)"
       id="g4352">
      <path
         transform="matrix(0.858248,0,0,0.8544021,13.65099,19.284217)"
         style="color:#000000;fill:none;fill-opacity:1;fill-rule:nonzero;stroke:#000000;stroke-width:1.19423735;stroke-linecap:round;stroke-linejoin:round;marker:none;marker-start:none;marker-mid:none;marker-end:none;stroke-miterlimit:5.4000001;stroke-dashoffset:0;stroke-opacity:0.53551911;visibility:visible;display:inline;overflow:visible;filter:url(#filter4404);enable-background:accumulate"
         d="M 12.020816,29.729785 L -10.451978,18.775658 L 12.398956,9.0885977 L 34.493611,18.573801 L 12.020816,29.729785 z "
         id="path4354"
         sodipodi:nodetypes="ccccc" />
    </g>
    <path
       sodipodi:sides="6"
       sodipodi:r2="18.62348"
       inkscape:rounded="0"
       id="path2201"
       sodipodi:cx="12.020816"
       sodipodi:cy="8.2252417"
       inkscape:randomized="0"
       sodipodi:arg1="1.5707963"
       sodipodi:arg2="2.0943951"
       transform="matrix(1.0237243,0,0,0.8661514,15.666758,12.87473)"
       inkscape:flatsided="true"
       sodipodi:r1="21.504543"
       d="M 12.020816,29.729785 L -6.6026647,18.977514 L -6.6026652,-2.5270295 L 12.020815,-13.279302 L 30.644296,-2.5270305 L 30.644297,18.977513 L 12.020816,29.729785 z "
       sodipodi:type="star"
       style="opacity:1;color:#000000;fill:url(#radialGradient22106);fill-opacity:1;fill-rule:nonzero;stroke:#000000;stroke-width:0.69240339;stroke-linecap:round;stroke-linejoin:round;marker:none;marker-start:none;marker-mid:none;marker-end:none;stroke-miterlimit:5.4000001;stroke-dasharray:none;stroke-dashoffset:0;stroke-opacity:1;visibility:visible;display:inline;overflow:visible;enable-background:accumulate" />
    <path
       sodipodi:type="arc"
       style="opacity:1;color:#000000;fill:#ffffff;fill-opacity:1;fill-rule:evenodd;stroke:none;stroke-width:0.57599998;stroke-linecap:butt;stroke-linejoin:round;marker:none;marker-start:none;marker-mid:none;marker-end:none;stroke-miterlimit:4;stroke-dasharray:none;stroke-dashoffset:0;stroke-opacity:1;visibility:visible;display:inline;overflow:visible;filter:url(#filter22146);enable-background:accumulate"
       id="path22108"
       sodipodi:cx="24.306797"
       sodipodi:cy="22.588348"
       sodipodi:rx="12.727922"
       sodipodi:ry="13.214059"
       d="M 37.034719,22.588348 A 12.727922,13.214059 0 1 1 37.034717,22.580111"
       sodipodi:start="0"
       sodipodi:end="6.2825619"
       sodipodi:open="true"
       transform="matrix(0.8969771,0,0,0.8969771,6.0531292,-0.2225536)" />
  </g>
  <g
     inkscape:groupmode="layer"
     id="layer1"
     inkscape:label="add"
     style="display:inline">
    <g
       transform="matrix(1.0821624,0,0,1.0821624,2.1792084,-4.2480302)"
       id="g4298">
      <path
         d="M 9.2048108,15.013624 L 9.263372,30.738868 L 23.389597,38.974891 L 23.660131,23.882842 L 9.2048108,15.013624 z "
         id="path4051"
         style="fill:url(#linearGradient4310-914);fill-opacity:1;fill-rule:evenodd;stroke:none;stroke-width:0.30000001;stroke-linecap:butt;stroke-linejoin:miter;stroke-miterlimit:4;stroke-dasharray:none;stroke-opacity:1"
         sodipodi:nodetypes="ccccc"
         transform="matrix(1.1549315,0,0,0.9815613,-3.6575407,0.1072386)" />
      <path
         d="M 38.282528,15.30664 L 38.304505,30.930516 L 24.442896,38.894557 L 24.56637,23.631068 L 38.282528,15.30664 z "
         id="path4053"
         style="fill:url(#linearGradient3438);fill-opacity:1;fill-rule:evenodd;stroke:#000000;stroke-width:0.26350114;stroke-linecap:butt;stroke-linejoin:miter;stroke-miterlimit:4;stroke-dasharray:none;stroke-opacity:0"
         sodipodi:nodetypes="ccccc"
         transform="matrix(1.1549315,0,0,0.9815613,-3.6575407,0.1072386)" />
      <path
         d="M 17.619661,19.080931 L 31.387681,10.586888 L 37.926829,14.485123 L 23.966104,23.053469 L 17.619661,19.080931 z M 30.614258,10.195582 L 16.901979,18.553153 L 9.9914183,14.195344 L 23.728011,6.4474934 L 30.614258,10.195582 z "
         id="path4055"
         style="fill:url(#radialGradient4314-206);fill-opacity:1;fill-rule:evenodd;stroke:none;stroke-width:0.30000001;stroke-linecap:butt;stroke-linejoin:miter;stroke-miterlimit:4;stroke-dasharray:none;stroke-opacity:1"
         sodipodi:nodetypes="cccccccccc"
         transform="matrix(1.1549315,0,0,0.9815613,-3.6575407,0.1072386)" />
      <path
         d="M 7.7210582,16.480227 L 7.5876367,29.766182 C 15.628547,32.091936 20.262073,27.947689 22.512792,24.107731 L 7.7210582,16.480227 z "
         id="path4171"
         style="opacity:0.22727272;fill:#ffffff;fill-opacity:1;fill-rule:evenodd;stroke:none;stroke-width:0.30000001;stroke-linecap:butt;stroke-linejoin:miter;stroke-miterlimit:4;stroke-dasharray:none;stroke-opacity:1"
         sodipodi:nodetypes="cccc" />
      <path
         d="M 25.456353,36.989479 C 25.756038,28.474396 31.681442,20.76581 39.163303,16.840132 L 39.455497,29.977748 L 25.456353,36.989479 z "
         id="path4173"
         style="opacity:0.17171715;fill:url(#radialGradient4316-792);fill-opacity:1;fill-rule:evenodd;stroke:none;stroke-width:0.2840167;stroke-linecap:butt;stroke-linejoin:miter;stroke-miterlimit:4;stroke-dasharray:none;stroke-opacity:0"
         sodipodi:nodetypes="cccc" />
      <path
         d="M 9.3665862,14.030485 L 23.731249,21.65524 C 30.121621,16.899815 26.583597,10.866597 23.796081,7.2900339 L 9.3665862,14.030485 z "
         id="path4244"
         style="opacity:0.22727272;fill:#ffffff;fill-opacity:1;fill-rule:evenodd;stroke:none;stroke-width:0.30000001;stroke-linecap:butt;stroke-linejoin:miter;stroke-miterlimit:4;stroke-dasharray:none;stroke-opacity:1"
         sodipodi:nodetypes="cccc" />
    </g>
    <path
       inkscape:r_cx="true"
       id="path23417"
       sodipodi:type="arc"
       sodipodi:cx="23.334524"
       sodipodi:cy="41.63604"
       transform="matrix(0.5215545,0,0,0.5279859,1.7206627,21.81929)"
       d="M 45.961941 41.63604 A 22.627417 5.6568542 0 1 1  0.70710754,41.63604 A 22.627417 5.6568542 0 1 1  45.961941 41.63604 z"
       inkscape:r_cy="true"
       style="opacity:0.25;color:#000000;fill:url(#radialGradient3451);fill-opacity:1;fill-rule:evenodd;stroke:none;stroke-width:2;stroke-linecap:butt;stroke-linejoin:miter;marker:none;marker-start:none;marker-mid:none;marker-end:none;stroke-miterlimit:4;stroke-dasharray:none;stroke-dashoffset:0;stroke-opacity:1;visibility:visible;display:inline;overflow:visible"
       sodipodi:ry="5.6568542"
       sodipodi:rx="22.627417" />
    <path
       d="M 3.9640044,24.668589 C -0.067103225,30.148736 1.108929,37.868014 6.5890756,41.899122 C 12.069222,45.93023 19.788502,44.754198 23.819612,39.274052 C 27.850715,33.793904 26.674688,26.074625 21.19454,22.043519 C 15.714055,18.017427 7.993512,19.190618 3.9640044,24.668589 z M 10.300279,29.329449 C 11.755164,27.351584 14.554903,26.926138 16.533677,28.379792 C 18.512329,29.835257 18.9388,32.634539 17.483336,34.613191 C 16.02787,36.591844 13.228588,37.018313 11.249936,35.562849 C 9.2712822,34.107384 8.8448134,31.308102 10.300279,29.329449 z "
       id="path2206"
       style="fill:#f6f6f6;fill-opacity:1;stroke:none;stroke-width:0.773;stroke-miterlimit:4;stroke-dasharray:none;stroke-opacity:1" />
    <path
       d="M 4.5246288,25.080901 C 0.71881637,30.254768 1.827594,37.532607 7.0014619,41.338421 C 12.175329,45.144235 19.453169,44.035456 23.258985,38.86159 C 27.064799,33.687722 25.956023,26.409881 20.782154,22.604068 C 15.607965,18.802989 8.3289325,19.909086 4.5246288,25.080901 z M 8.6430903,28.110375 C 10.774138,25.213291 14.854266,24.593288 17.752675,26.722529 C 20.650912,28.854423 21.27242,32.933882 19.140525,35.832116 C 17.008629,38.730349 12.92917,39.351854 10.030936,37.219961 C 7.1327008,35.088067 6.511195,31.008609 8.6430903,28.110375 z "
       id="path2214"
       style="opacity:0.72727272;fill:url(#linearGradient3470);fill-opacity:1;stroke:none;stroke-width:0.373;stroke-miterlimit:4;stroke-dasharray:none;stroke-opacity:1" />
    <path
       d="M 10.300279,29.329449 C 8.8448134,31.308102 9.2712822,34.107384 11.249936,35.562849 C 13.228588,37.018313 16.02787,36.591844 17.483336,34.613191 C 18.9388,32.634539 18.512329,29.835257 16.533677,28.379792 C 14.554903,26.926138 11.755164,27.351584 10.300279,29.329449 z M 11.906246,30.510774 C 12.714132,29.412482 14.253556,29.178558 15.352352,29.98576 C 16.45108,30.793967 16.685574,32.333138 15.877366,33.431867 C 15.069157,34.530598 13.529988,34.765088 12.43126,33.956881 C 11.33253,33.148671 11.098038,31.609504 11.906246,30.510774 z "
       id="path2222"
       style="fill:#ffffff;fill-opacity:0.17486339;stroke:#0b0b0b;stroke-width:0.39032137;stroke-miterlimit:4;stroke-dasharray:none;stroke-opacity:0.34426228" />
    <path
       d="M 3.9640044,24.668589 C -0.067103225,30.148736 1.108929,37.868016 6.5890756,41.89912 C 12.069222,45.930228 19.788502,44.754195 23.819612,39.274049 C 27.850715,33.793903 26.674688,26.074625 21.19454,22.043518 C 15.714054,18.01743 7.993512,19.190618 3.9640044,24.668589 z M 11.906246,30.510772 C 12.714132,29.412479 14.253556,29.178558 15.352352,29.985758 C 16.451082,30.793967 16.685574,32.333138 15.877366,33.431867 C 15.06916,34.530596 13.529988,34.765089 12.43126,33.956881 C 11.33253,33.148672 11.098038,31.609501 11.906246,30.510772 z "
       id="path3248"
       style="fill:none;fill-opacity:0.16393445;stroke:#0b0b0b;stroke-width:0.651;stroke-miterlimit:4;stroke-dasharray:none;stroke-opacity:1;display:inline" />
    <path
       d="M 18.88032,21.975954 C 13.125598,19.137258 6.1606388,21.500693 3.321941,27.255416 C 2.0187649,29.897269 1.8087018,32.794383 2.5230284,35.430042 C 5.0403572,33.756429 7.7977817,32.476655 10.680993,31.63324 C 10.734767,31.416562 10.793691,31.199927 10.896384,30.991746 C 11.669738,29.423965 13.576211,28.77704 15.14399,29.550396 C 15.633867,29.792042 16.030013,30.13913 16.32471,30.557217 C 19.276602,30.286517 22.294087,30.467165 25.268029,31.108826 C 24.838866,27.308536 22.563206,23.792654 18.88032,21.975954 z "
       id="path3285"
       inkscape:transform-center-y="-6.5092152"
       style="opacity:0.37373735;fill:url(#linearGradient3464);fill-opacity:1;stroke:none;stroke-width:0.63999999;stroke-miterlimit:4;stroke-dasharray:none;stroke-opacity:1;display:inline"
       inkscape:transform-center-x="-1.254751" />
    <path
       d="M 13.202989,19.669801 C 9.6562653,19.867838 6.2262781,21.590703 3.9596806,24.672062 C 0.36161679,29.563503 0.91789359,36.232018 4.9746323,40.476308 L 12.115541,33.679757 C 11.297165,32.830539 11.174962,31.491046 11.898051,30.508033 C 12.54779,29.624736 13.684726,29.311258 14.671044,29.638075 L 17.806519,20.286021 C 16.311351,19.785965 14.742147,19.583859 13.202989,19.669801 z M 22.863156,23.530242 L 15.722244,30.326793 C 16.49214,31.177855 16.592542,32.482758 15.885361,33.444143 C 15.178183,34.405529 13.90035,34.705015 12.85863,34.223481 L 9.7050317,43.575534 C 14.708128,45.382636 20.512546,43.781552 23.823735,39.280114 C 27.40453,34.41214 26.866925,27.777288 22.863156,23.530242 z "
       id="path3403"
       style="opacity:0.25252524;fill:url(#linearGradient3460);fill-opacity:1;stroke:none;stroke-width:0.63999999;stroke-miterlimit:4;stroke-dasharray:none;stroke-opacity:0.55191255;display:inline" />
  </g>
</svg>
