<?xml version="1.0" encoding="UTF-8" standalone="no"?>
<!-- Created with Inkscape (http://www.inkscape.org/) -->
<svg
   xmlns:dc="http://purl.org/dc/elements/1.1/"
   xmlns:cc="http://creativecommons.org/ns#"
   xmlns:rdf="http://www.w3.org/1999/02/22-rdf-syntax-ns#"
   xmlns:svg="http://www.w3.org/2000/svg"
   xmlns="http://www.w3.org/2000/svg"
   xmlns:xlink="http://www.w3.org/1999/xlink"
   xmlns:sodipodi="http://sodipodi.sourceforge.net/DTD/sodipodi-0.dtd"
   xmlns:inkscape="http://www.inkscape.org/namespaces/inkscape"
   sodipodi:docname="system-software-update.svg"
   sodipodi:docbase="/home/marco/Scrivania/UltimateGnome/scalable/apps"
   inkscape:version="0.46"
   sodipodi:version="0.32"
   id="svg2963"
   height="48px"
   width="48px"
   inkscape:output_extension="org.inkscape.output.svg.inkscape">
  <sodipodi:namedview
     inkscape:window-y="25"
     inkscape:window-x="0"
     inkscape:window-height="947"
     inkscape:window-width="1272"
     stroke="#c17d11"
     fill="#e9b96e"
     inkscape:showpageshadow="false"
     inkscape:document-units="px"
     inkscape:grid-bbox="true"
     showgrid="true"
     inkscape:current-layer="layer1"
     inkscape:cy="36.081034"
     inkscape:cx="29.092264"
     inkscape:zoom="5.6568539"
     inkscape:pageshadow="2"
     inkscape:pageopacity="0.0"
     borderopacity="1"
     bordercolor="#000000"
     pagecolor="#ffffff"
     id="base"
     showguides="false" />
  <defs
     id="defs3">
    <linearGradient
       id="linearGradient5841">
      <stop
         style="stop-color:#219213;stop-opacity:1;"
         offset="0"
         id="stop5843" />
      <stop
         style="stop-color:#bcbbb0;stop-opacity:1;"
         offset="1"
         id="stop5845" />
    </linearGradient>
    <linearGradient
       id="linearGradient5835">
      <stop
         offset="0"
         id="stop5837"
         style="stop-color:#a2a47d;stop-opacity:1;" />
      <stop
         offset="1"
         id="stop5839"
         style="stop-color:#dfe3d7;stop-opacity:1;" />
    </linearGradient>
    <linearGradient
       id="linearGradient5829">
      <stop
         offset="0"
         id="stop5831"
         style="stop-color:#1fb61c;stop-opacity:1;" />
      <stop
         offset="1"
         id="stop5833"
         style="stop-color:#a2e32e;stop-opacity:1;" />
    </linearGradient>
    <linearGradient
       id="linearGradient3640">
      <stop
         style="stop-color:#ffffff;stop-opacity:1;"
         offset="0"
         id="stop3642" />
      <stop
         style="stop-color:#9dd9e3;stop-opacity:1;"
         offset="1"
         id="stop3644" />
    </linearGradient>
    <linearGradient
       id="linearGradient3609">
      <stop
         offset="0"
         id="stop3611"
         style="stop-color:#0981af;stop-opacity:1;" />
      <stop
         offset="0.5"
         id="stop3613"
         style="stop-color:#1b94c2;stop-opacity:1;" />
      <stop
         offset="1"
         id="stop3615"
         style="stop-color:#9fe1d7;stop-opacity:1;" />
    </linearGradient>
    <linearGradient
       id="linearGradient4223-299">
      <stop
         offset="0"
         id="stop2733"
         style="stop-color:#ffffff;stop-opacity:1;" />
      <stop
         offset="1"
         id="stop2735"
         style="stop-color:#ffffff;stop-opacity:0.59793812;" />
    </linearGradient>
    <filter
       inkscape:collect="always"
       x="-0.26424833"
       width="1.5284967"
       y="-0.25452681"
       height="1.5090536"
       id="filter22146">
      <feGaussianBlur
         inkscape:collect="always"
         stdDeviation="2.8027769"
         id="feGaussianBlur22148" />
    </filter>
    <linearGradient
       id="linearGradient3426-179-601-178"
       inkscape:collect="always">
      <stop
         style="stop-color:#ffffff;stop-opacity:1;"
         id="stop5122"
         offset="0" />
      <stop
         style="stop-color:#ffffff;stop-opacity:0;"
         id="stop5124"
         offset="1" />
    </linearGradient>
    <linearGradient
       id="linearGradient3290-433-54-721"
       inkscape:collect="always">
      <stop
         style="stop-color:#ffffff;stop-opacity:1;"
         id="stop5116"
         offset="0" />
      <stop
         style="stop-color:#ffffff;stop-opacity:0;"
         id="stop5118"
         offset="1" />
    </linearGradient>
    <linearGradient
       y2="14.2033"
       gradientUnits="userSpaceOnUse"
       y1="32.4165"
       x2="35.391201"
       x1="12.2744"
       id="linearGradient3200-423-229-602">
      <stop
         style="stop-color:#ffffff;stop-opacity:1;"
         id="stop5108"
         offset="0" />
      <stop
         style="stop-color:#727272;stop-opacity:1;"
         id="stop5110"
         offset="0.5" />
      <stop
         style="stop-color:#c0c0c0;stop-opacity:1;"
         id="stop5112"
         offset="1" />
    </linearGradient>
    <linearGradient
       id="linearGradient23419-344-467-410"
       inkscape:collect="always">
      <stop
         style="stop-color:#0d0d0d;stop-opacity:1;"
         id="stop5102"
         offset="0" />
      <stop
         style="stop-color:#0d0d0d;stop-opacity:0;"
         id="stop5104"
         offset="1" />
    </linearGradient>
    <linearGradient
       id="linearGradient3502">
      <stop
         style="stop-color:#ffffff;stop-opacity:1;"
         id="stop3504"
         offset="0" />
      <stop
         style="stop-color:#ffffff;stop-opacity:0"
         id="stop3506"
         offset="1" />
    </linearGradient>
    <filter
       id="filter3616"
       height="2.3694718"
       y="-0.6847359"
       width="1.2651945"
       x="-0.13259723"
       inkscape:collect="always">
      <feGaussianBlur
         id="feGaussianBlur3618"
         stdDeviation="2.0103976"
         inkscape:collect="always" />
    </filter>
    <radialGradient
       gradientUnits="userSpaceOnUse"
       gradientTransform="matrix(1,0,0,0.195124,0,39.338316)"
       r="18.1705"
       fy="48.875"
       fx="25.75"
       cy="48.875"
       cx="25.75"
       id="radialGradient3542"
       xlink:href="#linearGradient3591"
       inkscape:collect="always" />
    <linearGradient
       id="linearGradient3591">
      <stop
         style="stop-color:#000000;stop-opacity:1;"
         offset="0"
         id="stop3593" />
      <stop
         style="stop-color:#000000;stop-opacity:0;"
         offset="1"
         id="stop3595" />
    </linearGradient>
    <linearGradient
       inkscape:collect="always"
       xlink:href="#linearGradient5835"
       id="linearGradient5513"
       gradientUnits="userSpaceOnUse"
       gradientTransform="matrix(1.1401802,0,0,0.9991212,-5.8760505,7.6909062e-3)"
       x1="18.011564"
       y1="33.245823"
       x2="18.011564"
       y2="43.396618" />
    <linearGradient
       inkscape:collect="always"
       xlink:href="#linearGradient5829"
       id="linearGradient5516"
       gradientUnits="userSpaceOnUse"
       gradientTransform="matrix(1.1401802,0,0,0.9991212,-5.8760505,7.6909062e-3)"
       x1="19.873518"
       y1="0.49809772"
       x2="13.957192"
       y2="20.86265" />
    <radialGradient
       inkscape:collect="always"
       xlink:href="#linearGradient23419-344-467-410"
       id="radialGradient5565"
       gradientUnits="userSpaceOnUse"
       gradientTransform="matrix(1,0,0,0.25,0,31.22703)"
       cx="23.334524"
       cy="41.63604"
       fx="23.334524"
       fy="41.63604"
       r="22.627417" />
    <radialGradient
       inkscape:collect="always"
       xlink:href="#linearGradient3640"
       id="radialGradient5679"
       gradientUnits="userSpaceOnUse"
       gradientTransform="matrix(0.8239569,1.4322914,-0.8062307,0.6479042,-1.2680376,7.1258833)"
       cx="-5.9464235"
       cy="-0.2743766"
       fx="-5.9464235"
       fy="-0.2743766"
       r="18.916589" />
    <linearGradient
       inkscape:collect="always"
       xlink:href="#linearGradient3609"
       id="linearGradient5681"
       gradientUnits="userSpaceOnUse"
       gradientTransform="matrix(0.8727474,0,0,0.851129,2.2224174,3.7823659)"
       x1="24.391657"
       y1="38.413868"
       x2="8.1178246"
       y2="15.951456" />
    <linearGradient
       inkscape:collect="always"
       xlink:href="#linearGradient3609"
       id="linearGradient5683"
       gradientUnits="userSpaceOnUse"
       x1="24.356001"
       y1="21.967142"
       x2="47.250107"
       y2="37.581001" />
    <radialGradient
       inkscape:collect="always"
       xlink:href="#linearGradient3609"
       id="radialGradient5685"
       gradientUnits="userSpaceOnUse"
       gradientTransform="matrix(-1.8091303,-5.2669382e-2,1.5435547e-2,-0.7340256,100.47139,26.662126)"
       cx="36.033974"
       cy="13.925887"
       fx="36.033974"
       fy="13.925887"
       r="14.028825" />
    <radialGradient
       inkscape:collect="always"
       xlink:href="#linearGradient4223-299"
       id="radialGradient5687"
       gradientUnits="userSpaceOnUse"
       gradientTransform="matrix(-7.5714043e-2,-2.0310395,2.7424657,-7.3845069e-2,-39.06795,105.19419)"
       cx="36.542522"
       cy="28.888735"
       fx="36.542522"
       fy="28.888735"
       r="4.9652834" />
    <filter
       inkscape:collect="always"
       id="filter5759">
      <feGaussianBlur
         inkscape:collect="always"
         stdDeviation="0.81956698"
         id="feGaussianBlur5761" />
    </filter>
    <filter
       inkscape:collect="always"
       x="-0.058462246"
       width="1.1169245"
       y="-0.12424232"
       height="1.2484846"
       id="filter5795">
      <feGaussianBlur
         inkscape:collect="always"
         stdDeviation="0.96499421"
         id="feGaussianBlur5797" />
    </filter>
    <linearGradient
       inkscape:collect="always"
       xlink:href="#linearGradient5841"
       id="linearGradient5847"
       x1="31.739416"
       y1="0.43625"
       x2="31.739416"
       y2="44.282501"
       gradientUnits="userSpaceOnUse" />
    <linearGradient
       inkscape:collect="always"
       xlink:href="#linearGradient3426-179-601-178"
       id="linearGradient3462"
       gradientUnits="userSpaceOnUse"
       gradientTransform="matrix(0.6052843,0,0,0.6052843,-40.99705,2.8112007)"
       spreadMethod="reflect"
       x1="90.348267"
       y1="36.441792"
       x2="107.70921"
       y2="48.816158" />
    <linearGradient
       inkscape:collect="always"
       xlink:href="#linearGradient3290-433-54-721"
       id="linearGradient3465"
       gradientUnits="userSpaceOnUse"
       gradientTransform="matrix(0.5428337,0.2677699,-0.2677699,0.5428337,-6.4273458,-30.520158)"
       x1="71.910507"
       y1="68.269913"
       x2="57.16671"
       y2="52.006454" />
    <linearGradient
       inkscape:collect="always"
       xlink:href="#linearGradient3200-423-229-602"
       id="linearGradient3470"
       gradientUnits="userSpaceOnUse"
       gradientTransform="matrix(0.2967214,-0.4033821,0.4033821,0.2967214,-39.649906,26.8104)"
       x1="42"
       y1="83.5"
       x2="90.5"
       y2="83.5" />
    <linearGradient
       inkscape:collect="always"
       xlink:href="#linearGradient3502"
       id="linearGradient3481"
       x1="16.328125"
       y1="2.2932084"
       x2="20.639462"
       y2="19.263773"
       gradientUnits="userSpaceOnUse" />
  </defs>
  <metadata
     id="metadata4">
    <rdf:RDF>
      <cc:Work
         rdf:about="">
        <dc:format>image/svg+xml</dc:format>
        <dc:type
           rdf:resource="http://purl.org/dc/dcmitype/StillImage" />
        <dc:title />
        <dc:creator>
          <cc:Agent>
            <dc:title>Marco Tessarotto</dc:title>
          </cc:Agent>
        </dc:creator>
        <dc:source />
        <dc:subject>
          <rdf:Bag />
        </dc:subject>
        <cc:license
           rdf:resource="http://creativecommons.org/licenses/by-nc-sa/2.5/" />
      </cc:Work>
      <cc:License
         rdf:about="http://creativecommons.org/licenses/by-nc-sa/2.5/">
        <cc:permits
           rdf:resource="http://web.resource.org/cc/Reproduction" />
        <cc:permits
           rdf:resource="http://web.resource.org/cc/Distribution" />
        <cc:requires
           rdf:resource="http://web.resource.org/cc/Notice" />
        <cc:requires
           rdf:resource="http://web.resource.org/cc/Attribution" />
        <cc:prohibits
           rdf:resource="http://web.resource.org/cc/CommercialUse" />
        <cc:permits
           rdf:resource="http://web.resource.org/cc/DerivativeWorks" />
        <cc:requires
           rdf:resource="http://web.resource.org/cc/ShareAlike" />
      </cc:License>
    </rdf:RDF>
  </metadata>
  <g
     inkscape:groupmode="layer"
     id="layer2"
     inkscape:label="shadow"
     style="display:inline" />
  <g
     inkscape:groupmode="layer"
     id="layer1"
     inkscape:label="add"
     style="display:inline">
    <g
       id="g4215"
       inkscape:label="shadow"
       style="display:inline"
       transform="translate(-0.7494406,0.8646844)" />
    <g
       id="g4217"
       inkscape:label="Layer 1"
       style="display:inline"
       transform="translate(-0.7494406,0.8646844)">
      <g
         id="g3783"
         transform="matrix(2.7092713,0,0,2.6264441,-33.116996,-39.665799)">
        <g
           style="display:inline"
           inkscape:label="shadow"
           id="g4220" />
        <g
           inkscape:label="Layer 1"
           id="g4222" />
      </g>
      <path
         sodipodi:type="arc"
         style="opacity:0.46464646;fill:url(#radialGradient3542);fill-opacity:1;stroke:#000000;stroke-width:0.84100002;stroke-linecap:round;stroke-linejoin:round;stroke-miterlimit:4;stroke-dasharray:none;stroke-opacity:0;filter:url(#filter3616)"
         id="path3534"
         sodipodi:cx="25.75"
         sodipodi:cy="48.875"
         sodipodi:rx="17.75"
         sodipodi:ry="3.125"
         d="M 43.5,48.875 A 17.75,3.125 0 1 1 43.499997,48.873052"
         sodipodi:start="0"
         sodipodi:end="6.2825619"
         sodipodi:open="true"
         transform="matrix(0.9025216,0,0,1.006323,0.6350676,-5.5942212)" />
      <g
         id="g2424"
         transform="matrix(0.190868,0.16126,0.16126,-0.190868,52.344729,41.890766)"
         inkscape:r_cx="true"
         inkscape:r_cy="true"
         style="opacity:0.5;fill:none;fill-opacity:1;stroke:#ffffff;stroke-opacity:1" />
    </g>
    <path
       style="opacity:1;fill:url(#linearGradient5847);fill-opacity:1.0;stroke:#000000;stroke-width:0.60303742;stroke-miterlimit:4;stroke-dasharray:none;stroke-opacity:1"
       d="M 18.128514,0.73776872 C 18.036276,0.77805906 17.966263,0.85178869 17.8791,0.8938814 C 20.537765,2.0307679 23.460481,4.5370919 25.325902,7.3881689 C 28.372668,11.450974 30.239786,16.690843 30.242929,22.468654 C 30.24293,28.137802 28.413523,33.301321 25.468425,37.330581 C 25.421072,37.404912 25.374233,37.475575 25.325902,37.549139 C 23.488897,40.34525 20.955958,42.588362 17.985992,43.980981 L 33.057749,43.980981 C 40.418747,40.48763 45.599731,32.169209 45.599731,22.468654 C 45.594447,12.758506 40.402435,4.4655934 33.022118,0.98754901 C 32.836383,0.90001919 32.638516,0.81848627 32.452028,0.73776872 L 18.128514,0.73776872 z "
       id="path4358" />
    <path
       style="opacity:0.28484848;fill:#ffffff;fill-opacity:1;stroke:none;stroke-width:0.46524638;stroke-miterlimit:4;stroke-dasharray:none;stroke-opacity:1;display:inline"
       d="M 36.40625 4.125 C 37.782818 9.2699295 37.357602 13.493367 34.9375 14.8125 C 33.562607 15.561917 31.749429 15.276857 29.78125 14.15625 C 30.536964 16.473489 31.00309 18.939025 31.09375 21.53125 C 36.284596 19.064713 41.649318 18.999773 44.6875 21.25 C 44.350071 14.126078 41.104627 7.9448516 36.40625 4.125 z M 40.0625 37 C 39.578543 37.330966 39.055812 37.637415 38.53125 37.9375 L 38.53125 37.96875 C 33.549564 40.815987 28.197884 41.338495 24.71875 39.71875 C 23.531954 41.058263 22.145683 42.195188 20.65625 43.1875 L 32.8125 43.1875 C 35.622504 41.815067 38.092291 39.684656 40.0625 37 z "
       id="path5437" />
    <g
       style="display:inline;filter:url(#filter5795)"
       transform="matrix(0.6471465,0,0,0.6700736,17.371929,11.173077)"
       id="g4352">
      <path
         transform="matrix(0.858248,0,0,0.8544021,13.032506,16.746731)"
         style="color:#000000;fill:none;fill-opacity:1;fill-rule:nonzero;stroke:#000000;stroke-width:1.19423735;stroke-linecap:round;stroke-linejoin:round;marker:none;marker-start:none;marker-mid:none;marker-end:none;stroke-miterlimit:5.4000001;stroke-dashoffset:0;stroke-opacity:0.53551911;visibility:visible;display:inline;overflow:visible;filter:url(#filter5759);enable-background:accumulate"
         d="M 12.020816,29.729785 L -10.451978,18.775658 L 12.398956,9.0885977 L 34.493611,18.573801 L 12.020816,29.729785 z "
         id="path4354"
         sodipodi:nodetypes="ccccc" />
    </g>
    <g
       id="g5668"
       transform="matrix(1.0999713,0,0,1.0999713,-3.9944271,-4.929743)">
      <path
         style="color:#000000;fill:url(#radialGradient5679);fill-opacity:1;fill-rule:nonzero;stroke:#000000;stroke-width:0.73146683;stroke-linecap:round;stroke-linejoin:round;marker:none;marker-start:none;marker-mid:none;marker-end:none;stroke-miterlimit:5.4000001;stroke-dasharray:none;stroke-dashoffset:0;stroke-opacity:1;visibility:visible;display:inline;overflow:visible;enable-background:accumulate"
         sodipodi:type="star"
         d="M 12.020816,29.729785 L -6.6026647,18.977514 L -6.6026652,-2.5270295 L 12.020815,-13.279302 L 30.644296,-2.5270305 L 30.644297,18.977513 L 12.020816,29.729785 z "
         sodipodi:r1="21.504543"
         inkscape:flatsided="true"
         transform="matrix(0.7461114,0,0,0.631269,23.913761,21.131664)"
         sodipodi:arg2="2.0943951"
         sodipodi:arg1="1.5707963"
         inkscape:randomized="0"
         sodipodi:cy="8.2252417"
         sodipodi:cx="12.020816"
         id="path2201"
         inkscape:rounded="0"
         sodipodi:r2="18.62348"
         sodipodi:sides="6" />
      <path
         transform="matrix(0.6537354,0,0,0.6537354,16.90715,11.586094)"
         sodipodi:open="true"
         sodipodi:end="6.2825619"
         sodipodi:start="0"
         d="M 37.034719,22.588348 A 12.727922,13.214059 0 1 1 37.034717,22.580111"
         sodipodi:ry="13.214059"
         sodipodi:rx="12.727922"
         sodipodi:cy="22.588348"
         sodipodi:cx="24.306797"
         id="path22108"
         style="color:#000000;fill:#ffffff;fill-opacity:1;fill-rule:evenodd;stroke:none;stroke-width:0.57599998;stroke-linecap:butt;stroke-linejoin:round;marker:none;marker-start:none;marker-mid:none;marker-end:none;stroke-miterlimit:4;stroke-dasharray:none;stroke-dashoffset:0;stroke-opacity:1;visibility:visible;display:inline;overflow:visible;filter:url(#filter22146);enable-background:accumulate"
         sodipodi:type="arc" />
      <g
         id="g4298"
         transform="matrix(0.7887022,0,0,0.7887022,14.083757,8.6522441)">
        <path
           transform="matrix(1.1549315,0,0,0.9815613,-3.6575407,0.1072386)"
           sodipodi:nodetypes="ccccc"
           style="fill:url(#linearGradient5681);fill-opacity:1;fill-rule:evenodd;stroke:none;stroke-width:0.30000001;stroke-linecap:butt;stroke-linejoin:miter;stroke-miterlimit:4;stroke-dasharray:none;stroke-opacity:1"
           id="path4051"
           d="M 9.2048108,15.013624 L 9.263372,30.738868 L 23.389597,38.974891 L 23.660131,23.882842 L 9.2048108,15.013624 z " />
        <path
           transform="matrix(1.1549315,0,0,0.9815613,-3.6575407,0.1072386)"
           sodipodi:nodetypes="ccccc"
           style="fill:url(#linearGradient5683);fill-opacity:1;fill-rule:evenodd;stroke:#000000;stroke-width:0.26350114;stroke-linecap:butt;stroke-linejoin:miter;stroke-miterlimit:4;stroke-dasharray:none;stroke-opacity:0"
           id="path4053"
           d="M 38.282528,15.30664 L 38.304505,30.930516 L 24.442896,38.894557 L 24.56637,23.631068 L 38.282528,15.30664 z " />
        <path
           transform="matrix(1.1549315,0,0,0.9815613,-3.6575407,0.1072386)"
           sodipodi:nodetypes="cccccccccc"
           style="fill:url(#radialGradient5685);fill-opacity:1;fill-rule:evenodd;stroke:none;stroke-width:0.30000001;stroke-linecap:butt;stroke-linejoin:miter;stroke-miterlimit:4;stroke-dasharray:none;stroke-opacity:1"
           id="path4055"
           d="M 17.619661,19.080931 L 31.387681,10.586888 L 37.926829,14.485123 L 23.966104,23.053469 L 17.619661,19.080931 z M 30.614258,10.195582 L 16.901979,18.553153 L 9.9914183,14.195344 L 23.728011,6.4474934 L 30.614258,10.195582 z " />
        <path
           sodipodi:nodetypes="cccc"
           style="opacity:0.22727272;fill:#ffffff;fill-opacity:1;fill-rule:evenodd;stroke:none;stroke-width:0.30000001;stroke-linecap:butt;stroke-linejoin:miter;stroke-miterlimit:4;stroke-dasharray:none;stroke-opacity:1"
           id="path4171"
           d="M 7.7210582,16.480227 L 7.5876367,29.766182 C 15.628547,32.091936 20.262073,27.947689 22.512792,24.107731 L 7.7210582,16.480227 z " />
        <path
           sodipodi:nodetypes="cccc"
           style="opacity:0.17171715;fill:url(#radialGradient5687);fill-opacity:1;fill-rule:evenodd;stroke:none;stroke-width:0.2840167;stroke-linecap:butt;stroke-linejoin:miter;stroke-miterlimit:4;stroke-dasharray:none;stroke-opacity:0"
           id="path4173"
           d="M 25.456353,36.989479 C 25.756038,28.474396 31.681442,20.76581 39.163303,16.840132 L 39.455497,29.977748 L 25.456353,36.989479 z " />
        <path
           sodipodi:nodetypes="cccc"
           style="opacity:0.22727272;fill:#ffffff;fill-opacity:1;fill-rule:evenodd;stroke:none;stroke-width:0.30000001;stroke-linecap:butt;stroke-linejoin:miter;stroke-miterlimit:4;stroke-dasharray:none;stroke-opacity:1"
           id="path4244"
           d="M 9.3665862,14.030485 L 23.731249,21.65524 C 30.121621,16.899815 26.583597,10.866597 23.796081,7.2900339 L 9.3665862,14.030485 z " />
      </g>
    </g>
    <path
       inkscape:r_cx="true"
       id="path23417"
       sodipodi:type="arc"
       sodipodi:cx="23.334524"
       sodipodi:cy="41.63604"
       transform="matrix(0.4930409,0,0,0.4991206,1.8310033,16.339021)"
       d="M 45.961941 41.63604 A 22.627417 5.6568542 0 1 1  0.70710754,41.63604 A 22.627417 5.6568542 0 1 1  45.961941 41.63604 z"
       inkscape:r_cy="true"
       style="opacity:0.25;color:#000000;fill:url(#radialGradient5565);fill-opacity:1;fill-rule:evenodd;stroke:none;stroke-width:2;stroke-linecap:butt;stroke-linejoin:miter;marker:none;marker-start:none;marker-mid:none;marker-end:none;stroke-miterlimit:4;stroke-dasharray:none;stroke-dashoffset:0;stroke-opacity:1;visibility:visible;display:inline;overflow:visible"
       sodipodi:ry="5.6568542"
       sodipodi:rx="22.627417" />
    <path
       d="M 3.3292111,17.2412 C -0.87782812,22.960521 0.34953024,31.016694 6.0688497,35.223734 C 11.788169,39.430773 19.844346,38.203415 24.051387,32.484096 C 28.258421,26.764777 27.031068,18.708601 21.311748,14.501563 C 15.592075,10.299758 7.5345805,11.524151 3.3292111,17.2412 z M 9.9420224,22.105477 C 11.460405,20.04129 14.382334,19.597277 16.447468,21.114373 C 18.512476,22.633359 18.957559,25.554812 17.438573,27.619819 C 15.919586,29.684828 12.998134,30.12991 10.933127,28.610924 C 8.8681171,27.091937 8.4230357,24.170484 9.9420224,22.105477 z "
       id="path2206"
       style="fill:#dcdcdc;fill-opacity:1;stroke:none;stroke-width:0.773;stroke-miterlimit:4;stroke-dasharray:none;stroke-opacity:1" />
    <path
       d="M 3.9143031,17.671507 C -0.057608246,23.071179 1.0995603,30.66665 6.4992339,34.638562 C 11.898907,38.610475 19.494378,37.453304 23.466292,32.053634 C 27.438206,26.65396 26.281039,19.058488 20.881364,15.086576 C 15.481355,11.119605 7.88464,12.273976 3.9143031,17.671507 z M 8.2125088,20.833198 C 10.436563,17.809675 14.694762,17.162613 17.719667,19.384781 C 20.744394,21.609718 21.393027,25.86722 19.168087,28.891943 C 16.943148,31.916665 12.685648,32.565294 9.6609249,30.340358 C 6.6362006,28.11542 5.9875701,23.857921 8.2125088,20.833198 z "
       id="path2214"
       style="opacity:0.72727272;fill:url(#linearGradient3470);fill-opacity:1;stroke:none;stroke-width:0.373;stroke-miterlimit:4;stroke-dasharray:none;stroke-opacity:1" />
    <path
       d="M 9.9420224,22.105477 C 8.4230357,24.170484 8.8681171,27.091937 10.933127,28.610924 C 12.998134,30.12991 15.919586,29.684828 17.438573,27.619819 C 18.957559,25.554812 18.512476,22.633359 16.447468,21.114373 C 14.382334,19.597277 11.460405,20.04129 9.9420224,22.105477 z M 11.61808,23.338359 C 12.461225,22.192133 14.067835,21.948 15.214586,22.790432 C 16.361266,23.633912 16.605994,25.240257 15.762514,26.386938 C 14.919032,27.533622 13.312688,27.778346 12.166007,26.934866 C 11.019326,26.091383 10.774599,24.48504 11.61808,23.338359 z "
       id="path2222"
       style="fill:#ffffff;fill-opacity:0.17486339;stroke:#0b0b0b;stroke-width:0.40735638;stroke-miterlimit:4;stroke-dasharray:none;stroke-opacity:0.34426228" />
    <path
       d="M 3.3292109,17.2412 C -0.87782823,22.960521 0.34953013,31.016696 6.0688497,35.223733 C 11.788169,39.430771 19.844346,38.203413 24.051387,32.484094 C 28.258421,26.764775 27.031068,18.708601 21.311748,14.501563 C 15.592074,10.299761 7.5345805,11.524151 3.3292109,17.2412 z M 11.61808,23.338357 C 12.461225,22.19213 14.067835,21.948 15.214586,22.790429 C 16.361268,23.633911 16.605994,25.240257 15.762514,26.386938 C 14.919035,27.533619 13.312688,27.778347 12.166007,26.934866 C 11.019326,26.091383 10.774599,24.485038 11.61808,23.338357 z "
       id="path3248"
       style="fill:none;fill-opacity:0.16393445;stroke:#0b0b0b;stroke-width:0.652;stroke-miterlimit:4;stroke-dasharray:none;stroke-opacity:1;display:inline" />
    <path
       d="M 18.896528,14.431049 C 12.890648,11.468462 5.6217144,13.935047 2.6591259,19.940927 C 1.2990745,22.698079 1.0798437,25.721632 1.8253459,28.472321 C 4.4525398,26.725665 7.3303079,25.390038 10.339352,24.509812 C 10.395473,24.283679 10.456969,24.057588 10.564143,23.840322 C 11.37125,22.204118 13.360928,21.528958 14.997131,22.336066 C 15.508387,22.58826 15.921822,22.950495 16.229381,23.386829 C 19.310104,23.104314 22.459283,23.292847 25.563017,23.962512 C 25.115126,19.996364 22.740147,16.327036 18.896528,14.431049 z "
       id="path3285"
       inkscape:transform-center-y="-6.5092152"
       style="opacity:0.37373735;fill:url(#linearGradient3465);fill-opacity:1;stroke:none;stroke-width:0.63999999;stroke-miterlimit:4;stroke-dasharray:none;stroke-opacity:1;display:inline"
       inkscape:transform-center-x="-1.254751" />
    <path
       d="M 12.971417,12.024248 C 9.2699022,12.230928 5.6902185,14.028986 3.3246984,17.244825 C -0.43039733,22.349746 0.15015759,29.309298 4.3839464,33.738823 L 11.83651,26.645648 C 10.982416,25.759366 10.854881,24.361413 11.609527,23.335498 C 12.287623,22.413651 13.47418,22.086492 14.503544,22.427572 L 17.775862,12.667362 C 16.215439,12.145481 14.577749,11.934555 12.971417,12.024248 z M 23.053189,16.053171 L 15.600621,23.146348 C 16.404118,24.034553 16.508903,25.396407 15.770858,26.39975 C 15.032815,27.403094 13.699214,27.715652 12.61203,27.213101 L 9.320797,36.973311 C 14.542245,38.85928 20.599988,37.18832 24.05569,32.490423 C 27.792763,27.409994 27.231695,20.485574 23.053189,16.053171 z "
       id="path3403"
       style="opacity:0.25252524;fill:url(#linearGradient3462);fill-opacity:1;stroke:none;stroke-width:0.63999999;stroke-miterlimit:4;stroke-dasharray:none;stroke-opacity:0.55191255;display:inline" />
    <path
       style="fill:url(#linearGradient5516);fill-opacity:1.0;stroke:#000000;stroke-width:0.60303742;stroke-miterlimit:4;stroke-dasharray:none;stroke-opacity:1;display:inline"
       d="M 16.802122,0.73776872 C 12.070037,2.858809 8.1863734,6.9739593 5.9462158,12.159776 L 1.7015187,11.698946 L 10.115785,22.39679 L 25.554463,14.068929 L 20.633619,13.641016 C 22.592164,7.748497 27.254933,3.0728358 31.865163,0.90235095 C 31.732475,0.8398829 31.58595,0.79720344 31.451961,0.73776872 L 16.802122,0.73776872 z "
       id="path4360" />
    <path
       style="fill:url(#linearGradient5513);fill-opacity:1.0;stroke:#000000;stroke-width:0.60303742;stroke-miterlimit:4;stroke-dasharray:none;stroke-opacity:1;display:inline"
       d="M 6.3742588,33.456716 C 8.5645712,38.144497 12.104517,41.874326 16.403765,43.957061 L 31.917569,43.957061 C 27.578402,41.891078 23.951367,38.158317 21.737809,33.456716 L 6.3742588,33.456716 z "
       id="path4363" />
    <path
       style="opacity:0.43333333;fill:#ffffff;fill-opacity:1;stroke:none;stroke-width:0.46524638;stroke-miterlimit:4;stroke-dasharray:none;stroke-opacity:1;display:inline"
       d="M 7.5105864,34.083437 C 8.7377646,36.444865 10.33286,38.501425 12.178199,40.203054 C 14.106015,38.197252 17.979646,36.719663 22.617974,36.33146 C 22.153548,35.607284 21.687427,34.870064 21.299641,34.083437 L 7.5105864,34.083437 z "
       id="path5530" />
    <path
       style="fill:url(#linearGradient3481);fill-opacity:1.0;stroke:none;stroke-width:0.60303742;stroke-miterlimit:4;stroke-dasharray:none;stroke-opacity:1;display:inline;opacity:0.67272727"
       d="M 17.0625 1.625 C 12.608906 3.6627415 8.8890382 7.5482681 6.75 12.5 C 6.5973068 12.856838 6.2297045 13.072329 5.84375 13.03125 L 3.65625 12.78125 L 6.78125 16.75 C 10.017366 10.462621 16.872983 5.8772988 25.0625 4.90625 C 26.296852 3.6444577 27.615824 2.5371873 29 1.625 L 17.0625 1.625 z "
       id="path2498" />
  </g>
</svg>
