<?xml version="1.0" encoding="UTF-8" standalone="no"?>
<!-- Created with Inkscape (http://www.inkscape.org/) -->
<svg
   xmlns:dc="http://purl.org/dc/elements/1.1/"
   xmlns:cc="http://creativecommons.org/ns#"
   xmlns:rdf="http://www.w3.org/1999/02/22-rdf-syntax-ns#"
   xmlns:svg="http://www.w3.org/2000/svg"
   xmlns="http://www.w3.org/2000/svg"
   xmlns:xlink="http://www.w3.org/1999/xlink"
   xmlns:sodipodi="http://sodipodi.sourceforge.net/DTD/sodipodi-0.dtd"
   xmlns:inkscape="http://www.inkscape.org/namespaces/inkscape"
   width="48"
   height="48"
   id="svg97"
   sodipodi:version="0.32"
   inkscape:version="0.46"
   sodipodi:docbase="/home/marco/Scrivania/UltimateGnome/scalable/actions"
   sodipodi:docname="document-open.svg"
   inkscape:export-filename="/home/jimmac/ximian_art/icons/nautilus/snowdunes/gnome-fs-directory-accept.png"
   inkscape:export-xdpi="90.000000"
   inkscape:export-ydpi="90.000000"
   inkscape:output_extension="org.inkscape.output.svg.inkscape"
   version="1.0">
  <defs
     id="defs3">
    <filter
       id="filter12162"
       inkscape:collect="always">
      <feGaussianBlur
         id="feGaussianBlur12164"
         stdDeviation="0.31039134"
         inkscape:collect="always" />
    </filter>
    <filter
       id="filter5289"
       inkscape:collect="always">
      <feGaussianBlur
         id="feGaussianBlur5291"
         stdDeviation="0.31127586"
         inkscape:collect="always" />
    </filter>
    <linearGradient
       id="linearGradient7254">
      <stop
         id="stop7256"
         offset="0"
         style="stop-color:#ffffff;stop-opacity:1;" />
      <stop
         style="stop-color:#9deaff;stop-opacity:1;"
         offset="0.5"
         id="stop8231" />
      <stop
         id="stop7258"
         offset="1"
         style="stop-color:#3ca3ff;stop-opacity:1;" />
    </linearGradient>
    <linearGradient
       id="linearGradient259">
      <stop
         style="stop-color:#ffffff;stop-opacity:1;"
         offset="0"
         id="stop260" />
      <stop
         style="stop-color:#e8e3dd;stop-opacity:1;"
         offset="1"
         id="stop261" />
    </linearGradient>
    <linearGradient
       id="linearGradient269">
      <stop
         style="stop-color:#ffffff;stop-opacity:1;"
         offset="0"
         id="stop270" />
      <stop
         style="stop-color:#ffffff;stop-opacity:0;"
         offset="1"
         id="stop271" />
    </linearGradient>
    <radialGradient
       inkscape:collect="always"
       xlink:href="#linearGradient259"
       id="radialGradient2346"
       gradientUnits="userSpaceOnUse"
       gradientTransform="matrix(-4.9557361e-2,2.3082769,-3.2552968,-4.0219215e-2,32.904193,-23.87063)"
       cx="27.651968"
       cy="-3.1861894"
       fx="27.651968"
       fy="-3.1861894"
       r="15.5" />
    <radialGradient
       inkscape:collect="always"
       xlink:href="#linearGradient269"
       id="radialGradient2348"
       gradientUnits="userSpaceOnUse"
       gradientTransform="matrix(-4.9557361e-2,2.3082769,-3.2552968,-4.0219215e-2,32.862521,-23.883098)"
       cx="12.028852"
       cy="7.6667676"
       fx="12.028852"
       fy="7.6667676"
       r="15.5" />
    <radialGradient
       inkscape:collect="always"
       xlink:href="#linearGradient7254"
       id="radialGradient2352"
       gradientUnits="userSpaceOnUse"
       gradientTransform="matrix(0.8944917,0.4461686,-0.6551186,0.795632,11.57437,4.3418225)"
       spreadMethod="reflect"
       cx="19.341837"
       cy="16.26161"
       fx="19.341837"
       fy="16.26161"
       r="21.167664" />
  </defs>
  <sodipodi:namedview
     id="base"
     pagecolor="#ffffff"
     bordercolor="#000000"
     borderopacity="1"
     inkscape:pageopacity="0.0"
     inkscape:pageshadow="2"
     inkscape:zoom="2"
     inkscape:cx="36.585105"
     inkscape:cy="26.906752"
     inkscape:current-layer="layer1"
     showgrid="true"
     inkscape:grid-bbox="true"
     inkscape:document-units="px"
     inkscape:window-width="1272"
     inkscape:window-height="922"
     inkscape:window-x="0"
     inkscape:window-y="25"
     inkscape:showpageshadow="false"
     stroke="#ce5c00"
     fill="#888a85"
     showborder="true" />
  <metadata
     id="metadata4">
    <rdf:RDF>
      <cc:Work
         rdf:about="">
        <dc:format>image/svg+xml</dc:format>
        <dc:type
           rdf:resource="http://purl.org/dc/dcmitype/StillImage" />
        <dc:title />
        <dc:date />
        <dc:creator>
          <cc:Agent>
            <dc:title>Marco Tessarotto</dc:title>
          </cc:Agent>
        </dc:creator>
        <cc:license
           rdf:resource="http://creativecommons.org/licenses/by-nc-sa/2.5/" />
        <dc:source />
        <dc:description />
        <dc:publisher>
          <cc:Agent>
            <dc:title />
          </cc:Agent>
        </dc:publisher>
        <dc:contributor>
          <cc:Agent>
            <dc:title />
          </cc:Agent>
        </dc:contributor>
      </cc:Work>
      <cc:License
         rdf:about="http://creativecommons.org/licenses/by-nc-sa/2.5/">
        <cc:permits
           rdf:resource="http://web.resource.org/cc/Reproduction" />
        <cc:permits
           rdf:resource="http://web.resource.org/cc/Distribution" />
        <cc:requires
           rdf:resource="http://web.resource.org/cc/Notice" />
        <cc:requires
           rdf:resource="http://web.resource.org/cc/Attribution" />
        <cc:prohibits
           rdf:resource="http://web.resource.org/cc/CommercialUse" />
        <cc:permits
           rdf:resource="http://web.resource.org/cc/DerivativeWorks" />
        <cc:requires
           rdf:resource="http://web.resource.org/cc/ShareAlike" />
      </cc:License>
    </rdf:RDF>
  </metadata>
  <g
     inkscape:groupmode="layer"
     id="layer1"
     inkscape:label="nuovo">
    <g
       id="layer2"
       inkscape:label="Shadow"
       style="opacity:0.28787878;display:inline"
       transform="matrix(0.9560263,0,0,0.9560263,-6.1204525,5.3278441)">
      <g
         id="g3354"
         transform="matrix(1.0134446,-0.1823309,0.1810058,0.8882898,-3.4973699,3.9789194)"
         style="opacity:1">
        <path
           style="opacity:0.06666703;fill:#000000;fill-opacity:1;stroke:none"
           d="M 7.125,42.875 C 5.817069,43.482054 13.621333,43.007633 15.276786,43.15625 C 22.728539,42.973662 32.710951,43.498864 38.90625,42.9375 C 28.327868,42.734036 17.711605,42.86803 7.125,42.875 z "
           id="path3371" />
        <path
           style="opacity:0.06666703;fill:#000000;fill-opacity:1;stroke:none"
           d="M 7.0625,42.46875 C 6.3400984,42.322911 4.5748491,43.092456 6.15625,43.40625 C 16.926732,43.761038 27.745751,43.49232 38.53125,43.53125 C 39.259295,43.667433 40.970679,42.899465 39.40625,42.59375 C 28.651625,42.23896 17.832877,42.507715 7.0625,42.46875 z "
           id="path3376" />
        <path
           style="opacity:0.06666703;fill:#000000;fill-opacity:1;stroke:none"
           d="M 7,41.9375 C 6.238889,42.017514 5.0528764,42.13462 4.90625,43 C 5.0554797,43.867799 6.2372349,43.981311 7,44.0625 C 13.264716,44.135404 19.533658,44.072928 25.8,44.09375 C 30.053851,44.073213 34.310272,44.13502 38.5625,44.0625 C 39.323611,43.982486 40.509624,43.86538 40.65625,43 C 40.50702,42.132201 39.325265,42.018689 38.5625,41.9375 C 32.297784,41.864596 26.028842,41.927072 19.7625,41.90625 C 15.508734,41.926787 11.252106,41.86498 7,41.9375 z "
           id="path3381" />
        <path
           style="opacity:0.06666703;fill:#000000;fill-opacity:1;stroke:none"
           d="M 6.96875,41.59375 C 5.6519933,41.323289 3.5519537,42.931351 5.21875,43.9375 C 9.0532143,45.125005 13.356235,44.092531 17.357144,44.4375 C 24.759306,44.297351 32.230079,44.708618 39.59375,44.25 C 41.358993,44.144081 41.323358,41.818942 39.5625,41.75 C 28.922174,41.29843 18.17842,41.697773 7.5,41.5625 C 7.3225477,41.561098 7.1458643,41.584324 6.96875,41.59375 z "
           id="path3386" />
        <path
           style="opacity:0.06666703;fill:#000000;fill-opacity:1;stroke:none"
           d="M 6.9375,41.1875 C 4.3166183,40.611464 3.041246,44.366005 5.96875,44.6875 C 17.331495,44.784213 28.882648,45.274303 40.1875,44.5 C 42.921998,43.395085 40.232604,40.436766 38.0625,41.15625 C 27.68793,41.178914 17.310405,41.112116 6.9375,41.1875 z "
           id="path3391" />
        <path
           style="opacity:0.06666703;fill:#000000;fill-opacity:1;stroke:none"
           d="M 6.90625,40.75 C 3.3835192,40.146457 2.6671782,45.28727 6.375,45.1875 C 17.688718,45.005018 29.256776,45.967066 40.46875,44.84375 C 43.52024,43.486131 40.646309,39.961248 38.0625,40.71875 C 27.677532,40.741908 17.289547,40.673948 6.90625,40.75 z "
           id="path3396" />
        <path
           style="opacity:0.06666703;fill:#000000;fill-opacity:1;stroke:none"
           d="M 6.90625,40.3125 C 2.8715713,39.687948 2.0833445,45.679261 6.3125,45.59375 C 17.653302,45.498337 29.282996,46.368048 40.53125,45.28125 C 44.147219,43.884667 41.225187,39.440237 38.0625,40.28125 C 27.67753,40.304368 17.289549,40.236503 6.90625,40.3125 z "
           id="path3401" />
        <path
           style="opacity:0.06666703;fill:#000000;fill-opacity:1;stroke:none"
           d="M 7.375,39.875 C 3.0249191,38.906286 1.0597142,45.351008 5.78125,45.96875 C 17.358885,46.018088 29.218515,46.792733 40.71875,45.6875 C 44.724914,44.072465 41.707772,39.013682 38.0625,39.84375 C 27.835932,39.864975 17.589222,39.80156 7.375,39.875 z "
           id="path3406" />
        <path
           style="opacity:0.06666703;fill:#000000;fill-opacity:1;stroke:none"
           d="M 6.84375,39.46875 C 1.8233552,38.854506 1.024099,46.413494 6.1875,46.46875 C 17.701887,46.270396 29.463081,47.285228 40.875,46.09375 C 45.32893,44.340109 42.166414,38.505662 38.0625,39.4375 C 27.656698,39.460656 17.24788,39.392698 6.84375,39.46875 z "
           id="path3411" />
        <path
           style="opacity:0.06666703;fill:#000000;fill-opacity:1;stroke:none"
           d="M 6.8125,39.03125 C 1.5959042,38.420912 0.27591709,46.270495 5.65625,46.8125 C 17.305315,46.895787 29.202609,47.580396 40.78125,46.5625 C 45.907832,44.98461 42.853887,37.956476 38.0625,39 C 27.646283,39.023191 17.227045,38.95515 6.8125,39.03125 z "
           id="path3416" />
      </g>
    </g>
    <path
       sodipodi:nodetypes="cccscscsscscc"
       id="path2219"
       d="M 4.0435381,43.485543 C 2.6007834,43.974119 1.3833937,42.191328 1.5283111,39.638354 L 1.4600986,16.086118 C 1.2818439,15.860551 1.6962496,13.579159 3.6941826,13.4781 C 5.2847435,13.397637 4.8614739,10.692889 4.8739946,10.824198 C 4.8739946,10.824198 4.5069937,8.4778477 6.4266455,8.0170702 C 7.2953573,7.808552 14.651361,6.8366571 14.651361,6.8366571 C 14.651361,6.8366571 16.252441,6.7971288 16.252441,8.6402376 C 16.252441,9.7199055 15.993522,11.685575 17.424519,11.392495 C 19.504212,10.966578 32.977445,8.8051333 32.977445,8.8051333 C 32.977445,8.8051333 34.761591,8.4889057 34.761591,11.053121 C 34.761591,13.617334 34.648964,33.901791 34.648964,33.901791 C 34.43793,36.338825 34.845808,37.519918 35.844748,37.879025"
       style="opacity:0.67400004;fill:#fffffb;fill-opacity:1;fill-rule:evenodd;stroke:#000000;stroke-width:0.96245599px;stroke-linecap:butt;stroke-linejoin:round;stroke-opacity:0.989071" />
    <g
       transform="matrix(0.9606396,0,0,1.1574666,-8.0066024,-0.9677488)"
       style="opacity:0.21600001;filter:url(#filter5289)"
       id="g2269">
      <g
         style="filter:url(#filter12162)"
         id="g12115">
        <g
           transform="matrix(1,0,0,1.037663,0,-0.3741802)"
           id="g2253">
          <path
             style="fill:none;fill-rule:evenodd;stroke:#000000;stroke-width:1px;stroke-linecap:butt;stroke-linejoin:miter;stroke-opacity:1"
             d="M 10.713002,14.765981 C 43.580725,10.434952 43.669113,10.434952 43.669113,10.434952 L 10.713002,14.765981 z "
             id="path2223" />
          <path
             style="fill:none;fill-rule:evenodd;stroke:#000000;stroke-width:1px;stroke-linecap:butt;stroke-linejoin:miter;stroke-opacity:1;display:inline"
             d="M 10.713002,17.108273 C 43.580727,12.777244 43.669115,12.777244 43.669115,12.777244 L 10.713002,17.108273 z "
             id="path2225" />
          <path
             style="fill:none;fill-rule:evenodd;stroke:#000000;stroke-width:1px;stroke-linecap:butt;stroke-linejoin:miter;stroke-opacity:1;display:inline"
             d="M 10.713002,19.384272 C 43.580727,15.053243 43.669115,15.053243 43.669115,15.053243 L 10.713002,19.384272 z "
             id="path2227" />
          <path
             style="fill:none;fill-rule:evenodd;stroke:#000000;stroke-width:1px;stroke-linecap:butt;stroke-linejoin:miter;stroke-opacity:1;display:inline"
             d="M 10.713002,21.726564 C 43.580726,17.395535 43.669114,17.395535 43.669114,17.395535 L 10.713002,21.726564 z "
             id="path2229" />
          <path
             style="fill:none;fill-rule:evenodd;stroke:#000000;stroke-width:1px;stroke-linecap:butt;stroke-linejoin:miter;stroke-opacity:1;display:inline"
             d="M 10.713002,23.881029 C 43.580728,19.55 43.669116,19.55 43.669116,19.55 L 10.713002,23.881029 z "
             id="path2231" />
          <path
             style="fill:none;fill-rule:evenodd;stroke:#000000;stroke-width:1px;stroke-linecap:butt;stroke-linejoin:miter;stroke-opacity:1;display:inline"
             d="M 10.713002,26.223321 C 43.580727,21.892292 43.669115,21.892292 43.669115,21.892292 L 10.713002,26.223321 z "
             id="path2233" />
          <path
             style="fill:none;fill-rule:evenodd;stroke:#000000;stroke-width:1px;stroke-linecap:butt;stroke-linejoin:miter;stroke-opacity:1;display:inline"
             d="M 10.713002,28.49932 C 43.580728,24.168291 43.669116,24.168291 43.669116,24.168291 L 10.713002,28.49932 z "
             id="path2235"
             sodipodi:nodetypes="ccc" />
          <path
             style="fill:none;fill-rule:evenodd;stroke:#000000;stroke-width:1px;stroke-linecap:butt;stroke-linejoin:miter;stroke-opacity:1;display:inline"
             d="M 10.713002,30.841612 C 43.580724,26.510583 43.669112,26.510583 43.669112,26.510583 L 10.713002,30.841612 z "
             id="path2237" />
          <path
             style="fill:none;fill-rule:evenodd;stroke:#000000;stroke-width:1px;stroke-linecap:butt;stroke-linejoin:miter;stroke-opacity:1;display:inline"
             d="M 10.713002,32.90769 C 43.580727,28.576661 43.669115,28.576661 43.669115,28.576661 L 10.713002,32.90769 z "
             id="path2247" />
          <path
             style="fill:none;fill-rule:evenodd;stroke:#000000;stroke-width:1px;stroke-linecap:butt;stroke-linejoin:miter;stroke-opacity:1;display:inline"
             d="M 10.713002,35.249982 C 43.580725,30.918953 43.669113,30.918953 43.669113,30.918953 L 10.713002,35.249982 z "
             id="path2249" />
        </g>
        <path
           id="path2265"
           d="M 13.554793,12.35049 L 25.298106,11.082677 L 13.554793,12.35049 z "
           style="fill:none;fill-rule:evenodd;stroke:#000000;stroke-width:1.06033528px;stroke-linecap:butt;stroke-linejoin:miter;stroke-opacity:1" />
        <path
           id="path2267"
           d="M 13.725855,10.146065 L 24.55501,8.9560726 L 13.725855,10.146065 z "
           style="fill:none;fill-rule:evenodd;stroke:#000000;stroke-width:1.04934537px;stroke-linecap:butt;stroke-linejoin:miter;stroke-opacity:1" />
      </g>
    </g>
    <g
       id="layer5"
       inkscape:label="file"
       style="display:inline"
       transform="matrix(0.6917555,-0.354419,0.1597385,0.5417159,4.2774867,17.540708)">
      <path
         style="fill:url(#radialGradient2346);fill-opacity:1;fill-rule:evenodd;stroke:#000000;stroke-width:0.68711728;stroke-linecap:butt;stroke-linejoin:round;stroke-miterlimit:4;stroke-dasharray:none;stroke-opacity:0.81420767"
         d="M 4.2632624,1.0542401 L 4.2632624,40.951702 L 43.708559,40.951702 L 43.708559,1.0542401 L 4.2632624,1.0542401 z "
         id="path2201" />
      <path
         style="fill:url(#radialGradient2348);fill-opacity:1;fill-rule:evenodd;stroke:#000000;stroke-width:0.68711728;stroke-linecap:butt;stroke-linejoin:round;stroke-miterlimit:4;stroke-dasharray:none;stroke-opacity:0;display:inline"
         d="M 6.834842,38.95683 C 6.3752169,33.929051 10.283937,12.441726 41.60185,8.3491236 C 41.60185,4.0845367 41.834283,6.8728914 41.834283,2.6083045 C 30.438974,2.6083045 17.53285,2.6083045 6.1375403,2.6083045 C 6.1375403,14.577543 6.834842,26.987591 6.834842,38.95683 z "
         id="path3201"
         sodipodi:nodetypes="ccccc" />
    </g>
    <path
       sodipodi:nodetypes="ccscscscc"
       id="path5294"
       d="M 3.6871777,43.671822 L 36.209119,37.952054 C 36.209119,37.952054 37.830751,37.949119 38.880044,36.240645 C 39.990079,34.433293 43.566042,26.296528 45.43065,23.251771 C 46.295932,21.768628 49.385015,17.954653 45.873571,18.188252 C 43.545805,18.343101 17.790111,23.193362 17.790111,23.193362 C 17.790111,23.193362 16.319528,23.601166 14.828786,25.566867 C 12.506764,28.628695 7.2328948,40.201951 6.6242161,40.867265 C 5.9132155,41.893416 5.3481502,42.969289 3.6871777,43.671822 z "
       style="opacity:0.83868689;fill:url(#radialGradient2352);fill-opacity:1;fill-rule:evenodd;stroke:#000000;stroke-width:0.81835532px;stroke-linecap:butt;stroke-linejoin:miter;stroke-opacity:0.66120217" />
    <path
       sodipodi:nodetypes="cccccc"
       id="path9204"
       d="M 8.6382674,40.861425 C 11.274261,35.349811 15.671304,25.016877 19.764592,23.97316 L 42.167372,19.773029 C 47.006709,18.636828 45.241677,21.047789 44.413986,22.981205 C 42.031219,26.382854 41.309879,30.164724 27.564828,31.327647 C 14.668883,31.844994 9.9562095,39.866273 8.6382674,40.861425 z "
       style="opacity:0.33999999;fill:#ffffff;fill-opacity:1;fill-rule:evenodd;stroke:#ffffff;stroke-width:0.72021246px;stroke-linecap:round;stroke-linejoin:round;stroke-opacity:1;display:inline" />
  </g>
</svg>
