<?xml version="1.0" encoding="UTF-8" standalone="no"?>
<!-- Created with Inkscape (http://www.inkscape.org/) -->
<svg
   xmlns:dc="http://purl.org/dc/elements/1.1/"
   xmlns:cc="http://creativecommons.org/ns#"
   xmlns:rdf="http://www.w3.org/1999/02/22-rdf-syntax-ns#"
   xmlns:svg="http://www.w3.org/2000/svg"
   xmlns="http://www.w3.org/2000/svg"
   xmlns:xlink="http://www.w3.org/1999/xlink"
   xmlns:sodipodi="http://sodipodi.sourceforge.net/DTD/sodipodi-0.dtd"
   xmlns:inkscape="http://www.inkscape.org/namespaces/inkscape"
   version="1.0"
   x="0.0000000"
   y="0.0000000"
   width="48.000000px"
   height="48.000000px"
   id="svg1"
   sodipodi:version="0.32"
   inkscape:version="0.46"
   sodipodi:docname="folder-new.svg"
   sodipodi:docbase="/home/marco/Scrivania/UltimateGnome/scalable/actions"
   inkscape:output_extension="org.inkscape.output.svg.inkscape">
  <metadata
     id="metadata162">
    <rdf:RDF>
      <cc:Work
         rdf:about="">
        <dc:format>image/svg+xml</dc:format>
        <dc:type
           rdf:resource="http://purl.org/dc/dcmitype/StillImage" />
        <dc:title />
        <dc:creator>
          <cc:Agent>
            <dc:title>Marco Tessarotto</dc:title>
          </cc:Agent>
        </dc:creator>
        <dc:date />
        <cc:license
           rdf:resource="http://creativecommons.org/licenses/by-nc-sa/2.5/" />
        <dc:identifier />
        <dc:subject>
          <rdf:Bag />
        </dc:subject>
      </cc:Work>
      <cc:License
         rdf:about="http://creativecommons.org/licenses/by-nc-sa/2.5/">
        <cc:permits
           rdf:resource="http://web.resource.org/cc/Reproduction" />
        <cc:permits
           rdf:resource="http://web.resource.org/cc/Distribution" />
        <cc:requires
           rdf:resource="http://web.resource.org/cc/Notice" />
        <cc:requires
           rdf:resource="http://web.resource.org/cc/Attribution" />
        <cc:prohibits
           rdf:resource="http://web.resource.org/cc/CommercialUse" />
        <cc:permits
           rdf:resource="http://web.resource.org/cc/DerivativeWorks" />
        <cc:requires
           rdf:resource="http://web.resource.org/cc/ShareAlike" />
      </cc:License>
    </rdf:RDF>
  </metadata>
  <sodipodi:namedview
     id="base"
     pagecolor="#ffffff"
     bordercolor="#666"
     borderopacity="1"
     inkscape:pageopacity="0.0"
     inkscape:pageshadow="2"
     inkscape:window-width="1272"
     inkscape:window-height="922"
     inkscape:cy="40.127788"
     inkscape:cx="86.75"
     inkscape:zoom="1"
     inkscape:document-units="px"
     showgrid="true"
     inkscape:window-x="0"
     inkscape:window-y="25"
     inkscape:current-layer="layer2"
     inkscape:showpageshadow="false" />
  <defs
     id="defs3">
    <filter
       id="filter12162"
       inkscape:collect="always">
      <feGaussianBlur
         id="feGaussianBlur12164"
         stdDeviation="0.31039134"
         inkscape:collect="always" />
    </filter>
    <radialGradient
       spreadMethod="reflect"
       gradientUnits="userSpaceOnUse"
       gradientTransform="matrix(1.215905,0.6770079,-0.3414433,1.0594656,2.2103769e-2,-14.047495)"
       r="21.167664"
       fy="16.26161"
       fx="19.341837"
       cy="16.26161"
       cx="19.341837"
       id="radialGradient7260"
       xlink:href="#linearGradient7254"
       inkscape:collect="always" />
    <filter
       id="filter5289"
       inkscape:collect="always">
      <feGaussianBlur
         id="feGaussianBlur5291"
         stdDeviation="0.31127586"
         inkscape:collect="always" />
    </filter>
    <linearGradient
       id="linearGradient7254">
      <stop
         id="stop7256"
         offset="0"
         style="stop-color:#ffffff;stop-opacity:1;" />
      <stop
         style="stop-color:#9deaff;stop-opacity:1;"
         offset="0.5"
         id="stop8231" />
      <stop
         id="stop7258"
         offset="1"
         style="stop-color:#3ca3ff;stop-opacity:1;" />
    </linearGradient>
    <linearGradient
       id="linearGradient3453">
      <stop
         style="stop-color:#ffffff;stop-opacity:1;"
         offset="0"
         id="stop3455" />
      <stop
         id="stop3418"
         offset="0.5"
         style="stop-color:#ffdc76;stop-opacity:1;" />
      <stop
         style="stop-color:#ff9612;stop-opacity:1;"
         offset="1"
         id="stop3457" />
    </linearGradient>
    <linearGradient
       id="linearGradient3422"
       inkscape:collect="always">
      <stop
         id="stop3424"
         offset="0"
         style="stop-color:#ffffff;stop-opacity:1;" />
      <stop
         id="stop3426"
         offset="1"
         style="stop-color:#ffffff;stop-opacity:0;" />
    </linearGradient>
    <radialGradient
       inkscape:collect="always"
       xlink:href="#linearGradient3422"
       id="radialGradient4481"
       gradientUnits="userSpaceOnUse"
       gradientTransform="matrix(-0.8897147,3.1758689e-8,-3.3628941e-8,-1.2587602,57.860275,10.003186)"
       cx="24.249296"
       cy="3.8043461"
       fx="24.249296"
       fy="3.8043461"
       r="16.226612" />
    <radialGradient
       inkscape:collect="always"
       xlink:href="#linearGradient3453"
       id="radialGradient4484"
       gradientUnits="userSpaceOnUse"
       gradientTransform="matrix(1.3298051,-0.6719574,0.7728856,1.5940531,-41.032832,-4.461895)"
       cx="29.116335"
       cy="40.665936"
       fx="29.116335"
       fy="40.665936"
       r="25.00115" />
  </defs>
  <g
     inkscape:groupmode="layer"
     id="layer1"
     inkscape:label="pixmap"
     style="display:inline" />
  <g
     inkscape:groupmode="layer"
     id="layer2"
     inkscape:label="vectors"
     style="display:inline">
    <g
       id="g891"
       transform="matrix(0.186703,0.000000,0.000000,0.186703,-21.10730,57.62299)" />
    <g
       id="g2589"
       transform="translate(-3.7014702,2.9348799)">
      <g
         style="opacity:0.28787878;display:inline"
         inkscape:label="Shadow"
         id="g2591">
        <g
           style="opacity:1"
           transform="matrix(1.0134446,-0.1823309,0.1810058,0.8882898,-3.4973699,3.9789194)"
           id="g3354">
          <path
             id="path3371"
             d="M 7.125,42.875 C 5.817069,43.482054 13.621333,43.007633 15.276786,43.15625 C 22.728539,42.973662 32.710951,43.498864 38.90625,42.9375 C 28.327868,42.734036 17.711605,42.86803 7.125,42.875 z "
             style="opacity:0.06666703;fill:#000000;fill-opacity:1;stroke:none" />
          <path
             id="path3376"
             d="M 7.0625,42.46875 C 6.3400984,42.322911 4.5748491,43.092456 6.15625,43.40625 C 16.926732,43.761038 27.745751,43.49232 38.53125,43.53125 C 39.259295,43.667433 40.970679,42.899465 39.40625,42.59375 C 28.651625,42.23896 17.832877,42.507715 7.0625,42.46875 z "
             style="opacity:0.06666703;fill:#000000;fill-opacity:1;stroke:none" />
          <path
             id="path3381"
             d="M 7,41.9375 C 6.238889,42.017514 5.0528764,42.13462 4.90625,43 C 5.0554797,43.867799 6.2372349,43.981311 7,44.0625 C 13.264716,44.135404 19.533658,44.072928 25.8,44.09375 C 30.053851,44.073213 34.310272,44.13502 38.5625,44.0625 C 39.323611,43.982486 40.509624,43.86538 40.65625,43 C 40.50702,42.132201 39.325265,42.018689 38.5625,41.9375 C 32.297784,41.864596 26.028842,41.927072 19.7625,41.90625 C 15.508734,41.926787 11.252106,41.86498 7,41.9375 z "
             style="opacity:0.06666703;fill:#000000;fill-opacity:1;stroke:none" />
          <path
             id="path3386"
             d="M 6.96875,41.59375 C 5.6519933,41.323289 3.5519537,42.931351 5.21875,43.9375 C 9.0532143,45.125005 13.356235,44.092531 17.357144,44.4375 C 24.759306,44.297351 32.230079,44.708618 39.59375,44.25 C 41.358993,44.144081 41.323358,41.818942 39.5625,41.75 C 28.922174,41.29843 18.17842,41.697773 7.5,41.5625 C 7.3225477,41.561098 7.1458643,41.584324 6.96875,41.59375 z "
             style="opacity:0.06666703;fill:#000000;fill-opacity:1;stroke:none" />
          <path
             id="path3391"
             d="M 6.9375,41.1875 C 4.3166183,40.611464 3.041246,44.366005 5.96875,44.6875 C 17.331495,44.784213 28.882648,45.274303 40.1875,44.5 C 42.921998,43.395085 40.232604,40.436766 38.0625,41.15625 C 27.68793,41.178914 17.310405,41.112116 6.9375,41.1875 z "
             style="opacity:0.06666703;fill:#000000;fill-opacity:1;stroke:none" />
          <path
             id="path3396"
             d="M 6.90625,40.75 C 3.3835192,40.146457 2.6671782,45.28727 6.375,45.1875 C 17.688718,45.005018 29.256776,45.967066 40.46875,44.84375 C 43.52024,43.486131 40.646309,39.961248 38.0625,40.71875 C 27.677532,40.741908 17.289547,40.673948 6.90625,40.75 z "
             style="opacity:0.06666703;fill:#000000;fill-opacity:1;stroke:none" />
          <path
             id="path3401"
             d="M 6.90625,40.3125 C 2.8715713,39.687948 2.0833445,45.679261 6.3125,45.59375 C 17.653302,45.498337 29.282996,46.368048 40.53125,45.28125 C 44.147219,43.884667 41.225187,39.440237 38.0625,40.28125 C 27.67753,40.304368 17.289549,40.236503 6.90625,40.3125 z "
             style="opacity:0.06666703;fill:#000000;fill-opacity:1;stroke:none" />
          <path
             id="path3406"
             d="M 7.375,39.875 C 3.0249191,38.906286 1.0597142,45.351008 5.78125,45.96875 C 17.358885,46.018088 29.218515,46.792733 40.71875,45.6875 C 44.724914,44.072465 41.707772,39.013682 38.0625,39.84375 C 27.835932,39.864975 17.589222,39.80156 7.375,39.875 z "
             style="opacity:0.06666703;fill:#000000;fill-opacity:1;stroke:none" />
          <path
             id="path3411"
             d="M 6.84375,39.46875 C 1.8233552,38.854506 1.024099,46.413494 6.1875,46.46875 C 17.701887,46.270396 29.463081,47.285228 40.875,46.09375 C 45.32893,44.340109 42.166414,38.505662 38.0625,39.4375 C 27.656698,39.460656 17.24788,39.392698 6.84375,39.46875 z "
             style="opacity:0.06666703;fill:#000000;fill-opacity:1;stroke:none" />
          <path
             id="path3416"
             d="M 6.8125,39.03125 C 1.5959042,38.420912 0.27591709,46.270495 5.65625,46.8125 C 17.305315,46.895787 29.202609,47.580396 40.78125,46.5625 C 45.907832,44.98461 42.853887,37.956476 38.0625,39 C 27.646283,39.023191 17.227045,38.95515 6.8125,39.03125 z "
             style="opacity:0.06666703;fill:#000000;fill-opacity:1;stroke:none" />
        </g>
      </g>
      <g
         style="display:inline"
         inkscape:label="Folder"
         id="g2604">
        <path
           sodipodi:nodetypes="cccscscsscscc"
           id="path2219"
           d="M 10.631506,39.912842 C 9.1223886,40.423901 7.8490022,38.559095 8.0005856,35.8887 L 7.9292355,11.253123 C 7.7427818,11.017177 8.1762483,8.630853 10.26608,8.5251389 C 11.929802,8.4409794 11.487064,5.6118215 11.500161,5.7491682 C 11.500161,5.7491682 11.116278,3.2948946 13.124229,2.8129227 C 14.032899,2.5948132 21.727266,1.5782141 21.727266,1.5782141 C 21.727266,1.5782141 23.40198,1.5368674 23.40198,3.464754 C 23.40198,4.5940836 23.131159,6.6501662 24.62798,6.3436126 C 26.803329,5.8980962 40.896283,3.6372345 40.896283,3.6372345 C 40.896283,3.6372345 42.762505,3.3064613 42.762505,5.9886205 C 42.762505,8.6707785 42.644691,29.888275 42.644691,29.888275 C 42.423955,32.437399 42.850596,33.672811 43.895476,34.048439"
           style="opacity:0.67400004;fill:#fffffb;fill-opacity:1;fill-rule:evenodd;stroke:#000000;stroke-width:1.00672591px;stroke-linecap:butt;stroke-linejoin:round;stroke-opacity:0.989071" />
        <g
           transform="matrix(1.0048267,0,0,1.2107067,-1.9729075,-6.5851725)"
           style="opacity:0.21600001;filter:url(#filter5289)"
           id="g2269">
          <g
             style="filter:url(#filter12162)"
             id="g12115">
            <g
               transform="matrix(1,0,0,1.037663,0,-0.3741802)"
               id="g2253">
              <path
                 style="fill:none;fill-rule:evenodd;stroke:#000000;stroke-width:1px;stroke-linecap:butt;stroke-linejoin:miter;stroke-opacity:1"
                 d="M 10.713002,14.765981 C 43.580725,10.434952 43.669113,10.434952 43.669113,10.434952 L 10.713002,14.765981 z "
                 id="path2223" />
              <path
                 style="fill:none;fill-rule:evenodd;stroke:#000000;stroke-width:1px;stroke-linecap:butt;stroke-linejoin:miter;stroke-opacity:1;display:inline"
                 d="M 10.713002,17.108273 C 43.580727,12.777244 43.669115,12.777244 43.669115,12.777244 L 10.713002,17.108273 z "
                 id="path2225" />
              <path
                 style="fill:none;fill-rule:evenodd;stroke:#000000;stroke-width:1px;stroke-linecap:butt;stroke-linejoin:miter;stroke-opacity:1;display:inline"
                 d="M 10.713002,19.384272 C 43.580727,15.053243 43.669115,15.053243 43.669115,15.053243 L 10.713002,19.384272 z "
                 id="path2227" />
              <path
                 style="fill:none;fill-rule:evenodd;stroke:#000000;stroke-width:1px;stroke-linecap:butt;stroke-linejoin:miter;stroke-opacity:1;display:inline"
                 d="M 10.713002,21.726564 C 43.580726,17.395535 43.669114,17.395535 43.669114,17.395535 L 10.713002,21.726564 z "
                 id="path2229" />
              <path
                 style="fill:none;fill-rule:evenodd;stroke:#000000;stroke-width:1px;stroke-linecap:butt;stroke-linejoin:miter;stroke-opacity:1;display:inline"
                 d="M 10.713002,23.881029 C 43.580728,19.55 43.669116,19.55 43.669116,19.55 L 10.713002,23.881029 z "
                 id="path2231" />
              <path
                 style="fill:none;fill-rule:evenodd;stroke:#000000;stroke-width:1px;stroke-linecap:butt;stroke-linejoin:miter;stroke-opacity:1;display:inline"
                 d="M 10.713002,26.223321 C 43.580727,21.892292 43.669115,21.892292 43.669115,21.892292 L 10.713002,26.223321 z "
                 id="path2233" />
              <path
                 style="fill:none;fill-rule:evenodd;stroke:#000000;stroke-width:1px;stroke-linecap:butt;stroke-linejoin:miter;stroke-opacity:1;display:inline"
                 d="M 10.713002,28.49932 C 43.580728,24.168291 43.669116,24.168291 43.669116,24.168291 L 10.713002,28.49932 z "
                 id="path2235"
                 sodipodi:nodetypes="ccc" />
              <path
                 style="fill:none;fill-rule:evenodd;stroke:#000000;stroke-width:1px;stroke-linecap:butt;stroke-linejoin:miter;stroke-opacity:1;display:inline"
                 d="M 10.713002,30.841612 C 43.580724,26.510583 43.669112,26.510583 43.669112,26.510583 L 10.713002,30.841612 z "
                 id="path2237" />
              <path
                 style="fill:none;fill-rule:evenodd;stroke:#000000;stroke-width:1px;stroke-linecap:butt;stroke-linejoin:miter;stroke-opacity:1;display:inline"
                 d="M 10.713002,32.90769 C 43.580727,28.576661 43.669115,28.576661 43.669115,28.576661 L 10.713002,32.90769 z "
                 id="path2247" />
              <path
                 style="fill:none;fill-rule:evenodd;stroke:#000000;stroke-width:1px;stroke-linecap:butt;stroke-linejoin:miter;stroke-opacity:1;display:inline"
                 d="M 10.713002,35.249982 C 43.580725,30.918953 43.669113,30.918953 43.669113,30.918953 L 10.713002,35.249982 z "
                 id="path2249" />
            </g>
            <path
               id="path2265"
               d="M 13.554793,12.35049 L 25.298106,11.082677 L 13.554793,12.35049 z "
               style="fill:none;fill-rule:evenodd;stroke:#000000;stroke-width:1.06033528px;stroke-linecap:butt;stroke-linejoin:miter;stroke-opacity:1" />
            <path
               id="path2267"
               d="M 13.725855,10.146065 L 24.55501,8.9560726 L 13.725855,10.146065 z "
               style="fill:none;fill-rule:evenodd;stroke:#000000;stroke-width:1.04934537px;stroke-linecap:butt;stroke-linejoin:miter;stroke-opacity:1" />
          </g>
        </g>
        <path
           sodipodi:nodetypes="ccscscscc"
           id="path5294"
           d="M 10.465513,39.933577 L 43.939659,34.14404 C 43.939659,34.14404 45.746851,34.246499 46.081368,31.948011 C 46.435253,29.516491 46.443096,18.476368 47.033242,14.37976 C 47.272756,12.381423 48.85227,7.2993588 45.050178,7.392389 C 42.529738,7.4540585 16.176742,12.483188 16.176742,12.483188 C 16.176742,12.483188 14.736072,12.951675 14.035031,15.577595 C 12.943078,19.667814 12.722654,35.358316 12.369255,36.240252 C 12.07826,37.615488 11.974342,39.069183 10.465513,39.933577 z "
           style="opacity:0.83868689;fill:url(#radialGradient7260);fill-opacity:1;fill-rule:evenodd;stroke:#000000;stroke-width:1.00672591px;stroke-linecap:butt;stroke-linejoin:miter;stroke-opacity:0.66120217" />
        <path
           sodipodi:nodetypes="cccccc"
           id="path9204"
           d="M 14.612703,36.364462 C 14.856391,28.900216 14.705658,14.870822 18.760385,13.693433 L 41.691869,9.3449568 C 46.533428,8.0884085 45.7443,11.313316 45.766971,13.938048 C 44.77351,18.495163 45.819069,23.688275 31.057895,24.396853 C 16.927941,24.266632 15.595804,35.072055 14.612703,36.364462 z "
           style="opacity:0.33999999;fill:#ffffff;fill-opacity:1;fill-rule:evenodd;stroke:#ffffff;stroke-width:0.88599181px;stroke-linecap:round;stroke-linejoin:round;stroke-opacity:1;display:inline" />
      </g>
    </g>
    <g
       id="g3485"
       inkscape:label="shadow"
       style="display:inline"
       transform="translate(43.74632,-3.5676581)" />
    <path
       transform="matrix(0.3782676,0.1973696,-0.1819653,0.4102898,32.697528,0.2301599)"
       d="M 44.000001,36.509515 L 26.627242,35.819734 L 16.210136,49.739953 L 11.497678,33.004324 L -4.9602997,27.398651 L 9.5000001,17.745244 L 9.7455166,0.36052885 L 23.394931,11.130024 L 40.004646,5.9913519 L 33.980149,22.300674 L 44.000001,36.509515 z "
       inkscape:randomized="0"
       inkscape:rounded="0"
       inkscape:flatsided="false"
       sodipodi:arg2="1.1264601"
       sodipodi:arg1="0.49814161"
       sodipodi:r2="13.090912"
       sodipodi:r1="26.181826"
       sodipodi:cy="24"
       sodipodi:cx="21"
       sodipodi:sides="5"
       id="path2429"
       style="fill:url(#radialGradient4484);fill-opacity:1;stroke:#000000;stroke-width:2.47274709;stroke-linecap:round;stroke-linejoin:round;stroke-miterlimit:4;stroke-dasharray:none;stroke-opacity:0.57377044"
       sodipodi:type="star" />
    <path
       sodipodi:nodetypes="cccccccc"
       id="path3420"
       d="M 27.787456,11.254703 L 33.689558,10.334146 L 36.336926,4.5865379 L 38.852359,10.334146 L 44.783183,11.181514 L 41.013756,15.36845 C 38.201654,13.985082 35.179652,13.749143 31.827819,15.316232 L 27.787456,11.254703 z "
       style="opacity:0.62121211;fill:url(#radialGradient4481);fill-opacity:1;fill-rule:evenodd;stroke:#000000;stroke-width:0.56499642px;stroke-linecap:butt;stroke-linejoin:miter;stroke-opacity:0" />
  </g>
</svg>
