<?xml version="1.0" encoding="UTF-8" standalone="no"?>
<!-- Created with Inkscape (http://www.inkscape.org/) -->
<svg
   xmlns:dc="http://purl.org/dc/elements/1.1/"
   xmlns:cc="http://creativecommons.org/ns#"
   xmlns:rdf="http://www.w3.org/1999/02/22-rdf-syntax-ns#"
   xmlns:svg="http://www.w3.org/2000/svg"
   xmlns="http://www.w3.org/2000/svg"
   xmlns:xlink="http://www.w3.org/1999/xlink"
   xmlns:sodipodi="http://sodipodi.sourceforge.net/DTD/sodipodi-0.dtd"
   xmlns:inkscape="http://www.inkscape.org/namespaces/inkscape"
   width="48"
   height="48"
   id="svg2"
   sodipodi:version="0.32"
   inkscape:version="0.46"
   version="1.0"
   sodipodi:docbase="/home/marco/Scrivania/UltimateGnome/scalable/actions"
   sodipodi:docname="format-text-italic.svg"
   inkscape:output_extension="org.inkscape.output.svg.inkscape"
   inkscape:export-filename="/home/marco/Desktop/format-text.png"
   inkscape:export-xdpi="90"
   inkscape:export-ydpi="90">
  <defs
     id="defs4">
    <linearGradient
       id="linearGradient3221">
      <stop
         id="stop3223"
         offset="0"
         style="stop-color:#b30000;stop-opacity:1;" />
      <stop
         id="stop3225"
         offset="1"
         style="stop-color:#ff7132;stop-opacity:1;" />
    </linearGradient>
    <filter
       id="filter3616"
       height="2.3694718"
       y="-0.6847359"
       width="1.2651945"
       x="-0.13259723"
       inkscape:collect="always">
      <feGaussianBlur
         id="feGaussianBlur3618"
         stdDeviation="2.0103976"
         inkscape:collect="always" />
    </filter>
    <linearGradient
       id="linearGradient3591">
      <stop
         style="stop-color:#000000;stop-opacity:1;"
         offset="0"
         id="stop3593" />
      <stop
         style="stop-color:#000000;stop-opacity:0;"
         offset="1"
         id="stop3595" />
    </linearGradient>
    <linearGradient
       id="linearGradient3597">
      <stop
         style="stop-color:#ffffff;stop-opacity:1;"
         offset="0"
         id="stop3599" />
      <stop
         style="stop-color:#ffffff;stop-opacity:0"
         offset="1"
         id="stop3601" />
    </linearGradient>
    <radialGradient
       inkscape:collect="always"
       xlink:href="#linearGradient3591"
       id="radialGradient3557"
       gradientUnits="userSpaceOnUse"
       gradientTransform="matrix(1,0,0,0.195124,0,39.338316)"
       cx="25.75"
       cy="48.875"
       fx="25.75"
       fy="48.875"
       r="18.1705" />
    <linearGradient
       inkscape:collect="always"
       xlink:href="#linearGradient3221"
       id="linearGradient2233"
       gradientUnits="userSpaceOnUse"
       x1="21.216759"
       y1="0.80417371"
       x2="21.216759"
       y2="42.529137" />
    <linearGradient
       inkscape:collect="always"
       xlink:href="#linearGradient3597"
       id="linearGradient2242"
       gradientUnits="userSpaceOnUse"
       x1="21.216759"
       y1="0.80417371"
       x2="21.216759"
       y2="42.529137" />
  </defs>
  <sodipodi:namedview
     id="base"
     pagecolor="#8c86cb"
     bordercolor="#afafaf"
     borderopacity="1"
     inkscape:pageopacity="0"
     inkscape:pageshadow="2"
     inkscape:zoom="5.656854"
     inkscape:cx="46.92909"
     inkscape:cy="29.475335"
     inkscape:document-units="px"
     inkscape:current-layer="layer1"
     width="48px"
     height="48px"
     inkscape:showpageshadow="false"
     borderlayer="true"
     inkscape:window-width="1272"
     inkscape:window-height="918"
     inkscape:window-x="0"
     inkscape:window-y="25"
     showgrid="true"
     showborder="true"
     showguides="false"
     inkscape:guide-bbox="false"
     inkscape:grid-points="true"
     inkscape:grid-bbox="false">
    <sodipodi:guide
       orientation="vertical"
       position="10"
       id="guide3217" />
    <sodipodi:guide
       orientation="horizontal"
       position="39.125"
       id="guide3219" />
    <sodipodi:guide
       orientation="vertical"
       position="23.997436"
       id="guide3221" />
    <sodipodi:guide
       orientation="horizontal"
       position="4.125"
       id="guide3544" />
    <sodipodi:guide
       orientation="horizontal"
       position="5"
       id="guide4317" />
    <sodipodi:guide
       orientation="vertical"
       position="3"
       id="guide4887" />
    <sodipodi:guide
       orientation="vertical"
       position="44.989669"
       id="guide4889" />
    <sodipodi:guide
       orientation="horizontal"
       position="28"
       id="guide3281" />
    <sodipodi:guide
       orientation="horizontal"
       position="24.96875"
       id="guide3361" />
    <sodipodi:guide
       orientation="horizontal"
       position="20.948038"
       id="guide3363" />
    <sodipodi:guide
       orientation="horizontal"
       position="9"
       id="guide4351" />
    <inkscape:grid
       id="GridFromPre046Settings"
       type="xygrid"
       originx="0px"
       originy="0px"
       spacingx="0.5px"
       spacingy="0.5px"
       color="#0000ff"
       empcolor="#0000ff"
       opacity="0.2"
       empopacity="0.4"
       empspacing="2" />
  </sodipodi:namedview>
  <metadata
     id="metadata7">
    <rdf:RDF>
      <cc:Work
         rdf:about="">
        <dc:format>image/svg+xml</dc:format>
        <dc:type
           rdf:resource="http://purl.org/dc/dcmitype/StillImage" />
        <dc:creator>
          <cc:Agent>
            <dc:title>Marco Tessarotto</dc:title>
          </cc:Agent>
        </dc:creator>
        <cc:license
           rdf:resource="http://creativecommons.org/licenses/by-nc-sa/2.5/" />
      </cc:Work>
      <cc:License
         rdf:about="http://creativecommons.org/licenses/by-nc-sa/2.5/">
        <cc:permits
           rdf:resource="http://web.resource.org/cc/Reproduction" />
        <cc:permits
           rdf:resource="http://web.resource.org/cc/Distribution" />
        <cc:requires
           rdf:resource="http://web.resource.org/cc/Notice" />
        <cc:requires
           rdf:resource="http://web.resource.org/cc/Attribution" />
        <cc:prohibits
           rdf:resource="http://web.resource.org/cc/CommercialUse" />
        <cc:permits
           rdf:resource="http://web.resource.org/cc/DerivativeWorks" />
        <cc:requires
           rdf:resource="http://web.resource.org/cc/ShareAlike" />
      </cc:License>
    </rdf:RDF>
  </metadata>
  <g
     inkscape:label="Livello 1"
     inkscape:groupmode="layer"
     id="layer1"
     style="display:inline">
    <g
       id="layer2"
       inkscape:label="shadow"
       style="display:inline"
       transform="translate(-2,-2.8176581)" />
    <g
       transform="matrix(2.7092713,0,0,2.6264441,-35.116996,-42.483457)"
       id="g3783">
      <g
         id="g3785"
         inkscape:label="shadow"
         style="display:inline" />
      <g
         id="g3787"
         inkscape:label="Layer 1" />
    </g>
    <path
       transform="matrix(1.2922957,0,0,1.0177741,-10.214863,-7.1288314)"
       style="opacity:0.46464646;fill:url(#radialGradient3557);fill-opacity:1;stroke:#000000;stroke-width:0.84100002;stroke-linecap:round;stroke-linejoin:round;stroke-miterlimit:4;stroke-opacity:0;filter:url(#filter3616)"
       d="M 43.5,48.875 C 43.5,50.6 35.548,52 25.75,52 C 15.952,52 8,50.6 8,48.875 C 8,47.15 15.952,45.75 25.75,45.75 C 35.544111,45.75 43.493891,47.148737 43.499997,48.873052"
       id="path3534" />
    <path
       style="fill:url(#linearGradient2233);fill-rule:evenodd;stroke:#000000;stroke-width:0.7;stroke-linecap:butt;stroke-linejoin:miter;stroke-opacity:1;stroke-miterlimit:4;stroke-dasharray:none;fill-opacity:1.0"
       d="M 1.0625 1.15625 L 1.0625 43.21875 L 47.03125 43.21875 L 47.03125 1.15625 L 1.0625 1.15625 z M 28.90625 4.25 C 32.204328 4.2500338 34.819055 4.8933399 36.78125 6.1875 C 38.785126 7.4817237 39.781214 9.1833722 39.78125 11.3125 C 39.781214 11.730008 39.656704 12.497825 39.40625 13.625 L 35.40625 32.5 C 35.364469 32.625249 35.343719 32.832768 35.34375 33.125 C 35.343717 34.335702 36.132288 34.937503 37.71875 34.9375 C 38.052703 34.937502 38.405482 34.895999 38.78125 34.8125 L 37.96875 38.875 C 37.63473 38.916746 37.261199 38.979003 36.84375 39.0625 C 36.426235 39.187743 36.052704 39.270751 35.71875 39.3125 C 35.426481 39.395995 35.073701 39.437499 34.65625 39.4375 C 33.153287 39.437499 31.991186 39.063966 31.15625 38.3125 C 30.32126 37.602782 29.906224 36.606695 29.90625 35.3125 L 29.90625 34.625 C 29.488743 34.917242 29.073707 35.270021 28.65625 35.6875 C 28.280492 36.063236 27.720194 36.478272 26.96875 36.9375 C 26.217262 37.354983 25.40794 37.749267 24.53125 38.125 C 23.696266 38.500733 22.606675 38.81201 21.3125 39.0625 C 20.060039 39.312987 18.731923 39.437499 17.3125 39.4375 C 14.515362 39.437499 12.315671 38.731937 10.6875 37.3125 C 9.1010645 35.893066 8.3124959 33.942394 8.3125 31.4375 C 8.3124964 27.596679 10.014144 24.577168 13.4375 22.40625 C 14.982172 21.446059 16.704572 20.740497 18.625 20.28125 C 20.587147 19.78029 22.351051 19.489765 23.9375 19.40625 C 25.523909 19.322773 27.049289 19.219013 28.46875 19.09375 C 29.92991 18.968525 31.112763 18.636496 32.03125 18.09375 C 32.991429 17.509297 33.593232 16.616968 33.84375 15.40625 L 34.03125 14.28125 C 34.114715 13.613304 34.15622 13.187769 34.15625 13.0625 C 34.156219 11.893577 33.512914 10.938994 32.21875 10.1875 C 30.966279 9.4360613 29.409892 9.0625289 27.53125 9.0625 C 23.022429 9.0625292 20.148181 11.023697 18.9375 14.90625 L 13.6875 14.90625 C 14.271964 11.441179 15.849102 8.7952005 18.4375 7 C 21.067618 5.1631134 24.56442 4.2500338 28.90625 4.25 z M 32.46875 21.84375 C 31.258028 22.261248 29.411115 22.676284 26.90625 23.09375 C 24.40134 23.469498 22.274157 23.822279 20.5625 24.15625 C 18.85081 24.4485 17.294425 25.154062 15.875 26.28125 C 14.4973 27.408461 13.81249 28.933841 13.8125 30.8125 C 13.812491 32.148447 14.289782 33.165286 15.25 33.875 C 16.210196 34.584722 17.579815 34.937503 19.375 34.9375 C 22.130361 34.937502 24.693332 34.231942 27.03125 32.8125 C 29.410871 31.351321 30.801242 29.639174 31.21875 27.71875 L 32.46875 21.84375 z "
       id="rect2212" />
    <path
       style="fill:url(#linearGradient2242);fill-opacity:1.0;fill-rule:evenodd;stroke:none;stroke-width:0.69999999;stroke-linecap:butt;stroke-linejoin:miter;stroke-miterlimit:4;stroke-dasharray:none;stroke-opacity:1;display:inline;opacity:0.72727273"
       d="M 2.125 2.21875 L 2.125 42.15625 L 3.96875 42.15625 C 4.3270477 36.984379 5.6930978 32.079119 7.875 27.65625 C 8.3150514 26.360133 9.0062242 25.160054 9.90625 24.09375 C 11.809602 21.082739 14.089046 18.348305 16.71875 15.96875 L 13.6875 15.96875 C 13.375243 15.965074 13.073729 15.834634 12.875 15.59375 C 12.676271 15.352866 12.60052 15.026016 12.65625 14.71875 C 13.278034 11.032422 15.020094 8.0833652 17.84375 6.125 C 20.700407 4.1298969 24.415721 3.1875352 28.90625 3.1875 C 32.342247 3.1875354 35.186141 3.8688447 37.375 5.3125 C 37.779018 5.5734388 38.131026 5.8532709 38.46875 6.15625 C 39.912697 5.993943 41.387927 5.875 42.875 5.875 C 43.921735 5.875 44.942733 5.9501846 45.96875 6.03125 L 45.96875 2.21875 L 2.125 2.21875 z M 24.1875 10.65625 C 23.60219 10.858553 23.058892 11.089682 22.59375 11.40625 C 22.288739 11.613835 22.013288 11.835062 21.75 12.09375 C 22.543212 11.581446 23.356188 11.111164 24.1875 10.65625 z "
       id="path2240" />
  </g>
</svg>
