<?xml version="1.0" encoding="UTF-8" standalone="no"?>
<!-- Created with Inkscape (http://www.inkscape.org/) -->
<svg
   xmlns:dc="http://purl.org/dc/elements/1.1/"
   xmlns:cc="http://creativecommons.org/ns#"
   xmlns:rdf="http://www.w3.org/1999/02/22-rdf-syntax-ns#"
   xmlns:svg="http://www.w3.org/2000/svg"
   xmlns="http://www.w3.org/2000/svg"
   xmlns:xlink="http://www.w3.org/1999/xlink"
   xmlns:sodipodi="http://sodipodi.sourceforge.net/DTD/sodipodi-0.dtd"
   xmlns:inkscape="http://www.inkscape.org/namespaces/inkscape"
   width="48px"
   height="48px"
   id="svg57"
   sodipodi:version="0.32"
   inkscape:version="0.46"
   sodipodi:docbase="/home/marco/Scrivania/UltimateGnome/scalable/actions"
   sodipodi:docname="insert-object.svg"
   inkscape:output_extension="org.inkscape.output.svg.inkscape">
  <defs
     id="defs3">
    <linearGradient
       id="linearGradient3782">
      <stop
         style="stop-color:#ffffff;stop-opacity:1;"
         offset="0"
         id="stop3784" />
      <stop
         style="stop-color:#ffffff;stop-opacity:0.57731956;"
         offset="1"
         id="stop3786" />
    </linearGradient>
    <linearGradient
       id="linearGradient3187">
      <stop
         style="stop-color:#000000;stop-opacity:1;"
         offset="0"
         id="stop3189" />
      <stop
         style="stop-color:#ffffff;stop-opacity:0;"
         offset="1"
         id="stop3191" />
    </linearGradient>
    <radialGradient
       inkscape:collect="always"
       xlink:href="#linearGradient3187"
       id="radialGradient3956"
       gradientUnits="userSpaceOnUse"
       gradientTransform="matrix(1,0,0,0.1821842,0,36.597257)"
       cx="25.375"
       cy="44.75"
       fx="21.95047"
       fy="51.424496"
       r="15.896" />
    <linearGradient
       id="linearGradient3200">
      <stop
         id="stop3202"
         offset="0"
         style="stop-color:#f86b00;stop-opacity:1;" />
      <stop
         id="stop3206"
         offset="1"
         style="stop-color:#fdac00;stop-opacity:1;" />
    </linearGradient>
    <linearGradient
       inkscape:collect="always"
       xlink:href="#linearGradient3782"
       id="linearGradient3706"
       gradientUnits="userSpaceOnUse"
       gradientTransform="matrix(0.8693749,0,0,0.8693749,4.6293967,-2.4198855)"
       x1="21.339176"
       y1="3.7584743"
       x2="21.339176"
       y2="54.832092" />
    <linearGradient
       inkscape:collect="always"
       xlink:href="#linearGradient3200"
       id="linearGradient3708"
       gradientUnits="userSpaceOnUse"
       gradientTransform="matrix(0.8693749,0,0,0.8693749,4.6293975,-2.419885)"
       x1="18.175983"
       y1="3.473628"
       x2="18.175983"
       y2="55.050018" />
  </defs>
  <sodipodi:namedview
     showborder="true"
     id="base"
     pagecolor="#ffffff"
     bordercolor="#666666"
     borderopacity="1.0"
     inkscape:pageopacity="0.0"
     inkscape:pageshadow="2"
     inkscape:zoom="7.9999996"
     inkscape:cx="29.700257"
     inkscape:cy="23.134578"
     inkscape:current-layer="layer5"
     showgrid="true"
     inkscape:grid-bbox="true"
     inkscape:document-units="px"
     inkscape:window-width="1272"
     inkscape:window-height="918"
     inkscape:window-x="0"
     inkscape:window-y="25"
     inkscape:showpageshadow="false"
     inkscape:object-nodes="true"
     inkscape:object-points="true"
     inkscape:object-bbox="true"
     inkscape:guide-bbox="true"
     inkscape:grid-points="true"
     fill="#2e3436"
     objecttolerance="10000"
     gridtolerance="10000"
     guidetolerance="10000"
     inkscape:guide-points="true">
    <inkscape:grid
       id="GridFromPre046Settings"
       type="xygrid"
       originx="0px"
       originy="0px"
       spacingx="1px"
       spacingy="1px"
       color="#0000ff"
       empcolor="#0000ff"
       opacity="0.2"
       empopacity="0.4"
       empspacing="4" />
  </sodipodi:namedview>
  <metadata
     id="metadata4">
    <rdf:RDF>
      <cc:Work
         rdf:about="">
        <dc:format>image/svg+xml</dc:format>
        <dc:type
           rdf:resource="http://purl.org/dc/dcmitype/StillImage" />
        <dc:title />
        <dc:date />
        <dc:creator>
          <cc:Agent>
            <dc:title>Marco Tessarotto</dc:title>
          </cc:Agent>
        </dc:creator>
        <dc:subject>
          <rdf:Bag />
        </dc:subject>
        <dc:publisher>
          <cc:Agent>
            <dc:title />
          </cc:Agent>
        </dc:publisher>
        <cc:license
           rdf:resource="http://creativecommons.org/licenses/by-nc-sa/2.5/" />
        <dc:contributor>
          <cc:Agent>
            <dc:title />
          </cc:Agent>
        </dc:contributor>
      </cc:Work>
      <cc:License
         rdf:about="http://creativecommons.org/licenses/by-nc-sa/2.5/">
        <cc:permits
           rdf:resource="http://web.resource.org/cc/Reproduction" />
        <cc:permits
           rdf:resource="http://web.resource.org/cc/Distribution" />
        <cc:requires
           rdf:resource="http://web.resource.org/cc/Notice" />
        <cc:requires
           rdf:resource="http://web.resource.org/cc/Attribution" />
        <cc:prohibits
           rdf:resource="http://web.resource.org/cc/CommercialUse" />
        <cc:permits
           rdf:resource="http://web.resource.org/cc/DerivativeWorks" />
        <cc:requires
           rdf:resource="http://web.resource.org/cc/ShareAlike" />
      </cc:License>
    </rdf:RDF>
  </metadata>
  <g
     inkscape:groupmode="layer"
     id="layer2"
     inkscape:label="shadow"
     style="display:inline" />
  <g
     id="layer1"
     inkscape:label="Layer 1"
     inkscape:groupmode="layer">
    <g
       id="g3783"
       transform="matrix(2.7092713,0,0,2.6264441,-33.116996,-39.665799)">
      <g
         style="display:inline"
         inkscape:label="shadow"
         id="g3785" />
      <g
         inkscape:label="Layer 1"
         id="g3787" />
    </g>
    <g
       id="g3341"
       transform="translate(0,-2)" />
    <g
       id="g3091"
       transform="matrix(0.8693749,0,0,0.8693749,4.6293983,-2.4198854)">
      <g
         style="display:inline"
         inkscape:label="file"
         id="layer5">
        <path
           transform="matrix(1.4547318,0,0,1.9230325,-19.000882,-33.498755)"
           sodipodi:open="true"
           sodipodi:end="6.2825619"
           sodipodi:start="0"
           d="M 40.75,44.75 A 15.375,2.375 0 1 1 40.749997,44.748519"
           sodipodi:ry="2.375"
           sodipodi:rx="15.375"
           sodipodi:cy="44.75"
           sodipodi:cx="25.375"
           id="path2205"
           style="opacity:0.41919191;fill:url(#radialGradient3956);fill-opacity:1;stroke:#000000;stroke-width:1.04200006;stroke-linecap:round;stroke-linejoin:round;stroke-miterlimit:4;stroke-dasharray:none;stroke-opacity:0"
           sodipodi:type="arc" />
        <g
           style="opacity:0.12121211"
           transform="matrix(0.1631462,0,0,0.1631462,26.437746,27.501399)"
           id="g3777">
          <g
             style="opacity:1"
             transform="translate(12.258943,0)"
             id="g3848" />
        </g>
        <g
           id="g2910"
           transform="matrix(0.1631462,0,0,0.1631462,-56.591584,24.798831)"
           style="opacity:0.12121211">
          <g
             id="g2912"
             transform="translate(12.258943,0)"
             style="opacity:1" />
        </g>
        <g
           style="opacity:0.12121211"
           transform="matrix(0.1631462,0,0,0.1631462,31.672511,88.863867)"
           id="g2728">
          <g
             style="opacity:1"
             transform="translate(12.258943,0)"
             id="g2730" />
        </g>
        <path
           style="fill:url(#linearGradient3708);fill-opacity:1.0;fill-rule:evenodd;stroke:#000000;stroke-width:0.50000002;stroke-linecap:butt;stroke-linejoin:miter;stroke-miterlimit:4;stroke-dasharray:none;stroke-opacity:1;display:inline"
           d="M 1 1 L 1 34 L 8 34 L 16 45 L 24 34 L 47 34 L 47 1 L 1 1 z M 27.25 4.59375 C 28.297043 4.8461382 29.310127 5.2129337 30.25 5.6875 L 29.53125 9.4375 C 30.531359 10.09453 31.407908 10.913898 32.125 11.875 L 35.875 10.84375 C 36.424579 11.742718 36.882914 12.73191 37.21875 13.75 L 33.96875 15.96875 C 34.112203 16.656982 34.18705 17.362528 34.1875 18.09375 C 34.1875 18.543425 34.148925 19.00296 34.09375 19.4375 L 37.5 21.375 C 37.247456 22.422145 36.881026 23.403816 36.40625 24.34375 L 32.59375 23.625 C 31.961248 24.629484 31.145395 25.522186 30.21875 26.25 L 31.25 29.96875 C 30.355141 30.515378 29.38782 30.977538 28.375 31.3125 L 26.21875 28.15625 C 25.505388 28.316902 24.760882 28.40624 24 28.40625 C 23.525341 28.40625 23.051188 28.376304 22.59375 28.3125 L 20.75 31.625 C 19.701331 31.372081 18.691121 31.007015 17.75 30.53125 L 18.46875 26.75 C 17.472445 26.093474 16.589705 25.271107 15.875 24.3125 L 12.125 25.34375 C 11.575554 24.444216 11.116731 23.456137 10.78125 22.4375 L 14.03125 20.25 C 13.888141 19.561533 13.8125 18.825146 13.8125 18.09375 C 13.8125 17.644075 13.851074 17.215789 13.90625 16.78125 L 10.5 14.84375 C 10.752611 13.796327 11.118793 12.783892 11.59375 11.84375 L 15.40625 12.59375 C 16.040594 11.58298 16.849543 10.668844 17.78125 9.9375 L 16.75 6.25 C 17.652709 5.6970005 18.633277 5.2435152 19.65625 4.90625 L 21.78125 8.03125 C 22.497192 7.8693811 23.23613 7.7812499 24 7.78125 C 24.470878 7.78125 24.952301 7.8121965 25.40625 7.875 L 27.25 4.59375 z M 24 13.75 C 21.601809 13.75 19.656251 15.695563 19.65625 18.09375 C 19.65625 20.491947 21.601809 22.437492 24 22.4375 C 26.398192 22.4375 28.343749 20.491947 28.34375 18.09375 C 28.342256 15.69651 26.397238 13.75 24 13.75 z "
           transform="matrix(1.1502517,0,0,1.1502517,-5.3249735,2.7834774)"
           id="path2269" />
        <path
           style="fill:url(#linearGradient3706);fill-opacity:1.0;fill-rule:evenodd;stroke:none;stroke-width:0.92020124;stroke-linecap:butt;stroke-linejoin:miter;stroke-miterlimit:4;stroke-dasharray:none;stroke-opacity:1;display:inline;opacity:0.54183267"
           d="M 2.25 2.25 L 2.25 32.75 L 8 32.75 C 8.3981549 32.752167 8.7662503 32.958925 9 33.28125 L 12.0625 37.46875 C 13.20076 33.749979 14.919232 30.277751 17.125 27.15625 C 16.549703 26.706454 16.010301 26.23636 15.53125 25.6875 L 12.46875 26.53125 C 11.937648 26.674733 11.354486 26.466262 11.0625 26 C 10.46716 25.025328 9.9321068 23.934757 9.5625 22.8125 C 9.3949614 22.285258 9.6048586 21.717083 10.0625 21.40625 L 12.71875 19.625 C 12.652905 19.117938 12.5625 18.613264 12.5625 18.09375 C 12.5625 17.890785 12.58372 17.698036 12.59375 17.5 L 9.875 15.90625 C 9.388057 15.630273 9.1478414 15.074829 9.28125 14.53125 C 9.5546191 13.397756 9.947142 12.313734 10.46875 11.28125 C 10.724982 10.784787 11.296122 10.514389 11.84375 10.625 L 14.96875 11.25 C 15.393748 10.673137 15.87802 10.149053 16.40625 9.65625 L 15.5625 6.5625 C 15.419017 6.0313988 15.627488 5.4794855 16.09375 5.1875 C 17.088139 4.5783378 18.176325 4.0830343 19.28125 3.71875 C 19.808491 3.5512112 20.376667 3.7611086 20.6875 4.21875 L 22.375 6.71875 C 22.909393 6.6325725 23.423893 6.53125 24 6.53125 C 24.247608 6.5312499 24.479311 6.5447421 24.71875 6.5625 L 26.1875 3.96875 C 26.396497 3.6049881 26.768806 3.3701742 27.1875 3.34375 C 27.314927 3.3333027 27.437851 3.3465473 27.5625 3.375 C 28.696078 3.6482474 29.78058 4.0414565 30.8125 4.5625 C 31.308964 4.8187321 31.579361 5.3586223 31.46875 5.90625 L 30.90625 9.03125 C 31.476218 9.4781401 31.994572 9.9561912 32.46875 10.5 L 35.53125 9.65625 C 36.062351 9.5127666 36.645514 9.7212377 36.9375 10.1875 C 37.391229 10.929686 37.821089 11.726252 38.15625 12.5625 C 40.600143 11.913246 43.135565 11.494925 45.75 11.34375 L 45.75 2.25 L 2.25 2.25 z M 24 15 C 22.278947 15 20.906251 16.3727 20.90625 18.09375 C 20.906251 19.34966 21.622628 20.418417 22.6875 20.90625 C 24.049112 19.68646 25.496811 18.577263 27.03125 17.5625 C 26.779105 16.101013 25.536485 15 24 15 z "
           transform="matrix(1.1502517,0,0,1.1502517,-5.3249735,2.7834774)"
           id="path3704" />
      </g>
    </g>
  </g>
</svg>
