<?xml version="1.0" encoding="UTF-8" standalone="no"?>
<!-- Created with Inkscape (http://www.inkscape.org/) -->
<svg
   xmlns:dc="http://purl.org/dc/elements/1.1/"
   xmlns:cc="http://creativecommons.org/ns#"
   xmlns:rdf="http://www.w3.org/1999/02/22-rdf-syntax-ns#"
   xmlns:svg="http://www.w3.org/2000/svg"
   xmlns="http://www.w3.org/2000/svg"
   xmlns:xlink="http://www.w3.org/1999/xlink"
   xmlns:sodipodi="http://sodipodi.sourceforge.net/DTD/sodipodi-0.dtd"
   xmlns:inkscape="http://www.inkscape.org/namespaces/inkscape"
   width="48px"
   height="48px"
   id="svg57"
   sodipodi:version="0.32"
   inkscape:version="0.46"
   sodipodi:docbase="/home/marco/Scrivania/UltimateGnome/scalable/actions"
   sodipodi:docname="insert-image.svg"
   inkscape:output_extension="org.inkscape.output.svg.inkscape">
  <defs
     id="defs3">
    <linearGradient
       id="linearGradient3782">
      <stop
         style="stop-color:#ffffff;stop-opacity:1;"
         offset="0"
         id="stop3784" />
      <stop
         style="stop-color:#ffffff;stop-opacity:0.57731956;"
         offset="1"
         id="stop3786" />
    </linearGradient>
    <linearGradient
       id="linearGradient3187">
      <stop
         style="stop-color:#000000;stop-opacity:1;"
         offset="0"
         id="stop3189" />
      <stop
         style="stop-color:#ffffff;stop-opacity:0;"
         offset="1"
         id="stop3191" />
    </linearGradient>
    <radialGradient
       inkscape:collect="always"
       xlink:href="#linearGradient3187"
       id="radialGradient3956"
       gradientUnits="userSpaceOnUse"
       gradientTransform="matrix(1,0,0,0.1821842,0,36.597257)"
       cx="25.375"
       cy="44.75"
       fx="21.95047"
       fy="51.424496"
       r="15.896" />
    <linearGradient
       id="linearGradient3735">
      <stop
         style="stop-color:#b1e800;stop-opacity:1;"
         offset="0"
         id="stop3741" />
      <stop
         id="stop3739"
         offset="1"
         style="stop-color:#007404;stop-opacity:1;" />
    </linearGradient>
    <linearGradient
       inkscape:collect="always"
       xlink:href="#linearGradient3735"
       id="linearGradient3566"
       gradientUnits="userSpaceOnUse"
       gradientTransform="matrix(0.8693749,0,0,0.8693749,4.6293979,-2.4198852)"
       x1="11.274473"
       y1="41.860565"
       x2="11.274473"
       y2="4.025393" />
    <linearGradient
       inkscape:collect="always"
       xlink:href="#linearGradient3782"
       id="linearGradient3161"
       gradientUnits="userSpaceOnUse"
       x1="15.036221"
       y1="4.1414194"
       x2="15.036221"
       y2="54.581051"
       gradientTransform="matrix(0.8693749,0,0,0.8693749,4.6293983,-2.4198854)" />
  </defs>
  <sodipodi:namedview
     showborder="true"
     id="base"
     pagecolor="#ffffff"
     bordercolor="#666666"
     borderopacity="1.0"
     inkscape:pageopacity="0.0"
     inkscape:pageshadow="2"
     inkscape:zoom="3.9999998"
     inkscape:cx="29.700257"
     inkscape:cy="19.703121"
     inkscape:current-layer="layer5"
     showgrid="true"
     inkscape:grid-bbox="true"
     inkscape:document-units="px"
     inkscape:window-width="1272"
     inkscape:window-height="918"
     inkscape:window-x="0"
     inkscape:window-y="25"
     inkscape:showpageshadow="false"
     inkscape:object-nodes="true"
     inkscape:object-points="true"
     inkscape:object-bbox="true"
     inkscape:guide-bbox="true"
     inkscape:grid-points="true"
     fill="#2e3436"
     objecttolerance="10000"
     gridtolerance="10000"
     guidetolerance="10000"
     inkscape:guide-points="true">
    <inkscape:grid
       id="GridFromPre046Settings"
       type="xygrid"
       originx="0px"
       originy="0px"
       spacingx="1px"
       spacingy="1px"
       color="#0000ff"
       empcolor="#0000ff"
       opacity="0.2"
       empopacity="0.4"
       empspacing="4" />
  </sodipodi:namedview>
  <metadata
     id="metadata4">
    <rdf:RDF>
      <cc:Work
         rdf:about="">
        <dc:format>image/svg+xml</dc:format>
        <dc:type
           rdf:resource="http://purl.org/dc/dcmitype/StillImage" />
        <dc:title />
        <dc:date />
        <dc:creator>
          <cc:Agent>
            <dc:title>Marco Tessarotto</dc:title>
          </cc:Agent>
        </dc:creator>
        <dc:subject>
          <rdf:Bag />
        </dc:subject>
        <dc:publisher>
          <cc:Agent>
            <dc:title />
          </cc:Agent>
        </dc:publisher>
        <cc:license
           rdf:resource="http://creativecommons.org/licenses/by-nc-sa/2.5/" />
        <dc:contributor>
          <cc:Agent>
            <dc:title />
          </cc:Agent>
        </dc:contributor>
      </cc:Work>
      <cc:License
         rdf:about="http://creativecommons.org/licenses/by-nc-sa/2.5/">
        <cc:permits
           rdf:resource="http://web.resource.org/cc/Reproduction" />
        <cc:permits
           rdf:resource="http://web.resource.org/cc/Distribution" />
        <cc:requires
           rdf:resource="http://web.resource.org/cc/Notice" />
        <cc:requires
           rdf:resource="http://web.resource.org/cc/Attribution" />
        <cc:prohibits
           rdf:resource="http://web.resource.org/cc/CommercialUse" />
        <cc:permits
           rdf:resource="http://web.resource.org/cc/DerivativeWorks" />
        <cc:requires
           rdf:resource="http://web.resource.org/cc/ShareAlike" />
      </cc:License>
    </rdf:RDF>
  </metadata>
  <g
     inkscape:groupmode="layer"
     id="layer2"
     inkscape:label="shadow"
     style="display:inline" />
  <g
     id="layer1"
     inkscape:label="Layer 1"
     inkscape:groupmode="layer">
    <g
       id="g3783"
       transform="matrix(2.7092713,0,0,2.6264441,-33.116996,-39.665799)">
      <g
         style="display:inline"
         inkscape:label="shadow"
         id="g3785" />
      <g
         inkscape:label="Layer 1"
         id="g3787" />
    </g>
    <g
       id="g3341"
       transform="translate(0,-2)" />
    <g
       id="g3091"
       transform="matrix(0.8693749,0,0,0.8693749,4.6293983,-2.4198854)">
      <g
         style="display:inline"
         inkscape:label="file"
         id="layer5">
        <path
           transform="matrix(1.4547318,0,0,1.9230325,-19.000882,-33.498755)"
           sodipodi:open="true"
           sodipodi:end="6.2825619"
           sodipodi:start="0"
           d="M 40.75,44.75 A 15.375,2.375 0 1 1 40.749997,44.748519"
           sodipodi:ry="2.375"
           sodipodi:rx="15.375"
           sodipodi:cy="44.75"
           sodipodi:cx="25.375"
           id="path2205"
           style="opacity:0.41919191;fill:url(#radialGradient3956);fill-opacity:1;stroke:#000000;stroke-width:1.04200006;stroke-linecap:round;stroke-linejoin:round;stroke-miterlimit:4;stroke-dasharray:none;stroke-opacity:0"
           sodipodi:type="arc" />
        <g
           style="opacity:0.12121211"
           transform="matrix(0.1631462,0,0,0.1631462,26.437746,27.501399)"
           id="g3777">
          <g
             style="opacity:1"
             transform="translate(12.258943,0)"
             id="g3848" />
        </g>
        <g
           id="g2910"
           transform="matrix(0.1631462,0,0,0.1631462,-56.591584,24.798831)"
           style="opacity:0.12121211">
          <g
             id="g2912"
             transform="translate(12.258943,0)"
             style="opacity:1" />
        </g>
        <g
           style="opacity:0.12121211"
           transform="matrix(0.1631462,0,0,0.1631462,31.672511,88.863867)"
           id="g2728">
          <g
             style="opacity:1"
             transform="translate(12.258943,0)"
             id="g2730" />
        </g>
        <path
           style="fill:url(#linearGradient3566);fill-opacity:1.0;fill-rule:evenodd;stroke:#000000;stroke-width:0.50000002;stroke-linecap:butt;stroke-linejoin:miter;stroke-miterlimit:4;stroke-dasharray:none;stroke-opacity:1;display:inline"
           d="M 1 1 L 1 34 L 8 34 L 16 45 L 24 34 L 47 34 L 47 1 L 1 1 z M 5 5 L 42.78125 5 L 42.78125 12.59375 C 38.693672 11.609661 37.19053 14.181522 36.3125 16.375 C 35.401477 18.650873 32.41976 18.892256 30.90625 16.375 C 29.350246 13.78708 30.814631 11.811889 27.65625 11.0625 C 24.497872 10.31311 22.903706 15.750691 20.125 20.6875 C 17.346297 25.624311 8.9155049 29.852577 5 30 L 5 5 z "
           transform="matrix(1.1502517,0,0,1.1502517,-5.3249735,2.7834774)"
           id="path2269" />
        <path
           style="fill:url(#linearGradient3161);fill-opacity:1.0;fill-rule:evenodd;stroke:none;stroke-width:0.92020136;stroke-linecap:butt;stroke-linejoin:miter;stroke-miterlimit:4;stroke-dasharray:none;stroke-opacity:1;display:inline;opacity:0.58167331"
           d="M 1.875 1.90625 L 1.875 33.125 L 8 33.125 C 8.2827432 33.131486 8.5576962 33.267519 8.71875 33.5 L 14.03125 40.78125 C 18.58063 28.648041 30.284461 20 44 20 C 44.710824 20 45.425671 20.016791 46.125 20.0625 L 46.125 1.90625 L 1.875 1.90625 z M 5 4.09375 L 42.78125 4.09375 C 43.020058 4.0903292 43.237368 4.1748683 43.40625 4.34375 C 43.575132 4.5126319 43.659671 4.7611897 43.65625 5 L 43.65625 12.59375 C 43.661236 12.871544 43.562774 13.141554 43.34375 13.3125 C 43.124724 13.483445 42.830764 13.541058 42.5625 13.46875 C 40.712666 13.0234 39.667767 13.368749 38.875 14 C 38.082233 14.631251 37.543673 15.672831 37.125 16.71875 C 36.54985 18.155564 35.261042 19.022615 33.875 19.0625 C 32.488958 19.102386 31.020273 18.33276 30.125 16.84375 C 29.231676 15.357987 29.213935 13.981422 29.03125 13.21875 C 28.939907 12.837414 28.836651 12.650562 28.65625 12.46875 C 28.475849 12.286938 28.126599 12.101002 27.4375 11.9375 C 26.898837 11.80969 26.581331 11.881189 26.09375 12.25 C 25.606169 12.618811 25.075922 13.321577 24.53125 14.21875 C 23.441904 16.013096 22.29672 18.59909 20.875 21.125 C 19.35131 23.832081 16.466024 26.167859 13.4375 27.90625 C 10.408976 29.64464 7.281129 30.79029 5.03125 30.875 C 4.7878007 30.885984 4.5498723 30.794729 4.375 30.625 C 4.2001277 30.455271 4.1212868 30.243669 4.125 30 L 4.125 5 C 4.1215791 4.7611897 4.2061183 4.5126317 4.375 4.34375 C 4.5438818 4.1748686 4.7611897 4.090329 5 4.09375 z "
           transform="matrix(1.1502517,0,0,1.1502517,-5.3249735,2.7834774)"
           id="path3573" />
      </g>
    </g>
  </g>
</svg>
