<?xml version="1.0" encoding="UTF-8" standalone="no"?>
<!-- Created with Inkscape (http://www.inkscape.org/) -->
<svg
   xmlns:dc="http://purl.org/dc/elements/1.1/"
   xmlns:cc="http://creativecommons.org/ns#"
   xmlns:rdf="http://www.w3.org/1999/02/22-rdf-syntax-ns#"
   xmlns:svg="http://www.w3.org/2000/svg"
   xmlns="http://www.w3.org/2000/svg"
   xmlns:xlink="http://www.w3.org/1999/xlink"
   xmlns:sodipodi="http://sodipodi.sourceforge.net/DTD/sodipodi-0.dtd"
   xmlns:inkscape="http://www.inkscape.org/namespaces/inkscape"
   width="48px"
   height="48px"
   id="svg57"
   sodipodi:version="0.32"
   inkscape:version="0.46"
   sodipodi:docbase="/home/marco/Scrivania/UltimateGnome/scalable/actions"
   sodipodi:docname="insert-link.svg"
   inkscape:output_extension="org.inkscape.output.svg.inkscape">
  <defs
     id="defs3">
    <linearGradient
       id="linearGradient3480">
      <stop
         id="stop3482"
         offset="0"
         style="stop-color:#bba4cd;stop-opacity:1;" />
      <stop
         style="stop-color:#3c0074;stop-opacity:1;"
         offset="1"
         id="stop3484" />
    </linearGradient>
    <linearGradient
       id="linearGradient3782">
      <stop
         style="stop-color:#ffffff;stop-opacity:1;"
         offset="0"
         id="stop3784" />
      <stop
         style="stop-color:#ffffff;stop-opacity:0.57731956;"
         offset="1"
         id="stop3786" />
    </linearGradient>
    <linearGradient
       id="linearGradient3187">
      <stop
         style="stop-color:#000000;stop-opacity:1;"
         offset="0"
         id="stop3189" />
      <stop
         style="stop-color:#ffffff;stop-opacity:0;"
         offset="1"
         id="stop3191" />
    </linearGradient>
    <radialGradient
       inkscape:collect="always"
       xlink:href="#linearGradient3187"
       id="radialGradient3956"
       gradientUnits="userSpaceOnUse"
       gradientTransform="matrix(1,0,0,0.1821842,0,36.597257)"
       cx="25.375"
       cy="44.75"
       fx="21.95047"
       fy="51.424496"
       r="15.896" />
    <linearGradient
       inkscape:collect="always"
       xlink:href="#linearGradient3782"
       id="linearGradient3478"
       gradientUnits="userSpaceOnUse"
       x1="15.731699"
       y1="3.6146929"
       x2="15.731699"
       y2="54.38868"
       gradientTransform="matrix(0.8693749,0,0,0.8693749,4.6293983,-2.4198854)" />
    <linearGradient
       inkscape:collect="always"
       xlink:href="#linearGradient3480"
       id="linearGradient3486"
       gradientUnits="userSpaceOnUse"
       gradientTransform="matrix(0.8693749,0,0,0.8693749,4.6293983,-2.4198854)"
       x1="11.274473"
       y1="41.860565"
       x2="11.274473"
       y2="4.025393" />
  </defs>
  <sodipodi:namedview
     showborder="true"
     id="base"
     pagecolor="#ffffff"
     bordercolor="#666666"
     borderopacity="1.0"
     inkscape:pageopacity="0.0"
     inkscape:pageshadow="2"
     inkscape:zoom="5.656854"
     inkscape:cx="29.700257"
     inkscape:cy="33.845257"
     inkscape:current-layer="layer5"
     showgrid="true"
     inkscape:grid-bbox="true"
     inkscape:document-units="px"
     inkscape:window-width="1272"
     inkscape:window-height="918"
     inkscape:window-x="0"
     inkscape:window-y="25"
     inkscape:showpageshadow="false"
     inkscape:object-nodes="true"
     inkscape:object-points="true"
     inkscape:object-bbox="true"
     inkscape:guide-bbox="true"
     inkscape:grid-points="true"
     fill="#2e3436"
     objecttolerance="10000"
     gridtolerance="10000"
     guidetolerance="10000"
     inkscape:guide-points="true">
    <inkscape:grid
       id="GridFromPre046Settings"
       type="xygrid"
       originx="0px"
       originy="0px"
       spacingx="1px"
       spacingy="1px"
       color="#0000ff"
       empcolor="#0000ff"
       opacity="0.2"
       empopacity="0.4"
       empspacing="4" />
  </sodipodi:namedview>
  <metadata
     id="metadata4">
    <rdf:RDF>
      <cc:Work
         rdf:about="">
        <dc:format>image/svg+xml</dc:format>
        <dc:type
           rdf:resource="http://purl.org/dc/dcmitype/StillImage" />
        <dc:title />
        <dc:date />
        <dc:creator>
          <cc:Agent>
            <dc:title>Marco Tessarotto</dc:title>
          </cc:Agent>
        </dc:creator>
        <dc:subject>
          <rdf:Bag />
        </dc:subject>
        <dc:publisher>
          <cc:Agent>
            <dc:title />
          </cc:Agent>
        </dc:publisher>
        <cc:license
           rdf:resource="http://creativecommons.org/licenses/by-nc-sa/2.5/" />
        <dc:contributor>
          <cc:Agent>
            <dc:title />
          </cc:Agent>
        </dc:contributor>
      </cc:Work>
      <cc:License
         rdf:about="http://creativecommons.org/licenses/by-nc-sa/2.5/">
        <cc:permits
           rdf:resource="http://web.resource.org/cc/Reproduction" />
        <cc:permits
           rdf:resource="http://web.resource.org/cc/Distribution" />
        <cc:requires
           rdf:resource="http://web.resource.org/cc/Notice" />
        <cc:requires
           rdf:resource="http://web.resource.org/cc/Attribution" />
        <cc:prohibits
           rdf:resource="http://web.resource.org/cc/CommercialUse" />
        <cc:permits
           rdf:resource="http://web.resource.org/cc/DerivativeWorks" />
        <cc:requires
           rdf:resource="http://web.resource.org/cc/ShareAlike" />
      </cc:License>
    </rdf:RDF>
  </metadata>
  <g
     inkscape:groupmode="layer"
     id="layer2"
     inkscape:label="shadow"
     style="display:inline" />
  <g
     id="layer1"
     inkscape:label="Layer 1"
     inkscape:groupmode="layer">
    <g
       id="g3783"
       transform="matrix(2.7092713,0,0,2.6264441,-33.116996,-39.665799)">
      <g
         style="display:inline"
         inkscape:label="shadow"
         id="g3785" />
      <g
         inkscape:label="Layer 1"
         id="g3787" />
    </g>
    <g
       id="g3341"
       transform="translate(0,-2)" />
    <g
       id="g3091"
       transform="matrix(0.8693749,0,0,0.8693749,4.6293983,-2.4198854)">
      <g
         style="display:inline"
         inkscape:label="file"
         id="layer5">
        <path
           transform="matrix(1.4547318,0,0,1.9230325,-19.000882,-33.498755)"
           sodipodi:open="true"
           sodipodi:end="6.2825619"
           sodipodi:start="0"
           d="M 40.75,44.75 A 15.375,2.375 0 1 1 40.749997,44.748519"
           sodipodi:ry="2.375"
           sodipodi:rx="15.375"
           sodipodi:cy="44.75"
           sodipodi:cx="25.375"
           id="path2205"
           style="opacity:0.41919191;fill:url(#radialGradient3956);fill-opacity:1;stroke:#000000;stroke-width:1.04200006;stroke-linecap:round;stroke-linejoin:round;stroke-miterlimit:4;stroke-dasharray:none;stroke-opacity:0"
           sodipodi:type="arc" />
        <g
           style="opacity:0.12121211"
           transform="matrix(0.1631462,0,0,0.1631462,26.437746,27.501399)"
           id="g3777">
          <g
             style="opacity:1"
             transform="translate(12.258943,0)"
             id="g3848" />
        </g>
        <g
           id="g2910"
           transform="matrix(0.1631462,0,0,0.1631462,-56.591584,24.798831)"
           style="opacity:0.12121211">
          <g
             id="g2912"
             transform="translate(12.258943,0)"
             style="opacity:1" />
        </g>
        <g
           style="opacity:0.12121211"
           transform="matrix(0.1631462,0,0,0.1631462,31.672511,88.863867)"
           id="g2728">
          <g
             style="opacity:1"
             transform="translate(12.258943,0)"
             id="g2730" />
        </g>
        <path
           style="fill:url(#linearGradient3486);fill-opacity:1.0;fill-rule:evenodd;stroke:#000000;stroke-width:0.50000002;stroke-linecap:butt;stroke-linejoin:miter;stroke-miterlimit:4;stroke-dasharray:none;stroke-opacity:1;display:inline"
           d="M 1 1 L 1 34 L 8 34 L 16 45 L 24 34 L 47 34 L 47 1 L 1 1 z M 23.75 4.90625 C 25.857259 4.9062701 27.787426 5.3055276 29.53125 6.125 C 31.273819 6.9344193 32.736512 8.1251788 33.90625 9.65625 C 34.62276 10.592539 35.166102 11.613792 35.53125 12.71875 C 35.907635 13.819047 36.093725 14.959056 36.09375 16.15625 C 36.093724 18.731009 35.288991 20.838712 33.6875 22.3125 C 32.085295 23.786899 29.855822 24.468751 27.0625 24.46875 L 26.53125 24.46875 C 26.247657 24.465182 26.003568 24.252344 26 23.96875 L 26 23.375 C 25.820661 23.530622 25.677554 23.687839 25.46875 23.8125 C 24.782338 24.218097 23.954407 24.437502 23.0625 24.4375 C 21.37158 24.437501 19.947894 23.794358 18.875 22.5625 C 17.809444 21.317707 17.281242 19.698197 17.28125 17.78125 C 17.281242 15.86606 17.80084 14.211992 18.875 12.96875 C 19.947089 11.727907 21.375939 11.125014 23.0625 11.125 C 23.950485 11.125016 24.776842 11.299438 25.46875 11.71875 C 25.671773 11.839966 25.826376 12.004416 26 12.15625 L 26 11.90625 C 26.003568 11.622657 26.247656 11.378568 26.53125 11.375 L 29.375 11.375 C 29.658593 11.378568 29.902681 11.622657 29.90625 11.90625 L 29.90625 20.625 C 30.605779 20.404149 31.185904 20.05593 31.625 19.4375 C 32.195479 18.625952 32.499978 17.575779 32.5 16.21875 C 32.499978 15.35166 32.399655 14.542789 32.15625 13.8125 C 31.913844 13.076999 31.503476 12.404234 31 11.78125 C 30.180635 10.729052 29.196773 9.9105531 27.96875 9.34375 C 26.746238 8.7755631 25.413813 8.5000168 23.96875 8.5 C 22.952631 8.5000165 21.973412 8.6086129 21.0625 8.875 C 21.062735 8.8840545 21.062736 8.897196 21.0625 8.90625 C 20.146388 9.1655402 19.306645 9.5541955 18.53125 10.0625 C 17.252629 10.909164 16.28064 11.993994 15.5625 13.34375 C 14.854967 14.68116 14.499995 16.11519 14.5 17.6875 C 14.499996 18.981305 14.729525 20.180538 15.1875 21.3125 C 15.653888 22.435301 16.315255 23.417648 17.1875 24.28125 C 18.052031 25.128498 19.044708 25.779305 20.15625 26.21875 C 21.277985 26.667447 22.439345 26.906247 23.71875 26.90625 C 24.799304 26.906249 25.903113 26.6904 27 26.28125 C 28.094085 25.873131 28.990871 25.307347 29.75 24.625 C 29.860647 24.520587 30.036174 24.484345 30.1875 24.5 C 30.338826 24.515654 30.47557 24.593898 30.5625 24.71875 L 32 26.9375 C 32.155485 27.164825 32.122873 27.486173 31.90625 27.65625 C 30.722278 28.574995 29.431785 29.267371 28.03125 29.75 C 26.635875 30.24359 25.193864 30.468746 23.75 30.46875 C 22.002825 30.468744 20.370237 30.189394 18.8125 29.5625 C 17.25754 28.946206 15.872336 28.062588 14.65625 26.875 C 13.441282 25.688513 12.482227 24.281598 11.84375 22.71875 C 11.205556 21.147089 10.906248 19.467993 10.90625 17.6875 C 10.906248 15.964804 11.197386 14.318388 11.84375 12.75 C 12.48987 11.182211 13.429204 9.7800663 14.625 8.59375 C 14.634054 8.5935147 14.647195 8.593515 14.65625 8.59375 C 15.853464 7.4155514 17.232268 6.5184636 18.8125 5.875 C 20.404757 5.2305307 22.044808 4.9062705 23.75 4.90625 z M 23.5625 14.65625 C 22.904178 14.656259 22.432232 14.90033 22.03125 15.4375 C 21.643722 15.959168 21.437489 16.720589 21.4375 17.75 C 21.43749 18.79885 21.644794 19.534855 22.03125 20.0625 C 22.426188 20.591584 22.902468 20.843752 23.59375 20.84375 C 24.274436 20.843753 24.763166 20.620319 25.15625 20.09375 C 25.550498 19.558152 25.749985 18.792007 25.75 17.75 C 25.749983 16.723406 25.527726 15.990827 25.125 15.46875 C 24.725835 14.934047 24.242214 14.656259 23.5625 14.65625 z "
           transform="matrix(1.1502517,0,0,1.1502517,-5.3249735,2.7834774)"
           id="path2269" />
        <path
           style="fill:url(#linearGradient3478);fill-opacity:1.0;fill-rule:evenodd;stroke:none;stroke-width:0.9202013;stroke-linecap:butt;stroke-linejoin:miter;stroke-miterlimit:4;stroke-dasharray:none;stroke-opacity:1;display:inline;opacity:0.56573705"
           d="M 2 2 L 2 33 L 8 33 C 8.3213777 32.996989 8.6220826 33.147341 8.8125 33.40625 L 10.125 35.1875 C 11.056709 32.436031 12.241003 29.790409 13.71875 27.34375 C 12.513825 26.110705 11.587643 24.685155 10.9375 23.09375 C 10.249023 21.398259 9.9062482 19.585072 9.90625 17.6875 C 9.9062483 15.846959 10.238953 14.070011 10.9375 12.375 C 11.632259 10.689193 12.61456 9.156449 13.90625 7.875 C 13.915306 7.8748772 13.928444 7.874877 13.9375 7.875 C 14.000365 7.8014267 14.074983 7.7400425 14.15625 7.6875 C 14.175929 7.6689441 14.230229 7.6746721 14.25 7.65625 C 15.478318 6.5117352 16.861748 5.5791393 18.4375 4.9375 C 20.149903 4.2444008 21.925029 3.906272 23.75 3.90625 C 25.984771 3.9062711 28.081356 4.3630602 29.96875 5.25 C 31.849796 6.123741 33.453485 7.3751438 34.71875 9.03125 C 34.968096 9.3570798 35.166517 9.7203544 35.375 10.0625 C 38.746115 8.939519 42.29804 8.2446612 46 8.0625 L 46 2 L 2 2 z M 23.96875 9.5 C 23.085913 9.5000151 22.259487 9.6080839 21.5 9.8125 C 21.491776 9.8147132 21.476955 9.8102605 21.46875 9.8125 C 21.424857 9.8339039 21.390296 9.8602287 21.34375 9.875 C 20.516513 10.109136 19.78164 10.455309 19.09375 10.90625 C 17.946357 11.666019 17.050021 12.602519 16.40625 13.8125 C 15.773075 15.009354 15.499996 16.264452 15.5 17.6875 C 15.499996 18.853312 15.713164 19.919577 16.125 20.9375 C 16.378885 21.548712 16.686676 22.112312 17.0625 22.625 C 17.16994 22.494248 17.297193 22.379359 17.40625 22.25 C 16.642192 20.966691 16.281242 19.43602 16.28125 17.78125 C 16.28124 15.691458 16.829349 13.775928 18.09375 12.3125 C 19.351799 10.856427 21.146919 10.125016 23.0625 10.125 C 23.961222 10.125016 24.852796 10.325448 25.6875 10.75 C 25.935646 10.566374 26.20544 10.3791 26.53125 10.375 L 27.71875 10.375 C 27.653784 10.342627 27.629113 10.280746 27.5625 10.25 C 27.553444 10.250123 27.540306 10.250123 27.53125 10.25 C 26.447958 9.7465177 25.287411 9.5000148 23.96875 9.5 z M 23.3125 15.6875 C 23.106437 15.705129 23.038918 15.769796 22.84375 16.03125 C 22.675127 16.258243 22.520183 16.632666 22.46875 17.21875 C 23.024277 16.757152 23.575962 16.306507 24.15625 15.875 C 23.999075 15.703823 23.896267 15.687504 23.5625 15.6875 C 23.454507 15.687502 23.381188 15.681624 23.3125 15.6875 z "
           transform="matrix(1.1502517,0,0,1.1502517,-5.3249735,2.7834774)"
           id="path3476" />
      </g>
    </g>
  </g>
</svg>
