<?xml version="1.0" encoding="UTF-8" standalone="no"?>
<!-- Created with Inkscape (http://www.inkscape.org/) -->
<svg
   xmlns:dc="http://purl.org/dc/elements/1.1/"
   xmlns:cc="http://creativecommons.org/ns#"
   xmlns:rdf="http://www.w3.org/1999/02/22-rdf-syntax-ns#"
   xmlns:svg="http://www.w3.org/2000/svg"
   xmlns="http://www.w3.org/2000/svg"
   xmlns:xlink="http://www.w3.org/1999/xlink"
   xmlns:sodipodi="http://sodipodi.sourceforge.net/DTD/sodipodi-0.dtd"
   xmlns:inkscape="http://www.inkscape.org/namespaces/inkscape"
   width="48.000000px"
   height="48.000000px"
   id="svg97"
   sodipodi:version="0.32"
   inkscape:version="0.46"
   sodipodi:docbase="/home/marco/Scrivania/UltimateGnome/scalable/places"
   sodipodi:docname="user-home.svg"
   inkscape:export-filename="/home/marco/Scrivania/folder.png"
   inkscape:export-xdpi="90.000000"
   inkscape:export-ydpi="90.000000"
   inkscape:output_extension="org.inkscape.output.svg.inkscape">
  <defs
     id="defs3">
    <linearGradient
       id="linearGradient4257">
      <stop
         style="stop-color:#ffffff;stop-opacity:1;"
         offset="0"
         id="stop4259" />
      <stop
         style="stop-color:#ffffff;stop-opacity:0;"
         offset="1"
         id="stop4261" />
    </linearGradient>
    <linearGradient
       id="linearGradient4231">
      <stop
         style="stop-color:#d53f00;stop-opacity:1;"
         offset="0"
         id="stop4233" />
      <stop
         id="stop4304"
         offset="0.5"
         style="stop-color:#ea731b;stop-opacity:1;" />
      <stop
         style="stop-color:#f48d29;stop-opacity:1;"
         offset="0.75"
         id="stop4306" />
      <stop
         style="stop-color:#ffdfb6;stop-opacity:1;"
         offset="1"
         id="stop4235" />
    </linearGradient>
    <linearGradient
       id="linearGradient9766">
      <stop
         style="stop-color:#693300;stop-opacity:1;"
         offset="0"
         id="stop9768" />
      <stop
         style="stop-color:#e98c03;stop-opacity:1;"
         offset="1"
         id="stop9770" />
    </linearGradient>
    <linearGradient
       id="linearGradient1789">
      <stop
         style="stop-color:#ffffff;stop-opacity:1"
         offset="0"
         id="stop1790" />
      <stop
         style="stop-color:#ffffff;stop-opacity:0;"
         offset="1"
         id="stop1791" />
    </linearGradient>
    <linearGradient
       id="linearGradient127">
      <stop
         style="stop-color:#ffffff;stop-opacity:1;"
         offset="0"
         id="stop128" />
      <stop
         style="stop-color:#fcaf3e"
         offset="1"
         id="stop129" />
    </linearGradient>
    <radialGradient
       inkscape:collect="always"
       xlink:href="#linearGradient9766"
       id="radialGradient3213"
       cx="21.218285"
       cy="31.101025"
       fx="21.218285"
       fy="31.101025"
       r="4.3227959"
       gradientTransform="matrix(-9.0935718e-2,1.9325182,-2.0008263,-9.4149959e-2,85.08417,-5.080971)"
       gradientUnits="userSpaceOnUse" />
    <radialGradient
       inkscape:collect="always"
       xlink:href="#linearGradient9766"
       id="radialGradient4222"
       gradientUnits="userSpaceOnUse"
       gradientTransform="matrix(2.6999724,-2.8793186e-2,8.7827543e-3,0.8235693,-39.398517,7.018247)"
       cx="23.422913"
       cy="18.903791"
       fx="23.422913"
       fy="18.903791"
       r="5.8916888" />
    <radialGradient
       inkscape:collect="always"
       xlink:href="#linearGradient127"
       id="radialGradient4224"
       gradientUnits="userSpaceOnUse"
       gradientTransform="matrix(1.8473389,2.264783,-2.8584866,2.331611,51.678969,-77.903599)"
       cx="21.169008"
       cy="24.369698"
       fx="21.169008"
       fy="24.369698"
       r="3.063262" />
    <radialGradient
       inkscape:collect="always"
       xlink:href="#linearGradient4231"
       id="radialGradient4237"
       cx="24.439379"
       cy="9.7435255"
       fx="24.439379"
       fy="9.7435255"
       r="8.329146"
       gradientTransform="matrix(-1.5483627,2.590099,-2.8588838,-1.6793963,90.84164,-42.525269)"
       gradientUnits="userSpaceOnUse" />
    <radialGradient
       inkscape:collect="always"
       xlink:href="#linearGradient4231"
       id="radialGradient4245"
       cx="22.45064"
       cy="9.0417919"
       fx="22.45064"
       fy="9.0417919"
       r="8.5433397"
       gradientTransform="matrix(-2.8834141,0.9123185,-1.0150762,-3.208184,96.67732,11.975482)"
       gradientUnits="userSpaceOnUse" />
    <linearGradient
       inkscape:collect="always"
       xlink:href="#linearGradient1789"
       id="linearGradient4280"
       x1="17.25"
       y1="21.96875"
       x2="32.9375"
       y2="34.03125"
       gradientUnits="userSpaceOnUse"
       gradientTransform="matrix(1.2795088,0,0,1.2795088,-5.9610901,-5.208349)" />
    <radialGradient
       inkscape:collect="always"
       xlink:href="#linearGradient4257"
       id="radialGradient4302"
       cx="22.185476"
       cy="7.6292529"
       fx="22.185476"
       fy="7.6292529"
       r="4.7426405"
       gradientTransform="matrix(-3.7472692,1.0813528,-1.1214916,-3.8863649,114.11651,8.431051)"
       gradientUnits="userSpaceOnUse" />
  </defs>
  <sodipodi:namedview
     fill="#fcaf3e"
     id="base"
     pagecolor="#ffffff"
     bordercolor="#000000"
     borderopacity="1"
     inkscape:pageopacity="0.0"
     inkscape:pageshadow="2"
     inkscape:zoom="11.313708"
     inkscape:cx="29.300691"
     inkscape:cy="23.649534"
     inkscape:current-layer="layer5"
     showgrid="true"
     inkscape:grid-bbox="true"
     inkscape:document-units="px"
     inkscape:window-width="1036"
     inkscape:window-height="924"
     inkscape:window-x="224"
     inkscape:window-y="49"
     inkscape:showpageshadow="true"
     stroke="#ce5c00"
     showborder="true"
     showguides="true"
     inkscape:guide-bbox="true" />
  <metadata
     id="metadata4">
    <rdf:RDF>
      <cc:Work
         rdf:about="">
        <dc:format>image/svg+xml</dc:format>
        <dc:type
           rdf:resource="http://purl.org/dc/dcmitype/StillImage" />
        <dc:title />
        <dc:date />
        <dc:creator>
          <cc:Agent>
            <dc:title>Marco Tessarotto</dc:title>
          </cc:Agent>
        </dc:creator>
        <cc:license
           rdf:resource="http://creativecommons.org/licenses/by-nc-sa/2.5/" />
        <dc:source />
        <dc:subject>
          <rdf:Bag />
        </dc:subject>
        <dc:contributor>
          <cc:Agent>
            <dc:title />
          </cc:Agent>
        </dc:contributor>
      </cc:Work>
      <cc:License
         rdf:about="http://creativecommons.org/licenses/by-nc-sa/2.5/">
        <cc:permits
           rdf:resource="http://web.resource.org/cc/Reproduction" />
        <cc:permits
           rdf:resource="http://web.resource.org/cc/Distribution" />
        <cc:requires
           rdf:resource="http://web.resource.org/cc/Notice" />
        <cc:requires
           rdf:resource="http://web.resource.org/cc/Attribution" />
        <cc:prohibits
           rdf:resource="http://web.resource.org/cc/CommercialUse" />
        <cc:permits
           rdf:resource="http://web.resource.org/cc/DerivativeWorks" />
        <cc:requires
           rdf:resource="http://web.resource.org/cc/ShareAlike" />
      </cc:License>
    </rdf:RDF>
  </metadata>
  <g
     id="layer1"
     inkscape:label="shadow"
     inkscape:groupmode="layer"
     style="opacity:0.70652173">
    <g
       id="layer2"
       inkscape:label="Shadow"
       style="display:inline"
       transform="matrix(0.8969248,0,0,1.2795071,3.0786415,-7.088781)">
      <g
         id="g3354"
         transform="matrix(1.014414,0,0.181179,0.920015,-7.88527,-0.346345)"
         style="opacity:0.5">
        <path
           style="opacity:0.06666703;fill:#000000;fill-opacity:1;stroke:none"
           d="M 7.125,42.875 C 5.817069,43.482054 13.621333,43.007633 15.276786,43.15625 C 22.728539,42.973662 32.710951,43.498864 38.90625,42.9375 C 28.327868,42.734036 17.711605,42.86803 7.125,42.875 z "
           id="path3371" />
        <path
           style="opacity:0.06666703;fill:#000000;fill-opacity:1;stroke:none"
           d="M 7.0625,42.46875 C 6.3400984,42.322911 4.5748491,43.092456 6.15625,43.40625 C 16.926732,43.761038 27.745751,43.49232 38.53125,43.53125 C 39.259295,43.667433 40.970679,42.899465 39.40625,42.59375 C 28.651625,42.23896 17.832877,42.507715 7.0625,42.46875 z "
           id="path3376" />
        <path
           style="opacity:0.06666703;fill:#000000;fill-opacity:1;stroke:none"
           d="M 7,41.9375 C 6.238889,42.017514 5.0528764,42.13462 4.90625,43 C 5.0554797,43.867799 6.2372349,43.981311 7,44.0625 C 13.264716,44.135404 19.533658,44.072928 25.8,44.09375 C 30.053851,44.073213 34.310272,44.13502 38.5625,44.0625 C 39.323611,43.982486 40.509624,43.86538 40.65625,43 C 40.50702,42.132201 39.325265,42.018689 38.5625,41.9375 C 32.297784,41.864596 26.028842,41.927072 19.7625,41.90625 C 15.508734,41.926787 11.252106,41.86498 7,41.9375 z "
           id="path3381" />
        <path
           style="opacity:0.06666703;fill:#000000;fill-opacity:1;stroke:none"
           d="M 6.96875,41.59375 C 5.6519933,41.323289 3.5519537,42.931351 5.21875,43.9375 C 9.0532143,45.125005 13.356235,44.092531 17.357144,44.4375 C 24.759306,44.297351 32.230079,44.708618 39.59375,44.25 C 41.358993,44.144081 41.323358,41.818942 39.5625,41.75 C 28.922174,41.29843 18.17842,41.697773 7.5,41.5625 C 7.3225477,41.561098 7.1458643,41.584324 6.96875,41.59375 z "
           id="path3386" />
        <path
           style="opacity:0.06666703;fill:#000000;fill-opacity:1;stroke:none"
           d="M 6.9375,41.1875 C 4.3166183,40.611464 3.041246,44.366005 5.96875,44.6875 C 17.331495,44.784213 28.882648,45.274303 40.1875,44.5 C 42.921998,43.395085 40.232604,40.436766 38.0625,41.15625 C 27.68793,41.178914 17.310405,41.112116 6.9375,41.1875 z "
           id="path3391" />
        <path
           style="opacity:0.06666703;fill:#000000;fill-opacity:1;stroke:none"
           d="M 6.90625,40.75 C 3.3835192,40.146457 2.6671782,45.28727 6.375,45.1875 C 17.688718,45.005018 29.256776,45.967066 40.46875,44.84375 C 43.52024,43.486131 40.646309,39.961248 38.0625,40.71875 C 27.677532,40.741908 17.289547,40.673948 6.90625,40.75 z "
           id="path3396" />
        <path
           style="opacity:0.06666703;fill:#000000;fill-opacity:1;stroke:none"
           d="M 6.90625,40.3125 C 2.8715713,39.687948 2.0833445,45.679261 6.3125,45.59375 C 17.653302,45.498337 29.282996,46.368048 40.53125,45.28125 C 44.147219,43.884667 41.225187,39.440237 38.0625,40.28125 C 27.67753,40.304368 17.289549,40.236503 6.90625,40.3125 z "
           id="path3401" />
        <path
           style="opacity:0.06666703;fill:#000000;fill-opacity:1;stroke:none"
           d="M 7.375,39.875 C 3.0249191,38.906286 1.0597142,45.351008 5.78125,45.96875 C 17.358885,46.018088 29.218515,46.792733 40.71875,45.6875 C 44.724914,44.072465 41.707772,39.013682 38.0625,39.84375 C 27.835932,39.864975 17.589222,39.80156 7.375,39.875 z "
           id="path3406" />
        <path
           style="opacity:0.06666703;fill:#000000;fill-opacity:1;stroke:none"
           d="M 6.84375,39.46875 C 1.8233552,38.854506 1.024099,46.413494 6.1875,46.46875 C 17.701887,46.270396 29.463081,47.285228 40.875,46.09375 C 45.32893,44.340109 42.166414,38.505662 38.0625,39.4375 C 27.656698,39.460656 17.24788,39.392698 6.84375,39.46875 z "
           id="path3411" />
        <path
           style="opacity:0.06666703;fill:#000000;fill-opacity:1;stroke:none"
           d="M 6.8125,39.03125 C 1.5959042,38.420912 0.27591709,46.270495 5.65625,46.8125 C 17.305315,46.895787 29.202609,47.580396 40.78125,46.5625 C 45.907832,44.98461 42.853887,37.956476 38.0625,39 C 27.646283,39.023191 17.227045,38.95515 6.8125,39.03125 z "
           id="path3416" />
      </g>
    </g>
  </g>
  <g
     inkscape:groupmode="layer"
     id="layer3"
     inkscape:label="home"
     style="display:inline">
    <path
       style="opacity:1;fill:#c8bfb0;fill-opacity:1;fill-rule:evenodd;stroke:#000000;stroke-width:0.47999999;stroke-linecap:butt;stroke-linejoin:round;stroke-miterlimit:4;stroke-dasharray:none;stroke-opacity:0.86549707"
       d="M 9.073156,42.773214 L 38.501851,42.933164 L 42.588703,26.998229 L 23.627552,13.315055 L 5.5544911,26.717716 L 9.073156,42.773214 z "
       id="path2225"
       sodipodi:nodetypes="cccccc" />
    <path
       style="fill:url(#linearGradient4280);fill-opacity:1;fill-rule:evenodd;stroke:#000000;stroke-width:1.27951109px;stroke-linecap:butt;stroke-linejoin:round;stroke-opacity:0"
       d="M 10.672501,41.333796 L 8.03924,29.928935 L 23.853748,18.173459 L 40.081827,29.796467 C 38.759284,33.999587 37.373401,38.754808 36.469559,41.285701 C 30.644398,41.385123 19.727641,41.641696 10.672501,41.333796 z "
       id="path4270"
       sodipodi:nodetypes="cccccc" />
  </g>
  <g
     inkscape:groupmode="layer"
     id="layer4"
     inkscape:label="window">
    <path
       style="opacity:1;fill:url(#radialGradient4222);fill-opacity:1;fill-rule:evenodd;stroke:#000000;stroke-width:0.47999999;stroke-linecap:butt;stroke-linejoin:round;stroke-miterlimit:4;stroke-dasharray:none;stroke-opacity:0.59064331;display:inline"
       d="M 20.38973,27.680215 L 16.714188,29.687598 L 16.65766,22.958535 L 20.163539,21.26213 L 20.38973,27.680215 z M 26.779539,21.318688 L 30.455066,22.901984 L 30.398539,29.574536 L 26.779539,27.425742 L 26.779539,21.318688 z "
       id="path4187"
       sodipodi:nodetypes="cccccccccc" />
    <path
       style="fill:url(#radialGradient4224);fill-opacity:1;fill-rule:evenodd;stroke:#000000;stroke-width:0.47999999;stroke-linecap:butt;stroke-linejoin:round;stroke-miterlimit:4;stroke-dasharray:none;stroke-opacity:0.70760235;display:inline"
       d="M 20.389729,27.538829 C 20.333174,24.428749 20.333174,21.205579 20.333174,21.205579 L 26.779538,21.318686 L 26.892607,27.482299 L 20.389729,27.538829 z "
       id="path4191"
       sodipodi:nodetypes="ccccc" />
  </g>
  <g
     inkscape:groupmode="layer"
     id="layer5"
     inkscape:label="tetto">
    <path
       style="fill:url(#radialGradient4245);fill-opacity:1;fill-rule:evenodd;stroke:#620000;stroke-width:0.477;stroke-linecap:butt;stroke-linejoin:round;stroke-miterlimit:4;stroke-dasharray:none;stroke-opacity:1"
       d="M 3.1995,28.839395 L 23.669457,14.250316 L 23.782551,0.67908226 L 8.288699,13.119393 L 3.1995,28.839395 z "
       id="path4227" />
    <path
       style="fill:url(#radialGradient4237);fill-opacity:1;fill-rule:evenodd;stroke:#6e0000;stroke-width:0.46097991;stroke-linecap:butt;stroke-linejoin:round;stroke-miterlimit:4;stroke-dasharray:none;stroke-opacity:1"
       d="M 44.042956,28.856636 L 23.926451,14.308295 L 23.815337,0.77494205 L 39.041617,13.180514 L 44.042956,28.856636 z "
       id="path4229" />
    <path
       style="fill:url(#radialGradient4302);fill-opacity:1;fill-rule:evenodd;stroke:#000000;stroke-width:1.27951109px;stroke-linecap:butt;stroke-linejoin:round;stroke-opacity:0"
       d="M 22.976611,2.0894564 L 22.990907,13.911045 L 18.919518,16.964572 C 14.288624,16.482454 11.834517,15.241544 12.624071,10.543518 L 22.976611,2.0894564 z "
       id="path4294"
       sodipodi:nodetypes="ccccc" />
  </g>
  <path
     style="opacity:0.81313135;fill:url(#radialGradient3213);fill-opacity:1;fill-rule:evenodd;stroke:#000000;stroke-width:0.47999999;stroke-linecap:butt;stroke-linejoin:round;stroke-miterlimit:4;stroke-dasharray:none;stroke-opacity:0.97076021"
     d="M 18.857018,42.767776 L 19.598102,31.214372 L 28.136645,31.270939 L 28.639637,42.892776 L 18.857018,42.767776 z "
     id="path3205"
     sodipodi:nodetypes="ccccc" />
</svg>
