<?xml version="1.0" encoding="UTF-8" standalone="no"?>
<!-- Created with Inkscape (http://www.inkscape.org/) -->
<svg
   xmlns:dc="http://purl.org/dc/elements/1.1/"
   xmlns:cc="http://creativecommons.org/ns#"
   xmlns:rdf="http://www.w3.org/1999/02/22-rdf-syntax-ns#"
   xmlns:svg="http://www.w3.org/2000/svg"
   xmlns="http://www.w3.org/2000/svg"
   xmlns:xlink="http://www.w3.org/1999/xlink"
   xmlns:sodipodi="http://sodipodi.sourceforge.net/DTD/sodipodi-0.dtd"
   xmlns:inkscape="http://www.inkscape.org/namespaces/inkscape"
   width="48"
   height="48"
   id="svg97"
   sodipodi:version="0.32"
   inkscape:version="0.46"
   sodipodi:docbase="/home/marco/Scrivania/UltimateGnome/scalable/extras"
   sodipodi:docname="user-home.svg"
   inkscape:export-filename="/home/marco/Desktop/Grafica/Icone/Ubuntu/folder.png"
   inkscape:export-xdpi="90.000000"
   inkscape:export-ydpi="90.000000"
   inkscape:output_extension="org.inkscape.output.svg.inkscape"
   version="1.0">
  <defs
     id="defs3">
    <linearGradient
       id="linearGradient7254">
      <stop
         style="stop-color:#ffffff;stop-opacity:1;"
         offset="0"
         id="stop7256" />
      <stop
         id="stop8231"
         offset="0.5"
         style="stop-color:#9deaff;stop-opacity:1;" />
      <stop
         style="stop-color:#3ca3ff;stop-opacity:1;"
         offset="1"
         id="stop7258" />
    </linearGradient>
    <filter
       inkscape:collect="always"
       id="filter5289">
      <feGaussianBlur
         inkscape:collect="always"
         stdDeviation="0.31127586"
         id="feGaussianBlur5291" />
    </filter>
    <filter
       inkscape:collect="always"
       id="filter12162">
      <feGaussianBlur
         inkscape:collect="always"
         stdDeviation="0.31039134"
         id="feGaussianBlur12164" />
    </filter>
    <radialGradient
       inkscape:collect="always"
       xlink:href="#linearGradient7254"
       id="radialGradient2353"
       gradientUnits="userSpaceOnUse"
       gradientTransform="matrix(1.2843038,0.7150919,-0.3606508,1.1190642,-5.6262714,-15.097955)"
       spreadMethod="reflect"
       cx="19.341837"
       cy="16.26161"
       fx="19.341837"
       fy="16.26161"
       r="21.167664" />
    <linearGradient
       id="linearGradient127">
      <stop
         id="stop128"
         offset="0"
         style="stop-color:#ffffff;stop-opacity:1;" />
      <stop
         id="stop129"
         offset="1"
         style="stop-color:#fcaf3e" />
    </linearGradient>
    <linearGradient
       id="linearGradient1789">
      <stop
         id="stop1790"
         offset="0"
         style="stop-color:#ffffff;stop-opacity:1" />
      <stop
         id="stop1791"
         offset="1"
         style="stop-color:#ffffff;stop-opacity:0;" />
    </linearGradient>
    <linearGradient
       id="linearGradient9766">
      <stop
         id="stop9768"
         offset="0"
         style="stop-color:#693300;stop-opacity:1;" />
      <stop
         id="stop9770"
         offset="1"
         style="stop-color:#e98c03;stop-opacity:1;" />
    </linearGradient>
    <linearGradient
       id="linearGradient4231">
      <stop
         id="stop4233"
         offset="0"
         style="stop-color:#d53f00;stop-opacity:1;" />
      <stop
         style="stop-color:#ea731b;stop-opacity:1;"
         offset="0.5"
         id="stop4304" />
      <stop
         id="stop4306"
         offset="0.75"
         style="stop-color:#f48d29;stop-opacity:1;" />
      <stop
         id="stop4235"
         offset="1"
         style="stop-color:#ffdfb6;stop-opacity:1;" />
    </linearGradient>
    <linearGradient
       id="linearGradient4257">
      <stop
         id="stop4259"
         offset="0"
         style="stop-color:#ffffff;stop-opacity:1;" />
      <stop
         id="stop4261"
         offset="1"
         style="stop-color:#ffffff;stop-opacity:0;" />
    </linearGradient>
    <radialGradient
       inkscape:collect="always"
       xlink:href="#linearGradient9766"
       id="radialGradient2401"
       gradientUnits="userSpaceOnUse"
       gradientTransform="matrix(-5.1734785e-2,1.0994405,-1.1383021,-5.3563418e-2,70.787459,17.84121)"
       cx="21.218285"
       cy="31.101025"
       fx="21.218285"
       fy="31.101025"
       r="4.3227959" />
    <radialGradient
       inkscape:collect="always"
       xlink:href="#linearGradient4257"
       id="radialGradient2433"
       gradientUnits="userSpaceOnUse"
       gradientTransform="matrix(-2.1318814,0.6151989,-0.6380345,-2.2110152,87.304421,25.528416)"
       cx="22.185476"
       cy="7.6292529"
       fx="22.185476"
       fy="7.6292529"
       r="4.7426405" />
    <radialGradient
       inkscape:collect="always"
       xlink:href="#linearGradient4231"
       id="radialGradient2436"
       gradientUnits="userSpaceOnUse"
       gradientTransform="matrix(-0.8808883,1.4735488,-1.6264647,-0.9554354,74.062975,-3.4614499)"
       cx="24.439379"
       cy="9.7435255"
       fx="24.439379"
       fy="9.7435255"
       r="8.329146" />
    <radialGradient
       inkscape:collect="always"
       xlink:href="#linearGradient4231"
       id="radialGradient2439"
       gradientUnits="userSpaceOnUse"
       gradientTransform="matrix(-1.6404204,0.5190326,-0.5774931,-1.8251872,77.382987,27.544899)"
       cx="22.45064"
       cy="9.0417919"
       fx="22.45064"
       fy="9.0417919"
       r="8.5433397" />
    <radialGradient
       inkscape:collect="always"
       xlink:href="#linearGradient127"
       id="radialGradient2446"
       gradientUnits="userSpaceOnUse"
       gradientTransform="matrix(1.0509807,1.2884713,-1.6262388,1.3264908,51.782705,-23.588748)"
       cx="21.169008"
       cy="24.369698"
       fx="21.169008"
       fy="24.369698"
       r="3.063262" />
    <radialGradient
       inkscape:collect="always"
       xlink:href="#linearGradient9766"
       id="radialGradient2449"
       gradientUnits="userSpaceOnUse"
       gradientTransform="matrix(1.5360575,-1.6380904e-2,4.9966494e-3,0.4685418,-3.2733698e-2,24.724649)"
       cx="23.422913"
       cy="18.903791"
       fx="23.422913"
       fy="18.903791"
       r="5.8916888" />
    <linearGradient
       inkscape:collect="always"
       xlink:href="#linearGradient1789"
       id="linearGradient2454"
       gradientUnits="userSpaceOnUse"
       gradientTransform="matrix(0.727933,0,0,0.727933,18.990353,17.768743)"
       x1="17.25"
       y1="21.96875"
       x2="32.9375"
       y2="34.03125" />
  </defs>
  <sodipodi:namedview
     fill="#babdb6"
     id="base"
     pagecolor="#ffffff"
     bordercolor="#000000"
     borderopacity="1"
     inkscape:pageopacity="0.0"
     inkscape:pageshadow="2"
     inkscape:zoom="11.313708"
     inkscape:cx="18.528399"
     inkscape:cy="8.10333"
     inkscape:current-layer="layer1"
     showgrid="true"
     inkscape:grid-bbox="true"
     inkscape:document-units="px"
     inkscape:window-width="1272"
     inkscape:window-height="918"
     inkscape:window-x="0"
     inkscape:window-y="25"
     inkscape:showpageshadow="false"
     stroke="#555753"
     showborder="true"
     borderlayer="false"
     showguides="true"
     inkscape:guide-bbox="true" />
  <metadata
     id="metadata4">
    <rdf:RDF>
      <cc:Work
         rdf:about="">
        <dc:format>image/svg+xml</dc:format>
        <dc:type
           rdf:resource="http://purl.org/dc/dcmitype/StillImage" />
        <dc:title />
        <dc:date />
        <dc:creator>
          <cc:Agent>
            <dc:title>Marco Tessarotto</dc:title>
          </cc:Agent>
        </dc:creator>
        <cc:license
           rdf:resource="http://creativecommons.org/licenses/by-nc-sa/2.5/" />
        <dc:source />
        <dc:subject>
          <rdf:Bag />
        </dc:subject>
        <dc:contributor>
          <cc:Agent>
            <dc:title />
          </cc:Agent>
        </dc:contributor>
      </cc:Work>
      <cc:License
         rdf:about="http://creativecommons.org/licenses/by-nc-sa/2.5/">
        <cc:permits
           rdf:resource="http://web.resource.org/cc/Reproduction" />
        <cc:permits
           rdf:resource="http://web.resource.org/cc/Distribution" />
        <cc:requires
           rdf:resource="http://web.resource.org/cc/Notice" />
        <cc:requires
           rdf:resource="http://web.resource.org/cc/Attribution" />
        <cc:prohibits
           rdf:resource="http://web.resource.org/cc/CommercialUse" />
        <cc:permits
           rdf:resource="http://web.resource.org/cc/DerivativeWorks" />
        <cc:requires
           rdf:resource="http://web.resource.org/cc/ShareAlike" />
      </cc:License>
    </rdf:RDF>
  </metadata>
  <g
     inkscape:groupmode="layer"
     id="layer2"
     inkscape:label="Shadow"
     style="opacity:0.28787878;display:inline">
    <g
       id="g3354"
       transform="matrix(1.0704544,-0.1925876,0.1911881,0.9382592,-9.343728,3.9425059)"
       style="opacity:1">
      <path
         style="opacity:0.06666703;fill:#000000;fill-opacity:1;stroke:none"
         d="M 7.125,42.875 C 5.817069,43.482054 13.621333,43.007633 15.276786,43.15625 C 22.728539,42.973662 32.710951,43.498864 38.90625,42.9375 C 28.327868,42.734036 17.711605,42.86803 7.125,42.875 z "
         id="path3371" />
      <path
         style="opacity:0.06666703;fill:#000000;fill-opacity:1;stroke:none"
         d="M 7.0625,42.46875 C 6.3400984,42.322911 4.5748491,43.092456 6.15625,43.40625 C 16.926732,43.761038 27.745751,43.49232 38.53125,43.53125 C 39.259295,43.667433 40.970679,42.899465 39.40625,42.59375 C 28.651625,42.23896 17.832877,42.507715 7.0625,42.46875 z "
         id="path3376" />
      <path
         style="opacity:0.06666703;fill:#000000;fill-opacity:1;stroke:none"
         d="M 7,41.9375 C 6.238889,42.017514 5.0528764,42.13462 4.90625,43 C 5.0554797,43.867799 6.2372349,43.981311 7,44.0625 C 13.264716,44.135404 19.533658,44.072928 25.8,44.09375 C 30.053851,44.073213 34.310272,44.13502 38.5625,44.0625 C 39.323611,43.982486 40.509624,43.86538 40.65625,43 C 40.50702,42.132201 39.325265,42.018689 38.5625,41.9375 C 32.297784,41.864596 26.028842,41.927072 19.7625,41.90625 C 15.508734,41.926787 11.252106,41.86498 7,41.9375 z "
         id="path3381" />
      <path
         style="opacity:0.06666703;fill:#000000;fill-opacity:1;stroke:none"
         d="M 6.96875,41.59375 C 5.6519933,41.323289 3.5519537,42.931351 5.21875,43.9375 C 9.0532143,45.125005 13.356235,44.092531 17.357144,44.4375 C 24.759306,44.297351 32.230079,44.708618 39.59375,44.25 C 41.358993,44.144081 41.323358,41.818942 39.5625,41.75 C 28.922174,41.29843 18.17842,41.697773 7.5,41.5625 C 7.3225477,41.561098 7.1458643,41.584324 6.96875,41.59375 z "
         id="path3386" />
      <path
         style="opacity:0.06666703;fill:#000000;fill-opacity:1;stroke:none"
         d="M 6.9375,41.1875 C 4.3166183,40.611464 3.041246,44.366005 5.96875,44.6875 C 17.331495,44.784213 28.882648,45.274303 40.1875,44.5 C 42.921998,43.395085 40.232604,40.436766 38.0625,41.15625 C 27.68793,41.178914 17.310405,41.112116 6.9375,41.1875 z "
         id="path3391" />
      <path
         style="opacity:0.06666703;fill:#000000;fill-opacity:1;stroke:none"
         d="M 6.90625,40.75 C 3.3835192,40.146457 2.6671782,45.28727 6.375,45.1875 C 17.688718,45.005018 29.256776,45.967066 40.46875,44.84375 C 43.52024,43.486131 40.646309,39.961248 38.0625,40.71875 C 27.677532,40.741908 17.289547,40.673948 6.90625,40.75 z "
         id="path3396" />
      <path
         style="opacity:0.06666703;fill:#000000;fill-opacity:1;stroke:none"
         d="M 6.90625,40.3125 C 2.8715713,39.687948 2.0833445,45.679261 6.3125,45.59375 C 17.653302,45.498337 29.282996,46.368048 40.53125,45.28125 C 44.147219,43.884667 41.225187,39.440237 38.0625,40.28125 C 27.67753,40.304368 17.289549,40.236503 6.90625,40.3125 z "
         id="path3401" />
      <path
         style="opacity:0.06666703;fill:#000000;fill-opacity:1;stroke:none"
         d="M 7.375,39.875 C 3.0249191,38.906286 1.0597142,45.351008 5.78125,45.96875 C 17.358885,46.018088 29.218515,46.792733 40.71875,45.6875 C 44.724914,44.072465 41.707772,39.013682 38.0625,39.84375 C 27.835932,39.864975 17.589222,39.80156 7.375,39.875 z "
         id="path3406" />
      <path
         style="opacity:0.06666703;fill:#000000;fill-opacity:1;stroke:none"
         d="M 6.84375,39.46875 C 1.8233552,38.854506 1.024099,46.413494 6.1875,46.46875 C 17.701887,46.270396 29.463081,47.285228 40.875,46.09375 C 45.32893,44.340109 42.166414,38.505662 38.0625,39.4375 C 27.656698,39.460656 17.24788,39.392698 6.84375,39.46875 z "
         id="path3411" />
      <path
         style="opacity:0.06666703;fill:#000000;fill-opacity:1;stroke:none"
         d="M 6.8125,39.03125 C 1.5959042,38.420912 0.27591709,46.270495 5.65625,46.8125 C 17.305315,46.895787 29.202609,47.580396 40.78125,46.5625 C 45.907832,44.98461 42.853887,37.956476 38.0625,39 C 27.646283,39.023191 17.227045,38.95515 6.8125,39.03125 z "
         id="path3416" />
    </g>
  </g>
  <g
     id="layer1"
     inkscape:label="Folder"
     inkscape:groupmode="layer"
     style="display:inline">
    <path
       style="opacity:0.67400004;fill:#fffffb;fill-opacity:1;fill-rule:evenodd;stroke:#000000;stroke-width:1.06335771px;stroke-linecap:butt;stroke-linejoin:round;stroke-opacity:0.989071"
       d="M 5.5799458,41.897835 C 3.9859356,42.437644 2.6409168,40.467936 2.8010272,37.647322 L 2.7256635,11.625909 C 2.5287211,11.376689 2.9865717,8.8561271 5.1939633,8.7444662 C 6.9512754,8.6555721 6.4836318,5.667264 6.4974655,5.8123381 C 6.4974655,5.8123381 6.0919878,3.2200025 8.2128933,2.710918 C 9.172679,2.4805391 17.299881,1.4067528 17.299881,1.4067528 C 17.299881,1.4067528 19.068803,1.3630803 19.068803,3.399417 C 19.068803,4.5922756 18.782748,6.764019 20.36377,6.4402215 C 22.66149,5.9696435 37.547221,3.5816001 37.547221,3.5816001 C 37.547221,3.5816001 39.518425,3.2322199 39.518425,6.0652603 C 39.518425,8.8982987 39.393982,31.309352 39.393982,31.309352 C 39.16083,34.001873 39.611471,35.306782 40.715128,35.703541"
       id="path2219"
       sodipodi:nodetypes="cccscscsscscc" />
    <g
       id="g2269"
       style="opacity:0.21600001;filter:url(#filter5289)"
       transform="matrix(1.0613518,0,0,1.2788132,-7.733509,-7.2158524)">
      <g
         id="g12115"
         style="filter:url(#filter12162)">
        <g
           id="g2253"
           transform="matrix(1,0,0,1.037663,0,-0.3741802)">
          <path
             id="path2223"
             d="M 10.713002,14.765981 C 43.580725,10.434952 43.669113,10.434952 43.669113,10.434952 L 10.713002,14.765981 z "
             style="fill:none;fill-rule:evenodd;stroke:#000000;stroke-width:1px;stroke-linecap:butt;stroke-linejoin:miter;stroke-opacity:1" />
          <path
             id="path2225"
             d="M 10.713002,17.108273 C 43.580727,12.777244 43.669115,12.777244 43.669115,12.777244 L 10.713002,17.108273 z "
             style="fill:none;fill-rule:evenodd;stroke:#000000;stroke-width:1px;stroke-linecap:butt;stroke-linejoin:miter;stroke-opacity:1;display:inline" />
          <path
             id="path2227"
             d="M 10.713002,19.384272 C 43.580727,15.053243 43.669115,15.053243 43.669115,15.053243 L 10.713002,19.384272 z "
             style="fill:none;fill-rule:evenodd;stroke:#000000;stroke-width:1px;stroke-linecap:butt;stroke-linejoin:miter;stroke-opacity:1;display:inline" />
          <path
             id="path2229"
             d="M 10.713002,21.726564 C 43.580726,17.395535 43.669114,17.395535 43.669114,17.395535 L 10.713002,21.726564 z "
             style="fill:none;fill-rule:evenodd;stroke:#000000;stroke-width:1px;stroke-linecap:butt;stroke-linejoin:miter;stroke-opacity:1;display:inline" />
          <path
             id="path2231"
             d="M 10.713002,23.881029 C 43.580728,19.55 43.669116,19.55 43.669116,19.55 L 10.713002,23.881029 z "
             style="fill:none;fill-rule:evenodd;stroke:#000000;stroke-width:1px;stroke-linecap:butt;stroke-linejoin:miter;stroke-opacity:1;display:inline" />
          <path
             id="path2233"
             d="M 10.713002,26.223321 C 43.580727,21.892292 43.669115,21.892292 43.669115,21.892292 L 10.713002,26.223321 z "
             style="fill:none;fill-rule:evenodd;stroke:#000000;stroke-width:1px;stroke-linecap:butt;stroke-linejoin:miter;stroke-opacity:1;display:inline" />
          <path
             sodipodi:nodetypes="ccc"
             id="path2235"
             d="M 10.713002,28.49932 C 43.580728,24.168291 43.669116,24.168291 43.669116,24.168291 L 10.713002,28.49932 z "
             style="fill:none;fill-rule:evenodd;stroke:#000000;stroke-width:1px;stroke-linecap:butt;stroke-linejoin:miter;stroke-opacity:1;display:inline" />
          <path
             id="path2237"
             d="M 10.713002,30.841612 C 43.580724,26.510583 43.669112,26.510583 43.669112,26.510583 L 10.713002,30.841612 z "
             style="fill:none;fill-rule:evenodd;stroke:#000000;stroke-width:1px;stroke-linecap:butt;stroke-linejoin:miter;stroke-opacity:1;display:inline" />
          <path
             id="path2247"
             d="M 10.713002,32.90769 C 43.580727,28.576661 43.669115,28.576661 43.669115,28.576661 L 10.713002,32.90769 z "
             style="fill:none;fill-rule:evenodd;stroke:#000000;stroke-width:1px;stroke-linecap:butt;stroke-linejoin:miter;stroke-opacity:1;display:inline" />
          <path
             id="path2249"
             d="M 10.713002,35.249982 C 43.580725,30.918953 43.669113,30.918953 43.669113,30.918953 L 10.713002,35.249982 z "
             style="fill:none;fill-rule:evenodd;stroke:#000000;stroke-width:1px;stroke-linecap:butt;stroke-linejoin:miter;stroke-opacity:1;display:inline" />
        </g>
        <path
           style="fill:none;fill-rule:evenodd;stroke:#000000;stroke-width:1.06033528px;stroke-linecap:butt;stroke-linejoin:miter;stroke-opacity:1"
           d="M 13.554793,12.35049 L 25.298106,11.082677 L 13.554793,12.35049 z "
           id="path2265" />
        <path
           style="fill:none;fill-rule:evenodd;stroke:#000000;stroke-width:1.04934537px;stroke-linecap:butt;stroke-linejoin:miter;stroke-opacity:1"
           d="M 13.725855,10.146065 L 24.55501,8.9560726 L 13.725855,10.146065 z "
           id="path2267" />
      </g>
    </g>
    <path
       style="opacity:0.83868689;fill:url(#radialGradient2353);fill-opacity:1;fill-rule:evenodd;stroke:#000000;stroke-width:1.06335771px;stroke-linecap:butt;stroke-linejoin:miter;stroke-opacity:0.66120217"
       d="M 5.4046151,41.919736 L 40.761797,35.804518 C 40.761797,35.804518 42.67065,35.912742 43.023984,33.484956 C 43.397778,30.916654 43.406061,19.255486 44.029405,14.92843 C 44.282393,12.817679 45.95076,7.4497312 41.934786,7.5479952 C 39.272563,7.613133 11.43712,12.925169 11.43712,12.925169 C 11.43712,12.925169 9.9154074,13.42001 9.1749309,16.193648 C 8.0215522,20.513956 7.788728,37.087102 7.4154491,38.01865 C 7.1080846,39.471248 6.9983209,41.006718 5.4046151,41.919736 z "
       id="path5294"
       sodipodi:nodetypes="ccscscscc" />
    <path
       style="opacity:0.33999999;fill:#ffffff;fill-opacity:1;fill-rule:evenodd;stroke:#ffffff;stroke-width:0.9358319px;stroke-linecap:round;stroke-linejoin:round;stroke-opacity:1;display:inline"
       d="M 9.7850988,38.149847 C 10.042494,30.265711 9.8832831,15.447117 14.166102,14.203495 L 38.387561,9.6104017 C 43.501474,8.2831685 42.667955,11.689488 42.691901,14.461869 C 41.642555,19.275339 42.746929,24.760582 27.155389,25.509019 C 12.230577,25.371473 10.823503,36.784737 9.7850988,38.149847 z "
       id="path9204"
       sodipodi:nodetypes="cccccc" />
    <path
       id="path2368"
       d="M 27.7615,45.160571 C 27.140599,45.56712 31.136459,45.249396 32.007111,45.348926 C 35.847482,45.226646 41.063233,45.578378 44.218207,45.202428 C 38.723709,45.066166 33.2408,45.155903 27.7615,45.160571 z "
       style="opacity:0.02355083;fill:#000000;fill-opacity:1;stroke:none" />
    <path
       id="path2370"
       d="M 27.69159,44.888502 C 27.304171,44.790832 26.46157,45.306203 27.309161,45.516354 C 32.917086,45.753958 38.492492,45.573995 44.078989,45.600067 C 44.468437,45.69127 45.283301,45.176955 44.445242,44.972215 C 38.845525,44.73461 33.270263,44.914597 27.69159,44.888502 z "
       style="opacity:0.02355083;fill:#000000;fill-opacity:1;stroke:none" />
    <path
       id="path2372"
       d="M 27.610124,44.532719 C 27.223547,44.586305 26.620458,44.664732 26.624565,45.244285 C 26.78204,45.825457 27.404246,45.901477 27.806582,45.95585 C 31.056127,46.004674 34.295344,45.962834 37.540916,45.976778 C 39.740938,45.963024 41.949903,46.004417 44.144279,45.95585 C 44.530856,45.902264 45.133945,45.823837 45.129838,45.244285 C 44.972363,44.663112 44.350157,44.587092 43.947821,44.532719 C 40.698276,44.483895 37.459059,44.525735 34.213488,44.511791 C 32.013509,44.525545 29.804437,44.484152 27.610124,44.532719 z "
       style="opacity:0.02355083;fill:#000000;fill-opacity:1;stroke:none" />
    <path
       id="path2374"
       d="M 27.562168,44.302507 C 26.855571,44.121377 25.917194,45.19831 26.872998,45.872136 C 28.967617,46.667418 31.099537,45.975962 33.20242,46.20699 C 37.021044,46.113131 40.926163,46.38856 44.69542,46.08142 C 45.59937,46.010485 45.365963,44.45332 44.448116,44.407149 C 38.898616,44.104729 33.374246,44.372172 27.83427,44.281579 C 27.742285,44.28064 27.652976,44.296194 27.562168,44.302507 z "
       style="opacity:0.02355083;fill:#000000;fill-opacity:1;stroke:none" />
    <path
       id="path2376"
       d="M 27.508434,44.030438 C 26.098531,43.644662 25.785472,46.15911 27.330558,46.374418 C 33.221197,46.439187 39.24573,46.767405 45.025875,46.248847 C 46.339183,45.508876 44.673572,43.527665 43.616778,44.009509 C 38.248685,44.024688 32.870791,43.979953 27.508434,44.030438 z "
       style="opacity:0.02355083;fill:#000000;fill-opacity:1;stroke:none" />
    <path
       id="path2378"
       d="M 27.45181,43.73744 C 25.572541,43.333242 25.677015,46.776089 27.587071,46.709272 C 33.42652,46.587062 39.503437,47.231354 45.203239,46.47906 C 46.657268,45.569851 44.843756,43.209206 43.576331,43.716512 C 38.202901,43.732021 32.819485,43.686508 27.45181,43.73744 z "
       style="opacity:0.02355083;fill:#000000;fill-opacity:1;stroke:none" />
    <path
       id="path2380"
       d="M 27.411363,43.444443 C 25.265152,43.026175 25.411045,47.038608 27.592278,46.981341 C 33.453796,46.917442 39.55408,47.499895 45.276038,46.772057 C 47.018657,45.836754 45.095233,42.860281 43.535884,43.423515 C 38.162449,43.438997 32.779044,43.393547 27.411363,43.444443 z "
       style="opacity:0.02355083;fill:#000000;fill-opacity:1;stroke:none" />
    <path
       id="path2382"
       d="M 27.613555,43.151445 C 25.272264,42.502689 24.850836,46.818775 27.351956,47.232482 C 33.349448,47.265524 39.559965,47.78431 45.410652,47.044126 C 47.335051,45.962523 45.305598,42.574613 43.495436,43.130517 C 38.20382,43.144732 32.893953,43.102262 27.613555,43.151445 z "
       style="opacity:0.02355083;fill:#000000;fill-opacity:1;stroke:none" />
    <path
       id="path2384"
       d="M 27.301006,42.879376 C 24.645511,42.468012 24.930629,47.53033 27.608468,47.567336 C 33.550323,47.434496 39.732092,48.114138 45.52909,47.316195 C 47.672452,46.141767 45.496038,42.234388 43.457878,42.858448 C 38.073663,42.873956 32.679464,42.828444 27.301006,42.879376 z "
       style="opacity:0.02355083;fill:#000000;fill-opacity:1;stroke:none" />
    <path
       id="path2386"
       d="M 27.244382,42.586379 C 24.487689,42.17763 24.530127,47.434563 27.365258,47.797548 C 33.402863,47.853326 39.624552,48.311815 45.523899,47.630121 C 48.031694,46.573395 45.801121,41.866594 43.417431,42.565451 C 38.027828,42.580982 32.628228,42.535414 27.244382,42.586379 z "
       style="opacity:0.02355083;fill:#000000;fill-opacity:1;stroke:none" />
    <path
       sodipodi:nodetypes="cccccc"
       id="path2389"
       d="M 27.543577,45.066222 L 44.286032,45.15722 L 46.611108,36.09158 L 35.823805,28.307004 L 25.541752,35.931992 L 27.543577,45.066222 z "
       style="fill:#c8bfb0;fill-opacity:1;fill-rule:evenodd;stroke:#000000;stroke-width:0.4;stroke-linecap:butt;stroke-linejoin:round;stroke-miterlimit:4;stroke-dasharray:none;stroke-opacity:0.86549707" />
    <path
       sodipodi:nodetypes="cccccc"
       id="path4270"
       d="M 28.45347,44.247314 L 26.955365,37.758906 L 35.952492,31.071028 L 45.184906,37.683543 C 44.43249,40.074765 43.644039,42.780086 43.129829,44.219952 C 39.815801,44.276515 33.605084,44.422483 28.45347,44.247314 z "
       style="fill:url(#linearGradient2454);fill-opacity:1;fill-rule:evenodd;stroke:#000000;stroke-width:0.72793436px;stroke-linecap:butt;stroke-linejoin:round;stroke-opacity:0" />
    <path
       sodipodi:nodetypes="cccccccccc"
       id="path4187"
       d="M 33.981757,36.479573 L 31.890682,37.621606 L 31.858522,33.793334 L 33.853073,32.828222 L 33.981757,36.479573 z M 37.617021,32.860399 L 39.708087,33.761161 L 39.675928,37.557283 L 37.617021,36.334799 L 37.617021,32.860399 z "
       style="fill:url(#radialGradient2449);fill-opacity:1;fill-rule:evenodd;stroke:#000000;stroke-width:0.373;stroke-linecap:butt;stroke-linejoin:round;stroke-miterlimit:4;stroke-dasharray:none;stroke-opacity:0.59064331;display:inline" />
    <path
       sodipodi:nodetypes="ccccc"
       id="path4191"
       d="M 33.981756,36.399136 C 33.949581,34.629762 33.949581,32.796049 33.949581,32.796049 L 37.617021,32.860398 L 37.681347,36.366976 L 33.981756,36.399136 z "
       style="fill:url(#radialGradient2446);fill-opacity:1;fill-rule:evenodd;stroke:#000000;stroke-width:0.373;stroke-linecap:butt;stroke-linejoin:round;stroke-miterlimit:4;stroke-dasharray:none;stroke-opacity:0.70760235;display:inline" />
    <path
       id="path4227"
       d="M 24.20196,37.139049 L 35.847646,28.839089 L 35.911987,21.118197 L 27.097286,28.195689 L 24.20196,37.139049 z "
       style="fill:url(#radialGradient2439);fill-opacity:1;fill-rule:evenodd;stroke:#620000;stroke-width:0.4;stroke-linecap:butt;stroke-linejoin:round;stroke-miterlimit:4;stroke-dasharray:none;stroke-opacity:1" />
    <path
       id="path4229"
       d="M 47.438455,37.148858 L 35.993854,28.872074 L 35.930639,21.172733 L 44.593114,28.230461 L 47.438455,37.148858 z "
       style="fill:url(#radialGradient2436);fill-opacity:1;fill-rule:evenodd;stroke:#6e0000;stroke-width:0.4;stroke-linecap:butt;stroke-linejoin:round;stroke-miterlimit:4;stroke-dasharray:none;stroke-opacity:1" />
    <path
       sodipodi:nodetypes="ccccc"
       id="path4294"
       d="M 35.453475,21.920581 L 35.461608,28.646072 L 33.14533,30.383272 C 30.51074,30.108988 29.114559,29.403014 29.563749,26.730232 L 35.453475,21.920581 z "
       style="fill:url(#radialGradient2433);fill-opacity:1;fill-rule:evenodd;stroke:#000000;stroke-width:0.72793436px;stroke-linecap:butt;stroke-linejoin:round;stroke-opacity:0" />
    <path
       style="opacity:0.81313135;fill:url(#radialGradient2401);fill-opacity:1;fill-rule:evenodd;stroke:#000000;stroke-width:0.373;stroke-linecap:butt;stroke-linejoin:round;stroke-miterlimit:4;stroke-dasharray:none;stroke-opacity:0.97076021"
       d="M 33.109772,45.063128 L 33.531387,38.490212 L 38.389101,38.522394 L 38.675261,45.134243 L 33.109772,45.063128 z "
       id="path3205"
       sodipodi:nodetypes="ccccc" />
  </g>
</svg>
