<?xml version="1.0" encoding="UTF-8" standalone="no"?>
<!-- Created with Inkscape (http://www.inkscape.org/) -->
<svg
   xmlns:i="&amp;ns_ai;"
   xmlns:dc="http://purl.org/dc/elements/1.1/"
   xmlns:cc="http://creativecommons.org/ns#"
   xmlns:rdf="http://www.w3.org/1999/02/22-rdf-syntax-ns#"
   xmlns:svg="http://www.w3.org/2000/svg"
   xmlns="http://www.w3.org/2000/svg"
   xmlns:xlink="http://www.w3.org/1999/xlink"
   xmlns:sodipodi="http://sodipodi.sourceforge.net/DTD/sodipodi-0.dtd"
   xmlns:inkscape="http://www.inkscape.org/namespaces/inkscape"
   width="48px"
   height="48px"
   id="svg57"
   sodipodi:version="0.32"
   inkscape:version="0.46"
   sodipodi:docbase="/home/marco/Scrivania/UltimateGnome/scalable/status"
   sodipodi:docname="user-trash-full.svg"
   inkscape:output_extension="org.inkscape.output.svg.inkscape">
  <defs
     id="defs3">
    <linearGradient
       id="linearGradient3559">
      <stop
         style="stop-color:#ffffff;stop-opacity:1;"
         offset="0"
         id="stop3561" />
      <stop
         style="stop-color:#ffffff;stop-opacity:0"
         offset="1"
         id="stop3563" />
    </linearGradient>
    <linearGradient
       inkscape:collect="always"
       id="linearGradient5060">
      <stop
         style="stop-color:black;stop-opacity:1;"
         offset="0"
         id="stop5062" />
      <stop
         style="stop-color:black;stop-opacity:0;"
         offset="1"
         id="stop5064" />
    </linearGradient>
    <linearGradient
       id="linearGradient5048">
      <stop
         style="stop-color:#0981af;stop-opacity:1;"
         offset="0"
         id="stop5050" />
      <stop
         id="stop3215"
         offset="0.5"
         style="stop-color:#1b94c2;stop-opacity:1;" />
      <stop
         style="stop-color:#9fe1d7;stop-opacity:1;"
         offset="1"
         id="stop5052" />
    </linearGradient>
    <linearGradient
       id="linearGradient381">
      <stop
         id="stop382"
         offset="0"
         style="stop-color:#ffffff;stop-opacity:1;" />
      <stop
         id="stop383"
         offset="1"
         style="stop-color:#ffffff;stop-opacity:0;" />
    </linearGradient>
    <linearGradient
       id="linearGradient149"
       inkscape:collect="always">
      <stop
         id="stop150"
         offset="0"
         style="stop-color:#000000;stop-opacity:1;" />
      <stop
         id="stop151"
         offset="1"
         style="stop-color:#000000;stop-opacity:0;" />
    </linearGradient>
    <linearGradient
       id="linearGradient1869">
      <stop
         style="stop-color:#eff3f4;stop-opacity:1.0000000;"
         offset="0.0000000"
         id="stop1870" />
      <stop
         style="stop-color:#809caa;stop-opacity:1;"
         offset="1"
         id="stop1871" />
    </linearGradient>
    <linearGradient
       inkscape:collect="always"
       xlink:href="#linearGradient1869"
       id="linearGradient1872"
       gradientTransform="matrix(1.5013505,0,0,0.3526838,30.706742,-22.415948)"
       x1="-4.6375198"
       y1="104.38752"
       x2="-4.523921"
       y2="110.61378"
       gradientUnits="userSpaceOnUse" />
    <linearGradient
       inkscape:collect="always"
       xlink:href="#linearGradient381"
       id="linearGradient2241"
       gradientUnits="userSpaceOnUse"
       gradientTransform="matrix(1.212133,0,0,0.831773,0.219976,-2.497829)"
       x1="19.977491"
       y1="38.962704"
       x2="19.857769"
       y2="23.600779" />
    <linearGradient
       inkscape:collect="always"
       xlink:href="#linearGradient149"
       id="linearGradient2251"
       gradientUnits="userSpaceOnUse"
       gradientTransform="matrix(3.520411,0,0,0.348016,-3.24585,-2.144996)"
       x1="7.3738608"
       y1="27.376621"
       x2="7.5291119"
       y2="69.460503" />
    <radialGradient
       inkscape:collect="always"
       xlink:href="#linearGradient5048"
       id="radialGradient3209"
       cx="38.312618"
       cy="46.410107"
       fx="38.312618"
       fy="46.410107"
       r="20.49999"
       gradientTransform="matrix(4.6737895e-2,-1.5149157,1.912391,5.9000796e-2,-50.811804,96.234569)"
       gradientUnits="userSpaceOnUse" />
    <radialGradient
       inkscape:collect="always"
       xlink:href="#linearGradient5048"
       id="radialGradient3225"
       cx="6.3442426"
       cy="16.154821"
       fx="6.3442426"
       fy="16.154821"
       r="19.857048"
       gradientTransform="matrix(1.8056732,2.7405599e-2,-1.0683621e-2,0.7039119,-5.4494062,1.61829)"
       gradientUnits="userSpaceOnUse" />
    <linearGradient
       id="linearGradient3433">
      <stop
         id="stop3435"
         offset="0"
         style="stop-color:black;stop-opacity:0;" />
      <stop
         style="stop-color:black;stop-opacity:1;"
         offset="0.5"
         id="stop5056" />
      <stop
         id="stop3438"
         offset="1"
         style="stop-color:black;stop-opacity:0;" />
    </linearGradient>
    <linearGradient
       inkscape:collect="always"
       xlink:href="#linearGradient3433"
       id="linearGradient3543"
       gradientUnits="userSpaceOnUse"
       gradientTransform="matrix(6.2767305e-2,0,0,3.8729305e-2,7.314103,38.472138)"
       x1="302.85715"
       y1="366.64789"
       x2="302.85715"
       y2="609.50507" />
    <radialGradient
       inkscape:collect="always"
       xlink:href="#linearGradient5060"
       id="radialGradient3545"
       gradientUnits="userSpaceOnUse"
       gradientTransform="matrix(6.2767305e-2,0,0,3.8729305e-2,7.3264556,38.472138)"
       cx="605.71429"
       cy="486.64789"
       fx="605.71429"
       fy="486.64789"
       r="117.14286" />
    <radialGradient
       inkscape:collect="always"
       xlink:href="#linearGradient5060"
       id="radialGradient3547"
       gradientUnits="userSpaceOnUse"
       gradientTransform="matrix(-6.2767305e-2,0,0,3.8729305e-2,52.673554,38.472138)"
       cx="605.71429"
       cy="486.64789"
       fx="605.71429"
       fy="486.64789"
       r="117.14286" />
    <radialGradient
       inkscape:collect="always"
       xlink:href="#linearGradient3559"
       id="radialGradient3557"
       cx="7.4948792"
       cy="15.499486"
       fx="7.4948792"
       fy="15.499486"
       r="17.603146"
       gradientTransform="matrix(4.067171e-2,1.1796628,-1.9214385,6.6246195e-2,35.245626,9.7707708)"
       gradientUnits="userSpaceOnUse" />
    <linearGradient
       y2="137.97153"
       x2="136.98560"
       y1="67.364906"
       x1="81.307533"
       gradientTransform="scale(1.244363,0.803624)"
       gradientUnits="userSpaceOnUse"
       id="linearGradient1859"
       xlink:href="#linearGradient177"
       inkscape:collect="always" />
    <linearGradient
       style="fill-rule:nonzero;"
       y2="72.608902"
       x2="192.38570"
       y1="72.608902"
       x1="78.245598"
       gradientUnits="userSpaceOnUse"
       id="linearGradient641">
      <stop
         id="stop642"
         style="stop-color:#f9feff;stop-opacity:1.0000000;"
         offset="0.0000000" />
      <stop
         id="stop643"
         style="stop-color:#afb4b6;stop-opacity:1.0000000;"
         offset="1.0000000" />
    </linearGradient>
    <linearGradient
       id="linearGradient513">
      <stop
         id="stop514"
         offset="0.0000000"
         style="stop-color:#696969;stop-opacity:1.0000000;" />
      <stop
         id="stop515"
         offset="1.0000000"
         style="stop-color:#ffffff;stop-opacity:1.0000000;" />
    </linearGradient>
    <linearGradient
       id="linearGradient508">
      <stop
         id="stop509"
         offset="0.0000000"
         style="stop-color:#b0b0b0;stop-opacity:1.0000000;" />
      <stop
         id="stop510"
         offset="1.0000000"
         style="stop-color:#b0b0b0;stop-opacity:1.0000000;" />
    </linearGradient>
    <linearGradient
       style="fill-rule:nonzero;"
       y2="72.608902"
       x2="192.38570"
       y1="72.608902"
       x1="78.245598"
       gradientUnits="userSpaceOnUse"
       id="linearGradient477">
      <stop
         id="stop478"
         style="stop-color:#e4e9ea;stop-opacity:1.0000000;"
         offset="0.0000000" />
      <stop
         id="stop479"
         style="stop-color:#85898A;fill-rule:nonzero;"
         offset="1" />
    </linearGradient>
    <linearGradient
       id="linearGradient454">
      <stop
         id="stop455"
         offset="0.0000000"
         style="stop-color:#ffffff;stop-opacity:1.0000000;" />
      <stop
         id="stop457"
         offset="0.50000000"
         style="stop-color:#bebebe;stop-opacity:1.0000000;" />
      <stop
         id="stop456"
         offset="1.0000000"
         style="stop-color:#b0b0b0;stop-opacity:1.0000000;" />
    </linearGradient>
    <linearGradient
       id="linearGradient177">
      <stop
         id="stop178"
         offset="0.0000000"
         style="stop-color:#ffffff;stop-opacity:1.0000000;" />
      <stop
         id="stop179"
         offset="1.0000000"
         style="stop-color:#b0b0b0;stop-opacity:1.0000000;" />
    </linearGradient>
    <linearGradient
       inkscape:collect="always"
       xlink:href="#linearGradient508"
       id="linearGradient5460"
       gradientUnits="userSpaceOnUse"
       gradientTransform="matrix(1.027326,-0.134612,0.528454,0.53648,9.1432503,-18.100822)"
       x1="9.9626188"
       y1="8.7251825"
       x2="20.135639"
       y2="14.744809" />
    <linearGradient
       inkscape:collect="always"
       xlink:href="#linearGradient177"
       id="linearGradient5462"
       gradientUnits="userSpaceOnUse"
       gradientTransform="matrix(1.399756,0,0,0.903977,-1.8392597,-22.736346)"
       x1="16.551964"
       y1="14.035932"
       x2="13.763388"
       y2="9.3615303" />
    <linearGradient
       inkscape:collect="always"
       xlink:href="#linearGradient477"
       id="linearGradient5464"
       gradientUnits="userSpaceOnUse"
       gradientTransform="matrix(0.82649,0.763061,0.763061,-0.82649,-29.93837,-32.459878)"
       x1="36.155384"
       y1="13.131673"
       x2="45.130928"
       y2="20.664473" />
    <linearGradient
       inkscape:collect="always"
       xlink:href="#linearGradient513"
       id="linearGradient5466"
       gradientUnits="userSpaceOnUse"
       gradientTransform="matrix(-1.449414,0.286552,-0.469381,0.965804,-1.6794997,-22.510606)"
       x1="-32.400455"
       y1="18.817307"
       x2="-36.301399"
       y2="24.077389" />
    <linearGradient
       inkscape:collect="always"
       xlink:href="#linearGradient477"
       id="linearGradient5468"
       gradientUnits="userSpaceOnUse"
       gradientTransform="matrix(1.124876,0,0,1.124876,-2.9720297,-22.212322)"
       x1="24.162909"
       y1="2.3488793"
       x2="40.437176"
       y2="10.115389" />
    <linearGradient
       inkscape:collect="always"
       xlink:href="#linearGradient177"
       id="linearGradient5470"
       gradientUnits="userSpaceOnUse"
       gradientTransform="matrix(1.399756,0,0,0.903977,-2.9720297,-22.166841)"
       x1="9.9626188"
       y1="8.7251825"
       x2="20.135639"
       y2="14.744809" />
    <linearGradient
       inkscape:collect="always"
       xlink:href="#linearGradient177"
       id="linearGradient5472"
       gradientUnits="userSpaceOnUse"
       gradientTransform="scale(1.244363,0.803624)"
       x1="81.307533"
       y1="67.364906"
       x2="136.98560"
       y2="137.97153" />
    <linearGradient
       inkscape:collect="always"
       xlink:href="#linearGradient177"
       id="linearGradient5474"
       gradientUnits="userSpaceOnUse"
       gradientTransform="scale(1.244363,0.803624)"
       x1="128.35213"
       y1="116.66409"
       x2="132.98843"
       y2="122.61145" />
    <linearGradient
       inkscape:collect="always"
       xlink:href="#linearGradient454"
       id="linearGradient5476"
       gradientUnits="userSpaceOnUse"
       gradientTransform="matrix(1.399756,0,0,0.903977,-2.9720297,-22.212322)"
       x1="14.248631"
       y1="11.165159"
       x2="18.086929"
       y2="14.748880" />
    <radialGradient
       inkscape:collect="always"
       xlink:href="#linearGradient477"
       id="radialGradient5478"
       gradientUnits="userSpaceOnUse"
       gradientTransform="matrix(2.202254,0,0,0.574568,-12.81522,-22.31175)"
       cx="16.280994"
       cy="20.452780"
       fx="16.280994"
       fy="20.452780"
       r="5.6434927" />
    <radialGradient
       inkscape:collect="always"
       xlink:href="#linearGradient641"
       id="radialGradient5480"
       gradientUnits="userSpaceOnUse"
       gradientTransform="matrix(0.878817,0,0,1.025708,2.2643703,-20.114127)"
       cx="39.147720"
       cy="8.9303417"
       fx="39.147720"
       fy="8.9303417"
       r="13.265761" />
  </defs>
  <sodipodi:namedview
     showborder="true"
     id="base"
     pagecolor="#ffffff"
     bordercolor="#666666"
     borderopacity="1.0"
     inkscape:pageopacity="0.0"
     inkscape:pageshadow="2"
     inkscape:zoom="5.6568543"
     inkscape:cx="32.625555"
     inkscape:cy="39.819337"
     inkscape:current-layer="layer1"
     showgrid="true"
     inkscape:grid-bbox="true"
     inkscape:document-units="px"
     inkscape:window-width="919"
     inkscape:window-height="924"
     inkscape:window-x="254"
     inkscape:window-y="49"
     inkscape:showpageshadow="false"
     inkscape:object-nodes="true"
     inkscape:object-points="true"
     inkscape:object-bbox="true"
     inkscape:guide-bbox="false"
     inkscape:grid-points="true"
     fill="#2e3436">
    <inkscape:grid
       id="GridFromPre046Settings"
       type="xygrid"
       originx="0px"
       originy="0px"
       spacingx="1px"
       spacingy="1px"
       color="#0000ff"
       empcolor="#0000ff"
       opacity="0.2"
       empopacity="0.4"
       empspacing="4" />
  </sodipodi:namedview>
  <metadata
     id="metadata4">
    <rdf:RDF>
      <cc:Work
         rdf:about="">
        <dc:format>image/svg+xml</dc:format>
        <dc:type
           rdf:resource="http://purl.org/dc/dcmitype/StillImage" />
        <dc:title />
        <dc:date />
        <dc:creator>
          <cc:Agent>
            <dc:title>Marco Tessarotto</dc:title>
          </cc:Agent>
        </dc:creator>
        <dc:subject>
          <rdf:Bag />
        </dc:subject>
        <dc:publisher>
          <cc:Agent>
            <dc:title />
          </cc:Agent>
        </dc:publisher>
        <cc:license
           rdf:resource="http://creativecommons.org/licenses/by-nc-sa/2.5/" />
        <dc:contributor>
          <cc:Agent>
            <dc:title />
          </cc:Agent>
        </dc:contributor>
      </cc:Work>
      <cc:License
         rdf:about="http://creativecommons.org/licenses/by-nc-sa/2.5/">
        <cc:permits
           rdf:resource="http://web.resource.org/cc/Reproduction" />
        <cc:permits
           rdf:resource="http://web.resource.org/cc/Distribution" />
        <cc:requires
           rdf:resource="http://web.resource.org/cc/Notice" />
        <cc:requires
           rdf:resource="http://web.resource.org/cc/Attribution" />
        <cc:prohibits
           rdf:resource="http://web.resource.org/cc/CommercialUse" />
        <cc:permits
           rdf:resource="http://web.resource.org/cc/DerivativeWorks" />
        <cc:requires
           rdf:resource="http://web.resource.org/cc/ShareAlike" />
      </cc:License>
    </rdf:RDF>
  </metadata>
  <g
     inkscape:groupmode="layer"
     id="layer2"
     inkscape:label="shadow"
     style="display:inline">
    <g
       id="g3527"
       transform="translate(-6,-14.375001)">
      <rect
         style="opacity:0.40206185;color:#000000;fill:url(#linearGradient3543);fill-opacity:1;fill-rule:nonzero;stroke:none;stroke-width:1;stroke-linecap:round;stroke-linejoin:miter;marker:none;marker-start:none;marker-mid:none;marker-end:none;stroke-miterlimit:4;stroke-dasharray:none;stroke-dashoffset:0;stroke-opacity:1;visibility:visible;display:inline;overflow:visible"
         id="rect6709"
         width="30.307642"
         height="9.4056883"
         x="14.84618"
         y="52.672157" />
      <path
         style="opacity:0.40206185;color:#000000;fill:url(#radialGradient3545);fill-opacity:1;fill-rule:nonzero;stroke:none;stroke-width:1;stroke-linecap:round;stroke-linejoin:miter;marker:none;marker-start:none;marker-mid:none;marker-end:none;stroke-miterlimit:4;stroke-dasharray:none;stroke-dashoffset:0;stroke-opacity:1;visibility:visible;display:inline;overflow:visible"
         d="M 45.153822,52.67248 C 45.153822,52.67248 45.153822,62.07765 45.153822,62.07765 C 48.386182,62.095355 52.968097,59.970428 52.968096,57.37446 C 52.968096,54.77849 49.361024,52.67248 45.153822,52.67248 z "
         id="path6711"
         sodipodi:nodetypes="cccc" />
      <path
         sodipodi:nodetypes="cccc"
         id="path6713"
         d="M 14.84618,52.67248 C 14.84618,52.67248 14.84618,62.07765 14.84618,62.07765 C 11.613818,62.095355 7.0319046,59.970428 7.0319046,57.37446 C 7.0319046,54.77849 10.638976,52.67248 14.84618,52.67248 z "
         style="opacity:0.40206185;color:#000000;fill:url(#radialGradient3547);fill-opacity:1;fill-rule:nonzero;stroke:none;stroke-width:1;stroke-linecap:round;stroke-linejoin:miter;marker:none;marker-start:none;marker-mid:none;marker-end:none;stroke-miterlimit:4;stroke-dasharray:none;stroke-dashoffset:0;stroke-opacity:1;visibility:visible;display:inline;overflow:visible" />
    </g>
  </g>
  <g
     id="layer1"
     inkscape:label="Layer 1"
     inkscape:groupmode="layer">
    <path
       style="fill:url(#radialGradient3209);fill-opacity:1;fill-rule:evenodd;stroke:#3b4045;stroke-width:1;stroke-linecap:butt;stroke-linejoin:miter;stroke-miterlimit:4;stroke-dasharray:none;stroke-opacity:0.79781392"
       d="M 4.000805,14.500028 C 3.9568443,14.464574 5.7277298,40.005521 5.7282343,40.013263 C 5.8943636,42.563961 7.2889479,43.496198 8.8498899,43.499996 C 8.9056682,43.500127 38.133934,43.496713 38.756644,43.494055 C 41.385341,43.482836 42.029344,41.859472 42.202267,40.085776 C 42.216136,40.050805 43.986115,14.535 43.999982,14.500028 C 30.666924,14.500028 17.333866,14.500028 4.000805,14.500028 z "
       id="path1751"
       sodipodi:nodetypes="ccccccc"
       inkscape:r_cx="true"
       inkscape:r_cy="true" />
    <path
       style="opacity:0.72222218;color:#000000;fill:url(#linearGradient2251);fill-opacity:1;fill-rule:nonzero;stroke:none;stroke-width:0;stroke-linecap:butt;stroke-linejoin:miter;marker:none;marker-start:none;marker-mid:none;marker-end:none;stroke-miterlimit:4;stroke-dashoffset:0;stroke-opacity:1;visibility:visible;display:block"
       d="M 43.250022,17.023412 L 7.0000055,17.000007 C 34.311315,17.637335 39.677212,20.648155 43.006255,20.494318 L 43.250022,17.023412 z "
       id="path1893"
       sodipodi:nodetypes="cccc"
       inkscape:r_cx="true"
       inkscape:r_cy="true" />
    <path
       style="fill:none;fill-opacity:1;fill-rule:evenodd;stroke:url(#linearGradient2241);stroke-width:1;stroke-linecap:butt;stroke-linejoin:miter;stroke-miterlimit:4;stroke-dasharray:none;stroke-opacity:0.2857143"
       d="M 5.4146811,17.121548 C 5.3634244,17.121414 6.251433,29.93862 6.9569459,38.927803 C 7.1389508,41.235262 7.5088619,42.174409 8.9423077,42.174409 C 20.759131,42.174409 37.552947,42.260504 38.124794,42.258405 C 40.891299,42.248246 40.839524,41.220919 41.068645,39.038151 C 41.152053,38.243546 42.601147,17.210922 42.587323,17.210922 C 32.686245,17.210922 17.647791,17.153519 5.4146811,17.121548 z "
       id="path375"
       sodipodi:nodetypes="cssssss"
       inkscape:r_cx="true"
       inkscape:r_cy="true" />
    <path
       style="fill:url(#linearGradient1872);fill-opacity:1;fill-rule:evenodd;stroke:#3b4045;stroke-width:0.85010982;stroke-linecap:butt;stroke-linejoin:miter;stroke-miterlimit:4;stroke-dasharray:none;stroke-opacity:0.79781392"
       d="M 7.107151,6.5404471 C 6.0368354,6.5422026 5.1410653,6.5599741 4.6531461,7.2915848 C 4.5683418,7.4187453 1.9833666,12.579647 1.8590887,12.776462 C 0.79514795,14.46138 1.7763188,16.583846 3.8312899,16.569635 C 4.2220949,16.56702 44.324821,16.582795 44.946684,16.569635 C 46.695983,16.533265 46.919836,14.075473 46.166774,12.969826 C 46.124111,12.907189 42.629069,7.2212526 42.539929,7.1205415 C 42.127644,6.6707639 41.204368,6.4736437 40.518547,6.4921059 C 40.383445,6.4958334 7.2408609,6.5402287 7.107151,6.5404471 z "
       id="path1841"
       sodipodi:nodetypes="cssssscss"
       inkscape:r_cx="true"
       inkscape:r_cy="true" />
    <path
       inkscape:r_cy="true"
       inkscape:r_cx="true"
       style="fill:#ffffff;fill-opacity:0.51912584;fill-rule:evenodd;stroke:none;stroke-width:1px;stroke-linecap:butt;stroke-linejoin:miter;stroke-opacity:1"
       d="M 23.459318,25.637128 L 30.096056,26.125738 L 32.662428,20.096809 L 29.625873,22.156154 C 29.625873,22.156154 28.323851,19.22581 27.388023,18.990237 C 26.452195,18.754667 22.459495,18.833192 22.459495,18.833192 C 23.729453,19.136258 24.71644,21.2419 24.731612,21.265788 C 25.127808,21.889594 26.236853,23.988641 26.236853,23.988641 L 23.459318,25.637128 z "
       id="path41"
       sodipodi:nodetypes="ccccccscc" />
    <path
       inkscape:r_cy="true"
       inkscape:r_cx="true"
       style="opacity:0.57254902;color:#000000;fill:#ffffff;fill-opacity:0.51912584;fill-rule:evenodd;stroke:none;stroke-width:1px;stroke-linecap:butt;stroke-linejoin:miter;marker:none;marker-start:none;marker-mid:none;marker-end:none;stroke-miterlimit:4;stroke-dashoffset:0;stroke-opacity:1;visibility:visible;display:inline;overflow:visible"
       d="M 24.280386,21.466644 L 22.083504,25.51061 L 17.567116,22.762282 C 17.567116,22.762282 19.615121,19.032412 21.229052,19.032412 C 22.856635,19.032412 23.58396,20.386151 24.280386,21.466644 z "
       id="path130"
       sodipodi:nodetypes="ccczc" />
    <path
       inkscape:r_cy="true"
       inkscape:r_cx="true"
       style="fill:#ffffff;fill-opacity:0.51912584;fill-rule:evenodd;stroke:none;stroke-width:1px;stroke-linecap:butt;stroke-linejoin:miter;stroke-opacity:1"
       d="M 27.514138,31.06821 L 23.23524,36.002823 L 27.318549,41.09099 L 27.394072,37.886204 C 27.394072,37.886204 30.401787,38.160096 31.0921,37.506463 C 31.782408,36.85283 34.654218,33.557205 34.654218,33.557205 C 33.732209,34.45275 31.35303,34.18779 31.323998,34.188076 C 30.565819,34.195502 27.565048,34.127932 27.565048,34.127932 L 27.514138,31.06821 z "
       id="path139"
       sodipodi:nodetypes="ccccccscc" />
    <path
       inkscape:r_cy="true"
       inkscape:r_cx="true"
       style="opacity:0.57254902;color:#000000;fill:#ffffff;fill-opacity:0.51912584;fill-rule:evenodd;stroke:none;stroke-width:1px;stroke-linecap:butt;stroke-linejoin:miter;marker:none;marker-start:none;marker-mid:none;marker-end:none;stroke-miterlimit:4;stroke-dashoffset:0;stroke-opacity:1;visibility:visible;display:inline;overflow:visible"
       d="M 31.529811,33.624813 L 29.063421,29.728223 L 33.827566,27.401773 C 33.827566,27.401773 36.091213,31.013727 35.261889,32.349744 C 34.425551,33.697066 32.848278,33.603524 31.529811,33.624813 z "
       id="path140"
       sodipodi:nodetypes="ccczc" />
    <path
       inkscape:r_cy="true"
       inkscape:r_cx="true"
       style="fill:#ffffff;fill-opacity:0.51912584;fill-rule:evenodd;stroke:none;stroke-width:1px;stroke-linecap:butt;stroke-linejoin:miter;stroke-opacity:1"
       d="M 20.031774,30.781667 L 17.919448,25.413624 L 11.759965,25.833661 L 14.288501,27.611032 C 14.288501,27.611032 12.542288,29.989898 12.785075,30.893259 C 13.02786,31.796617 14.397584,35.539218 14.397584,35.539218 C 14.053076,34.321418 15.477764,32.463768 15.491988,32.439343 C 15.863485,31.801542 17.420914,29.325572 17.420914,29.325572 L 20.031774,30.781667 z "
       id="path142"
       sodipodi:nodetypes="ccccccscc" />
    <path
       inkscape:r_cy="true"
       inkscape:r_cx="true"
       style="opacity:0.57254902;color:#000000;fill:#ffffff;fill-opacity:0.51912584;fill-rule:evenodd;stroke:none;stroke-width:1px;stroke-linecap:butt;stroke-linejoin:miter;marker:none;marker-start:none;marker-mid:none;marker-end:none;stroke-miterlimit:4;stroke-dashoffset:0;stroke-opacity:1;visibility:visible;display:inline;overflow:visible"
       d="M 15.806374,32.949815 L 20.536544,32.830627 L 20.249916,37.975479 C 20.249916,37.975479 15.876536,38.067078 15.090158,36.707095 C 14.297128,35.335607 15.167867,34.063125 15.806374,32.949815 z "
       id="path143"
       sodipodi:nodetypes="ccczc" />
    <path
       style="fill:url(#radialGradient3225);fill-opacity:1;fill-rule:evenodd;stroke:#000000;stroke-width:1px;stroke-linecap:butt;stroke-linejoin:round;stroke-opacity:0.50819672"
       d="M 4.5961941,13.3847 L 6.6291261,8.258176 L 40.305087,8.258176 L 43.31029,13.473088 L 4.5961941,13.3847 z "
       id="path3217"
       sodipodi:nodetypes="ccccc" />
    <path
       style="fill:none;fill-rule:evenodd;stroke:#000000;stroke-width:1px;stroke-linecap:round;stroke-linejoin:round;stroke-opacity:0.33333333"
       d="M 7.1639951,8.759135 L 7.6845596,12.898607 L 7.1639951,8.759135 z "
       id="path3227"
       sodipodi:nodetypes="ccc" />
    <path
       style="fill:none;fill-rule:evenodd;stroke:#000000;stroke-width:1px;stroke-linecap:round;stroke-linejoin:round;stroke-opacity:0.33333333"
       d="M 40.19886,8.768478 L 40.052288,12.96083 L 40.19886,8.768478 z "
       id="path3229"
       sodipodi:nodetypes="ccc" />
    <path
       style="fill:url(#radialGradient3557);fill-rule:evenodd;stroke:#000000;stroke-width:1px;stroke-linecap:butt;stroke-linejoin:miter;stroke-opacity:0;fill-opacity:1.0;opacity:0.7020202"
       d="M 7.1283361,39.921677 L 5.893051,18.012154 L 42.144684,18.409982 C 24.074517,21.33784 9.656312,28.751748 7.1283361,39.921677 z "
       id="path3549"
       sodipodi:nodetypes="cccc" />
    <g
       i:knockout="Off"
       style="font-size:12px;color:#000000;fill:url(#linearGradient1859);fill-opacity:1;fill-rule:evenodd;stroke:none;stroke-width:2.13333321;stroke-linecap:butt;stroke-linejoin:miter;marker:none;marker-start:none;marker-mid:none;marker-end:none;stroke-miterlimit:4;stroke-dashoffset:0;stroke-opacity:1;visibility:visible;display:inline;overflow:visible"
       id="g1823"
       transform="matrix(0.273209,0,0,0.273209,7.1742153,-13.306782)" />
    <g
       id="g5439"
       transform="matrix(1,0,0,0.8604613,-0.9984694,20.876444)">
      <path
         sodipodi:nodetypes="ccccccccccccccccccccccccccccccccccccsccccccccccccccccc"
         id="path1797"
         d="M 14.79842,-20.639057 C 14.960011,-20.832401 12.728558,-20.752416 12.284555,-20.418075 C 10.508543,-19.080712 10.660848,-18.126267 10.660848,-18.126267 C 10.660848,-18.126267 10.911215,-17.333803 10.186134,-16.108738 C 9.4610523,-14.883672 7.2785203,-16.642789 7.2785183,-16.64279 C 6.4857223,-17.176908 6.9870933,-15.221715 7.9609183,-13.082444 C 6.9304683,-12.311136 6.1807453,-11.546486 6.1807453,-10.975906 C 6.1807443,-9.626244 6.0892483,-9.753332 6.0027283,-9.492429 C 5.4588033,-9.421098 6.9372227,-9.867963 6.0192387,-9.950955 C 8.0172177,-10.055049 7.1576113,-11.231903 7.6493883,-10.975906 C 7.7000253,-10.944426 6.3865053,-9.598359 6.4477713,-9.596272 C 6.4271453,-9.561087 5.8840503,-9.166064 5.8840503,-9.166064 L 18.196912,-9.225402 C 18.195862,-9.215462 18.198782,-9.205706 18.196912,-9.195734 L 29.797706,-9.195734 C 29.773229,-9.15995 29.397166,-9.403421 29.397166,-9.403421 L 31.073496,-9.195734 L 35.108555,-9.195734 C 35.123976,-9.192449 35.091603,-9.168671 35.108555,-9.166064 C 35.108556,-9.166063 37.899075,-8.392151 37.600797,-7.000187 C 37.302518,-5.608223 36.592032,-5.190344 36.592032,-5.190344 C 36.592034,-5.190346 36.28393,-5.1362203 36.681635,-2.9488493 C 37.079334,-0.76148026 37.009911,-2.724607 38.401874,-3.321163 C 39.793839,-3.917718 43.457038,-2.327827 45.047853,-5.012328 C 46.638668,-7.696827 46.157628,-7.290553 45.759922,-8.483664 C 45.749391,-8.515259 45.683129,-8.568745 45.670913,-8.602342 L 45.8786,-8.602342 C 46.444574,-9.280808 45.795769,-8.946644 46.784529,-10.59336 C 44.34899,-8.53064 45.743898,-9.650933 45.285209,-9.166064 C 44.970142,-9.795389 44.481526,-10.533381 43.742393,-11.064915 L 43.89074,-11.094585 C 43.89074,-11.094585 43.746981,-11.176559 44.543471,-12.815419 C 45.339959,-14.454276 39.34269,-16.66553 40.567751,-15.426338 C 41.234106,-14.752297 39.634204,-13.680641 37.897492,-12.934096 C 37.689712,-13.091835 35.789722,-14.474911 34.15913,-15.129643 C 33.822637,-15.461285 33.705226,-15.731328 33.298711,-16.079068 C 36.676882,-18.451252 30.376005,-22.012005 27.204839,-21.272094 C 25.138243,-20.789907 25.692447,-19.910776 25.61128,-20.196951 C 28.928182,-18.020244 29.014248,-15.688106 27.864803,-13.717318 C 26.585146,-14.013157 25.038846,-15.388004 25.347273,-16.019729 C 25.943899,-17.241749 23.0744,-15.091582 22.380318,-13.468148 C 22.254532,-13.460386 22.157269,-13.571937 22.024284,-13.527487 C 22.015284,-13.996365 22.088512,-14.44313 21.964945,-14.921956 C 21.212183,-17.838901 18.604304,-17.291101 16.38707,-15.040634 C 15.40914,-16.423685 13.680948,-17.359303 13.271767,-18.274615 C 12.808225,-19.311528 14.31365,-20.059026 14.79842,-20.639057 z M 19.68039,-13.3198 C 19.862999,-13.3198 19.633308,-12.879611 19.532042,-12.578062 C 19.481655,-12.570108 19.434672,-12.555064 19.383695,-12.548392 C 19.35591,-12.985106 19.396331,-13.3198 19.68039,-13.3198 z M 37.422779,-12.726409 C 37.147498,-12.623393 36.920193,-12.445128 36.651371,-12.370375 C 36.603838,-12.440943 36.493359,-12.536251 36.443685,-12.607732 L 37.422779,-12.726409 z "
         style="color:#000000;fill:none;fill-opacity:1;fill-rule:evenodd;stroke:#6d6d6d;stroke-width:1.18678188;stroke-linecap:round;stroke-linejoin:round;marker:none;marker-start:none;marker-mid:none;marker-end:none;stroke-miterlimit:4;stroke-dashoffset:0;stroke-opacity:1;visibility:visible;display:inline;overflow:visible" />
      <path
         id="path1799"
         d="M 23.604,-10.864555 L 38.067272,-12.826322 C 38.067272,-12.826322 33.020314,-16.695306 32.255813,-15.129449 C 31.491313,-13.563592 24.595042,-14.458757 25.359542,-16.024613 C 26.124043,-17.590471 21.149246,-13.607517 22.427958,-12.309385 C 23.706668,-11.011253 23.604,-10.864555 23.604,-10.864555 z "
         style="color:#000000;fill:url(#linearGradient5460);fill-opacity:1;fill-rule:evenodd;stroke:none;stroke-width:2.21074963;stroke-linecap:butt;stroke-linejoin:miter;marker:none;marker-start:none;marker-mid:none;marker-end:none;stroke-miterlimit:4;stroke-dashoffset:0;stroke-opacity:1;visibility:visible;display:inline;overflow:visible" />
      <path
         id="path1801"
         d="M 16.006734,-14.714126 C 18.29353,-17.2992 21.176883,-17.995181 21.972291,-14.912978 C 22.767698,-11.830774 20.779179,-8.25144 20.182624,-9.643404 C 19.586067,-11.035367 18.890087,-13.322163 19.685494,-13.322163 C 20.480901,-13.322163 17.995253,-9.74283 17.995253,-9.74283 L 16.006734,-14.714126 z "
         style="color:#000000;fill:url(#linearGradient5462);fill-opacity:1;fill-rule:evenodd;stroke:none;stroke-width:2.21074963;stroke-linecap:butt;stroke-linejoin:miter;marker:none;marker-start:none;marker-mid:none;marker-end:none;stroke-miterlimit:4;stroke-dashoffset:0;stroke-opacity:1;visibility:visible;display:inline;overflow:visible" />
      <path
         id="path1803"
         d="M 7.2845143,-16.640588 C 7.2845143,-16.640588 9.4648643,-14.898214 10.189946,-16.123281 C 10.915029,-17.348346 10.673448,-18.112675 10.673448,-18.112675 C 10.673448,-18.112675 10.508543,-19.080712 12.284555,-20.418075 C 13.059271,-21.001447 14.687549,-21.160655 14.79842,-20.639057 C 14.837224,-20.456503 13.636235,-19.673666 13.610645,-19.480759 C 13.541734,-18.961284 13.328256,-18.528176 13.582351,-17.959782 C 14.200406,-16.577231 17.669963,-15.577438 17.017765,-12.525902 C 16.365567,-9.474367 16.270088,-10.103802 15.168532,-9.49696 C 14.066977,-8.890119 11.077112,-7.996842 9.0654623,-10.801355 C 7.0538093,-13.60587 6.1999463,-17.371275 7.2845143,-16.640588 z "
         style="color:#000000;fill:url(#linearGradient5464);fill-opacity:1;fill-rule:nonzero;stroke:none;stroke-width:1;stroke-linecap:butt;stroke-linejoin:miter;marker:none;marker-start:none;marker-mid:none;marker-end:none;stroke-miterlimit:4;stroke-dashoffset:0;stroke-opacity:1;visibility:visible;display:inline;overflow:visible"
         sodipodi:nodetypes="cscsssssssc" />
      <path
         sodipodi:nodetypes="cccccc"
         id="path1805"
         d="M 43.889496,-11.0846 L 29.454425,-8.71915 C 29.306078,-9.134524 33.103114,-13.598279 34.328172,-12.359088 C 35.553233,-11.119896 41.801206,-14.173208 40.576145,-15.4124 C 39.351085,-16.651592 45.338286,-14.468484 44.541798,-12.829626 C 43.745308,-11.190767 43.889496,-11.0846 43.889496,-11.0846 z "
         style="color:#000000;fill:url(#linearGradient5466);fill-opacity:1;fill-rule:evenodd;stroke:none;stroke-width:2.21074963;stroke-linecap:butt;stroke-linejoin:miter;marker:none;marker-start:none;marker-mid:none;marker-end:none;stroke-miterlimit:4;stroke-dashoffset:0;stroke-opacity:1;visibility:visible;display:inline;overflow:visible" />
      <path
         id="path1807"
         d="M 20.283514,-14.022616 L 21.277773,-13.127783 L 13.920253,-8.951894 L 20.283514,-14.022616 z "
         style="fill:#ffffff;fill-opacity:1;fill-rule:evenodd;stroke:none;stroke-width:1px;stroke-linecap:butt;stroke-linejoin:miter;stroke-opacity:1" />
      <path
         id="path1809"
         d="M 25.61128,-20.196951 C 35.094675,-13.973497 19.391236,-5.988537 16.885626,-11.754362 C 18.289523,-10.720206 18.384901,-9.649388 18.186263,-8.59065 L 40.50802,-8.59065 C 39.695314,-8.831868 38.978301,-9.112652 37.69583,-9.153087 C 38.744413,-9.496785 37.177542,-12.762699 33.301784,-16.078105 C 36.010066,-18.638571 30.87978,-21.003502 28.953735,-21.214434 C 26.965764,-21.432148 25.289268,-20.376025 25.61128,-20.196951 z M 46.784529,-10.59336 C 43.807623,-8.0721404 45.552698,-9.47431 44.655999,-8.59065 L 45.886332,-8.59065 C 46.452303,-9.269114 45.795769,-8.9466444 46.784529,-10.59336 z "
         style="font-size:12px;fill:url(#linearGradient5468);fill-opacity:1;fill-rule:nonzero;stroke:none;overflow:visible"
         sodipodi:nodetypes="ccccccsccccc" />
      <path
         id="path1811"
         d="M 5.8768703,-8.539725 L 25.662628,-8.639152 C 25.662628,-8.639152 24.171241,-15.400113 21.387314,-13.212744 C 18.603388,-11.025373 11.345295,-13.709872 14.129223,-15.897243 C 16.913148,-18.084614 6.1751483,-13.113317 6.1751483,-10.925948 C 6.1751483,-8.738576 5.8768703,-8.539725 5.8768703,-8.539725 z "
         style="color:#000000;fill:url(#linearGradient5470);fill-opacity:1;fill-rule:evenodd;stroke:none;stroke-width:2.21074963;stroke-linecap:butt;stroke-linejoin:miter;marker:none;marker-start:none;marker-mid:none;marker-end:none;stroke-miterlimit:4;stroke-dashoffset:0;stroke-opacity:1;visibility:visible;display:inline;overflow:visible" />
      <g
         transform="matrix(0.273209,0,0,0.273209,-36.61803,-36.09298)"
         id="g1813"
         style="font-size:12px;color:#000000;fill:url(#linearGradient5472);fill-opacity:1;fill-rule:evenodd;stroke:none;stroke-width:2.13333321;stroke-linecap:butt;stroke-linejoin:miter;marker:none;marker-start:none;marker-mid:none;marker-end:none;stroke-miterlimit:4;stroke-dashoffset:0;stroke-opacity:1;visibility:visible;display:inline;overflow:visible"
         i:knockout="Off">
        <path
           sodipodi:nodetypes="cccc"
           id="path1815"
           d="M 163.66854,88.723079 C 164.69803,92.209992 167.1856,91.964211 159.4096,91.261211 C 166.7226,90.880211 153.18,98.302 154.98,99.239 C 157.137,100.58 168.86508,95.534348 163.66854,88.723079 z "
           style="color:#000000;fill:url(#linearGradient5474);marker:none;marker-start:none;marker-mid:none;marker-end:none;stroke-dashoffset:0;visibility:visible;display:inline;overflow:visible"
           i:knockout="Off" />
      </g>
      <path
         id="path1817"
         d="M 21.785019,-12.761096 C 20.293629,-12.16454 19.001092,-9.281188 16.515444,-9.181761 C 14.029795,-9.082335 21.785019,-8.485781 22.580425,-9.181761 C 23.375832,-9.877744 21.785019,-12.761096 21.785019,-12.761096 z "
         style="color:#000000;fill:url(#linearGradient5476);fill-opacity:1;fill-rule:evenodd;stroke:none;stroke-width:2.21074963;stroke-linecap:butt;stroke-linejoin:miter;marker:none;marker-start:none;marker-mid:none;marker-end:none;stroke-miterlimit:4;stroke-dashoffset:0;stroke-opacity:1;visibility:visible;display:inline;overflow:visible" />
      <path
         id="path1819"
         d="M 20.890185,-8.684631 L 31.230482,-8.684631 C 31.230482,-8.684631 32.920723,-11.66741 29.043111,-11.468558 C 25.1655,-11.269707 26.458037,-10.076594 24.469518,-9.678891 C 22.481,-9.281186 20.890185,-8.684631 20.890185,-8.684631 z "
         style="color:#000000;fill:url(#radialGradient5478);fill-opacity:1;fill-rule:nonzero;stroke:none;stroke-width:1;stroke-linecap:butt;stroke-linejoin:miter;marker:none;marker-start:none;marker-mid:none;marker-end:none;stroke-miterlimit:4;stroke-dashoffset:0;stroke-opacity:1;visibility:visible;display:inline;overflow:visible" />
      <path
         sodipodi:nodetypes="cccscscc"
         id="path1825"
         d="M 5.9028823,-8.561835 L 20.707098,-8.607317 C 20.707098,-8.607317 22.111739,-8.896058 22.816702,-9.077983 C 23.542644,-9.448725 24.65993,-9.440723 25.442299,-9.844122 C 26.851745,-10.570846 26.589129,-11.447528 29.819978,-11.468508 C 25.896804,-11.888098 26.139133,-10.083394 24.68212,-9.735393 C 23.499654,-9.452968 21.230135,-8.652799 20.729839,-8.721021 C 20.229543,-8.789243 5.9028823,-8.561835 5.9028823,-8.561835 z "
         style="fill:#ffffff;fill-opacity:1;fill-rule:evenodd;stroke:none;stroke-width:1px;stroke-linecap:butt;stroke-linejoin:miter;stroke-opacity:1" />
      <path
         sodipodi:nodetypes="cscccss"
         id="path1827"
         d="M 14.203249,-13.701241 C 14.203249,-13.701241 16.299237,-12.09606 19.456358,-12.450501 C 20.858956,-12.607966 21.70769,-13.564797 22.276209,-13.633018 C 22.844727,-13.701241 23.299541,-13.36013 23.299541,-13.36013 C 23.299541,-13.36013 22.776505,-13.610278 22.298948,-13.496574 C 21.821393,-13.382871 20.72975,-12.174589 19.115247,-12.223093 C 15.431158,-12.333774 14.203249,-13.701241 14.203249,-13.701241 z "
         style="fill:#ffffff;fill-opacity:1;fill-rule:evenodd;stroke:none;stroke-width:1px;stroke-linecap:butt;stroke-linejoin:miter;stroke-opacity:1" />
      <path
         sodipodi:nodetypes="cccsc"
         id="path1829"
         d="M 25.61128,-20.196951 C 25.61128,-20.196951 28.530748,-18.892446 28.195074,-16.165106 C 27.859402,-13.437766 24.754431,-11.381772 24.754431,-11.381772 C 24.755135,-11.378772 29.096855,-12.926919 28.572706,-16.41686 C 28.02782,-20.044875 25.61128,-20.196951 25.61128,-20.196951 z "
         style="fill:#ffffff;fill-opacity:1;fill-rule:evenodd;stroke:none;stroke-width:1px;stroke-linecap:butt;stroke-linejoin:miter;stroke-opacity:1" />
      <path
         sodipodi:nodetypes="cccc"
         id="path1831"
         d="M 33.356042,-16.039229 C 32.97841,-16.752533 31.174169,-18.179142 29.621683,-18.514814 C 31.845514,-17.927387 33.817591,-16.458819 33.817591,-16.458819 L 33.356042,-16.039229 z "
         style="color:#000000;fill:#000000;fill-opacity:0.17857139;fill-rule:evenodd;stroke:none;stroke-width:1px;stroke-linecap:butt;stroke-linejoin:miter;marker:none;marker-start:none;marker-mid:none;marker-end:none;stroke-miterlimit:4;stroke-dashoffset:0;stroke-opacity:1;visibility:visible;display:inline;overflow:visible" />
      <path
         sodipodi:nodetypes="ccccc"
         id="path1833"
         d="M 16.416739,-15.129643 C 16.416739,-15.129643 17.366164,-13.97253 17.01013,-12.607732 C 17.870548,-12.429715 18.226581,-12.400045 18.226581,-12.400045 L 18.997991,-13.023104 C 18.997991,-13.023104 18.997991,-14.862617 16.416739,-15.129643 z "
         style="fill:#000000;fill-opacity:0.17857139;fill-rule:evenodd;stroke:none;stroke-width:1px;stroke-linecap:butt;stroke-linejoin:miter;stroke-opacity:1" />
      <path
         id="path1835"
         d="M 13.737837,-15.447673 C 13.737837,-15.447673 15.429001,-16.041064 14.983959,-15.62569 C 14.538916,-15.210317 17.090496,-13.341135 17.090496,-13.341135 C 17.090496,-13.341135 17.090496,-12.747744 16.971819,-12.599396 C 16.853139,-12.451048 12.610395,-13.667499 13.737837,-15.447673 z "
         style="fill:#000000;fill-opacity:0.07142855;fill-rule:evenodd;stroke:none;stroke-width:1px;stroke-linecap:butt;stroke-linejoin:miter;stroke-opacity:1" />
      <path
         sodipodi:nodetypes="cscsssssc"
         id="path1821"
         d="M 35.060286,-9.020432 C 35.060286,-9.020432 37.892018,-8.386355 37.593741,-6.994391 C 37.295464,-5.602428 36.59948,-5.204724 36.59948,-5.204724 C 36.59948,-5.204724 36.274344,-5.1363425 36.67205,-2.9489715 C 37.069753,-0.76160251 36.997185,-2.719077 38.389148,-3.315632 C 39.781112,-3.912188 43.459869,-2.321373 45.050684,-5.005873 C 46.6415,-7.690373 46.14437,-7.29267 45.746665,-8.485781 C 45.348962,-9.678891 43.710341,-12.798616 40.329861,-12.102635 C 36.949379,-11.406654 33.767749,-9.219283 35.060286,-9.020432 z "
         style="color:#000000;fill:url(#radialGradient5480);fill-opacity:1;fill-rule:nonzero;stroke:none;stroke-width:1;stroke-linecap:butt;stroke-linejoin:miter;marker:none;marker-start:none;marker-mid:none;marker-end:none;stroke-miterlimit:4;stroke-dashoffset:0;stroke-opacity:1;visibility:visible;display:inline;overflow:visible" />
    </g>
  </g>
</svg>
