<?xml version="1.0" encoding="UTF-8" standalone="no"?>
<!-- Created with Inkscape (http://www.inkscape.org/) -->
<svg
   xmlns:dc="http://purl.org/dc/elements/1.1/"
   xmlns:cc="http://creativecommons.org/ns#"
   xmlns:rdf="http://www.w3.org/1999/02/22-rdf-syntax-ns#"
   xmlns:svg="http://www.w3.org/2000/svg"
   xmlns="http://www.w3.org/2000/svg"
   xmlns:xlink="http://www.w3.org/1999/xlink"
   xmlns:sodipodi="http://sodipodi.sourceforge.net/DTD/sodipodi-0.dtd"
   xmlns:inkscape="http://www.inkscape.org/namespaces/inkscape"
   width="48"
   height="48"
   id="svg97"
   sodipodi:version="0.32"
   inkscape:version="0.46"
   sodipodi:docbase="/home/marco/Scrivania/UltimateGnome/scalable/stock"
   sodipodi:docname="stock_folder-properties.svg"
   inkscape:export-filename="/home/marco/Desktop/Grafica/Icone/Ubuntu/folder.png"
   inkscape:export-xdpi="90.000000"
   inkscape:export-ydpi="90.000000"
   inkscape:output_extension="org.inkscape.output.svg.inkscape"
   version="1.0">
  <defs
     id="defs3">
    <linearGradient
       id="linearGradient7254">
      <stop
         style="stop-color:#ffffff;stop-opacity:1;"
         offset="0"
         id="stop7256" />
      <stop
         id="stop8231"
         offset="0.5"
         style="stop-color:#9deaff;stop-opacity:1;" />
      <stop
         style="stop-color:#3ca3ff;stop-opacity:1;"
         offset="1"
         id="stop7258" />
    </linearGradient>
    <filter
       inkscape:collect="always"
       id="filter5289">
      <feGaussianBlur
         inkscape:collect="always"
         stdDeviation="0.31127586"
         id="feGaussianBlur5291" />
    </filter>
    <filter
       inkscape:collect="always"
       id="filter12162">
      <feGaussianBlur
         inkscape:collect="always"
         stdDeviation="0.31039134"
         id="feGaussianBlur12164" />
    </filter>
    <radialGradient
       inkscape:collect="always"
       xlink:href="#linearGradient7254"
       id="radialGradient2353"
       gradientUnits="userSpaceOnUse"
       gradientTransform="matrix(0.9698791,0.5400223,-0.2723558,0.8450936,-4.7003802,-11.106697)"
       spreadMethod="reflect"
       cx="19.341837"
       cy="16.26161"
       fx="19.341837"
       fy="16.26161"
       r="21.167664" />
    <radialGradient
       gradientUnits="userSpaceOnUse"
       gradientTransform="matrix(1,0,0,0.1821842,0,36.597257)"
       r="15.896"
       fy="44.75"
       fx="25.375"
       cy="44.75"
       cx="25.375"
       id="radialGradient3185"
       xlink:href="#linearGradient3187"
       inkscape:collect="always" />
    <linearGradient
       id="linearGradient259">
      <stop
         style="stop-color:#ffffff;stop-opacity:1;"
         offset="0"
         id="stop260" />
      <stop
         style="stop-color:#e8e3dd;stop-opacity:1;"
         offset="1"
         id="stop261" />
    </linearGradient>
    <linearGradient
       id="linearGradient269">
      <stop
         style="stop-color:#ffffff;stop-opacity:1;"
         offset="0"
         id="stop270" />
      <stop
         style="stop-color:#ffffff;stop-opacity:0;"
         offset="1"
         id="stop271" />
    </linearGradient>
    <linearGradient
       id="linearGradient3187">
      <stop
         style="stop-color:#000000;stop-opacity:1;"
         offset="0"
         id="stop3189" />
      <stop
         style="stop-color:#ffffff;stop-opacity:0;"
         offset="1"
         id="stop3191" />
    </linearGradient>
    <linearGradient
       id="linearGradient3207">
      <stop
         id="stop3209"
         offset="0"
         style="stop-color:#ffca32;stop-opacity:1;" />
      <stop
         style="stop-color:#fd3e00;stop-opacity:1;"
         offset="1"
         id="stop3211" />
    </linearGradient>
    <radialGradient
       inkscape:collect="always"
       xlink:href="#linearGradient269"
       id="radialGradient3372"
       gradientUnits="userSpaceOnUse"
       gradientTransform="matrix(-4.9557361e-2,2.3082769,-3.2552968,-4.0219215e-2,32.068538,-24.183487)"
       cx="12.133117"
       cy="7.4347868"
       fx="12.133117"
       fy="7.4347868"
       r="15.5" />
    <radialGradient
       inkscape:collect="always"
       xlink:href="#linearGradient3207"
       id="radialGradient3385"
       gradientUnits="userSpaceOnUse"
       gradientTransform="matrix(-2.7967369e-3,-1.76227,1.8835,-6.4046003e-3,8.4397152,84.507527)"
       cx="42.111099"
       cy="17.909124"
       fx="42.111099"
       fy="17.909124"
       r="19.849932" />
    <radialGradient
       inkscape:collect="always"
       xlink:href="#linearGradient259"
       id="radialGradient3388"
       gradientUnits="userSpaceOnUse"
       gradientTransform="matrix(-4.9392429e-2,2.3083425,-3.2444628,-4.0220357e-2,32.624704,-23.871905)"
       cx="27.651968"
       cy="-3.1861894"
       fx="27.651968"
       fy="-3.1861894"
       r="15.5" />
  </defs>
  <sodipodi:namedview
     fill="#babdb6"
     id="base"
     pagecolor="#ffffff"
     bordercolor="#000000"
     borderopacity="1"
     inkscape:pageopacity="0.0"
     inkscape:pageshadow="2"
     inkscape:zoom="5.6568542"
     inkscape:cx="18.528399"
     inkscape:cy="13.10333"
     inkscape:current-layer="g2379"
     showgrid="true"
     inkscape:grid-bbox="true"
     inkscape:document-units="px"
     inkscape:window-width="1272"
     inkscape:window-height="918"
     inkscape:window-x="0"
     inkscape:window-y="25"
     inkscape:showpageshadow="false"
     stroke="#555753"
     showborder="true"
     borderlayer="false"
     showguides="true"
     inkscape:guide-bbox="true" />
  <metadata
     id="metadata4">
    <rdf:RDF>
      <cc:Work
         rdf:about="">
        <dc:format>image/svg+xml</dc:format>
        <dc:type
           rdf:resource="http://purl.org/dc/dcmitype/StillImage" />
        <dc:title />
        <dc:date />
        <dc:creator>
          <cc:Agent>
            <dc:title>Marco Tessarotto</dc:title>
          </cc:Agent>
        </dc:creator>
        <cc:license
           rdf:resource="http://creativecommons.org/licenses/by-nc-sa/2.5/" />
        <dc:source />
        <dc:subject>
          <rdf:Bag />
        </dc:subject>
        <dc:contributor>
          <cc:Agent>
            <dc:title />
          </cc:Agent>
        </dc:contributor>
      </cc:Work>
      <cc:License
         rdf:about="http://creativecommons.org/licenses/by-nc-sa/2.5/">
        <cc:permits
           rdf:resource="http://web.resource.org/cc/Reproduction" />
        <cc:permits
           rdf:resource="http://web.resource.org/cc/Distribution" />
        <cc:requires
           rdf:resource="http://web.resource.org/cc/Notice" />
        <cc:requires
           rdf:resource="http://web.resource.org/cc/Attribution" />
        <cc:prohibits
           rdf:resource="http://web.resource.org/cc/CommercialUse" />
        <cc:permits
           rdf:resource="http://web.resource.org/cc/DerivativeWorks" />
        <cc:requires
           rdf:resource="http://web.resource.org/cc/ShareAlike" />
      </cc:License>
    </rdf:RDF>
  </metadata>
  <g
     inkscape:groupmode="layer"
     id="layer2"
     inkscape:label="Shadow"
     style="opacity:0.28787878;display:inline">
    <g
       id="g3354"
       transform="matrix(0.8083845,-0.1454381,0.1443811,0.7085535,-7.5077244,3.2722577)"
       style="opacity:1">
      <path
         style="opacity:0.06666703;fill:#000000;fill-opacity:1;stroke:none"
         d="M 7.125,42.875 C 5.817069,43.482054 13.621333,43.007633 15.276786,43.15625 C 22.728539,42.973662 32.710951,43.498864 38.90625,42.9375 C 28.327868,42.734036 17.711605,42.86803 7.125,42.875 z "
         id="path3371" />
      <path
         style="opacity:0.06666703;fill:#000000;fill-opacity:1;stroke:none"
         d="M 7.0625,42.46875 C 6.3400984,42.322911 4.5748491,43.092456 6.15625,43.40625 C 16.926732,43.761038 27.745751,43.49232 38.53125,43.53125 C 39.259295,43.667433 40.970679,42.899465 39.40625,42.59375 C 28.651625,42.23896 17.832877,42.507715 7.0625,42.46875 z "
         id="path3376" />
      <path
         style="opacity:0.06666703;fill:#000000;fill-opacity:1;stroke:none"
         d="M 7,41.9375 C 6.238889,42.017514 5.0528764,42.13462 4.90625,43 C 5.0554797,43.867799 6.2372349,43.981311 7,44.0625 C 13.264716,44.135404 19.533658,44.072928 25.8,44.09375 C 30.053851,44.073213 34.310272,44.13502 38.5625,44.0625 C 39.323611,43.982486 40.509624,43.86538 40.65625,43 C 40.50702,42.132201 39.325265,42.018689 38.5625,41.9375 C 32.297784,41.864596 26.028842,41.927072 19.7625,41.90625 C 15.508734,41.926787 11.252106,41.86498 7,41.9375 z "
         id="path3381" />
      <path
         style="opacity:0.06666703;fill:#000000;fill-opacity:1;stroke:none"
         d="M 6.96875,41.59375 C 5.6519933,41.323289 3.5519537,42.931351 5.21875,43.9375 C 9.0532143,45.125005 13.356235,44.092531 17.357144,44.4375 C 24.759306,44.297351 32.230079,44.708618 39.59375,44.25 C 41.358993,44.144081 41.323358,41.818942 39.5625,41.75 C 28.922174,41.29843 18.17842,41.697773 7.5,41.5625 C 7.3225477,41.561098 7.1458643,41.584324 6.96875,41.59375 z "
         id="path3386" />
      <path
         style="opacity:0.06666703;fill:#000000;fill-opacity:1;stroke:none"
         d="M 6.9375,41.1875 C 4.3166183,40.611464 3.041246,44.366005 5.96875,44.6875 C 17.331495,44.784213 28.882648,45.274303 40.1875,44.5 C 42.921998,43.395085 40.232604,40.436766 38.0625,41.15625 C 27.68793,41.178914 17.310405,41.112116 6.9375,41.1875 z "
         id="path3391" />
      <path
         style="opacity:0.06666703;fill:#000000;fill-opacity:1;stroke:none"
         d="M 6.90625,40.75 C 3.3835192,40.146457 2.6671782,45.28727 6.375,45.1875 C 17.688718,45.005018 29.256776,45.967066 40.46875,44.84375 C 43.52024,43.486131 40.646309,39.961248 38.0625,40.71875 C 27.677532,40.741908 17.289547,40.673948 6.90625,40.75 z "
         id="path3396" />
      <path
         style="opacity:0.06666703;fill:#000000;fill-opacity:1;stroke:none"
         d="M 6.90625,40.3125 C 2.8715713,39.687948 2.0833445,45.679261 6.3125,45.59375 C 17.653302,45.498337 29.282996,46.368048 40.53125,45.28125 C 44.147219,43.884667 41.225187,39.440237 38.0625,40.28125 C 27.67753,40.304368 17.289549,40.236503 6.90625,40.3125 z "
         id="path3401" />
      <path
         style="opacity:0.06666703;fill:#000000;fill-opacity:1;stroke:none"
         d="M 7.375,39.875 C 3.0249191,38.906286 1.0597142,45.351008 5.78125,45.96875 C 17.358885,46.018088 29.218515,46.792733 40.71875,45.6875 C 44.724914,44.072465 41.707772,39.013682 38.0625,39.84375 C 27.835932,39.864975 17.589222,39.80156 7.375,39.875 z "
         id="path3406" />
      <path
         style="opacity:0.06666703;fill:#000000;fill-opacity:1;stroke:none"
         d="M 6.84375,39.46875 C 1.8233552,38.854506 1.024099,46.413494 6.1875,46.46875 C 17.701887,46.270396 29.463081,47.285228 40.875,46.09375 C 45.32893,44.340109 42.166414,38.505662 38.0625,39.4375 C 27.656698,39.460656 17.24788,39.392698 6.84375,39.46875 z "
         id="path3411" />
      <path
         style="opacity:0.06666703;fill:#000000;fill-opacity:1;stroke:none"
         d="M 6.8125,39.03125 C 1.5959042,38.420912 0.27591709,46.270495 5.65625,46.8125 C 17.305315,46.895787 29.202609,47.580396 40.78125,46.5625 C 45.907832,44.98461 42.853887,37.956476 38.0625,39 C 27.646283,39.023191 17.227045,38.95515 6.8125,39.03125 z "
         id="path3416" />
    </g>
  </g>
  <g
     id="layer1"
     inkscape:label="Folder"
     inkscape:groupmode="layer"
     style="display:inline">
    <path
       style="opacity:0.67400004;fill:#fffffb;fill-opacity:1;fill-rule:evenodd;stroke:#000000;stroke-width:0.80302525px;stroke-linecap:butt;stroke-linejoin:round;stroke-opacity:0.989071"
       d="M 3.7623185,31.935321 C 2.5585556,32.342972 1.5428259,30.85549 1.6637379,28.725422 L 1.6068248,9.0746005 C 1.4580981,8.8863965 1.8038571,6.9829205 3.4708327,6.8985965 C 4.7979176,6.8314655 4.4447631,4.5747585 4.45521,4.6843145 C 4.45521,4.6843145 4.1490018,2.7266382 5.7506642,2.3421884 C 6.4754742,2.1682111 12.612965,1.3573104 12.612965,1.3573104 C 12.612965,1.3573104 13.948818,1.3243298 13.948818,2.8621283 C 13.948818,3.7629495 13.732795,5.4030055 14.92675,5.1584795 C 16.661939,4.8031085 27.903328,2.9997092 27.903328,2.9997092 C 27.903328,2.9997092 29.39194,2.7358645 29.39194,4.8753165 C 29.39194,7.0147675 29.297964,23.939122 29.297964,23.939122 C 29.121892,25.972457 29.462206,26.957896 30.295666,27.257519"
       id="path2219"
       sodipodi:nodetypes="cccscscsscscc" />
    <g
       id="g2269"
       style="opacity:0.21600001;filter:url(#filter5289)"
       transform="matrix(0.8015103,0,0,0.9657326,-6.2917213,-5.1542988)">
      <g
         id="g12115"
         style="filter:url(#filter12162)">
        <g
           id="g2253"
           transform="matrix(1,0,0,1.037663,0,-0.3741802)">
          <path
             id="path2223"
             d="M 10.713002,14.765981 C 43.580725,10.434952 43.669113,10.434952 43.669113,10.434952 L 10.713002,14.765981 z "
             style="fill:none;fill-rule:evenodd;stroke:#000000;stroke-width:1px;stroke-linecap:butt;stroke-linejoin:miter;stroke-opacity:1" />
          <path
             id="path2225"
             d="M 10.713002,17.108273 C 43.580727,12.777244 43.669115,12.777244 43.669115,12.777244 L 10.713002,17.108273 z "
             style="fill:none;fill-rule:evenodd;stroke:#000000;stroke-width:1px;stroke-linecap:butt;stroke-linejoin:miter;stroke-opacity:1;display:inline" />
          <path
             id="path2227"
             d="M 10.713002,19.384272 C 43.580727,15.053243 43.669115,15.053243 43.669115,15.053243 L 10.713002,19.384272 z "
             style="fill:none;fill-rule:evenodd;stroke:#000000;stroke-width:1px;stroke-linecap:butt;stroke-linejoin:miter;stroke-opacity:1;display:inline" />
          <path
             id="path2229"
             d="M 10.713002,21.726564 C 43.580726,17.395535 43.669114,17.395535 43.669114,17.395535 L 10.713002,21.726564 z "
             style="fill:none;fill-rule:evenodd;stroke:#000000;stroke-width:1px;stroke-linecap:butt;stroke-linejoin:miter;stroke-opacity:1;display:inline" />
          <path
             id="path2231"
             d="M 10.713002,23.881029 C 43.580728,19.55 43.669116,19.55 43.669116,19.55 L 10.713002,23.881029 z "
             style="fill:none;fill-rule:evenodd;stroke:#000000;stroke-width:1px;stroke-linecap:butt;stroke-linejoin:miter;stroke-opacity:1;display:inline" />
          <path
             id="path2233"
             d="M 10.713002,26.223321 C 43.580727,21.892292 43.669115,21.892292 43.669115,21.892292 L 10.713002,26.223321 z "
             style="fill:none;fill-rule:evenodd;stroke:#000000;stroke-width:1px;stroke-linecap:butt;stroke-linejoin:miter;stroke-opacity:1;display:inline" />
          <path
             sodipodi:nodetypes="ccc"
             id="path2235"
             d="M 10.713002,28.49932 C 43.580728,24.168291 43.669116,24.168291 43.669116,24.168291 L 10.713002,28.49932 z "
             style="fill:none;fill-rule:evenodd;stroke:#000000;stroke-width:1px;stroke-linecap:butt;stroke-linejoin:miter;stroke-opacity:1;display:inline" />
          <path
             id="path2237"
             d="M 10.713002,30.841612 C 43.580724,26.510583 43.669112,26.510583 43.669112,26.510583 L 10.713002,30.841612 z "
             style="fill:none;fill-rule:evenodd;stroke:#000000;stroke-width:1px;stroke-linecap:butt;stroke-linejoin:miter;stroke-opacity:1;display:inline" />
          <path
             id="path2247"
             d="M 10.713002,32.90769 C 43.580727,28.576661 43.669115,28.576661 43.669115,28.576661 L 10.713002,32.90769 z "
             style="fill:none;fill-rule:evenodd;stroke:#000000;stroke-width:1px;stroke-linecap:butt;stroke-linejoin:miter;stroke-opacity:1;display:inline" />
          <path
             id="path2249"
             d="M 10.713002,35.249982 C 43.580725,30.918953 43.669113,30.918953 43.669113,30.918953 L 10.713002,35.249982 z "
             style="fill:none;fill-rule:evenodd;stroke:#000000;stroke-width:1px;stroke-linecap:butt;stroke-linejoin:miter;stroke-opacity:1;display:inline" />
        </g>
        <path
           style="fill:none;fill-rule:evenodd;stroke:#000000;stroke-width:1.06033528px;stroke-linecap:butt;stroke-linejoin:miter;stroke-opacity:1"
           d="M 13.554793,12.35049 L 25.298106,11.082677 L 13.554793,12.35049 z "
           id="path2265" />
        <path
           style="fill:none;fill-rule:evenodd;stroke:#000000;stroke-width:1.04934537px;stroke-linecap:butt;stroke-linejoin:miter;stroke-opacity:1"
           d="M 13.725855,10.146065 L 24.55501,8.9560726 L 13.725855,10.146065 z "
           id="path2267" />
      </g>
    </g>
    <path
       style="opacity:0.83868689;fill:url(#radialGradient2353);fill-opacity:1;fill-rule:evenodd;stroke:#000000;stroke-width:0.80302525px;stroke-linecap:butt;stroke-linejoin:miter;stroke-opacity:0.66120217"
       d="M 3.6299124,31.95186 L 30.330909,27.333776 C 30.330909,27.333776 31.772434,27.415504 32.039265,25.582091 C 32.321545,23.642564 32.327801,14.836297 32.798537,11.568595 C 32.989588,9.9746005 34.249503,5.9208405 31.216725,5.9950465 C 29.206271,6.0442385 8.1855332,10.055775 8.1855332,10.055775 C 8.1855332,10.055775 7.0363672,10.429469 6.4771752,12.524061 C 5.6061672,15.786666 5.4303442,28.302356 5.1484518,29.005841 C 4.9163367,30.102813 4.8334454,31.262367 3.6299124,31.95186 z "
       id="path5294"
       sodipodi:nodetypes="ccscscscc" />
    <path
       style="opacity:0.33999999;fill:#ffffff;fill-opacity:1;fill-rule:evenodd;stroke:#ffffff;stroke-width:0.70672047px;stroke-linecap:round;stroke-linejoin:round;stroke-opacity:1;display:inline"
       d="M 6.9379612,29.104919 C 7.1323412,23.150986 7.0121072,11.960296 10.246402,11.02114 L 28.537936,7.5525325 C 32.399855,6.5502345 31.770399,9.1226145 31.788483,11.216259 C 30.996038,14.851289 31.830039,18.993628 20.055637,19.558833 C 8.7847342,19.45496 7.7221422,28.074017 6.9379612,29.104919 z "
       id="path9204"
       sodipodi:nodetypes="cccccc" />
    <g
       id="g2379"
       transform="matrix(0.6957098,0,0,0.6957098,16.537534,15.255831)">
      <g
         inkscape:label="Shadow"
         id="layer6">
        <path
           transform="matrix(1.4547318,0,0,1.9230325,-12.927908,-45.326953)"
           sodipodi:open="true"
           sodipodi:end="6.2825619"
           sodipodi:start="0"
           d="M 40.75,44.75 A 15.375,2.375 0 1 1 40.749997,44.748519"
           sodipodi:ry="2.375"
           sodipodi:rx="15.375"
           sodipodi:cy="44.75"
           sodipodi:cx="25.375"
           id="path2205"
           style="opacity:0.41919191;fill:url(#radialGradient3185);fill-opacity:1;stroke:#000000;stroke-width:1.04200006;stroke-linecap:round;stroke-linejoin:round;stroke-miterlimit:4;stroke-dasharray:none;stroke-opacity:0"
           sodipodi:type="arc" />
      </g>
      <g
         style="display:inline"
         inkscape:label="logo"
         id="g2383" />
      <g
         inkscape:label="logo2"
         id="g2385" />
      <path
         style="fill:url(#radialGradient3388);fill-opacity:1;fill-rule:evenodd;stroke:#000000;stroke-width:0.71869047;stroke-linecap:butt;stroke-linejoin:round;stroke-miterlimit:4;stroke-dasharray:none;stroke-opacity:0.81420767"
         d="M 4.0790932,1.0536728 L 4.0790932,40.952269 L 43.39311,40.952269 L 43.39311,1.0536728 L 4.0790932,1.0536728 z "
         id="path2201" />
      <rect
         style="opacity:0.7474747;color:#000000;fill:url(#radialGradient3385);fill-opacity:1;fill-rule:nonzero;stroke:#000000;stroke-width:0.71400553;stroke-linecap:butt;stroke-linejoin:miter;marker:none;marker-start:none;marker-mid:none;marker-end:none;stroke-miterlimit:4;stroke-dasharray:none;stroke-dashoffset:0;stroke-opacity:0.68852461;visibility:visible;display:inline;overflow:visible;enable-background:accumulate"
         id="rect2443"
         width="38.985859"
         height="10.583426"
         x="4.2431722"
         y="1.0595703" />
      <path
         style="fill:none;fill-rule:evenodd;stroke:#000000;stroke-width:0.52746379;stroke-linecap:butt;stroke-linejoin:miter;stroke-miterlimit:4;stroke-dasharray:none;stroke-opacity:0.47033895"
         d="M 35.722626,11.509343 L 35.722626,40.986268"
         id="path2396" />
      <path
         id="path3226"
         style="fill:none;fill-rule:evenodd;stroke:#000000;stroke-width:0.52746379;stroke-linecap:butt;stroke-linejoin:miter;stroke-miterlimit:4;stroke-opacity:0.47033895"
         d="M 3.929011,33.35246 L 43.233158,33.440848 M 4.200211,26.061703 L 43.233158,26.150091 M 4.200211,18.770946 L 43.233158,18.859334"
         sodipodi:nodetypes="cccccc" />
      <path
         id="path3270"
         style="fill:none;fill-rule:evenodd;stroke:#000000;stroke-width:0.96624088px;stroke-linecap:round;stroke-linejoin:round;stroke-opacity:1"
         d="M 38.038146,29.557083 L 39.075169,31.135597 L 41.584901,28.516051"
         sodipodi:nodetypes="ccc" />
      <path
         id="path3275"
         style="fill:none;fill-rule:evenodd;stroke:#000000;stroke-width:0.91860592px;stroke-linecap:round;stroke-linejoin:round;stroke-opacity:1;display:inline"
         d="M 38.125572,36.784352 L 39.111471,38.285047 L 41.497475,35.794641"
         sodipodi:nodetypes="ccc" />
      <path
         style="opacity:0.49494946;fill:url(#radialGradient3372);fill-opacity:1;fill-rule:evenodd;stroke:#000000;stroke-width:0.68711728;stroke-linecap:butt;stroke-linejoin:round;stroke-miterlimit:4;stroke-dasharray:none;stroke-opacity:0;display:inline"
         d="M 6.040859,38.656441 C 5.581235,33.628662 10.239954,9.1413394 41.557868,5.0487384 C 41.557868,0.78415136 41.665301,6.5725064 41.665301,2.3079184 C 30.269991,2.3079184 16.738867,2.3079184 5.343559,2.3079184 C 5.343559,14.277157 6.040859,26.687202 6.040859,38.656441 z "
         id="path3201"
         sodipodi:nodetypes="ccccc" />
    </g>
  </g>
</svg>
