<?xml version="1.0" encoding="UTF-8" standalone="no"?>
<!-- Created with Inkscape (http://www.inkscape.org/) -->
<svg
   xmlns:dc="http://purl.org/dc/elements/1.1/"
   xmlns:cc="http://creativecommons.org/ns#"
   xmlns:rdf="http://www.w3.org/1999/02/22-rdf-syntax-ns#"
   xmlns:svg="http://www.w3.org/2000/svg"
   xmlns="http://www.w3.org/2000/svg"
   xmlns:xlink="http://www.w3.org/1999/xlink"
   xmlns:sodipodi="http://sodipodi.sourceforge.net/DTD/sodipodi-0.dtd"
   xmlns:inkscape="http://www.inkscape.org/namespaces/inkscape"
   width="48"
   height="48"
   id="svg97"
   sodipodi:version="0.32"
   inkscape:version="0.46"
   sodipodi:docbase="/home/marco/Scrivania/UltimateGnome/scalable/stock"
   sodipodi:docname="stock_folder-copy.svg"
   inkscape:export-filename="/home/marco/Desktop/Grafica/Icone/Ubuntu/folder.png"
   inkscape:export-xdpi="90.000000"
   inkscape:export-ydpi="90.000000"
   inkscape:output_extension="org.inkscape.output.svg.inkscape"
   version="1.0">
  <defs
     id="defs3">
    <linearGradient
       id="linearGradient7254">
      <stop
         style="stop-color:#ffffff;stop-opacity:1;"
         offset="0"
         id="stop7256" />
      <stop
         id="stop8231"
         offset="0.5"
         style="stop-color:#9deaff;stop-opacity:1;" />
      <stop
         style="stop-color:#3ca3ff;stop-opacity:1;"
         offset="1"
         id="stop7258" />
    </linearGradient>
    <filter
       inkscape:collect="always"
       id="filter5289">
      <feGaussianBlur
         inkscape:collect="always"
         stdDeviation="0.31127586"
         id="feGaussianBlur5291" />
    </filter>
    <filter
       inkscape:collect="always"
       id="filter12162">
      <feGaussianBlur
         inkscape:collect="always"
         stdDeviation="0.31039134"
         id="feGaussianBlur12164" />
    </filter>
    <radialGradient
       inkscape:collect="always"
       xlink:href="#linearGradient7254"
       id="radialGradient2402"
       gradientUnits="userSpaceOnUse"
       gradientTransform="matrix(0.9867549,0.5494186,-0.2770947,0.8597982,-5.1323443,-11.998838)"
       spreadMethod="reflect"
       cx="19.341837"
       cy="16.26161"
       fx="19.341837"
       fy="16.26161"
       r="21.167664" />
    <radialGradient
       inkscape:collect="always"
       xlink:href="#linearGradient7254"
       id="radialGradient2471"
       gradientUnits="userSpaceOnUse"
       gradientTransform="matrix(0.9867549,0.5494186,-0.2770947,0.8597982,8.0998213,2.7592617)"
       spreadMethod="reflect"
       cx="19.341837"
       cy="16.26161"
       fx="19.341837"
       fy="16.26161"
       r="21.167664" />
  </defs>
  <sodipodi:namedview
     fill="#babdb6"
     id="base"
     pagecolor="#ffffff"
     bordercolor="#000000"
     borderopacity="1"
     inkscape:pageopacity="0.0"
     inkscape:pageshadow="2"
     inkscape:zoom="5.6568542"
     inkscape:cx="18.528399"
     inkscape:cy="13.10333"
     inkscape:current-layer="layer1"
     showgrid="true"
     inkscape:grid-bbox="true"
     inkscape:document-units="px"
     inkscape:window-width="1272"
     inkscape:window-height="918"
     inkscape:window-x="0"
     inkscape:window-y="25"
     inkscape:showpageshadow="false"
     stroke="#555753"
     showborder="true"
     borderlayer="false"
     showguides="true"
     inkscape:guide-bbox="true" />
  <metadata
     id="metadata4">
    <rdf:RDF>
      <cc:Work
         rdf:about="">
        <dc:format>image/svg+xml</dc:format>
        <dc:type
           rdf:resource="http://purl.org/dc/dcmitype/StillImage" />
        <dc:title />
        <dc:date />
        <dc:creator>
          <cc:Agent>
            <dc:title>Marco Tessarotto</dc:title>
          </cc:Agent>
        </dc:creator>
        <cc:license
           rdf:resource="http://creativecommons.org/licenses/by-nc-sa/2.5/" />
        <dc:source />
        <dc:subject>
          <rdf:Bag />
        </dc:subject>
        <dc:contributor>
          <cc:Agent>
            <dc:title />
          </cc:Agent>
        </dc:contributor>
      </cc:Work>
      <cc:License
         rdf:about="http://creativecommons.org/licenses/by-nc-sa/2.5/">
        <cc:permits
           rdf:resource="http://web.resource.org/cc/Reproduction" />
        <cc:permits
           rdf:resource="http://web.resource.org/cc/Distribution" />
        <cc:requires
           rdf:resource="http://web.resource.org/cc/Notice" />
        <cc:requires
           rdf:resource="http://web.resource.org/cc/Attribution" />
        <cc:prohibits
           rdf:resource="http://web.resource.org/cc/CommercialUse" />
        <cc:permits
           rdf:resource="http://web.resource.org/cc/DerivativeWorks" />
        <cc:requires
           rdf:resource="http://web.resource.org/cc/ShareAlike" />
      </cc:License>
    </rdf:RDF>
  </metadata>
  <g
     inkscape:groupmode="layer"
     id="layer2"
     inkscape:label="Shadow"
     style="opacity:0.28787878;display:inline" />
  <g
     id="layer1"
     inkscape:label="Folder"
     inkscape:groupmode="layer"
     style="display:inline">
    <path
       style="opacity:0.67400004;fill:#fffffb;fill-opacity:1;fill-rule:evenodd;stroke:#000000;stroke-width:0.81699777px;stroke-linecap:butt;stroke-linejoin:round;stroke-opacity:0.989071;display:inline"
       d="M 3.4776039,31.792104 C 2.2528954,32.206848 1.2194923,30.693484 1.3425079,28.526354 L 1.2846053,8.5336104 C 1.13329,8.3421316 1.485065,6.4055362 3.1810461,6.3197441 C 4.531222,6.2514455 4.1719228,3.9554719 4.1825514,4.0669342 C 4.1825514,4.0669342 3.8710156,2.0751952 5.5005465,1.6840553 C 6.2379687,1.5070511 12.48225,0.68204093 12.48225,0.68204093 C 12.48225,0.68204093 13.841346,0.64848673 13.841346,2.2130429 C 13.841346,3.1295372 13.621565,4.7981301 14.836294,4.5493499 C 16.601675,4.1877954 28.038663,2.3530177 28.038663,2.3530177 C 28.038663,2.3530177 29.553175,2.084582 29.553175,4.2612586 C 29.553175,6.4379363 29.457566,23.656772 29.457566,23.656772 C 29.278429,25.725487 29.624665,26.728073 30.472626,27.032909"
       id="path2366"
       sodipodi:nodetypes="cccscscsscscc" />
    <g
       id="g2368"
       style="opacity:0.21600001;display:inline;filter:url(#filter5289)"
       transform="matrix(0.8154564,0,0,0.9825362,-6.7513751,-5.9428696)">
      <g
         id="g2370"
         style="filter:url(#filter12162)">
        <g
           id="g2372"
           transform="matrix(1,0,0,1.037663,0,-0.3741802)">
          <path
             id="path2374"
             d="M 10.713002,14.765981 C 43.580725,10.434952 43.669113,10.434952 43.669113,10.434952 L 10.713002,14.765981 z "
             style="fill:none;fill-rule:evenodd;stroke:#000000;stroke-width:1px;stroke-linecap:butt;stroke-linejoin:miter;stroke-opacity:1" />
          <path
             id="path2376"
             d="M 10.713002,17.108273 C 43.580727,12.777244 43.669115,12.777244 43.669115,12.777244 L 10.713002,17.108273 z "
             style="fill:none;fill-rule:evenodd;stroke:#000000;stroke-width:1px;stroke-linecap:butt;stroke-linejoin:miter;stroke-opacity:1;display:inline" />
          <path
             id="path2378"
             d="M 10.713002,19.384272 C 43.580727,15.053243 43.669115,15.053243 43.669115,15.053243 L 10.713002,19.384272 z "
             style="fill:none;fill-rule:evenodd;stroke:#000000;stroke-width:1px;stroke-linecap:butt;stroke-linejoin:miter;stroke-opacity:1;display:inline" />
          <path
             id="path2380"
             d="M 10.713002,21.726564 C 43.580726,17.395535 43.669114,17.395535 43.669114,17.395535 L 10.713002,21.726564 z "
             style="fill:none;fill-rule:evenodd;stroke:#000000;stroke-width:1px;stroke-linecap:butt;stroke-linejoin:miter;stroke-opacity:1;display:inline" />
          <path
             id="path2382"
             d="M 10.713002,23.881029 C 43.580728,19.55 43.669116,19.55 43.669116,19.55 L 10.713002,23.881029 z "
             style="fill:none;fill-rule:evenodd;stroke:#000000;stroke-width:1px;stroke-linecap:butt;stroke-linejoin:miter;stroke-opacity:1;display:inline" />
          <path
             id="path2384"
             d="M 10.713002,26.223321 C 43.580727,21.892292 43.669115,21.892292 43.669115,21.892292 L 10.713002,26.223321 z "
             style="fill:none;fill-rule:evenodd;stroke:#000000;stroke-width:1px;stroke-linecap:butt;stroke-linejoin:miter;stroke-opacity:1;display:inline" />
          <path
             sodipodi:nodetypes="ccc"
             id="path2386"
             d="M 10.713002,28.49932 C 43.580728,24.168291 43.669116,24.168291 43.669116,24.168291 L 10.713002,28.49932 z "
             style="fill:none;fill-rule:evenodd;stroke:#000000;stroke-width:1px;stroke-linecap:butt;stroke-linejoin:miter;stroke-opacity:1;display:inline" />
          <path
             id="path2388"
             d="M 10.713002,30.841612 C 43.580724,26.510583 43.669112,26.510583 43.669112,26.510583 L 10.713002,30.841612 z "
             style="fill:none;fill-rule:evenodd;stroke:#000000;stroke-width:1px;stroke-linecap:butt;stroke-linejoin:miter;stroke-opacity:1;display:inline" />
          <path
             id="path2390"
             d="M 10.713002,32.90769 C 43.580727,28.576661 43.669115,28.576661 43.669115,28.576661 L 10.713002,32.90769 z "
             style="fill:none;fill-rule:evenodd;stroke:#000000;stroke-width:1px;stroke-linecap:butt;stroke-linejoin:miter;stroke-opacity:1;display:inline" />
          <path
             id="path2392"
             d="M 10.713002,35.249982 C 43.580725,30.918953 43.669113,30.918953 43.669113,30.918953 L 10.713002,35.249982 z "
             style="fill:none;fill-rule:evenodd;stroke:#000000;stroke-width:1px;stroke-linecap:butt;stroke-linejoin:miter;stroke-opacity:1;display:inline" />
        </g>
        <path
           style="fill:none;fill-rule:evenodd;stroke:#000000;stroke-width:1.06033528px;stroke-linecap:butt;stroke-linejoin:miter;stroke-opacity:1"
           d="M 13.554793,12.35049 L 25.298106,11.082677 L 13.554793,12.35049 z "
           id="path2394" />
        <path
           style="fill:none;fill-rule:evenodd;stroke:#000000;stroke-width:1.04934537px;stroke-linecap:butt;stroke-linejoin:miter;stroke-opacity:1"
           d="M 13.725855,10.146065 L 24.55501,8.9560726 L 13.725855,10.146065 z "
           id="path2396" />
      </g>
    </g>
    <path
       style="opacity:0.83868689;fill:url(#radialGradient2402);fill-opacity:1;fill-rule:evenodd;stroke:#000000;stroke-width:0.81699777px;stroke-linecap:butt;stroke-linejoin:miter;stroke-opacity:0.66120217;display:inline"
       d="M 3.3428935,31.808931 L 30.508483,27.110493 C 30.508483,27.110493 31.97509,27.193642 32.246564,25.32833 C 32.533755,23.355054 32.540121,14.39556 33.019047,11.071001 C 33.213422,9.449271 34.495261,5.3249753 31.409713,5.4004734 C 29.364277,5.4505195 7.9777816,9.5318566 7.9777816,9.5318566 C 7.9777816,9.5318566 6.8086205,9.9120522 6.2396987,12.043092 C 5.3535357,15.362466 5.1746523,28.095926 4.8878554,28.811651 C 4.6517014,29.92771 4.5673683,31.107441 3.3428935,31.808931 z "
       id="path2398"
       sodipodi:nodetypes="ccscscscc" />
    <path
       style="opacity:0.33999999;fill:#ffffff;fill-opacity:1;fill-rule:evenodd;stroke:#ffffff;stroke-width:0.71901727px;stroke-linecap:round;stroke-linejoin:round;stroke-opacity:1;display:inline"
       d="M 6.708502,28.912453 C 6.9062642,22.854923 6.7839386,11.469517 10.07451,10.51402 L 28.684313,6.9850591 C 32.613428,5.965321 31.97302,8.5824597 31.991419,10.712534 C 31.185186,14.410812 32.033698,18.625227 20.054424,19.200267 C 8.5874088,19.094588 7.5063269,27.863614 6.708502,28.912453 z "
       id="path2400"
       sodipodi:nodetypes="cccccc" />
    <path
       style="opacity:0.67400004;fill:#fffffb;fill-opacity:1;fill-rule:evenodd;stroke:#000000;stroke-width:0.81699777px;stroke-linecap:butt;stroke-linejoin:round;stroke-opacity:0.989071;display:inline"
       d="M 16.70977,46.550204 C 15.485061,46.964948 14.451658,45.451584 14.574674,43.284454 L 14.516771,23.29171 C 14.365456,23.100231 14.717231,21.163636 16.413212,21.077844 C 17.763388,21.009545 17.404088,18.713572 17.414717,18.825034 C 17.414717,18.825034 17.103181,16.833295 18.732712,16.442155 C 19.470134,16.265151 25.714415,15.440141 25.714415,15.440141 C 25.714415,15.440141 27.073511,15.406587 27.073511,16.971143 C 27.073511,17.887637 26.85373,19.55623 28.068459,19.30745 C 29.83384,18.945895 41.270828,17.111118 41.270828,17.111118 C 41.270828,17.111118 42.78534,16.842682 42.78534,19.019358 C 42.78534,21.196036 42.689731,38.414872 42.689731,38.414872 C 42.510594,40.483587 42.85683,41.486173 43.704791,41.791009"
       id="path2435"
       sodipodi:nodetypes="cccscscsscscc" />
    <g
       id="g2437"
       style="opacity:0.21600001;display:inline;filter:url(#filter5289)"
       transform="matrix(0.8154564,0,0,0.9825362,6.4807905,8.8152303)">
      <g
         id="g2439"
         style="filter:url(#filter12162)">
        <g
           id="g2441"
           transform="matrix(1,0,0,1.037663,0,-0.3741802)">
          <path
             id="path2443"
             d="M 10.713002,14.765981 C 43.580725,10.434952 43.669113,10.434952 43.669113,10.434952 L 10.713002,14.765981 z "
             style="fill:none;fill-rule:evenodd;stroke:#000000;stroke-width:1px;stroke-linecap:butt;stroke-linejoin:miter;stroke-opacity:1" />
          <path
             id="path2445"
             d="M 10.713002,17.108273 C 43.580727,12.777244 43.669115,12.777244 43.669115,12.777244 L 10.713002,17.108273 z "
             style="fill:none;fill-rule:evenodd;stroke:#000000;stroke-width:1px;stroke-linecap:butt;stroke-linejoin:miter;stroke-opacity:1;display:inline" />
          <path
             id="path2447"
             d="M 10.713002,19.384272 C 43.580727,15.053243 43.669115,15.053243 43.669115,15.053243 L 10.713002,19.384272 z "
             style="fill:none;fill-rule:evenodd;stroke:#000000;stroke-width:1px;stroke-linecap:butt;stroke-linejoin:miter;stroke-opacity:1;display:inline" />
          <path
             id="path2449"
             d="M 10.713002,21.726564 C 43.580726,17.395535 43.669114,17.395535 43.669114,17.395535 L 10.713002,21.726564 z "
             style="fill:none;fill-rule:evenodd;stroke:#000000;stroke-width:1px;stroke-linecap:butt;stroke-linejoin:miter;stroke-opacity:1;display:inline" />
          <path
             id="path2451"
             d="M 10.713002,23.881029 C 43.580728,19.55 43.669116,19.55 43.669116,19.55 L 10.713002,23.881029 z "
             style="fill:none;fill-rule:evenodd;stroke:#000000;stroke-width:1px;stroke-linecap:butt;stroke-linejoin:miter;stroke-opacity:1;display:inline" />
          <path
             id="path2453"
             d="M 10.713002,26.223321 C 43.580727,21.892292 43.669115,21.892292 43.669115,21.892292 L 10.713002,26.223321 z "
             style="fill:none;fill-rule:evenodd;stroke:#000000;stroke-width:1px;stroke-linecap:butt;stroke-linejoin:miter;stroke-opacity:1;display:inline" />
          <path
             sodipodi:nodetypes="ccc"
             id="path2455"
             d="M 10.713002,28.49932 C 43.580728,24.168291 43.669116,24.168291 43.669116,24.168291 L 10.713002,28.49932 z "
             style="fill:none;fill-rule:evenodd;stroke:#000000;stroke-width:1px;stroke-linecap:butt;stroke-linejoin:miter;stroke-opacity:1;display:inline" />
          <path
             id="path2457"
             d="M 10.713002,30.841612 C 43.580724,26.510583 43.669112,26.510583 43.669112,26.510583 L 10.713002,30.841612 z "
             style="fill:none;fill-rule:evenodd;stroke:#000000;stroke-width:1px;stroke-linecap:butt;stroke-linejoin:miter;stroke-opacity:1;display:inline" />
          <path
             id="path2459"
             d="M 10.713002,32.90769 C 43.580727,28.576661 43.669115,28.576661 43.669115,28.576661 L 10.713002,32.90769 z "
             style="fill:none;fill-rule:evenodd;stroke:#000000;stroke-width:1px;stroke-linecap:butt;stroke-linejoin:miter;stroke-opacity:1;display:inline" />
          <path
             id="path2461"
             d="M 10.713002,35.249982 C 43.580725,30.918953 43.669113,30.918953 43.669113,30.918953 L 10.713002,35.249982 z "
             style="fill:none;fill-rule:evenodd;stroke:#000000;stroke-width:1px;stroke-linecap:butt;stroke-linejoin:miter;stroke-opacity:1;display:inline" />
        </g>
        <path
           style="fill:none;fill-rule:evenodd;stroke:#000000;stroke-width:1.06033528px;stroke-linecap:butt;stroke-linejoin:miter;stroke-opacity:1"
           d="M 13.554793,12.35049 L 25.298106,11.082677 L 13.554793,12.35049 z "
           id="path2463" />
        <path
           style="fill:none;fill-rule:evenodd;stroke:#000000;stroke-width:1.04934537px;stroke-linecap:butt;stroke-linejoin:miter;stroke-opacity:1"
           d="M 13.725855,10.146065 L 24.55501,8.9560726 L 13.725855,10.146065 z "
           id="path2465" />
      </g>
    </g>
    <path
       style="opacity:0.83868689;fill:url(#radialGradient2471);fill-opacity:1;fill-rule:evenodd;stroke:#000000;stroke-width:0.81699777px;stroke-linecap:butt;stroke-linejoin:miter;stroke-opacity:0.66120217;display:inline"
       d="M 16.575059,46.567031 L 43.740648,41.868593 C 43.740648,41.868593 45.207255,41.951742 45.478729,40.08643 C 45.76592,38.113154 45.772286,29.15366 46.251212,25.829101 C 46.445587,24.207371 47.727426,20.083075 44.641878,20.158573 C 42.596442,20.208619 21.209947,24.289957 21.209947,24.289957 C 21.209947,24.289957 20.040786,24.670152 19.471864,26.801192 C 18.585701,30.120566 18.406818,42.854026 18.120021,43.569751 C 17.883867,44.68581 17.799534,45.865541 16.575059,46.567031 z "
       id="path2467"
       sodipodi:nodetypes="ccscscscc" />
    <path
       style="opacity:0.33999999;fill:#ffffff;fill-opacity:1;fill-rule:evenodd;stroke:#ffffff;stroke-width:0.71901727px;stroke-linecap:round;stroke-linejoin:round;stroke-opacity:1;display:inline"
       d="M 19.940668,43.670553 C 20.13843,37.613023 20.016104,26.227617 23.306675,25.27212 L 41.916478,21.743159 C 45.845593,20.723421 45.205185,23.34056 45.223584,25.470634 C 44.417351,29.168912 45.265863,33.383327 33.286589,33.958367 C 21.819574,33.852688 20.738493,42.621714 19.940668,43.670553 z "
       id="path2469"
       sodipodi:nodetypes="cccccc" />
  </g>
</svg>
