<?xml version="1.0" encoding="UTF-8" standalone="no"?>
<!-- Created with Inkscape (http://www.inkscape.org/) -->
<svg
   xmlns:dc="http://purl.org/dc/elements/1.1/"
   xmlns:cc="http://creativecommons.org/ns#"
   xmlns:rdf="http://www.w3.org/1999/02/22-rdf-syntax-ns#"
   xmlns:svg="http://www.w3.org/2000/svg"
   xmlns="http://www.w3.org/2000/svg"
   xmlns:xlink="http://www.w3.org/1999/xlink"
   xmlns:sodipodi="http://sodipodi.sourceforge.net/DTD/sodipodi-0.dtd"
   xmlns:inkscape="http://www.inkscape.org/namespaces/inkscape"
   inkscape:export-ydpi="240.00000"
   inkscape:export-xdpi="240.00000"
   inkscape:export-filename="/home/jimmac/gfx/novell/pdes/trunk/docs/BIGmime-text.png"
   sodipodi:docname="application-x-object.svg"
   sodipodi:docbase="/home/marco/Scrivania/UltimateGnome/scalable/mimetypes"
   inkscape:version="0.46"
   sodipodi:version="0.32"
   id="svg249"
   height="48.000000px"
   width="48.000000px"
   inkscape:output_extension="org.inkscape.output.svg.inkscape">
  <defs
     id="defs3">
    <linearGradient
       id="linearGradient3195">
      <stop
         id="stop3199"
         offset="0"
         style="stop-color:#a6c8d6;stop-opacity:1;" />
      <stop
         style="stop-color:#294965;stop-opacity:1;"
         offset="1"
         id="stop3201" />
    </linearGradient>
    <linearGradient
       id="linearGradient3187">
      <stop
         id="stop3189"
         offset="0"
         style="stop-color:#000000;stop-opacity:1;" />
      <stop
         id="stop3191"
         offset="1"
         style="stop-color:#ffffff;stop-opacity:0;" />
    </linearGradient>
    <linearGradient
       id="linearGradient269">
      <stop
         id="stop270"
         offset="0"
         style="stop-color:#ffffff;stop-opacity:1;" />
      <stop
         id="stop271"
         offset="1"
         style="stop-color:#ffffff;stop-opacity:0;" />
    </linearGradient>
    <linearGradient
       id="linearGradient259">
      <stop
         id="stop260"
         offset="0"
         style="stop-color:#ffffff;stop-opacity:1;" />
      <stop
         id="stop261"
         offset="1"
         style="stop-color:#e8e3dd;stop-opacity:1;" />
    </linearGradient>
    <radialGradient
       inkscape:collect="always"
       xlink:href="#linearGradient3187"
       id="radialGradient3185"
       cx="25.375"
       cy="44.75"
       fx="25.375"
       fy="44.75"
       r="15.896"
       gradientTransform="matrix(1,0,0,0.1821842,0,36.597257)"
       gradientUnits="userSpaceOnUse" />
    <radialGradient
       inkscape:collect="always"
       xlink:href="#linearGradient259"
       id="radialGradient3199"
       cx="27.651968"
       cy="-3.1861894"
       fx="27.651968"
       fy="-3.1861894"
       r="15.5"
       gradientTransform="matrix(-4.9392429e-2,2.3083425,-3.2444628,-4.0220357e-2,32.624704,-23.871905)"
       gradientUnits="userSpaceOnUse" />
    <radialGradient
       inkscape:collect="always"
       xlink:href="#linearGradient3195"
       id="radialGradient3420"
       cx="42.111099"
       cy="17.909124"
       fx="42.111099"
       fy="17.909124"
       r="19.849932"
       gradientTransform="matrix(-2.7967369e-3,-1.76227,1.8835,-6.4046003e-3,8.4397152,84.507527)"
       gradientUnits="userSpaceOnUse" />
    <radialGradient
       inkscape:collect="always"
       xlink:href="#linearGradient269"
       id="radialGradient2264"
       gradientUnits="userSpaceOnUse"
       gradientTransform="matrix(-4.9557361e-2,2.3082769,-3.2552968,-4.0219215e-2,32.068539,-24.183487)"
       cx="12.133117"
       cy="7.4347868"
       fx="12.133117"
       fy="7.4347868"
       r="15.5" />
  </defs>
  <sodipodi:namedview
     inkscape:window-y="29"
     inkscape:window-x="0"
     inkscape:window-height="918"
     inkscape:window-width="1272"
     inkscape:document-units="px"
     inkscape:grid-bbox="true"
     showgrid="true"
     inkscape:current-layer="layer5"
     inkscape:cy="27.761193"
     inkscape:cx="0.23635467"
     inkscape:zoom="11.313708"
     inkscape:pageshadow="2"
     inkscape:pageopacity="0.0"
     borderopacity="1"
     bordercolor="#666"
     pagecolor="#ffffff"
     id="base"
     inkscape:showpageshadow="false" />
  <metadata
     id="metadata4">
    <rdf:RDF>
      <cc:Work
         rdf:about="">
        <dc:format>image/svg+xml</dc:format>
        <dc:type
           rdf:resource="http://purl.org/dc/dcmitype/StillImage" />
        <dc:title />
        <dc:subject>
          <rdf:Bag />
        </dc:subject>
        <cc:license
           rdf:resource="http://creativecommons.org/licenses/by-nc-sa/2.5/" />
        <dc:creator>
          <cc:Agent>
            <dc:title>Marco Tessarotto</dc:title>
          </cc:Agent>
        </dc:creator>
        <dc:source />
      </cc:Work>
      <cc:License
         rdf:about="http://creativecommons.org/licenses/by-nc-sa/2.5/">
        <cc:permits
           rdf:resource="http://web.resource.org/cc/Reproduction" />
        <cc:permits
           rdf:resource="http://web.resource.org/cc/Distribution" />
        <cc:requires
           rdf:resource="http://web.resource.org/cc/Notice" />
        <cc:requires
           rdf:resource="http://web.resource.org/cc/Attribution" />
        <cc:prohibits
           rdf:resource="http://web.resource.org/cc/CommercialUse" />
        <cc:permits
           rdf:resource="http://web.resource.org/cc/DerivativeWorks" />
        <cc:requires
           rdf:resource="http://web.resource.org/cc/ShareAlike" />
      </cc:License>
    </rdf:RDF>
  </metadata>
  <g
     inkscape:groupmode="layer"
     id="layer6"
     inkscape:label="Shadow">
    <path
       sodipodi:type="arc"
       style="opacity:0.41919191;fill:url(#radialGradient3185);fill-opacity:1;stroke:#000000;stroke-width:1.04200006;stroke-linecap:round;stroke-linejoin:round;stroke-miterlimit:4;stroke-dasharray:none;stroke-opacity:0"
       id="path2205"
       sodipodi:cx="25.375"
       sodipodi:cy="44.75"
       sodipodi:rx="15.375"
       sodipodi:ry="2.375"
       d="M 40.75,44.75 A 15.375,2.375 0 1 1 40.749997,44.748519"
       sodipodi:start="0"
       sodipodi:end="6.2825619"
       sodipodi:open="true"
       transform="matrix(1.4547318,0,0,1.9230325,-12.927908,-45.326953)" />
  </g>
  <g
     inkscape:groupmode="layer"
     id="layer1"
     inkscape:label="logo"
     style="display:inline" />
  <g
     inkscape:groupmode="layer"
     id="layer2"
     inkscape:label="logo2" />
  <g
     inkscape:groupmode="layer"
     id="layer5"
     inkscape:label="file"
     style="display:inline">
    <path
       style="fill:url(#radialGradient3199);fill-opacity:1;fill-rule:evenodd;stroke:#000000;stroke-width:0.68598264;stroke-linecap:butt;stroke-linejoin:round;stroke-miterlimit:4;stroke-dasharray:none;stroke-opacity:0.81420767"
       d="M 4.0790932,1.0536728 L 4.0790932,40.952269 L 43.39311,40.952269 L 43.39311,1.0536728 L 4.0790932,1.0536728 z "
       id="path2201" />
    <rect
       style="opacity:0.7474747;color:#000000;fill:url(#radialGradient3420);fill-opacity:1.0;fill-rule:nonzero;stroke:#000000;stroke-width:0.71400553;stroke-linecap:butt;stroke-linejoin:miter;marker:none;marker-start:none;marker-mid:none;marker-end:none;stroke-miterlimit:4;stroke-dasharray:none;stroke-dashoffset:0;stroke-opacity:0.68852461;visibility:visible;display:inline;overflow:visible;enable-background:accumulate"
       id="rect2443"
       width="38.985859"
       height="10.583426"
       x="4.2431722"
       y="1.0595703" />
    <text
       xml:space="preserve"
       style="font-size:25.26156235px;font-style:normal;font-weight:normal;line-height:125%;fill:#ffffff;fill-opacity:1;stroke:none;stroke-width:1px;stroke-linecap:butt;stroke-linejoin:miter;stroke-opacity:1;font-family:Bitstream Vera Sans"
       x="6.3270221"
       y="10.14875"
       id="text3428"
       sodipodi:linespacing="125%"><tspan
         sodipodi:role="line"
         x="6.3270221"
         y="10.14875"
         style="font-size:8.42052174px;font-style:normal;font-variant:normal;font-weight:normal;font-stretch:normal;text-align:start;line-height:125%;writing-mode:lr-tb;text-anchor:start;fill:#ffffff;fill-opacity:1;font-family:FreeSans"
         id="tspan2231">.O</tspan></text>
    <g
       id="g3777"
       transform="matrix(0.1631462,0,0,0.1631462,13.657725,26.08485)"
       style="opacity:0.12121211">
      <g
         id="g3848"
         transform="translate(12.258943,0)"
         style="opacity:1" />
    </g>
    <path
       style="font-size:2.98210096px;font-style:normal;font-weight:normal;opacity:0.31313129;fill:#000000;fill-opacity:1;stroke:none;stroke-width:1px;stroke-linecap:butt;stroke-linejoin:miter;stroke-opacity:1;font-family:Bitstream Vera Sans"
       d="M 6.9109895,18.485859 L 7.8897055,18.485859 L 7.8897055,14.701123 L 6.8249812,14.940369 L 6.8249812,14.328963 L 7.8837739,14.089717 L 8.4828667,14.089717 L 8.4828667,18.485859 L 9.4615828,18.485859 L 9.4615828,19.050746 L 6.9109895,19.050746 L 6.9109895,18.485859 M 11.955826,14.531656 C 11.647381,14.531662 11.415059,14.702235 11.258861,15.043378 C 11.104638,15.382313 11.027527,15.892925 11.027528,16.575216 C 11.027527,17.255296 11.104638,17.765908 11.258861,18.107053 C 11.415059,18.445986 11.647381,18.615452 11.955826,18.61545 C 12.266245,18.615452 12.498565,18.445986 12.652791,18.107053 C 12.808986,17.765908 12.887086,17.255296 12.887089,16.575216 C 12.887086,15.892925 12.808986,15.382313 12.652791,15.043378 C 12.498565,14.702235 12.266245,14.531662 11.955826,14.531656 M 11.955826,14 C 12.452102,14.000005 12.830736,14.220422 13.091729,14.661249 C 13.354694,15.09987 13.486178,15.737858 13.486181,16.575216 C 13.486178,17.410363 13.354694,18.048351 13.091729,18.489183 C 12.830736,18.927801 12.452102,19.147109 11.955826,19.147109 C 11.459546,19.147109 11.079923,18.927801 10.816956,18.489183 C 10.555965,18.048351 10.425469,17.410363 10.425469,16.575216 C 10.425469,15.737858 10.555965,15.09987 10.816956,14.661249 C 11.079923,14.220422 11.459546,14.000005 11.955826,14 M 14.645812,18.485859 L 15.624528,18.485859 L 15.624528,14.701123 L 14.559804,14.940369 L 14.559804,14.328963 L 15.618596,14.089717 L 16.21769,14.089717 L 16.21769,18.485859 L 17.196405,18.485859 L 17.196405,19.050746 L 14.645812,19.050746 L 14.645812,18.485859 M 19.690648,14.531656 C 19.382203,14.531662 19.149881,14.702235 18.993684,15.043378 C 18.839461,15.382313 18.76235,15.892925 18.762351,16.575216 C 18.76235,17.255296 18.839461,17.765908 18.993684,18.107053 C 19.149881,18.445986 19.382203,18.615452 19.690648,18.61545 C 20.001067,18.615452 20.233389,18.445986 20.387613,18.107053 C 20.543809,17.765908 20.621908,17.255296 20.621912,16.575216 C 20.621908,15.892925 20.543809,15.382313 20.387613,15.043378 C 20.233389,14.702235 20.001067,14.531662 19.690648,14.531656 M 19.690648,14 C 20.186924,14.000005 20.565558,14.220422 20.826552,14.661249 C 21.089517,15.09987 21.221,15.737858 21.221005,16.575216 C 21.221,17.410363 21.089517,18.048351 20.826552,18.489183 C 20.565558,18.927801 20.186924,19.147109 19.690648,19.147109 C 19.194368,19.147109 18.814745,18.927801 18.551779,18.489183 C 18.290788,18.048351 18.160292,17.410363 18.160292,16.575216 C 18.160292,15.737858 18.290788,15.09987 18.551779,14.661249 C 18.814745,14.220422 19.194368,14.000005 19.690648,14 M 22.380634,18.485859 L 23.35935,18.485859 L 23.35935,14.701123 L 22.294626,14.940369 L 22.294626,14.328963 L 23.353419,14.089717 L 23.952512,14.089717 L 23.952512,18.485859 L 24.931228,18.485859 L 24.931228,19.050746 L 22.380634,19.050746 L 22.380634,18.485859 M 27.425471,14.531656 C 27.117026,14.531662 26.884704,14.702235 26.728506,15.043378 C 26.574283,15.382313 26.497172,15.892925 26.497173,16.575216 C 26.497172,17.255296 26.574283,17.765908 26.728506,18.107053 C 26.884704,18.445986 27.117026,18.615452 27.425471,18.61545 C 27.735889,18.615452 27.968211,18.445986 28.122435,18.107053 C 28.278632,17.765908 28.356731,17.255296 28.356734,16.575216 C 28.356731,15.892925 28.278632,15.382313 28.122435,15.043378 C 27.968211,14.702235 27.735889,14.531662 27.425471,14.531656 M 27.425471,14 C 27.921747,14.000005 28.30038,14.220422 28.561374,14.661249 C 28.824339,15.09987 28.955823,15.737858 28.955827,16.575216 C 28.955823,17.410363 28.824339,18.048351 28.561374,18.489183 C 28.30038,18.927801 27.921747,19.147109 27.425471,19.147109 C 26.929191,19.147109 26.549568,18.927801 26.286602,18.489183 C 26.02561,18.048351 25.895114,17.410363 25.895115,16.575216 C 25.895114,15.737858 26.02561,15.09987 26.286602,14.661249 C 26.549568,14.220422 26.929191,14.000005 27.425471,14 M 30.115457,18.485859 L 31.094172,18.485859 L 31.094172,14.701123 L 30.029449,14.940369 L 30.029449,14.328963 L 31.088241,14.089717 L 31.687334,14.089717 L 31.687334,18.485859 L 32.66605,18.485859 L 32.66605,19.050746 L 30.115457,19.050746 L 30.115457,18.485859 M 35.160293,14.531656 C 34.851848,14.531662 34.619526,14.702235 34.463328,15.043378 C 34.309105,15.382313 34.231995,15.892925 34.231996,16.575216 C 34.231995,17.255296 34.309105,17.765908 34.463328,18.107053 C 34.619526,18.445986 34.851848,18.615452 35.160293,18.61545 C 35.470712,18.615452 35.703034,18.445986 35.857258,18.107053 C 36.013454,17.765908 36.091553,17.255296 36.091556,16.575216 C 36.091553,15.892925 36.013454,15.382313 35.857258,15.043378 C 35.703034,14.702235 35.470712,14.531662 35.160293,14.531656 M 35.160293,14 C 35.656569,14.000005 36.035203,14.220422 36.296196,14.661249 C 36.559162,15.09987 36.690645,15.737858 36.690649,16.575216 C 36.690645,17.410363 36.559162,18.048351 36.296196,18.489183 C 36.035203,18.927801 35.656569,19.147109 35.160293,19.147109 C 34.664014,19.147109 34.284391,18.927801 34.021424,18.489183 C 33.760432,18.048351 33.629937,17.410363 33.629938,16.575216 C 33.629937,15.737858 33.760432,15.09987 34.021424,14.661249 C 34.284391,14.220422 34.664014,14.000005 35.160293,14 M 39.027705,14.531656 C 38.719259,14.531662 38.486938,14.702235 38.33074,15.043378 C 38.176517,15.382313 38.099406,15.892925 38.099407,16.575216 C 38.099406,17.255296 38.176517,17.765908 38.33074,18.107053 C 38.486938,18.445986 38.719259,18.615452 39.027705,18.61545 C 39.338123,18.615452 39.570444,18.445986 39.724669,18.107053 C 39.880865,17.765908 39.958965,17.255296 39.958968,16.575216 C 39.958965,15.892925 39.880865,15.382313 39.724669,15.043378 C 39.570444,14.702235 39.338123,14.531662 39.027705,14.531656 M 39.027705,14 C 39.523981,14.000005 39.902614,14.220422 40.163608,14.661249 C 40.426573,15.09987 40.558057,15.737858 40.55806,16.575216 C 40.558057,17.410363 40.426573,18.048351 40.163608,18.489183 C 39.902614,18.927801 39.523981,19.147109 39.027705,19.147109 C 38.531425,19.147109 38.151802,18.927801 37.888835,18.489183 C 37.627843,18.048351 37.497348,17.410363 37.497348,16.575216 C 37.497348,15.737858 37.627843,15.09987 37.888835,14.661249 C 38.151802,14.220422 38.531425,14.000005 39.027705,14 M 6.9109895,24.436824 L 7.8897055,24.436824 L 7.8897055,20.652087 L 6.8249812,20.891333 L 6.8249812,20.279927 L 7.8837739,20.040682 L 8.4828667,20.040682 L 8.4828667,24.436824 L 9.4615828,24.436824 L 9.4615828,25.00171 L 6.9109895,25.00171 L 6.9109895,24.436824 M 11.955826,20.482622 C 11.647381,20.482626 11.415059,20.653199 11.258861,20.994341 C 11.104638,21.333277 11.027527,21.843888 11.027528,22.526181 C 11.027527,23.20626 11.104638,23.716873 11.258861,24.058018 C 11.415059,24.396951 11.647381,24.566415 11.955826,24.566415 C 12.266245,24.566415 12.498565,24.396951 12.652791,24.058018 C 12.808986,23.716873 12.887086,23.20626 12.887089,22.526181 C 12.887086,21.843888 12.808986,21.333277 12.652791,20.994341 C 12.498565,20.653199 12.266245,20.482626 11.955826,20.482622 M 11.955826,19.950964 C 12.452102,19.95097 12.830736,20.171385 13.091729,20.612213 C 13.354694,21.050834 13.486178,21.688822 13.486181,22.526181 C 13.486178,23.361327 13.354694,23.999315 13.091729,24.440146 C 12.830736,24.878765 12.452102,25.098072 11.955826,25.098072 C 11.459546,25.098072 11.079923,24.878765 10.816956,24.440146 C 10.555965,23.999315 10.425469,23.361327 10.425469,22.526181 C 10.425469,21.688822 10.555965,21.050834 10.816956,20.612213 C 11.079923,20.171385 11.459546,19.95097 11.955826,19.950964 M 15.823237,20.482622 C 15.514791,20.482626 15.282471,20.653199 15.126273,20.994341 C 14.97205,21.333277 14.894939,21.843888 14.89494,22.526181 C 14.894939,23.20626 14.97205,23.716873 15.126273,24.058018 C 15.282471,24.396951 15.514791,24.566415 15.823237,24.566415 C 16.133656,24.566415 16.365977,24.396951 16.520201,24.058018 C 16.676398,23.716873 16.754498,23.20626 16.7545,22.526181 C 16.754498,21.843888 16.676398,21.333277 16.520201,20.994341 C 16.365977,20.653199 16.133656,20.482626 15.823237,20.482622 M 15.823237,19.950964 C 16.319513,19.95097 16.698147,20.171385 16.959141,20.612213 C 17.222105,21.050834 17.35359,21.688822 17.353593,22.526181 C 17.35359,23.361327 17.222105,23.999315 16.959141,24.440146 C 16.698147,24.878765 16.319513,25.098072 15.823237,25.098072 C 15.326957,25.098072 14.947335,24.878765 14.684368,24.440146 C 14.423376,23.999315 14.29288,23.361327 14.292881,22.526181 C 14.29288,21.688822 14.423376,21.050834 14.684368,20.612213 C 14.947335,20.171385 15.326957,19.95097 15.823237,19.950964 M 19.690648,20.482622 C 19.382203,20.482626 19.149881,20.653199 18.993684,20.994341 C 18.839461,21.333277 18.76235,21.843888 18.762351,22.526181 C 18.76235,23.20626 18.839461,23.716873 18.993684,24.058018 C 19.149881,24.396951 19.382203,24.566415 19.690648,24.566415 C 20.001067,24.566415 20.233389,24.396951 20.387613,24.058018 C 20.543809,23.716873 20.621908,23.20626 20.621912,22.526181 C 20.621908,21.843888 20.543809,21.333277 20.387613,20.994341 C 20.233389,20.653199 20.001067,20.482626 19.690648,20.482622 M 19.690648,19.950964 C 20.186924,19.95097 20.565558,20.171385 20.826552,20.612213 C 21.089517,21.050834 21.221,21.688822 21.221005,22.526181 C 21.221,23.361327 21.089517,23.999315 20.826552,24.440146 C 20.565558,24.878765 20.186924,25.098072 19.690648,25.098072 C 19.194368,25.098072 18.814745,24.878765 18.551779,24.440146 C 18.290788,23.999315 18.160292,23.361327 18.160292,22.526181 C 18.160292,21.688822 18.290788,21.050834 18.551779,20.612213 C 18.814745,20.171385 19.194368,19.95097 19.690648,19.950964 M 23.55806,20.482622 C 23.249614,20.482626 23.017293,20.653199 22.861095,20.994341 C 22.706872,21.333277 22.629761,21.843888 22.629762,22.526181 C 22.629761,23.20626 22.706872,23.716873 22.861095,24.058018 C 23.017293,24.396951 23.249614,24.566415 23.55806,24.566415 C 23.868479,24.566415 24.100799,24.396951 24.255024,24.058018 C 24.41122,23.716873 24.48932,23.20626 24.489322,22.526181 C 24.48932,21.843888 24.41122,21.333277 24.255024,20.994341 C 24.100799,20.653199 23.868479,20.482626 23.55806,20.482622 M 23.55806,19.950964 C 24.054335,19.95097 24.43297,20.171385 24.693963,20.612213 C 24.956929,21.050834 25.088412,21.688822 25.088415,22.526181 C 25.088412,23.361327 24.956929,23.999315 24.693963,24.440146 C 24.43297,24.878765 24.054335,25.098072 23.55806,25.098072 C 23.06178,25.098072 22.682157,24.878765 22.41919,24.440146 C 22.158198,23.999315 22.027704,23.361327 22.027704,22.526181 C 22.027704,21.688822 22.158198,21.050834 22.41919,20.612213 C 22.682157,20.171385 23.06178,19.95097 23.55806,19.950964 M 26.248046,24.436824 L 27.226762,24.436824 L 27.226762,20.652087 L 26.162037,20.891333 L 26.162037,20.279927 L 27.220831,20.040682 L 27.819923,20.040682 L 27.819923,24.436824 L 28.798639,24.436824 L 28.798639,25.00171 L 26.248046,25.00171 L 26.248046,24.436824 M 31.292882,20.482622 C 30.984436,20.482626 30.752115,20.653199 30.595918,20.994341 C 30.441695,21.333277 30.364584,21.843888 30.364585,22.526181 C 30.364584,23.20626 30.441695,23.716873 30.595918,24.058018 C 30.752115,24.396951 30.984436,24.566415 31.292882,24.566415 C 31.603301,24.566415 31.835622,24.396951 31.989846,24.058018 C 32.146043,23.716873 32.224142,23.20626 32.224145,22.526181 C 32.224142,21.843888 32.146043,21.333277 31.989846,20.994341 C 31.835622,20.653199 31.603301,20.482626 31.292882,20.482622 M 31.292882,19.950964 C 31.789157,19.95097 32.167792,20.171385 32.428786,20.612213 C 32.691751,21.050834 32.823235,21.688822 32.823238,22.526181 C 32.823235,23.361327 32.691751,23.999315 32.428786,24.440146 C 32.167792,24.878765 31.789157,25.098072 31.292882,25.098072 C 30.796602,25.098072 30.416979,24.878765 30.154012,24.440146 C 29.893021,23.999315 29.762526,23.361327 29.762526,22.526181 C 29.762526,21.688822 29.893021,21.050834 30.154012,20.612213 C 30.416979,20.171385 30.796602,19.95097 31.292882,19.950964 M 35.160293,20.482622 C 34.851848,20.482626 34.619526,20.653199 34.463328,20.994341 C 34.309105,21.333277 34.231995,21.843888 34.231996,22.526181 C 34.231995,23.20626 34.309105,23.716873 34.463328,24.058018 C 34.619526,24.396951 34.851848,24.566415 35.160293,24.566415 C 35.470712,24.566415 35.703034,24.396951 35.857258,24.058018 C 36.013454,23.716873 36.091553,23.20626 36.091556,22.526181 C 36.091553,21.843888 36.013454,21.333277 35.857258,20.994341 C 35.703034,20.653199 35.470712,20.482626 35.160293,20.482622 M 35.160293,19.950964 C 35.656569,19.95097 36.035203,20.171385 36.296196,20.612213 C 36.559162,21.050834 36.690645,21.688822 36.690649,22.526181 C 36.690645,23.361327 36.559162,23.999315 36.296196,24.440146 C 36.035203,24.878765 35.656569,25.098072 35.160293,25.098072 C 34.664014,25.098072 34.284391,24.878765 34.021424,24.440146 C 33.760432,23.999315 33.629937,23.361327 33.629938,22.526181 C 33.629937,21.688822 33.760432,21.050834 34.021424,20.612213 C 34.284391,20.171385 34.664014,19.95097 35.160293,19.950964 M 37.850279,24.436824 L 38.828996,24.436824 L 38.828996,20.652087 L 37.764271,20.891333 L 37.764271,20.279927 L 38.823064,20.040682 L 39.422157,20.040682 L 39.422157,24.436824 L 40.400872,24.436824 L 40.400872,25.00171 L 37.850279,25.00171 L 37.850279,24.436824 M 8.0884145,26.433585 C 7.779969,26.433589 7.5476479,26.604162 7.3914501,26.945305 C 7.2372271,27.28424 7.1601162,27.794853 7.1601173,28.477143 C 7.1601162,29.157223 7.2372271,29.667836 7.3914501,30.008982 C 7.5476479,30.347914 7.779969,30.517379 8.0884145,30.517379 C 8.3988334,30.517379 8.6311545,30.347914 8.785379,30.008982 C 8.9415753,29.667836 9.0196748,29.157223 9.0196777,28.477143 C 9.0196748,27.794853 8.9415753,27.28424 8.785379,26.945305 C 8.6311545,26.604162 8.3988334,26.433589 8.0884145,26.433585 M 8.0884145,25.901926 C 8.5846904,25.901933 8.9633246,26.122348 9.2243183,26.563176 C 9.4872831,27.001798 9.618767,27.639786 9.6187705,28.477143 C 9.618767,29.31229 9.4872831,29.950278 9.2243183,30.39111 C 8.9633246,30.829727 8.5846904,31.049036 8.0884145,31.049036 C 7.5921349,31.049036 7.2125121,30.829727 6.9495449,30.39111 C 6.6885536,29.950278 6.5580582,29.31229 6.5580586,28.477143 C 6.5580582,27.639786 6.6885536,27.001798 6.9495449,26.563176 C 7.2125121,26.122348 7.5921349,25.901933 8.0884145,25.901926 M 10.7784,30.387787 L 11.757117,30.387787 L 11.757117,26.60305 L 10.692392,26.842296 L 10.692392,26.23089 L 11.751185,25.991644 L 12.350278,25.991644 L 12.350278,30.387787 L 13.328994,30.387787 L 13.328994,30.952673 L 10.7784,30.952673 L 10.7784,30.387787 M 15.823237,26.433585 C 15.514791,26.433589 15.282471,26.604162 15.126273,26.945305 C 14.97205,27.28424 14.894939,27.794853 14.89494,28.477143 C 14.894939,29.157223 14.97205,29.667836 15.126273,30.008982 C 15.282471,30.347914 15.514791,30.517379 15.823237,30.517379 C 16.133656,30.517379 16.365977,30.347914 16.520201,30.008982 C 16.676398,29.667836 16.754498,29.157223 16.7545,28.477143 C 16.754498,27.794853 16.676398,27.28424 16.520201,26.945305 C 16.365977,26.604162 16.133656,26.433589 15.823237,26.433585 M 15.823237,25.901926 C 16.319513,25.901933 16.698147,26.122348 16.959141,26.563176 C 17.222105,27.001798 17.35359,27.639786 17.353593,28.477143 C 17.35359,29.31229 17.222105,29.950278 16.959141,30.39111 C 16.698147,30.829727 16.319513,31.049036 15.823237,31.049036 C 15.326957,31.049036 14.947335,30.829727 14.684368,30.39111 C 14.423376,29.950278 14.29288,29.31229 14.292881,28.477143 C 14.29288,27.639786 14.423376,27.001798 14.684368,26.563176 C 14.947335,26.122348 15.326957,25.901933 15.823237,25.901926 M 18.513224,30.387787 L 19.491939,30.387787 L 19.491939,26.60305 L 18.427215,26.842296 L 18.427215,26.23089 L 19.486007,25.991644 L 20.0851,25.991644 L 20.0851,30.387787 L 21.063816,30.387787 L 21.063816,30.952673 L 18.513224,30.952673 L 18.513224,30.387787 M 23.55806,26.433585 C 23.249614,26.433589 23.017293,26.604162 22.861095,26.945305 C 22.706872,27.28424 22.629761,27.794853 22.629762,28.477143 C 22.629761,29.157223 22.706872,29.667836 22.861095,30.008982 C 23.017293,30.347914 23.249614,30.517379 23.55806,30.517379 C 23.868479,30.517379 24.100799,30.347914 24.255024,30.008982 C 24.41122,29.667836 24.48932,29.157223 24.489322,28.477143 C 24.48932,27.794853 24.41122,27.28424 24.255024,26.945305 C 24.100799,26.604162 23.868479,26.433589 23.55806,26.433585 M 23.55806,25.901926 C 24.054335,25.901933 24.43297,26.122348 24.693963,26.563176 C 24.956929,27.001798 25.088412,27.639786 25.088415,28.477143 C 25.088412,29.31229 24.956929,29.950278 24.693963,30.39111 C 24.43297,30.829727 24.054335,31.049036 23.55806,31.049036 C 23.06178,31.049036 22.682157,30.829727 22.41919,30.39111 C 22.158198,29.950278 22.027704,29.31229 22.027704,28.477143 C 22.027704,27.639786 22.158198,27.001798 22.41919,26.563176 C 22.682157,26.122348 23.06178,25.901933 23.55806,25.901926 M 26.248046,30.387787 L 27.226762,30.387787 L 27.226762,26.60305 L 26.162037,26.842296 L 26.162037,26.23089 L 27.220831,25.991644 L 27.819923,25.991644 L 27.819923,30.387787 L 28.798639,30.387787 L 28.798639,30.952673 L 26.248046,30.952673 L 26.248046,30.387787 M 31.292882,26.433585 C 30.984436,26.433589 30.752115,26.604162 30.595918,26.945305 C 30.441695,27.28424 30.364584,27.794853 30.364585,28.477143 C 30.364584,29.157223 30.441695,29.667836 30.595918,30.008982 C 30.752115,30.347914 30.984436,30.517379 31.292882,30.517379 C 31.603301,30.517379 31.835622,30.347914 31.989846,30.008982 C 32.146043,29.667836 32.224142,29.157223 32.224145,28.477143 C 32.224142,27.794853 32.146043,27.28424 31.989846,26.945305 C 31.835622,26.604162 31.603301,26.433589 31.292882,26.433585 M 31.292882,25.901926 C 31.789157,25.901933 32.167792,26.122348 32.428786,26.563176 C 32.691751,27.001798 32.823235,27.639786 32.823238,28.477143 C 32.823235,29.31229 32.691751,29.950278 32.428786,30.39111 C 32.167792,30.829727 31.789157,31.049036 31.292882,31.049036 C 30.796602,31.049036 30.416979,30.829727 30.154012,30.39111 C 29.893021,29.950278 29.762526,29.31229 29.762526,28.477143 C 29.762526,27.639786 29.893021,27.001798 30.154012,26.563176 C 30.416979,26.122348 30.796602,25.901933 31.292882,25.901926 M 35.160293,26.433585 C 34.851848,26.433589 34.619526,26.604162 34.463328,26.945305 C 34.309105,27.28424 34.231995,27.794853 34.231996,28.477143 C 34.231995,29.157223 34.309105,29.667836 34.463328,30.008982 C 34.619526,30.347914 34.851848,30.517379 35.160293,30.517379 C 35.470712,30.517379 35.703034,30.347914 35.857258,30.008982 C 36.013454,29.667836 36.091553,29.157223 36.091556,28.477143 C 36.091553,27.794853 36.013454,27.28424 35.857258,26.945305 C 35.703034,26.604162 35.470712,26.433589 35.160293,26.433585 M 35.160293,25.901926 C 35.656569,25.901933 36.035203,26.122348 36.296196,26.563176 C 36.559162,27.001798 36.690645,27.639786 36.690649,28.477143 C 36.690645,29.31229 36.559162,29.950278 36.296196,30.39111 C 36.035203,30.829727 35.656569,31.049036 35.160293,31.049036 C 34.664014,31.049036 34.284391,30.829727 34.021424,30.39111 C 33.760432,29.950278 33.629937,29.31229 33.629938,28.477143 C 33.629937,27.639786 33.760432,27.001798 34.021424,26.563176 C 34.284391,26.122348 34.664014,25.901933 35.160293,25.901926 M 37.850279,30.387787 L 38.828996,30.387787 L 38.828996,26.60305 L 37.764271,26.842296 L 37.764271,26.23089 L 38.823064,25.991644 L 39.422157,25.991644 L 39.422157,30.387787 L 40.400872,30.387787 L 40.400872,30.952673 L 37.850279,30.952673 L 37.850279,30.387787 M 8.0884145,32.384548 C 7.779969,32.384553 7.5476479,32.555128 7.3914501,32.896269 C 7.2372271,33.235205 7.1601162,33.745817 7.1601173,34.428107 C 7.1601162,35.108188 7.2372271,35.618799 7.3914501,35.959945 C 7.5476479,36.298877 7.779969,36.468344 8.0884145,36.468344 C 8.3988334,36.468344 8.6311545,36.298877 8.785379,35.959945 C 8.9415753,35.618799 9.0196748,35.108188 9.0196777,34.428107 C 9.0196748,33.745817 8.9415753,33.235205 8.785379,32.896269 C 8.6311545,32.555128 8.3988334,32.384553 8.0884145,32.384548 M 8.0884145,31.852892 C 8.5846904,31.852896 8.9633246,32.073312 9.2243183,32.514141 C 9.4872831,32.952762 9.618767,33.59075 9.6187705,34.428107 C 9.618767,35.263254 9.4872831,35.901243 9.2243183,36.342075 C 8.9633246,36.780691 8.5846904,37 8.0884145,37 C 7.5921349,37 7.2125121,36.780691 6.9495449,36.342075 C 6.6885536,35.901243 6.5580582,35.263254 6.5580586,34.428107 C 6.5580582,33.59075 6.6885536,32.952762 6.9495449,32.514141 C 7.2125121,32.073312 7.5921349,31.852896 8.0884145,31.852892 M 10.7784,36.338751 L 11.757117,36.338751 L 11.757117,32.554015 L 10.692392,32.793261 L 10.692392,32.181854 L 11.751185,31.942609 L 12.350278,31.942609 L 12.350278,36.338751 L 13.328994,36.338751 L 13.328994,36.903636 L 10.7784,36.903636 L 10.7784,36.338751 M 14.645812,36.338751 L 15.624528,36.338751 L 15.624528,32.554015 L 14.559804,32.793261 L 14.559804,32.181854 L 15.618596,31.942609 L 16.21769,31.942609 L 16.21769,36.338751 L 17.196405,36.338751 L 17.196405,36.903636 L 14.645812,36.903636 L 14.645812,36.338751 M 18.513224,36.338751 L 19.491939,36.338751 L 19.491939,32.554015 L 18.427215,32.793261 L 18.427215,32.181854 L 19.486007,31.942609 L 20.0851,31.942609 L 20.0851,36.338751 L 21.063816,36.338751 L 21.063816,36.903636 L 18.513224,36.903636 L 18.513224,36.338751 M 23.55806,32.384548 C 23.249614,32.384553 23.017293,32.555128 22.861095,32.896269 C 22.706872,33.235205 22.629761,33.745817 22.629762,34.428107 C 22.629761,35.108188 22.706872,35.618799 22.861095,35.959945 C 23.017293,36.298877 23.249614,36.468344 23.55806,36.468344 C 23.868479,36.468344 24.100799,36.298877 24.255024,35.959945 C 24.41122,35.618799 24.48932,35.108188 24.489322,34.428107 C 24.48932,33.745817 24.41122,33.235205 24.255024,32.896269 C 24.100799,32.555128 23.868479,32.384553 23.55806,32.384548 M 23.55806,31.852892 C 24.054335,31.852896 24.43297,32.073312 24.693963,32.514141 C 24.956929,32.952762 25.088412,33.59075 25.088415,34.428107 C 25.088412,35.263254 24.956929,35.901243 24.693963,36.342075 C 24.43297,36.780691 24.054335,37 23.55806,37 C 23.06178,37 22.682157,36.780691 22.41919,36.342075 C 22.158198,35.901243 22.027704,35.263254 22.027704,34.428107 C 22.027704,33.59075 22.158198,32.952762 22.41919,32.514141 C 22.682157,32.073312 23.06178,31.852896 23.55806,31.852892 M 27.425471,32.384548 C 27.117026,32.384553 26.884704,32.555128 26.728506,32.896269 C 26.574283,33.235205 26.497172,33.745817 26.497173,34.428107 C 26.497172,35.108188 26.574283,35.618799 26.728506,35.959945 C 26.884704,36.298877 27.117026,36.468344 27.425471,36.468344 C 27.735889,36.468344 27.968211,36.298877 28.122435,35.959945 C 28.278632,35.618799 28.356731,35.108188 28.356734,34.428107 C 28.356731,33.745817 28.278632,33.235205 28.122435,32.896269 C 27.968211,32.555128 27.735889,32.384553 27.425471,32.384548 M 27.425471,31.852892 C 27.921747,31.852896 28.30038,32.073312 28.561374,32.514141 C 28.824339,32.952762 28.955823,33.59075 28.955827,34.428107 C 28.955823,35.263254 28.824339,35.901243 28.561374,36.342075 C 28.30038,36.780691 27.921747,37 27.425471,37 C 26.929191,37 26.549568,36.780691 26.286602,36.342075 C 26.02561,35.901243 25.895114,35.263254 25.895115,34.428107 C 25.895114,33.59075 26.02561,32.952762 26.286602,32.514141 C 26.549568,32.073312 26.929191,31.852896 27.425471,31.852892 M 31.292882,32.384548 C 30.984436,32.384553 30.752115,32.555128 30.595918,32.896269 C 30.441695,33.235205 30.364584,33.745817 30.364585,34.428107 C 30.364584,35.108188 30.441695,35.618799 30.595918,35.959945 C 30.752115,36.298877 30.984436,36.468344 31.292882,36.468344 C 31.603301,36.468344 31.835622,36.298877 31.989846,35.959945 C 32.146043,35.618799 32.224142,35.108188 32.224145,34.428107 C 32.224142,33.745817 32.146043,33.235205 31.989846,32.896269 C 31.835622,32.555128 31.603301,32.384553 31.292882,32.384548 M 31.292882,31.852892 C 31.789157,31.852896 32.167792,32.073312 32.428786,32.514141 C 32.691751,32.952762 32.823235,33.59075 32.823238,34.428107 C 32.823235,35.263254 32.691751,35.901243 32.428786,36.342075 C 32.167792,36.780691 31.789157,37 31.292882,37 C 30.796602,37 30.416979,36.780691 30.154012,36.342075 C 29.893021,35.901243 29.762526,35.263254 29.762526,34.428107 C 29.762526,33.59075 29.893021,32.952762 30.154012,32.514141 C 30.416979,32.073312 30.796602,31.852896 31.292882,31.852892 M 35.160293,32.384548 C 34.851848,32.384553 34.619526,32.555128 34.463328,32.896269 C 34.309105,33.235205 34.231995,33.745817 34.231996,34.428107 C 34.231995,35.108188 34.309105,35.618799 34.463328,35.959945 C 34.619526,36.298877 34.851848,36.468344 35.160293,36.468344 C 35.470712,36.468344 35.703034,36.298877 35.857258,35.959945 C 36.013454,35.618799 36.091553,35.108188 36.091556,34.428107 C 36.091553,33.745817 36.013454,33.235205 35.857258,32.896269 C 35.703034,32.555128 35.470712,32.384553 35.160293,32.384548 M 35.160293,31.852892 C 35.656569,31.852896 36.035203,32.073312 36.296196,32.514141 C 36.559162,32.952762 36.690645,33.59075 36.690649,34.428107 C 36.690645,35.263254 36.559162,35.901243 36.296196,36.342075 C 36.035203,36.780691 35.656569,37 35.160293,37 C 34.664014,37 34.284391,36.780691 34.021424,36.342075 C 33.760432,35.901243 33.629937,35.263254 33.629938,34.428107 C 33.629937,33.59075 33.760432,32.952762 34.021424,32.514141 C 34.284391,32.073312 34.664014,31.852896 35.160293,31.852892 M 37.850279,36.338751 L 38.828996,36.338751 L 38.828996,32.554015 L 37.764271,32.793261 L 37.764271,32.181854 L 38.823064,31.942609 L 39.422157,31.942609 L 39.422157,36.338751 L 40.400872,36.338751 L 40.400872,36.903636 L 37.850279,36.903636 L 37.850279,36.338751"
       id="text2247"
       sodipodi:nodetypes="cccccccccccccsssssssccsssssssccccccccccccccsssssssccsssssssccccccccccccccsssssssccsssssssccccccccccccccsssssssccsssssssccsssssssccsssssssccccccccccccccsssssssccsssssssccsssssssccsssssssccsssssssccsssssssccsssssssccsssssssccccccccccccccsssssssccsssssssccsssssssccsssssssccccccccccccccsssssssccsssssssccccccccccccccsssssssccsssssssccccccccccccccsssssssccsssssssccccccccccccccsssssssccsssssssccsssssssccsssssssccccccccccccccsssssssccsssssssccccccccccccccccccccccccccccccccccccccsssssssccsssssssccsssssssccsssssssccsssssssccsssssssccsssssssccsssssssccccccccccccc" />
    <path
       style="opacity:0.49494946;fill:url(#radialGradient2264);fill-opacity:1;fill-rule:evenodd;stroke:#000000;stroke-width:0.68711728;stroke-linecap:butt;stroke-linejoin:round;stroke-miterlimit:4;stroke-dasharray:none;stroke-opacity:0;display:inline"
       d="M 6.040859,38.656441 C 5.581235,33.628662 10.239955,9.1413388 41.557868,5.0487378 C 41.557868,0.78415036 41.665301,6.5725058 41.665301,2.3079174 C 30.269992,2.3079174 16.738868,2.3079174 5.343559,2.3079174 C 5.343559,14.277156 6.040859,26.687202 6.040859,38.656441 z "
       id="path3201"
       sodipodi:nodetypes="ccccc" />
  </g>
</svg>
