<?xml version="1.0" encoding="UTF-8" standalone="no"?>
<!-- Created with Inkscape (http://www.inkscape.org/) -->
<svg
   xmlns:dc="http://purl.org/dc/elements/1.1/"
   xmlns:cc="http://creativecommons.org/ns#"
   xmlns:rdf="http://www.w3.org/1999/02/22-rdf-syntax-ns#"
   xmlns:svg="http://www.w3.org/2000/svg"
   xmlns="http://www.w3.org/2000/svg"
   xmlns:xlink="http://www.w3.org/1999/xlink"
   xmlns:sodipodi="http://sodipodi.sourceforge.net/DTD/sodipodi-0.dtd"
   xmlns:inkscape="http://www.inkscape.org/namespaces/inkscape"
   inkscape:export-ydpi="240.00000"
   inkscape:export-xdpi="240.00000"
   inkscape:export-filename="/home/jimmac/gfx/novell/pdes/trunk/docs/BIGmime-text.png"
   sodipodi:docname="application-x-java.svg"
   sodipodi:docbase="/home/marco/Scrivania/UltimateGnome/scalable/mimetypes"
   inkscape:version="0.46"
   sodipodi:version="0.32"
   id="svg249"
   height="48.000000px"
   width="48.000000px"
   inkscape:output_extension="org.inkscape.output.svg.inkscape">
  <defs
     id="defs3">
    <linearGradient
       id="linearGradient3203">
      <stop
         id="stop3205"
         offset="0"
         style="stop-color:#000000;stop-opacity:0;" />
      <stop
         style="stop-color:#000000;stop-opacity:0;"
         offset="0.61363637"
         id="stop3209" />
      <stop
         id="stop3207"
         offset="1"
         style="stop-color:#000000;stop-opacity:1;" />
    </linearGradient>
    <linearGradient
       id="linearGradient3187">
      <stop
         id="stop3189"
         offset="0"
         style="stop-color:#000000;stop-opacity:1;" />
      <stop
         id="stop3191"
         offset="1"
         style="stop-color:#ffffff;stop-opacity:0;" />
    </linearGradient>
    <linearGradient
       id="linearGradient269">
      <stop
         id="stop270"
         offset="0"
         style="stop-color:#ffffff;stop-opacity:1;" />
      <stop
         id="stop271"
         offset="1"
         style="stop-color:#ffffff;stop-opacity:0;" />
    </linearGradient>
    <linearGradient
       id="linearGradient259">
      <stop
         id="stop260"
         offset="0"
         style="stop-color:#ffffff;stop-opacity:1;" />
      <stop
         id="stop261"
         offset="1"
         style="stop-color:#e8e3dd;stop-opacity:1;" />
    </linearGradient>
    <radialGradient
       inkscape:collect="always"
       xlink:href="#linearGradient3187"
       id="radialGradient3185"
       cx="25.375"
       cy="44.75"
       fx="25.375"
       fy="44.75"
       r="15.896"
       gradientTransform="matrix(1,0,0,0.1821842,0,36.597257)"
       gradientUnits="userSpaceOnUse" />
    <radialGradient
       inkscape:collect="always"
       xlink:href="#linearGradient259"
       id="radialGradient3199"
       cx="27.651968"
       cy="-3.1861894"
       fx="27.651968"
       fy="-3.1861894"
       r="15.5"
       gradientTransform="matrix(-4.9392429e-2,2.3083425,-3.2444628,-4.0220357e-2,32.624704,-23.871905)"
       gradientUnits="userSpaceOnUse" />
    <radialGradient
       inkscape:collect="always"
       xlink:href="#linearGradient3203"
       id="radialGradient3201"
       cx="23.511303"
       cy="19.892504"
       fx="23.511303"
       fy="19.892504"
       r="18.390711"
       gradientUnits="userSpaceOnUse" />
    <radialGradient
       inkscape:collect="always"
       xlink:href="#linearGradient269"
       id="radialGradient3212"
       gradientUnits="userSpaceOnUse"
       gradientTransform="matrix(-4.9557361e-2,2.3082769,-3.2552968,-4.0219215e-2,32.06854,-23.889279)"
       cx="12.133117"
       cy="7.4347868"
       fx="12.133117"
       fy="7.4347868"
       r="15.5" />
  </defs>
  <sodipodi:namedview
     inkscape:window-y="29"
     inkscape:window-x="0"
     inkscape:window-height="918"
     inkscape:window-width="1272"
     inkscape:document-units="px"
     inkscape:grid-bbox="true"
     showgrid="true"
     inkscape:current-layer="layer5"
     inkscape:cy="-8.8184503"
     inkscape:cx="46.92909"
     inkscape:zoom="5.656854"
     inkscape:pageshadow="2"
     inkscape:pageopacity="0.0"
     borderopacity="1"
     bordercolor="#666"
     pagecolor="#ffffff"
     id="base"
     inkscape:showpageshadow="false" />
  <metadata
     id="metadata4">
    <rdf:RDF>
      <cc:Work
         rdf:about="">
        <dc:format>image/svg+xml</dc:format>
        <dc:type
           rdf:resource="http://purl.org/dc/dcmitype/StillImage" />
        <dc:title />
        <dc:subject>
          <rdf:Bag />
        </dc:subject>
        <cc:license
           rdf:resource="http://creativecommons.org/licenses/by-nc-sa/2.5/" />
        <dc:creator>
          <cc:Agent>
            <dc:title>Marco Tessarotto</dc:title>
          </cc:Agent>
        </dc:creator>
        <dc:source />
      </cc:Work>
      <cc:License
         rdf:about="http://creativecommons.org/licenses/by-nc-sa/2.5/">
        <cc:permits
           rdf:resource="http://web.resource.org/cc/Reproduction" />
        <cc:permits
           rdf:resource="http://web.resource.org/cc/Distribution" />
        <cc:requires
           rdf:resource="http://web.resource.org/cc/Notice" />
        <cc:requires
           rdf:resource="http://web.resource.org/cc/Attribution" />
        <cc:prohibits
           rdf:resource="http://web.resource.org/cc/CommercialUse" />
        <cc:permits
           rdf:resource="http://web.resource.org/cc/DerivativeWorks" />
        <cc:requires
           rdf:resource="http://web.resource.org/cc/ShareAlike" />
      </cc:License>
    </rdf:RDF>
  </metadata>
  <g
     inkscape:groupmode="layer"
     id="layer6"
     inkscape:label="Shadow">
    <path
       sodipodi:type="arc"
       style="opacity:0.41919191;fill:url(#radialGradient3185);fill-opacity:1;stroke:#000000;stroke-width:1.04200006;stroke-linecap:round;stroke-linejoin:round;stroke-miterlimit:4;stroke-dasharray:none;stroke-opacity:0"
       id="path2205"
       sodipodi:cx="25.375"
       sodipodi:cy="44.75"
       sodipodi:rx="15.375"
       sodipodi:ry="2.375"
       d="M 40.75,44.75 A 15.375,2.375 0 1 1 40.749997,44.748519"
       sodipodi:start="0"
       sodipodi:end="6.2825619"
       sodipodi:open="true"
       transform="matrix(1.4547318,0,0,1.9230325,-12.927908,-45.326953)" />
  </g>
  <g
     inkscape:groupmode="layer"
     id="layer1"
     inkscape:label="logo"
     style="display:inline" />
  <g
     inkscape:groupmode="layer"
     id="layer2"
     inkscape:label="logo2" />
  <g
     inkscape:groupmode="layer"
     id="layer5"
     inkscape:label="file"
     style="display:inline">
    <path
       style="fill:url(#radialGradient3199);fill-opacity:1;fill-rule:evenodd;stroke:#000000;stroke-width:0.68598264;stroke-linecap:butt;stroke-linejoin:round;stroke-miterlimit:4;stroke-dasharray:none;stroke-opacity:0.81420767"
       d="M 4.0790932,1.0536728 L 4.0790932,40.952269 L 43.39311,40.952269 L 43.39311,1.0536728 L 4.0790932,1.0536728 z "
       id="path2201" />
    <g
       id="g3777"
       transform="matrix(0.1631462,0,0,0.1631462,13.657725,26.08485)"
       style="opacity:0.12121211">
      <g
         id="g3848"
         transform="translate(12.258943,0)"
         style="opacity:1" />
    </g>
    <path
       sodipodi:type="star"
       style="opacity:0.28021978;fill:url(#radialGradient3201);fill-opacity:1"
       id="path3179"
       sodipodi:sides="20"
       sodipodi:cx="23.511303"
       sodipodi:cy="19.892504"
       sodipodi:r1="18.392426"
       sodipodi:r2="9.1962128"
       sodipodi:arg1="0.95613337"
       sodipodi:arg2="1.113213"
       inkscape:flatsided="false"
       inkscape:rounded="0"
       inkscape:randomized="0"
       d="M 34.117906,34.918524 L 27.574018,28.142635 L 28.955486,37.460719 L 24.825744,28.994293 L 23.260152,38.283214 L 21.948803,28.955005 L 17.589402,37.305499 L 19.22481,28.028615 L 12.498329,34.623278 L 16.920409,26.305806 L 8.4852824,30.499107 L 15.261171,23.955219 L 5.9430877,25.336687 L 14.409513,21.206945 L 5.1205922,19.641352 L 14.448802,18.330004 L 6.0983077,13.970602 L 15.375191,15.606011 L 8.7805285,8.8795295 L 17.098,13.30161 L 12.9047,4.8664832 L 19.448588,11.642372 L 18.06712,2.3242885 L 22.196862,10.790714 L 23.762454,1.501793 L 25.073803,10.830003 L 29.433204,2.4795085 L 27.797796,11.756392 L 34.524277,5.1617293 L 30.102196,13.479201 L 38.537323,9.2859009 L 31.761435,15.829788 L 41.079518,14.448321 L 32.613093,18.578063 L 41.902014,20.143655 L 32.573804,21.455004 L 40.924298,25.814405 L 31.647414,24.178996 L 38.242077,30.905478 L 29.924606,26.483397 L 34.117906,34.918524 z "
       transform="matrix(0.8558158,0,0,0.8558158,3.6147578,7.6786202)" />
    <g
       style="display:inline"
       id="g3301"
       transform="matrix(1.1067872,0,0,1.1067872,3.3165901,-74.581533)">
      <path
         id="path3239"
         d="M 14.973042,96.752996 C 14.973042,96.752996 13.961462,97.34178 15.693775,97.540464 C 17.792757,97.780104 18.865331,97.745592 21.177701,97.308501 C 21.177701,97.308501 21.786874,97.68958 22.636159,98.019625 C 17.450756,100.24124 10.900526,97.8909 14.973042,96.752996 L 14.973042,96.752996 z "
         clip-rule="evenodd"
         style="fill:#0074bd;fill-rule:evenodd" />
      <path
         id="path3241"
         d="M 14.339083,93.853422 C 14.339083,93.853422 13.204341,94.693564 14.937947,94.872738 C 17.180299,95.104233 18.950464,95.123216 22.015324,94.533375 C 22.015324,94.533375 22.438235,94.962969 23.104243,95.197744 C 16.83578,97.031306 9.8539692,95.341996 14.339083,93.853422 L 14.339083,93.853422 z "
         clip-rule="evenodd"
         style="fill:#0074bd;fill-rule:evenodd" />
      <path
         id="path3243"
         d="M 19.680454,88.934144 C 20.958803,90.405668 19.345254,91.72878 19.345254,91.72878 C 19.345254,91.72878 22.589283,90.054412 21.099773,87.956663 C 19.70811,86.001291 18.641158,85.029961 24.417397,81.680114 C 24.417456,81.680114 15.350136,83.944145 19.680454,88.934144 L 19.680454,88.934144 z "
         clip-rule="evenodd"
         style="fill:#ea2d2e;fill-rule:evenodd" />
      <path
         id="path3245"
         d="M 26.538464,98.898028 C 26.538464,98.898028 27.287321,99.515348 25.713674,99.992751 C 22.721352,100.8991 13.256897,101.17249 10.628137,100.02902 C 9.6838162,99.617708 11.455505,99.047612 12.012946,98.927207 C 12.59417,98.801469 12.926035,98.824437 12.926035,98.824437 C 11.875078,98.084369 6.1332362,100.27791 10.009821,100.90701 C 20.581416,102.62058 29.280251,100.13519 26.538464,98.898028 L 26.538464,98.898028 z "
         clip-rule="evenodd"
         style="fill:#0074bd;fill-rule:evenodd" />
      <path
         id="path3247"
         d="M 15.459877,90.848737 C 15.459877,90.848737 10.6463,91.992383 13.755335,92.408031 C 15.068486,92.583745 17.684654,92.543317 20.123346,92.338716 C 22.115806,92.171496 24.115358,91.813854 24.115358,91.813854 C 24.115358,91.813854 23.413316,92.115014 22.905034,92.461876 C 18.015931,93.747782 8.5728662,93.148919 11.291799,91.834244 C 13.590166,90.722355 15.459877,90.848737 15.459877,90.848737 L 15.459877,90.848737 z "
         clip-rule="evenodd"
         style="fill:#0074bd;fill-rule:evenodd" />
      <path
         id="path3249"
         d="M 24.095436,95.675265 C 29.065044,93.09355 26.767029,90.61226 25.163149,90.946467 C 24.770938,91.028319 24.594986,91.099215 24.594986,91.099215 C 24.594986,91.099215 24.741112,90.870299 25.019364,90.771806 C 28.192385,89.656811 30.632073,94.061481 23.996121,95.805924 C 23.996066,95.805924 24.072409,95.736786 24.095436,95.675265 L 24.095436,95.675265 z "
         clip-rule="evenodd"
         style="fill:#0074bd;fill-rule:evenodd" />
      <path
         id="path3251"
         d="M 21.099833,76.269897 C 21.099833,76.269897 23.851462,79.023109 18.489172,83.255578 C 14.18897,86.652066 17.508702,88.587927 18.487651,90.800867 C 15.977297,88.536133 14.136004,86.542207 15.371053,84.686733 C 17.184691,81.963462 22.209789,80.642694 21.099833,76.269897 L 21.099833,76.269897 z "
         clip-rule="evenodd"
         style="fill:#ea2d2e;fill-rule:evenodd" />
      <path
         id="path3253"
         d="M 15.948474,102.67337 C 20.71764,102.97828 28.043269,102.50369 28.21664,100.2468 C 28.21664,100.2468 27.883371,101.10236 24.274842,101.7812 C 20.203851,102.54763 15.181627,102.4584 12.204069,101.96675 C 12.204069,101.96675 12.814065,102.47164 15.948474,102.67337 L 15.948474,102.67337 z "
         clip-rule="evenodd"
         style="fill:#0074bd;fill-rule:evenodd" />
    </g>
    <text
       xml:space="preserve"
       style="font-size:7px;opacity:0.37912089"
       x="9.2284651"
       y="9.1829996"
       id="text3428"><tspan
         sodipodi:role="line"
         x="9.2284651"
         y="9.1829996"
         style="font-size:7px"
         id="tspan2231">.CLASS</tspan></text>
    <path
       style="opacity:0.49494946;fill:url(#radialGradient3212);fill-opacity:1;fill-rule:evenodd;stroke:#000000;stroke-width:0.68711728;stroke-linecap:butt;stroke-linejoin:round;stroke-miterlimit:4;stroke-dasharray:none;stroke-opacity:0;display:inline"
       d="M 6.0408586,38.95065 C 5.5812346,33.922871 10.239955,9.4355482 41.557868,5.342947 C 41.557868,1.0783591 41.665301,6.866715 41.665301,2.6021261 C 30.269993,2.6021261 16.738868,2.6021261 5.3435586,2.6021261 C 5.3435586,14.571365 6.0408586,26.981411 6.0408586,38.95065 z "
       id="path3201"
       sodipodi:nodetypes="ccccc" />
  </g>
</svg>
