<?xml version="1.0" encoding="UTF-8" standalone="no"?>
<!-- Created with Inkscape (http://www.inkscape.org/) -->
<svg
   xmlns:dc="http://purl.org/dc/elements/1.1/"
   xmlns:cc="http://creativecommons.org/ns#"
   xmlns:rdf="http://www.w3.org/1999/02/22-rdf-syntax-ns#"
   xmlns:svg="http://www.w3.org/2000/svg"
   xmlns="http://www.w3.org/2000/svg"
   xmlns:xlink="http://www.w3.org/1999/xlink"
   xmlns:sodipodi="http://sodipodi.sourceforge.net/DTD/sodipodi-0.dtd"
   xmlns:inkscape="http://www.inkscape.org/namespaces/inkscape"
   inkscape:export-ydpi="240.00000"
   inkscape:export-xdpi="240.00000"
   inkscape:export-filename="/home/jimmac/gfx/novell/pdes/trunk/docs/BIGmime-text.png"
   sodipodi:docname="application-x-cd-image.svg"
   sodipodi:docbase="/home/marco/Scrivania/UltimateGnome/scalable/mimetypes"
   inkscape:version="0.46"
   sodipodi:version="0.32"
   id="svg249"
   height="48.000000px"
   width="48.000000px"
   inkscape:output_extension="org.inkscape.output.svg.inkscape">
  <defs
     id="defs3">
    <linearGradient
       inkscape:collect="always"
       id="linearGradient3426">
      <stop
         style="stop-color:#ffffff;stop-opacity:1;"
         offset="0"
         id="stop3428" />
      <stop
         style="stop-color:#ffffff;stop-opacity:0;"
         offset="1"
         id="stop3430" />
    </linearGradient>
    <linearGradient
       inkscape:collect="always"
       id="linearGradient3290">
      <stop
         style="stop-color:#ffffff;stop-opacity:1;"
         offset="0"
         id="stop3292" />
      <stop
         style="stop-color:#ffffff;stop-opacity:0;"
         offset="1"
         id="stop3294" />
    </linearGradient>
    <linearGradient
       y2="14.2033"
       x2="35.391201"
       y1="32.4165"
       x1="12.2744"
       gradientUnits="userSpaceOnUse"
       id="linearGradient3205">
      <stop
         id="stop3207"
         style="stop-color:#96e9ff;stop-opacity:1;"
         offset="0" />
      <stop
         id="stop3209"
         style="stop-color:#0081d3;stop-opacity:1;"
         offset="0.5" />
      <stop
         id="stop3211"
         style="stop-color:#7cbaff;stop-opacity:1;"
         offset="1" />
    </linearGradient>
    <linearGradient
       id="linearGradient3187">
      <stop
         id="stop3189"
         offset="0"
         style="stop-color:#000000;stop-opacity:1;" />
      <stop
         id="stop3191"
         offset="1"
         style="stop-color:#ffffff;stop-opacity:0;" />
    </linearGradient>
    <linearGradient
       id="linearGradient269">
      <stop
         id="stop270"
         offset="0"
         style="stop-color:#ffffff;stop-opacity:1;" />
      <stop
         id="stop271"
         offset="1"
         style="stop-color:#ffffff;stop-opacity:0;" />
    </linearGradient>
    <linearGradient
       id="linearGradient259">
      <stop
         id="stop260"
         offset="0"
         style="stop-color:#ffffff;stop-opacity:1;" />
      <stop
         id="stop261"
         offset="1"
         style="stop-color:#e8e3dd;stop-opacity:1;" />
    </linearGradient>
    <radialGradient
       inkscape:collect="always"
       xlink:href="#linearGradient3187"
       id="radialGradient3185"
       cx="25.375"
       cy="44.75"
       fx="25.375"
       fy="44.75"
       r="15.896"
       gradientTransform="matrix(1,0,0,0.1821842,0,36.597257)"
       gradientUnits="userSpaceOnUse" />
    <radialGradient
       inkscape:collect="always"
       xlink:href="#linearGradient259"
       id="radialGradient3199"
       cx="27.651968"
       cy="-3.1861894"
       fx="27.651968"
       fy="-3.1861894"
       r="15.5"
       gradientTransform="matrix(-4.9557361e-2,2.3082769,-3.2552968,-4.0219215e-2,32.904193,-23.87063)"
       gradientUnits="userSpaceOnUse" />
    <linearGradient
       inkscape:collect="always"
       id="linearGradient23419">
      <stop
         style="stop-color:#000000;stop-opacity:1;"
         offset="0"
         id="stop23421" />
      <stop
         style="stop-color:#000000;stop-opacity:0;"
         offset="1"
         id="stop23423" />
    </linearGradient>
    <radialGradient
       inkscape:collect="always"
       xlink:href="#linearGradient269"
       id="radialGradient3435"
       gradientUnits="userSpaceOnUse"
       gradientTransform="matrix(-4.9557361e-2,2.3082769,-3.2552968,-4.0219215e-2,32.741463,-24.419606)"
       cx="12.028852"
       cy="7.6667676"
       fx="12.028852"
       fy="7.6667676"
       r="15.5" />
    <radialGradient
       inkscape:collect="always"
       xlink:href="#linearGradient23419"
       id="radialGradient3457"
       gradientUnits="userSpaceOnUse"
       gradientTransform="matrix(1,0,0,0.25,0,31.22703)"
       cx="23.334524"
       cy="41.63604"
       fx="23.334524"
       fy="41.63604"
       r="22.627417" />
    <linearGradient
       inkscape:collect="always"
       xlink:href="#linearGradient3426"
       id="linearGradient3466"
       gradientUnits="userSpaceOnUse"
       spreadMethod="reflect"
       x1="90.348267"
       y1="36.441792"
       x2="107.70921"
       y2="48.816158"
       gradientTransform="matrix(0.7459216,0,0,0.7459216,-43.482278,-7.0309646)" />
    <linearGradient
       inkscape:collect="always"
       xlink:href="#linearGradient3290"
       id="linearGradient3469"
       gradientUnits="userSpaceOnUse"
       gradientTransform="matrix(0.6689607,0.3299859,-0.3299859,0.6689607,-0.8803338,-48.106834)"
       x1="71.910507"
       y1="68.269913"
       x2="57.16671"
       y2="52.006454" />
    <linearGradient
       inkscape:collect="always"
       xlink:href="#linearGradient3205"
       id="linearGradient3474"
       gradientUnits="userSpaceOnUse"
       gradientTransform="matrix(0.3721588,-0.5059365,0.5059365,0.3721588,-42.989602,22.58703)"
       x1="42"
       y1="83.5"
       x2="90.5"
       y2="83.5" />
  </defs>
  <sodipodi:namedview
     inkscape:window-y="25"
     inkscape:window-x="0"
     inkscape:window-height="947"
     inkscape:window-width="1272"
     inkscape:document-units="px"
     inkscape:grid-bbox="true"
     showgrid="true"
     inkscape:current-layer="layer5"
     inkscape:cy="-15.715707"
     inkscape:cx="46.929085"
     inkscape:zoom="5.6568543"
     inkscape:pageshadow="2"
     inkscape:pageopacity="0.0"
     borderopacity="1"
     bordercolor="#666"
     pagecolor="#ffffff"
     id="base"
     inkscape:showpageshadow="false"
     showguides="true"
     inkscape:guide-bbox="true" />
  <metadata
     id="metadata4">
    <rdf:RDF>
      <cc:Work
         rdf:about="">
        <dc:format>image/svg+xml</dc:format>
        <dc:type
           rdf:resource="http://purl.org/dc/dcmitype/StillImage" />
        <dc:title />
        <dc:subject>
          <rdf:Bag />
        </dc:subject>
        <cc:license
           rdf:resource="http://creativecommons.org/licenses/by-nc-sa/2.5/" />
        <dc:creator>
          <cc:Agent>
            <dc:title>Marco Tessarotto</dc:title>
          </cc:Agent>
        </dc:creator>
        <dc:source />
      </cc:Work>
      <cc:License
         rdf:about="http://creativecommons.org/licenses/by-nc-sa/2.5/">
        <cc:permits
           rdf:resource="http://web.resource.org/cc/Reproduction" />
        <cc:permits
           rdf:resource="http://web.resource.org/cc/Distribution" />
        <cc:requires
           rdf:resource="http://web.resource.org/cc/Notice" />
        <cc:requires
           rdf:resource="http://web.resource.org/cc/Attribution" />
        <cc:prohibits
           rdf:resource="http://web.resource.org/cc/CommercialUse" />
        <cc:permits
           rdf:resource="http://web.resource.org/cc/DerivativeWorks" />
        <cc:requires
           rdf:resource="http://web.resource.org/cc/ShareAlike" />
      </cc:License>
    </rdf:RDF>
  </metadata>
  <g
     inkscape:groupmode="layer"
     id="layer6"
     inkscape:label="Shadow">
    <path
       sodipodi:type="arc"
       style="opacity:0.41919191;fill:url(#radialGradient3185);fill-opacity:1;stroke:#000000;stroke-width:1.04200006;stroke-linecap:round;stroke-linejoin:round;stroke-miterlimit:4;stroke-dasharray:none;stroke-opacity:0"
       id="path2205"
       sodipodi:cx="25.375"
       sodipodi:cy="44.75"
       sodipodi:rx="15.375"
       sodipodi:ry="2.375"
       d="M 40.75,44.75 A 15.375,2.375 0 1 1 40.749997,44.748519"
       sodipodi:start="0"
       sodipodi:end="6.2825619"
       sodipodi:open="true"
       transform="matrix(1.4547318,0,0,1.9230325,-12.927908,-45.326953)" />
  </g>
  <g
     inkscape:groupmode="layer"
     id="layer5"
     inkscape:label="file"
     style="display:inline">
    <path
       style="fill:url(#radialGradient3199);fill-opacity:1;fill-rule:evenodd;stroke:#000000;stroke-width:0.68711728;stroke-linecap:butt;stroke-linejoin:round;stroke-miterlimit:4;stroke-dasharray:none;stroke-opacity:0.81420767"
       d="M 4.2632624,1.0542401 L 4.2632624,40.951702 L 43.708559,40.951702 L 43.708559,1.0542401 L 4.2632624,1.0542401 z "
       id="path2201" />
    <path
       sodipodi:type="arc"
       style="opacity:0.25;color:#000000;fill:url(#radialGradient3457);fill-opacity:1;fill-rule:evenodd;stroke:none;stroke-width:2;stroke-linecap:butt;stroke-linejoin:miter;marker:none;marker-start:none;marker-mid:none;marker-end:none;stroke-miterlimit:4;stroke-dasharray:none;stroke-dashoffset:0;stroke-opacity:1;visibility:visible;display:inline;overflow:visible"
       id="path23417"
       sodipodi:cx="23.334524"
       sodipodi:cy="41.63604"
       sodipodi:rx="22.627417"
       sodipodi:ry="5.6568542"
       d="M 45.961941 41.63604 A 22.627417 5.6568542 0 1 1  0.70710754,41.63604 A 22.627417 5.6568542 0 1 1  45.961941 41.63604 z"
       inkscape:r_cx="true"
       inkscape:r_cy="true"
       transform="matrix(0.6707886,0,0,0.6790602,8.2579144,7.0872546)" />
    <path
       style="fill:#accde1;fill-opacity:1;stroke:none;stroke-width:0.773;stroke-miterlimit:4;stroke-dasharray:none;stroke-opacity:1"
       d="M 11.14315,10.751832 C 5.9586088,17.800031 7.4711431,27.72805 14.519341,32.912591 C 21.567539,38.097132 31.495561,36.584598 36.680104,29.536401 C 41.864639,22.488202 40.352112,12.560182 33.303913,7.3756421 C 26.255279,2.1975528 16.325633,3.7064321 11.14315,10.751832 z M 19.292442,16.746319 C 21.163619,14.20252 24.764456,13.655341 27.309422,15.524933 C 29.854232,17.396854 30.40273,20.997104 28.53081,23.541914 C 26.658887,26.086725 23.058638,26.635221 20.513828,24.7633 C 17.969016,22.891379 17.42052,19.291129 19.292442,16.746319 z "
       id="path2206" />
    <path
       style="opacity:0.72727272;fill:url(#linearGradient3474);fill-opacity:1;stroke:none;stroke-width:0.373;stroke-miterlimit:4;stroke-dasharray:none;stroke-opacity:1"
       d="M 11.650217,11.124697 C 6.6685009,17.897163 8.1198637,27.423678 14.892331,32.405396 C 21.664798,37.387114 31.191314,35.935749 36.173034,29.163283 C 41.154753,22.390816 39.703391,12.8643 32.930923,7.8825831 C 26.158035,2.907063 16.629958,4.3549162 11.650217,11.124697 z M 17.041183,15.090204 C 19.830673,11.297992 25.171461,10.486423 28.965408,13.273548 C 32.75913,16.064145 33.572669,21.404058 30.782069,25.197776 C 27.991469,28.991493 22.651557,29.805028 18.857839,27.014432 C 15.06412,24.223833 14.250584,18.883922 17.041183,15.090204 z "
       id="path2214" />
    <path
       style="fill:#ffffff;fill-opacity:0.17486339;stroke:#000000;stroke-width:0.50200522;stroke-miterlimit:4;stroke-dasharray:none;stroke-opacity:0.34426228"
       d="M 19.292442,16.746319 C 17.42052,19.291129 17.969016,22.891379 20.513828,24.7633 C 23.058638,26.635221 26.658887,26.086725 28.53081,23.541914 C 30.40273,20.997104 29.854232,17.396854 27.309422,15.524933 C 24.764456,13.655341 21.163619,14.20252 19.292442,16.746319 z M 21.35793,18.26566 C 22.396978,16.85311 24.376883,16.552253 25.790081,17.590422 C 27.203191,18.629884 27.504782,20.609462 26.465319,22.022574 C 25.425855,23.435688 23.446279,23.737274 22.033168,22.697812 C 20.620055,21.658347 20.318467,19.678772 21.35793,18.26566 z "
       id="path2222" />
    <path
       style="fill:none;fill-opacity:0.16393445;stroke:#000000;stroke-width:0.677;stroke-miterlimit:4;stroke-dasharray:none;stroke-opacity:0.69945353;display:inline"
       d="M 11.14315,10.751832 C 5.9586088,17.800031 7.4711431,27.728053 14.519341,32.912589 C 21.567539,38.097132 31.495561,36.584597 36.680104,29.536398 C 41.864639,22.4882 40.352112,12.560182 33.303913,7.3756421 C 26.255278,2.1975558 16.325633,3.7064321 11.14315,10.751832 z M 21.35793,18.265657 C 22.396978,16.853106 24.376883,16.552253 25.790081,17.590419 C 27.203194,18.629883 27.504782,20.609462 26.465319,22.022574 C 25.425859,23.435685 23.446279,23.737276 22.033168,22.697812 C 20.620055,21.658348 20.318467,19.678769 21.35793,18.265657 z "
       id="path3248" />
    <path
       style="opacity:0.37373735;fill:url(#linearGradient3469);fill-opacity:1;stroke:none;stroke-width:0.63999999;stroke-miterlimit:4;stroke-dasharray:none;stroke-opacity:1;display:inline"
       d="M 30.327518,7.2887452 C 22.926179,3.6378036 13.968314,6.6774968 10.317371,14.078837 C 8.6413129,17.476611 8.3711438,21.202684 9.2898634,24.592494 C 12.527483,22.440004 16.073898,20.794044 19.782091,19.7093 C 19.851252,19.430624 19.927036,19.152002 20.059112,18.884254 C 21.053749,16.867879 23.505727,16.035847 25.5221,17.030486 C 26.152146,17.341275 26.661643,17.787676 27.040663,18.325392 C 30.837189,17.977235 34.718076,18.209572 38.542961,19.034834 C 37.991001,14.147156 35.064199,9.6252626 30.327518,7.2887452 z "
       id="path3285"
       inkscape:transform-center-y="-6.5092152"
       inkscape:transform-center-x="-1.254751" />
    <path
       style="opacity:0.25252524;fill:url(#linearGradient3466);fill-opacity:1;stroke:none;stroke-width:0.63999999;stroke-miterlimit:4;stroke-dasharray:none;stroke-opacity:0.55191255;display:inline"
       d="M 23.025714,4.3227252 C 18.464155,4.5774276 14.052735,6.7932616 11.137589,10.756299 C 6.51,17.047343 7.2254463,25.623941 12.442952,31.082663 L 21.627111,22.341394 C 20.57457,21.249186 20.417402,19.52642 21.347391,18.262135 C 22.183041,17.126097 23.645292,16.722923 24.913828,17.143253 L 28.946467,5.1152669 C 27.023481,4.4721274 25.005276,4.2121931 23.025714,4.3227252 z M 35.449975,9.2877659 L 26.265811,18.029035 C 27.256,19.123615 27.385131,20.801894 26.475602,22.038363 C 25.566076,23.274833 23.922613,23.660012 22.582823,23.040695 L 18.526875,35.068681 C 24.961523,37.392854 32.426777,35.333647 36.685407,29.544199 C 41.290787,23.283336 40.599355,14.750033 35.449975,9.2877659 z "
       id="path3403" />
    <path
       style="fill:url(#radialGradient3435);fill-opacity:1;fill-rule:evenodd;stroke:#000000;stroke-width:0.68711728;stroke-linecap:butt;stroke-linejoin:round;stroke-miterlimit:4;stroke-dasharray:none;stroke-opacity:0;display:inline;opacity:0.73232323"
       d="M 6.7137842,38.420322 C 6.2541592,33.392543 10.162879,11.905218 41.480792,7.8126151 C 41.480792,3.5480281 41.713225,6.3363831 41.713225,2.0717961 C 30.317916,2.0717961 17.411792,2.0717961 6.0164822,2.0717961 C 6.0164822,14.041035 6.7137842,26.451083 6.7137842,38.420322 z "
       id="path3201"
       sodipodi:nodetypes="ccccc" />
  </g>
</svg>
