<?xml version="1.0" encoding="UTF-8" standalone="no"?>
<!-- Created with Inkscape (http://www.inkscape.org/) -->
<svg
   xmlns:dc="http://purl.org/dc/elements/1.1/"
   xmlns:cc="http://creativecommons.org/ns#"
   xmlns:rdf="http://www.w3.org/1999/02/22-rdf-syntax-ns#"
   xmlns:svg="http://www.w3.org/2000/svg"
   xmlns="http://www.w3.org/2000/svg"
   xmlns:xlink="http://www.w3.org/1999/xlink"
   xmlns:sodipodi="http://sodipodi.sourceforge.net/DTD/sodipodi-0.dtd"
   xmlns:inkscape="http://www.inkscape.org/namespaces/inkscape"
   inkscape:export-ydpi="240.00000"
   inkscape:export-xdpi="240.00000"
   inkscape:export-filename="/home/jimmac/gfx/novell/pdes/trunk/docs/BIGmime-text.png"
   sodipodi:docname="application-x-bittorrent.svg"
   sodipodi:docbase="/home/marco/Scrivania/UltimateGnome/scalable/mimetypes"
   inkscape:version="0.46"
   sodipodi:version="0.32"
   id="svg249"
   height="48.000000px"
   width="48.000000px"
   inkscape:output_extension="org.inkscape.output.svg.inkscape">
  <defs
     id="defs3">
    <linearGradient
       id="linearGradient3187">
      <stop
         id="stop3189"
         offset="0"
         style="stop-color:#000000;stop-opacity:1;" />
      <stop
         id="stop3191"
         offset="1"
         style="stop-color:#ffffff;stop-opacity:0;" />
    </linearGradient>
    <linearGradient
       id="linearGradient269">
      <stop
         id="stop270"
         offset="0"
         style="stop-color:#ffffff;stop-opacity:1;" />
      <stop
         id="stop271"
         offset="1"
         style="stop-color:#ffffff;stop-opacity:0;" />
    </linearGradient>
    <linearGradient
       id="linearGradient259">
      <stop
         id="stop260"
         offset="0"
         style="stop-color:#ffffff;stop-opacity:1;" />
      <stop
         id="stop261"
         offset="1"
         style="stop-color:#e8e3dd;stop-opacity:1;" />
    </linearGradient>
    <radialGradient
       inkscape:collect="always"
       xlink:href="#linearGradient3187"
       id="radialGradient3185"
       cx="25.375"
       cy="44.75"
       fx="25.375"
       fy="44.75"
       r="15.896"
       gradientTransform="matrix(1,0,0,0.1821842,0,36.597257)"
       gradientUnits="userSpaceOnUse" />
    <radialGradient
       inkscape:collect="always"
       xlink:href="#linearGradient259"
       id="radialGradient3199"
       cx="27.651968"
       cy="-3.1861894"
       fx="27.651968"
       fy="-3.1861894"
       r="15.5"
       gradientTransform="matrix(-4.9392429e-2,2.3083425,-3.2444628,-4.0220357e-2,32.624704,-23.871905)"
       gradientUnits="userSpaceOnUse" />
    <linearGradient
       gradientUnits="userSpaceOnUse"
       y2="2.8335528"
       x2="16.970564"
       y1="-36.499264"
       x1="16.705399"
       id="linearGradient3824"
       xlink:href="#linearGradient3818"
       inkscape:collect="always" />
    <linearGradient
       gradientUnits="userSpaceOnUse"
       y2="41.746826"
       x2="26.656986"
       y1="1.4375"
       x1="26.656986"
       id="linearGradient3772"
       xlink:href="#linearGradient3774"
       inkscape:collect="always" />
    <radialGradient
       gradientUnits="userSpaceOnUse"
       gradientTransform="matrix(1.4938524,1.0057551e-8,0,1.034127,-12.272947,-0.7176617)"
       r="19.6875"
       fy="39.661915"
       fx="24.321119"
       cy="21.029135"
       cx="24.85145"
       id="radialGradient3749"
       xlink:href="#linearGradient3653"
       inkscape:collect="always" />
    <radialGradient
       gradientTransform="matrix(1.1358455,2.547104e-2,-2.2419103e-2,0.9997487,-2.6864018,-0.580923)"
       gradientUnits="userSpaceOnUse"
       r="18.793449"
       fy="35.654804"
       fx="23"
       cy="19.53895"
       cx="23"
       id="radialGradient3726"
       xlink:href="#linearGradient3728"
       inkscape:collect="always" />
    <filter
       id="filter3616"
       height="2.3694718"
       y="-0.6847359"
       width="1.2651945"
       x="-0.13259723"
       inkscape:collect="always">
      <feGaussianBlur
         id="feGaussianBlur3618"
         stdDeviation="2.0103976"
         inkscape:collect="always" />
    </filter>
    <radialGradient
       gradientUnits="userSpaceOnUse"
       gradientTransform="matrix(1,0,0,0.195124,0,39.338316)"
       r="18.1705"
       fy="48.875"
       fx="25.75"
       cy="48.875"
       cx="25.75"
       id="radialGradient3542"
       xlink:href="#linearGradient3591"
       inkscape:collect="always" />
    <linearGradient
       id="linearGradient3591">
      <stop
         style="stop-color:#000000;stop-opacity:1;"
         offset="0"
         id="stop3593" />
      <stop
         style="stop-color:#000000;stop-opacity:0;"
         offset="1"
         id="stop3595" />
    </linearGradient>
    <linearGradient
       id="linearGradient3653">
      <stop
         id="stop3655"
         offset="0"
         style="stop-color:#8fd9e5;stop-opacity:1;" />
      <stop
         id="stop3657"
         offset="1"
         style="stop-color:#e6f3fa;stop-opacity:1;" />
    </linearGradient>
    <linearGradient
       id="linearGradient3728">
      <stop
         id="stop3737"
         offset="0"
         style="stop-color:#81e4ff;stop-opacity:1;" />
      <stop
         style="stop-color:#20b1fc;stop-opacity:1;"
         offset="0.5"
         id="stop3741" />
      <stop
         id="stop3739"
         offset="1"
         style="stop-color:#003e83;stop-opacity:1;" />
    </linearGradient>
    <linearGradient
       id="linearGradient3774">
      <stop
         style="stop-color:#ffffff;stop-opacity:1;"
         offset="0"
         id="stop3776" />
      <stop
         style="stop-color:#ffffff;stop-opacity:0.70103091;"
         offset="1"
         id="stop3778" />
    </linearGradient>
    <linearGradient
       id="linearGradient3818"
       inkscape:collect="always">
      <stop
         id="stop3820"
         offset="0"
         style="stop-color:#ffffff;stop-opacity:1;" />
      <stop
         id="stop3822"
         offset="1"
         style="stop-color:#ffffff;stop-opacity:0;" />
    </linearGradient>
    <radialGradient
       inkscape:collect="always"
       xlink:href="#linearGradient269"
       id="radialGradient3321"
       gradientUnits="userSpaceOnUse"
       gradientTransform="matrix(-4.9557361e-2,2.3082769,-3.2552968,-4.0219215e-2,32.068539,-24.040668)"
       cx="12.133117"
       cy="7.4347868"
       fx="12.133117"
       fy="7.4347868"
       r="15.5" />
  </defs>
  <sodipodi:namedview
     inkscape:window-y="32"
     inkscape:window-x="0"
     inkscape:window-height="918"
     inkscape:window-width="1272"
     inkscape:document-units="px"
     inkscape:grid-bbox="true"
     showgrid="true"
     inkscape:current-layer="layer5"
     inkscape:cy="28.534452"
     inkscape:cx="-0.71223192"
     inkscape:zoom="7.9999996"
     inkscape:pageshadow="2"
     inkscape:pageopacity="0.0"
     borderopacity="1"
     bordercolor="#666"
     pagecolor="#ffffff"
     id="base"
     inkscape:showpageshadow="false" />
  <metadata
     id="metadata4">
    <rdf:RDF>
      <cc:Work
         rdf:about="">
        <dc:format>image/svg+xml</dc:format>
        <dc:type
           rdf:resource="http://purl.org/dc/dcmitype/StillImage" />
        <dc:title />
        <dc:subject>
          <rdf:Bag />
        </dc:subject>
        <cc:license
           rdf:resource="http://creativecommons.org/licenses/by-nc-sa/2.5/" />
        <dc:creator>
          <cc:Agent>
            <dc:title>Marco Tessarotto</dc:title>
          </cc:Agent>
        </dc:creator>
        <dc:source />
      </cc:Work>
      <cc:License
         rdf:about="http://creativecommons.org/licenses/by-nc-sa/2.5/">
        <cc:permits
           rdf:resource="http://web.resource.org/cc/Reproduction" />
        <cc:permits
           rdf:resource="http://web.resource.org/cc/Distribution" />
        <cc:requires
           rdf:resource="http://web.resource.org/cc/Notice" />
        <cc:requires
           rdf:resource="http://web.resource.org/cc/Attribution" />
        <cc:prohibits
           rdf:resource="http://web.resource.org/cc/CommercialUse" />
        <cc:permits
           rdf:resource="http://web.resource.org/cc/DerivativeWorks" />
        <cc:requires
           rdf:resource="http://web.resource.org/cc/ShareAlike" />
      </cc:License>
    </rdf:RDF>
  </metadata>
  <g
     inkscape:groupmode="layer"
     id="layer6"
     inkscape:label="Shadow">
    <path
       sodipodi:type="arc"
       style="opacity:0.41919191;fill:url(#radialGradient3185);fill-opacity:1;stroke:#000000;stroke-width:1.04200006;stroke-linecap:round;stroke-linejoin:round;stroke-miterlimit:4;stroke-dasharray:none;stroke-opacity:0"
       id="path2205"
       sodipodi:cx="25.375"
       sodipodi:cy="44.75"
       sodipodi:rx="15.375"
       sodipodi:ry="2.375"
       d="M 40.75,44.75 A 15.375,2.375 0 1 1 40.749997,44.748519"
       sodipodi:start="0"
       sodipodi:end="6.2825619"
       sodipodi:open="true"
       transform="matrix(1.4547318,0,0,1.9230325,-12.927908,-45.326953)" />
  </g>
  <g
     inkscape:groupmode="layer"
     id="layer1"
     inkscape:label="logo"
     style="display:inline" />
  <g
     inkscape:groupmode="layer"
     id="layer2"
     inkscape:label="logo2" />
  <g
     inkscape:groupmode="layer"
     id="layer5"
     inkscape:label="file"
     style="display:inline">
    <path
       style="fill:url(#radialGradient3199);fill-opacity:1;fill-rule:evenodd;stroke:#000000;stroke-width:0.68598264;stroke-linecap:butt;stroke-linejoin:round;stroke-miterlimit:4;stroke-dasharray:none;stroke-opacity:0.81420767"
       d="M 4.0790932,1.0536728 L 4.0790932,40.952269 L 43.39311,40.952269 L 43.39311,1.0536728 L 4.0790932,1.0536728 z "
       id="path2201" />
    <text
       xml:space="preserve"
       style="font-size:25.26156235px;font-style:normal;font-weight:normal;line-height:125%;opacity:0.25757576;fill:#000000;fill-opacity:1;stroke:none;stroke-width:1px;stroke-linecap:butt;stroke-linejoin:miter;stroke-opacity:1;font-family:Bitstream Vera Sans"
       x="9.3433199"
       y="37.39875"
       id="text3428"
       sodipodi:linespacing="125%"><tspan
         sodipodi:role="line"
         x="9.3433199"
         y="37.39875"
         style="font-size:6px;font-style:normal;font-variant:normal;font-weight:normal;font-stretch:normal;text-align:start;line-height:125%;writing-mode:lr-tb;text-anchor:start;fill:#000000;fill-opacity:1;font-family:FreeSans"
         id="tspan2231">TORRENT</tspan></text>
    <g
       id="g3777"
       transform="matrix(0.1631462,0,0,0.1631462,13.657725,26.08485)"
       style="opacity:0.12121211">
      <g
         id="g3848"
         transform="translate(12.258943,0)"
         style="opacity:1" />
    </g>
    <g
       id="g2326"
       transform="matrix(0.6147279,0,0,0.6147279,9.1215315,3.276608)">
      <g
         style="display:inline"
         inkscape:label="shadow"
         id="g2328" />
      <g
         style="display:inline"
         inkscape:label="Layer 1"
         id="g2330">
        <g
           transform="matrix(2.7092713,0,0,2.6264441,-33.116996,-39.665799)"
           id="g3783">
          <g
             id="g3785"
             inkscape:label="shadow"
             style="display:inline" />
          <g
             id="g3787"
             inkscape:label="Layer 1" />
        </g>
        <path
           transform="matrix(0.9025216,0,0,1.006323,0.6350676,-7.5942212)"
           sodipodi:open="true"
           sodipodi:end="6.2825619"
           sodipodi:start="0"
           d="M 43.5,48.875 A 17.75,3.125 0 1 1 43.499997,48.873052"
           sodipodi:ry="3.125"
           sodipodi:rx="17.75"
           sodipodi:cy="48.875"
           sodipodi:cx="25.75"
           id="path3534"
           style="opacity:0.46464646;fill:url(#radialGradient3542);fill-opacity:1;stroke:#000000;stroke-width:0.84100002;stroke-linecap:round;stroke-linejoin:round;stroke-miterlimit:4;stroke-dasharray:none;stroke-opacity:0;filter:url(#filter3616)"
           sodipodi:type="arc" />
        <g
           style="opacity:0.5;fill:none;fill-opacity:1;stroke:#ffffff;stroke-opacity:1"
           inkscape:r_cy="true"
           inkscape:r_cx="true"
           transform="matrix(0.190868,0.16126,0.16126,-0.190868,52.344729,41.890766)"
           id="g2424" />
      </g>
      <g
         style="display:inline"
         inkscape:label="arrows"
         id="layer3">
        <path
           transform="matrix(1.107881,0,0,1.107881,-1.481263,-0.6176966)"
           d="M 41.53895 19.53895 A 18.53895 18.53895 0 1 1  4.46105,19.53895 A 18.53895 18.53895 0 1 1  41.53895 19.53895 z"
           sodipodi:ry="18.53895"
           sodipodi:rx="18.53895"
           sodipodi:cy="19.53895"
           sodipodi:cx="23"
           id="path2424"
           style="opacity:1;fill:url(#radialGradient3726);fill-opacity:1;stroke:none;stroke-width:0.50907993;stroke-linecap:square;stroke-linejoin:round;stroke-miterlimit:4;stroke-dasharray:none;stroke-dashoffset:0;stroke-opacity:1"
           sodipodi:type="arc" />
        <path
           id="path2426"
           d="M 26.0702,0.66975946 C 26.091466,0.80153245 26.153125,0.91975845 25.97645,0.91975945 C 25.823739,0.91975945 23.175385,3.5447624 22.66395,3.5447594 C 21.68826,3.5447594 21.799478,6.0961537 22.0077,6.1385097 C 23.785225,6.5000987 23.132701,7.7278077 23.1327,9.5447597 C 23.1327,9.8341861 27.951411,12.505211 26.53895,11.04476 C 24.95885,9.4109757 27.663949,10.330752 27.66395,9.9822601 C 27.66395,8.2555647 31.0702,9.5525607 31.0702,8.3885097 C 31.0702,7.8905057 32.1952,7.8552637 32.1952,7.3572597 C 32.1952,6.2563257 32.81926,3.1072554 32.1952,3.1072594 C 30.991057,3.1072594 31.169815,2.3242364 31.0702,1.8260094 C 29.488065,1.2463514 27.806835,0.84362245 26.0702,0.66975946 z M 18.72645,1.4197594 C 18.511814,1.4410554 18.305,1.4887644 18.10145,1.5447594 C 17.751187,1.6541094 17.389696,1.7819254 17.16395,2.0760094 C 16.818615,2.4591144 16.746969,3.0044044 16.97645,3.4510094 C 17.270629,4.0515224 17.910651,4.5285784 18.60145,4.6385094 C 19.496302,3.9492704 20.053776,2.9500314 20.8827,2.2010094 C 21.013904,2.0721044 20.673976,1.9306944 20.5702,1.8260094 C 20.036668,1.4697264 19.370359,1.3558714 18.72645,1.4197594 z M 13.1952,4.5760094 C 12.51174,4.5972154 11.828956,5.0332887 11.72645,5.7010097 C 11.754824,6.0930397 11.692556,6.5656967 11.97645,6.8885097 C 12.444909,7.2167297 13.071994,6.9296667 13.5077,6.6697597 C 13.838187,6.4760377 14.171592,6.3514157 14.53895,6.2322597 C 15.082794,6.0778047 15.284688,5.3611197 14.9452,4.9510097 C 14.637786,4.4295934 14.016256,4.5764174 13.5077,4.5760094 C 13.412399,4.5618514 13.292837,4.5729804 13.1952,4.5760094 z M 18.60145,6.2322597 C 18.501238,7.7491507 18.513807,9.4250707 19.6952,10.60726 C 20.83131,12.111696 22.349494,10.3547 21.47645,9.0760097 C 20.719964,8.0382067 19.880224,6.7752417 18.60145,6.2322597 z M 8.6952004,7.7010097 C 8.6093674,7.6986327 8.5314664,7.7280797 8.4452004,7.7322597 C 7.0989984,9.2978697 5.9931624,11.060168 5.1639504,12.98226 C 5.1724054,12.986082 5.1866384,12.978482 5.1952004,12.98226 C 7.6378154,13.811794 8.2843614,16.414239 7.8202004,18.60726 C 6.9853054,20.601347 8.5499354,22.224604 10.3827,22.95101 C 12.638419,24.076919 14.998142,25.952657 17.5702,25.91976 C 17.441287,24.527102 15.565564,23.1768 14.0702,22.66976 C 11.922259,21.29418 15.008406,19.187418 16.4452,20.76351 C 17.428753,22.52643 19.063668,21.615432 19.35145,19.95101 C 19.210323,18.308031 22.828219,17.797636 21.3202,16.20101 C 21.496561,15.148386 24.67604,14.475577 22.7577,12.88851 C 21.246371,12.104976 19.456247,12.744091 18.16395,11.48226 C 17.710995,12.857991 16.971749,14.995911 14.8827,14.60726 C 12.728506,14.706867 12.376459,11.717923 14.72645,11.79476 C 16.44762,11.174653 16.593024,9.3101727 16.3202,7.8260097 C 14.613552,8.2409497 12.740597,10.891621 11.0702,8.9510097 C 10.471515,8.1236927 9.5939234,7.7258987 8.6952004,7.7010097 z M 33.6952,8.3260097 C 33.502043,8.3349627 33.299154,8.4452227 33.28895,8.6385097 C 33.209881,8.9235757 32.847331,9.0311127 32.5702,9.0447597 C 32.298343,9.0800297 32.027708,9.0902297 31.7577,9.1385097 C 31.41528,9.4725347 31.504613,9.9855681 31.3202,10.38851 C 31.235735,10.624413 31.31125,10.935272 31.60145,10.98226 C 32.119127,11.119821 32.670761,10.996062 33.1952,11.07601 C 33.487857,11.056694 33.596726,10.759291 33.7577,10.57601 C 33.948321,10.391451 34.222261,10.268174 34.3202,10.01351 C 34.505254,9.6644697 34.596972,9.2452047 34.5077,8.8572597 C 34.408801,8.5968397 34.173786,8.3914447 33.8827,8.3572597 C 33.825303,8.3346747 33.759586,8.3230257 33.6952,8.3260097 z M 40.0702,8.3260097 C 38.859579,8.6473407 39.493211,10.153212 38.8202,10.82601 C 38.413159,11.153385 37.353979,11.045323 37.4452,12.07601 C 37.925735,12.741897 38.374477,12.714853 39.28895,12.63851 C 39.773631,12.604691 40.83275,11.673767 40.91395,12.73226 C 40.583572,13.504787 39.288982,12.771514 38.8827,13.63851 C 38.528762,14.547595 37.106799,14.207151 36.5702,15.04476 C 36.080739,15.399158 35.306059,15.353209 34.8202,15.79476 C 33.96218,16.350758 34.627135,17.524368 33.78895,18.10726 C 33.073539,18.862065 31.96897,18.43338 31.0702,18.66976 C 30.453825,18.940559 29.833534,19.49411 29.91395,20.20101 C 29.900187,21.118279 30.969051,21.199182 31.6327,20.85726 C 32.667614,20.682323 33.889987,20.84099 34.66395,20.01351 C 35.358019,19.464663 35.836295,18.379827 36.8827,18.48226 C 37.809272,18.410322 38.840536,18.179879 39.6952,18.63851 C 40.498536,19.229593 40.392123,20.284396 40.8202,21.07601 C 40.846251,21.949902 42.209677,21.498307 41.53895,20.79476 C 41.075552,20.059826 40.987559,18.474957 42.22645,18.48226 C 43.305337,18.722869 43.630826,19.943326 43.53895,20.85726 C 43.48633,21.478863 43.299033,22.301154 44.0077,22.66976 C 44.17333,22.785758 44.324767,22.841852 44.47645,22.85726 C 44.525373,22.279352 44.53895,21.697755 44.53895,21.10726 C 44.53895,16.274107 42.867193,11.83543 40.0702,8.3260097 z M 34.8827,11.76351 C 34.809412,11.766892 34.732198,11.761288 34.66395,11.79476 C 34.5588,11.876917 34.501646,12.026615 34.4452,12.13851 C 34.455797,12.728904 34.042297,13.211627 34.0077,13.79476 C 34.277813,14.212263 34.237611,14.709347 34.35145,15.16976 C 34.538846,15.372255 34.922298,15.31739 35.03895,15.07601 C 35.268009,14.873682 35.657799,14.875706 35.8827,15.07601 C 36.152129,15.179342 36.429309,14.802425 36.22645,14.60726 C 36.270661,14.283175 36.718435,14.335192 36.8202,14.04476 C 36.916614,13.769424 36.825314,13.449315 36.6952,13.20101 C 36.53944,12.949187 36.151513,13.003891 35.9452,13.16976 C 35.690412,13.276949 35.341249,13.025793 35.4452,12.76351 C 35.5266,12.529239 35.646307,12.225916 35.4452,12.01351 C 35.313684,11.8477 35.102565,11.753364 34.8827,11.76351 z M 36.91395,20.95101 C 35.404316,20.970451 33.2577,21.906639 33.2577,22.32601 C 33.257701,22.799277 32.1952,22.355554 32.1952,23.70101 C 32.195199,25.399564 32.1952,25.60523 32.1952,27.10726 C 32.1952,27.702277 35.60145,29.649465 35.60145,28.20101 C 35.601448,27.322356 36.951485,27.692336 37.53895,28.76351 C 38.308421,30.166552 35.507704,30.703568 37.41395,31.79476 C 38.192792,32.24059 37.85145,34.76523 37.85145,35.20101 C 37.851451,35.29473 38.171881,35.47825 38.5702,35.60726 C 41.749487,32.41437 43.876173,28.166203 44.41395,23.45101 C 43.480229,21.298267 40.1327,24.857505 40.1327,21.26351 C 40.132702,20.682047 38.533473,21.708604 38.10145,21.29476 C 37.839465,21.0438 37.417161,20.94453 36.91395,20.95101 z M 20.72645,22.63851 C 20.388068,22.616793 20.028993,22.683865 19.72645,22.82601 C 19.794974,23.238051 20.319462,23.311837 20.66395,23.41976 C 20.964641,23.329517 20.951899,22.956235 21.3202,22.95101 C 21.593469,22.671542 20.908131,22.663992 20.72645,22.63851 z M 19.72645,24.98226 C 17.339924,25.970229 16.729055,28.75274 14.47645,29.85726 C 13.488897,31.98822 16.893429,31.87362 17.9452,32.66976 C 19.393973,34.37086 17.940349,36.6576 18.5077,38.63851 C 18.584192,39.13452 18.637189,40.16979 18.85145,41.01351 C 18.861204,41.01604 18.87294,41.011 18.8827,41.01351 C 19.477516,41.16667 20.080864,41.28863 20.6952,41.38851 C 21.376151,39.87271 23.294272,39.2192 23.5077,37.51351 C 23.272492,35.42358 25.400483,35.07701 26.53895,33.82601 C 26.857954,32.2953 28.477398,30.797362 27.53895,29.16976 C 25.872288,27.617304 23.846741,25.957108 21.35145,26.01351 C 20.647535,25.995046 19.966325,25.620914 19.72645,24.98226 z "
           style="opacity:1;fill:url(#radialGradient3749);fill-opacity:1;stroke:#000000;stroke-width:0.20900001;stroke-linecap:square;stroke-linejoin:round;stroke-miterlimit:4;stroke-dasharray:none;stroke-dashoffset:0;stroke-opacity:1;display:inline" />
        <path
           transform="matrix(1.107881,0,0,1.107881,-1.481263,-0.6176968)"
           d="M 41.53895 19.53895 A 18.53895 18.53895 0 1 1  4.46105,19.53895 A 18.53895 18.53895 0 1 1  41.53895 19.53895 z"
           sodipodi:ry="18.53895"
           sodipodi:rx="18.53895"
           sodipodi:cy="19.53895"
           sodipodi:cx="23"
           id="path3717"
           style="opacity:1;fill:none;fill-opacity:1;stroke:#000000;stroke-width:0.50907993;stroke-linecap:square;stroke-linejoin:round;stroke-miterlimit:4;stroke-dasharray:none;stroke-dashoffset:0;stroke-opacity:1;display:inline"
           sodipodi:type="arc" />
        <path
           d="M 26.4375,1.4375 C 26.383238,1.475571 26.362441,1.4793315 26.3125,1.5 C 26.184082,1.5531475 26.055311,1.5937495 25.96875,1.59375 C 26.208184,1.59375 26.219425,1.5472262 26.25,1.53125 C 26.242283,1.5373349 26.259097,1.5550824 26.25,1.5625 C 26.177222,1.6218412 26.042392,1.6918746 25.90625,1.8125 C 25.633967,2.0537507 25.283895,2.3861403 24.90625,2.71875 C 24.528605,3.0513597 24.128887,3.3910485 23.78125,3.65625 C 23.607431,3.7888507 23.442066,3.9051218 23.28125,4 C 23.120434,4.0948782 23.011855,4.2187521 22.65625,4.21875 C 22.709531,4.21875 22.777893,4.1351591 22.71875,4.25 C 22.659607,4.3648409 22.591095,4.6050598 22.5625,4.875 C 22.533905,5.1449402 22.543377,5.4333626 22.5625,5.625 C 22.565601,5.6560763 22.558729,5.6623124 22.5625,5.6875 C 22.865317,5.7991838 23.198446,5.879842 23.40625,6.09375 C 23.722592,6.4193847 23.867236,6.8361099 23.90625,7.21875 C 23.974803,7.8911083 23.844965,8.5432674 23.8125,9.25 C 23.91494,9.3240577 24.046019,9.3921491 24.21875,9.5 C 24.554839,9.70985 24.989178,9.9671442 25.40625,10.1875 C 25.409646,10.149061 25.366404,10.134527 25.375,10.09375 C 25.444839,9.7624353 25.731253,9.5186497 25.9375,9.4375 C 26.143747,9.3563503 26.309255,9.3496934 26.46875,9.34375 C 26.738737,9.3336893 26.964407,9.3611696 27.15625,9.375 C 27.328569,8.99994 27.586562,8.670815 27.90625,8.53125 C 28.389694,8.3201945 28.899249,8.3006126 29.34375,8.28125 C 29.788251,8.2618874 30.176816,8.2616224 30.375,8.21875 C 30.474092,8.1973138 30.508595,8.1535708 30.46875,8.1875 C 30.542427,7.9179777 30.660845,7.6478891 30.8125,7.53125 C 31.007064,7.381609 31.203125,7.3166557 31.34375,7.25 C 31.451194,7.199072 31.488746,7.1498474 31.53125,7.125 C 31.554617,6.4530104 31.681093,5.5669777 31.75,4.75 C 31.786567,4.3164457 31.799971,3.9178636 31.78125,3.6875 C 31.581402,3.6559814 31.356484,3.6515177 31.1875,3.5625 C 30.902406,3.4123177 30.703431,3.1767749 30.59375,2.9375 C 30.470825,2.6693316 30.515509,2.5542056 30.5,2.375 C 29.196139,1.9199349 27.845497,1.6128223 26.4375,1.4375 z M 18.78125,2.09375 C 18.623363,2.1094154 18.466414,2.1365628 18.28125,2.1875 C 17.947877,2.2915772 17.757249,2.3778859 17.6875,2.46875 C 17.678158,2.4901036 17.667728,2.5109643 17.65625,2.53125 C 17.494971,2.7101681 17.462514,2.9304116 17.5625,3.125 C 17.572915,3.1247613 17.583335,3.1247613 17.59375,3.125 C 17.742292,3.428221 18.106186,3.6395675 18.46875,3.78125 C 18.904488,3.3683408 19.365325,2.8531859 19.84375,2.3125 C 19.518259,2.1801108 19.173601,2.0548213 18.78125,2.09375 z M 14.21875,5.21875 C 14.079152,5.2032802 13.820127,5.2502568 13.5,5.25 C 13.468787,5.2521504 13.437463,5.2521504 13.40625,5.25 C 13.444328,5.2556569 13.350885,5.2459008 13.21875,5.25 C 12.810864,5.2626558 12.446598,5.5184274 12.40625,5.78125 C 12.425158,6.0478025 12.45046,6.2452635 12.46875,6.3125 C 12.502685,6.3177596 12.505769,6.3331187 12.59375,6.3125 C 12.747717,6.2764173 12.967148,6.1753027 13.15625,6.0625 C 13.549281,5.8321161 13.92759,5.6873491 14.3125,5.5625 C 14.322915,5.5622613 14.333335,5.5622613 14.34375,5.5625 C 14.396965,5.5473867 14.41221,5.3821997 14.40625,5.375 C 14.382866,5.3455274 14.361962,5.3141704 14.34375,5.28125 C 14.306381,5.217867 14.358348,5.2342198 14.21875,5.21875 z M 19.3125,7.59375 C 19.35783,8.5498314 19.503019,9.4713282 20.15625,10.125 C 20.178413,10.14446 20.19929,10.165337 20.21875,10.1875 C 20.420292,10.454382 20.559946,10.493942 20.625,10.5 C 20.690054,10.506058 20.754692,10.463756 20.84375,10.375 C 21.021866,10.197488 21.156964,9.8047036 20.90625,9.4375 C 20.409223,8.7556418 19.881857,8.1240316 19.3125,7.59375 z M 8.78125,8.40625 C 7.6972461,9.7077054 6.7876822,11.167624 6.0625,12.71875 C 7.0650928,13.2654 7.836845,14.070817 8.21875,15.03125 C 8.688497,16.212593 8.7254273,17.537277 8.46875,18.75 C 8.4606141,18.781965 8.45017,18.813297 8.4375,18.84375 C 8.1041172,19.640011 8.2442668,20.248104 8.65625,20.84375 C 9.0682332,21.439396 9.8085752,21.988915 10.625,22.3125 C 10.645822,22.311545 10.666678,22.311545 10.6875,22.3125 C 12.575153,23.254694 14.412287,24.530735 16.21875,25 C 16.070201,24.814334 16.084083,24.647674 15.875,24.46875 C 15.279256,23.958939 14.499206,23.534749 13.84375,23.3125 C 13.787708,23.28838 13.735155,23.256848 13.6875,23.21875 C 13.02149,22.792225 12.639283,22.170553 12.65625,21.53125 C 12.673217,20.891947 13.037017,20.371464 13.5,20.03125 C 13.962983,19.691036 14.538385,19.496443 15.15625,19.5 C 15.774115,19.503557 16.445464,19.74151 16.9375,20.28125 C 16.973436,20.319187 17.004892,20.361129 17.03125,20.40625 C 17.2258,20.754961 17.429124,20.907262 17.5625,20.96875 C 17.695876,21.030238 17.773428,21.05041 17.90625,21 C 18.171893,20.899181 18.545737,20.451664 18.65625,19.8125 L 18.6875,19.8125 C 18.706375,19.239979 18.983958,18.743758 19.3125,18.40625 C 19.678614,18.030145 20.10871,17.750736 20.4375,17.5 C 20.76629,17.249264 20.973116,17.00165 21,16.9375 C 21.013442,16.905425 21.007255,16.93325 21,16.90625 C 20.992745,16.87925 20.948045,16.799759 20.8125,16.65625 C 20.658028,16.500078 20.588234,16.279063 20.625,16.0625 C 20.722312,15.481687 21.137176,15.173294 21.46875,14.90625 C 21.800324,14.639206 22.136468,14.424647 22.375,14.21875 C 22.613532,14.012853 22.686147,13.856938 22.6875,13.84375 C 22.68875,13.831571 22.648005,13.705871 22.34375,13.4375 C 21.768158,13.16649 21.07726,13.126905 20.28125,13.03125 C 19.693597,12.960633 19.055581,12.773546 18.4375,12.4375 C 18.233515,12.993598 18.068756,13.55377 17.65625,14.09375 C 17.08248,14.844827 16.105869,15.373135 14.90625,15.21875 L 14.90625,15.28125 C 14.849731,15.283863 14.805161,15.250854 14.75,15.25 C 13.445438,15.229798 12.527805,14.280691 12.4375,13.25 C 12.390439,12.712864 12.554517,12.139339 12.96875,11.71875 C 13.33297,11.348941 13.879513,11.156593 14.5,11.125 C 15.161302,10.886745 15.453651,10.512215 15.625,9.9375 C 15.710654,9.6502124 15.623,9.2792689 15.625,8.9375 C 15.113692,9.2309527 14.655819,9.5273694 14,9.875 C 13.503389,10.138239 12.936963,10.33809 12.3125,10.3125 C 11.688037,10.28691 11.040028,9.9660806 10.53125,9.375 C 10.520498,9.3649237 10.510076,9.3545015 10.5,9.34375 C 10.054779,8.7285035 9.4417034,8.4562471 8.78125,8.40625 z M 33.75,9.03125 C 33.611125,9.2417491 33.456157,9.4481414 33.28125,9.53125 C 33.056731,9.6379321 32.851288,9.6728326 32.65625,9.6875 C 32.635501,9.6890604 32.614121,9.7177468 32.59375,9.71875 C 32.435703,9.7375617 32.317223,9.7369229 32.1875,9.75 C 32.175254,9.7853752 32.171555,9.7662471 32.15625,9.84375 C 32.135916,9.9467185 32.069704,10.148851 32.03125,10.3125 C 32.288755,10.332377 32.618293,10.338897 33.0625,10.375 C 33.097721,10.321873 33.132248,10.25907 33.25,10.125 C 33.259342,10.103646 33.269772,10.082786 33.28125,10.0625 C 33.597413,9.7563878 33.716017,9.6758485 33.6875,9.75 C 33.696842,9.7286464 33.707272,9.7077857 33.71875,9.6875 C 33.83081,9.4761356 33.868403,9.2428562 33.84375,9.0625 C 33.828845,9.0461872 33.792974,9.0326269 33.78125,9.03125 C 33.770835,9.0314887 33.760415,9.0314887 33.75,9.03125 z M 39.9375,9.375 C 39.92324,9.4336657 39.917956,9.4551731 39.90625,9.53125 C 39.83918,9.9671499 39.873337,10.68935 39.28125,11.28125 C 39.271908,11.302604 39.261478,11.323464 39.25,11.34375 C 38.792829,11.711442 38.393161,11.699429 38.21875,11.78125 C 38.18521,11.796985 38.203093,11.802241 38.1875,11.8125 C 38.235911,11.846901 38.280995,11.954092 38.34375,11.96875 C 38.475834,11.999601 38.764076,11.975458 39.21875,11.9375 C 39.140411,11.942966 39.280576,11.913963 39.4375,11.84375 C 39.594424,11.773537 39.792285,11.699533 40.03125,11.625 C 40.270215,11.550467 40.616702,11.458425 41,11.65625 C 41.383298,11.854075 41.564219,12.2713 41.59375,12.65625 C 41.603118,12.774316 41.581578,12.892787 41.53125,13 C 41.370007,13.377035 41.018791,13.626694 40.71875,13.71875 C 40.418709,13.810806 40.170453,13.802009 39.96875,13.8125 C 39.767047,13.822991 39.588732,13.854579 39.53125,13.875 C 39.502509,13.885211 39.502737,13.873339 39.5,13.875 C 39.49677,13.883297 39.503366,13.898048 39.5,13.90625 L 39.46875,13.90625 C 39.313858,14.267212 39.055809,14.53118 38.78125,14.6875 C 38.495053,14.850446 38.208844,14.931478 37.96875,15 C 37.488563,15.137044 37.223073,15.253162 37.125,15.40625 C 37.084615,15.477637 37.031684,15.541154 36.96875,15.59375 C 36.574257,15.879384 36.176397,15.9472 35.875,16.03125 C 35.573603,16.1153 35.381969,16.189716 35.28125,16.28125 C 35.251777,16.304634 35.22042,16.325538 35.1875,16.34375 C 35.09861,16.401351 35.095758,16.43936 35.0625,16.53125 C 35.029242,16.62314 34.991491,16.783572 34.96875,17 C 34.946009,17.216428 34.916234,17.479269 34.8125,17.78125 C 34.723585,18.040091 34.505927,18.310268 34.25,18.53125 L 34.28125,18.5625 C 34.252515,18.592817 34.217246,18.597249 34.1875,18.625 C 34.176156,18.635583 34.167729,18.646029 34.15625,18.65625 C 33.650391,19.106657 32.999176,19.232529 32.5,19.25 C 31.986735,19.267964 31.598936,19.250808 31.3125,19.3125 C 31.097672,19.41362 30.876403,19.539164 30.75,19.6875 C 30.615475,19.845368 30.578058,19.987062 30.59375,20.125 C 30.594705,20.145822 30.594705,20.166678 30.59375,20.1875 C 30.592298,20.284273 30.59304,20.280393 30.59375,20.28125 C 30.59446,20.282107 30.619251,20.325702 30.6875,20.34375 C 30.823998,20.379845 31.132644,20.342664 31.3125,20.25 C 31.369795,20.209274 31.433042,20.17765 31.5,20.15625 C 32.09437,20.05578 32.664734,20.07413 33.125,20 C 33.585266,19.92587 33.906466,19.798306 34.15625,19.53125 C 34.17571,19.509087 34.196587,19.48821 34.21875,19.46875 C 34.454097,19.282645 34.757215,18.887059 35.15625,18.5 C 35.530811,18.136681 36.111137,17.794956 36.8125,17.8125 L 36.8125,17.78125 C 36.847815,17.778508 36.901045,17.784745 36.9375,17.78125 C 37.782032,17.700293 38.907254,17.444859 40,18.03125 C 40.031965,18.039386 40.063297,18.04983 40.09375,18.0625 C 40.402773,18.289875 40.597351,18.5889 40.75,18.875 C 40.828172,18.659754 40.851597,18.430002 41.03125,18.25 C 41.320781,17.959907 41.763688,17.778568 42.21875,17.78125 C 42.271875,17.785526 42.324317,17.796014 42.375,17.8125 C 42.951729,17.94112 43.35668,18.301689 43.65625,18.71875 C 43.238858,15.23418 41.922019,12.065398 39.9375,9.375 z M 34.875,13.25 C 34.779292,13.492342 34.700461,13.647858 34.6875,13.78125 C 34.781734,14.014623 34.879814,14.242131 34.90625,14.4375 C 35.151642,14.312375 35.395888,14.239972 35.65625,14.28125 C 35.717872,14.144371 35.755857,13.98611 35.84375,13.90625 C 35.93644,13.822031 35.994441,13.786052 36.0625,13.75 C 35.711099,13.843484 35.369329,13.814155 35.125,13.625 C 35.014018,13.53908 34.947924,13.400285 34.875,13.25 z M 36.0625,14.4375 C 36.083602,14.448944 36.104287,14.45605 36.125,14.46875 L 36.125,14.4375 C 36.098076,14.427174 36.088615,14.441836 36.0625,14.4375 z M 36.90625,21.625 C 36.2882,21.632959 35.412464,21.829901 34.75,22.09375 C 34.418768,22.225674 34.135033,22.391247 33.96875,22.5 C 33.885608,22.554376 33.847117,22.590157 33.84375,22.59375 C 33.809743,22.695649 33.782203,22.796838 33.71875,22.875 C 33.594183,23.028445 33.47665,23.109331 33.375,23.15625 C 33.1717,23.250088 33.061128,23.285711 33,23.3125 C 32.938872,23.339289 32.949698,23.324769 32.9375,23.34375 C 32.925302,23.362731 32.875,23.440889 32.875,23.6875 C 32.874997,25.323721 32.875,25.609876 32.875,26.96875 C 32.927396,27.024426 33.006435,27.097058 33.125,27.1875 C 33.393624,27.392408 33.782386,27.614366 34.15625,27.78125 C 34.517769,27.942624 34.870037,28.029884 35,28.03125 C 35.056122,27.689008 35.196014,27.317796 35.5,27.15625 C 35.858941,26.9655 36.215995,27.004331 36.53125,27.09375 C 37.16176,27.272588 37.741279,27.737829 38.125,28.4375 C 38.410056,28.957269 38.37724,29.534339 38.1875,29.9375 C 37.99776,30.340661 37.724076,30.615438 37.5625,30.8125 C 37.400924,31.009562 37.414122,31.101412 37.40625,31 C 37.398378,30.898588 37.356851,30.96245 37.75,31.1875 C 38.204174,31.447482 38.369451,31.889056 38.46875,32.28125 C 38.568049,32.673444 38.587256,33.068237 38.59375,33.46875 C 38.600063,33.858146 38.582259,34.253797 38.5625,34.5625 C 41.297502,31.603996 43.121323,27.825863 43.65625,23.625 C 43.570693,23.49737 43.519502,23.386722 43.3125,23.375 C 43.029406,23.358969 42.544222,23.470262 42.03125,23.5625 C 41.518278,23.654738 40.911427,23.749514 40.3125,23.375 C 39.848851,23.085077 39.625045,22.528769 39.53125,21.84375 C 39.501773,21.851787 39.499426,21.834812 39.46875,21.84375 C 39.244158,21.909189 38.978555,21.991245 38.6875,22.03125 C 38.396445,22.071255 37.986474,22.127514 37.625,21.78125 C 37.562493,21.721374 37.314887,21.619738 36.90625,21.625 z M 20.8125,22.46875 C 20.807756,22.473602 20.79163,22.518908 20.78125,22.53125 C 20.800647,22.517111 20.82281,22.513762 20.84375,22.5 L 20.8125,22.46875 z M 19.625,25.84375 C 18.830712,26.291679 18.222768,26.959408 17.59375,27.78125 C 16.933833,28.643464 16.19478,29.597757 15.09375,30.25 C 15.021639,30.461939 14.980842,30.610283 15.03125,30.6875 C 15.095836,30.786434 15.314879,30.978739 15.6875,31.125 C 16.060121,31.271261 16.530618,31.391459 17,31.53125 C 17.469382,31.671041 17.933371,31.814363 18.34375,32.125 C 18.388871,32.151358 18.430813,32.182814 18.46875,32.21875 C 19.363932,33.269841 19.335113,34.515745 19.21875,35.59375 C 19.102387,36.671755 18.934144,37.662017 19.15625,38.4375 C 19.16892,38.467953 19.179364,38.499285 19.1875,38.53125 C 19.262511,39.017657 19.317641,39.77386 19.4375,40.4375 C 19.749483,40.510074 20.086751,40.535812 20.40625,40.59375 C 20.828745,39.955673 21.364076,39.460516 21.8125,39.03125 C 22.380736,38.487291 22.735702,38.02001 22.8125,37.40625 L 22.84375,37.40625 C 22.780322,36.223488 23.401451,35.353816 24.09375,34.8125 C 24.807969,34.254045 25.548775,33.854868 26,33.375 C 26.004188,33.360987 26.026943,33.357688 26.03125,33.34375 C 26.269678,32.572104 26.621717,31.845068 26.875,31.25 C 27.159032,30.582689 27.261311,30.119639 26.96875,29.5625 C 25.349171,28.064344 23.485942,26.639079 21.34375,26.6875 C 21.333335,26.687739 21.322915,26.687739 21.3125,26.6875 C 20.65297,26.6702 20.087531,26.326372 19.625,25.84375 z M 24,1.28125 C 23.168241,1.28125 22.367137,1.4004555 21.5625,1.5 C 21.634471,1.5582232 21.697516,1.6286535 21.78125,1.8125 C 21.893872,2.0597735 21.794373,2.5528863 21.59375,2.75 C 21.583636,2.7607152 21.573215,2.7711362 21.5625,2.78125 C 20.858207,3.4176551 20.306486,4.4362624 19.25,5.25 C 19.08254,5.3826193 18.867297,5.4392623 18.65625,5.40625 C 17.698409,5.2538229 16.885465,4.6631516 16.46875,3.8125 C 16.306793,3.4973051 16.292829,3.1506813 16.3125,2.8125 C 15.656552,3.0897433 15.054929,3.4687427 14.4375,3.8125 C 14.493733,3.8149186 14.500736,3.8056555 14.5625,3.8125 C 14.953342,3.8558121 15.362182,4.1362372 15.65625,4.53125 L 15.71875,4.46875 C 15.750055,4.5065674 15.754215,4.5542507 15.78125,4.59375 C 16.370797,5.4551111 15.984225,6.7027208 14.9375,7 C 14.589847,7.1127646 14.322755,7.191194 14.0625,7.34375 C 13.812364,7.4929611 13.493591,7.6562963 13.09375,7.75 C 12.693909,7.8437037 12.170386,7.8476832 11.71875,7.53125 C 11.672397,7.4945486 11.630451,7.4526025 11.59375,7.40625 C 11.176488,6.9317855 11.151002,6.4727108 11.15625,6.125 C 10.735907,6.4875121 10.294575,6.822525 9.90625,7.21875 C 10.634276,7.4414284 11.305383,7.8258226 11.8125,8.5 L 11.84375,8.46875 C 12.158973,8.8349658 12.335655,8.896954 12.5625,8.90625 C 12.789345,8.915546 13.112557,8.8303724 13.5,8.625 C 14.274886,8.2142552 15.157972,7.3744513 16.3125,7.09375 C 16.520504,7.0431338 16.740199,7.0818984 16.91832,7.2006454 C 17.09644,7.3193923 17.216721,7.5072784 17.25,7.71875 C 17.401093,8.5406935 17.456595,9.4724417 17.1875,10.375 C 16.918405,11.277558 16.240591,12.14058 15.15625,12.53125 C 15.065256,12.559049 14.969877,12.569647 14.875,12.5625 C 14.448928,12.548569 14.282401,12.684893 14.1875,12.78125 C 14.092599,12.877607 14.047903,12.989641 14.0625,13.15625 C 14.091695,13.489468 14.309067,13.908392 15.03125,13.875 C 15.083197,13.869672 15.135553,13.869672 15.1875,13.875 C 15.967859,14.02018 16.327134,13.762635 16.71875,13.25 C 17.110366,12.737365 17.400371,11.932247 17.625,11.25 C 17.708495,11.003113 17.911828,10.815643 18.16467,10.752432 C 18.417513,10.689221 18.685146,10.75895 18.875,10.9375 C 19.163104,11.218812 19.503624,11.371274 19.875,11.46875 C 19.70291,11.34776 19.48779,11.330319 19.34375,11.15625 C 19.317438,11.124452 19.275196,11.127115 19.25,11.09375 L 19.28125,11.0625 C 17.929671,9.6342298 17.930337,7.7149743 18.03125,6.1875 C 18.047127,5.9399198 18.181962,5.7153727 18.393035,5.5850038 C 18.604109,5.454635 18.865261,5.4346012 19.09375,5.53125 C 20.654685,6.1940403 21.540064,7.6394381 22.28125,8.65625 C 22.926401,9.6011576 22.738018,10.764273 22.0625,11.4375 C 21.885651,11.613749 21.591415,11.625657 21.34375,11.71875 C 21.956088,11.787548 22.599495,11.865301 23.28125,12.21875 C 23.336879,12.24367 23.389334,12.275142 23.4375,12.3125 C 24.017598,12.792422 24.376926,13.403473 24.3125,14.03125 C 24.248074,14.659027 23.844735,15.04618 23.5,15.34375 C 23.155265,15.64132 22.811982,15.861571 22.5625,16.0625 C 22.417773,16.179061 22.414437,16.170884 22.375,16.21875 C 22.439404,16.337537 22.55841,16.430981 22.59375,16.5625 C 22.682555,16.892992 22.617484,17.250916 22.5,17.53125 C 22.265031,18.091918 21.872044,18.403779 21.5,18.6875 C 21.127956,18.971221 20.748035,19.214799 20.53125,19.4375 C 20.314465,19.660201 20.27013,19.776798 20.28125,19.90625 C 20.288931,19.968514 20.288931,20.031486 20.28125,20.09375 C 20.099882,21.142716 19.531736,22.030868 18.625,22.375 C 18.171632,22.547066 17.60377,22.533219 17.125,22.3125 C 16.697989,22.115642 16.381915,21.739776 16.09375,21.28125 L 16.0625,21.3125 C 15.852454,21.082089 15.621858,21.001601 15.34375,21 C 15.065642,20.998399 14.735969,21.099566 14.53125,21.25 C 14.326531,21.400434 14.282838,21.533931 14.28125,21.59375 C 14.279662,21.653569 14.264134,21.780132 14.65625,22.03125 L 14.65625,22.0625 C 15.459385,22.35761 16.290311,22.79893 17,23.40625 C 17.575763,23.898962 17.995239,24.521889 18.25,25.21875 C 18.657345,24.871215 19.071553,24.510364 19.625,24.28125 C 19.815492,24.204958 20.028633,24.208312 20.21663,24.29056 C 20.404627,24.372809 20.551747,24.527069 20.625,24.71875 C 20.731712,25.002862 21.116672,25.269558 21.5625,25.28125 C 24.375113,25.24609 26.568985,27.059173 28.25,28.625 C 28.300685,28.680994 28.342808,28.744178 28.375,28.8125 C 28.990195,29.879463 28.769397,30.990565 28.40625,31.84375 C 28.043103,32.696935 27.585632,33.439149 27.46875,34 C 27.437097,34.128896 27.372485,34.247352 27.28125,34.34375 C 26.575872,35.118852 25.708624,35.536842 25.15625,35.96875 C 24.603876,36.400658 24.349121,36.652223 24.4375,37.4375 C 24.445181,37.499764 24.445181,37.562736 24.4375,37.625 C 24.299214,38.730171 23.609087,39.476238 23,40.0625 C 22.767519,40.286269 22.67099,40.485175 22.46875,40.6875 C 22.980446,40.72402 23.473772,40.78125 24,40.78125 C 29.182698,40.781249 33.880104,38.789397 37.40625,35.53125 C 37.342293,35.434618 37.249997,35.430986 37.25,35.21875 C 37.25,35.00985 37.293292,34.826605 37.3125,34.53125 C 37.331708,34.235895 37.349217,33.868435 37.34375,33.53125 C 37.338283,33.194065 37.303074,32.865872 37.25,32.65625 C 37.196926,32.446628 37.122132,32.413443 37.21875,32.46875 C 36.648532,32.142341 36.202284,31.71802 36.15625,31.125 C 36.110216,30.53198 36.418249,30.189659 36.625,29.9375 C 36.831751,29.685341 37.011093,29.484231 37.0625,29.375 C 37.113907,29.265769 37.150795,29.317246 37.0625,29.15625 C 36.895387,28.85154 36.590229,28.678663 36.40625,28.59375 C 36.344457,28.804471 36.322932,29.036788 36.15625,29.1875 C 35.88446,29.43325 35.554168,29.489879 35.28125,29.5 C 34.735414,29.520243 34.265325,29.341079 33.78125,29.125 C 33.297175,28.908921 32.813776,28.662025 32.4375,28.375 C 32.249362,28.231487 32.083319,28.074331 31.9375,27.90625 C 31.791681,27.738169 31.593749,27.564644 31.59375,27.125 C 31.593751,25.622978 31.593747,25.4173 31.59375,23.71875 C 31.59375,23.28161 31.708494,22.901475 31.90625,22.59375 C 32.104006,22.286025 32.38045,22.093478 32.59375,22 C 32.749444,21.931768 32.794268,21.920675 32.84375,21.90625 C 32.892605,21.834803 32.921748,21.706399 32.96875,21.65625 C 33.027031,21.594067 33.095318,21.549465 33.15625,21.5 C 32.718783,21.546402 32.261019,21.570313 31.9375,21.625 L 31.9375,21.59375 C 31.486689,21.780298 31.008724,21.884526 30.5,21.75 C 30.206783,21.672462 29.917326,21.527621 29.6875,21.25 C 29.478567,20.997618 29.390654,20.656025 29.375,20.3125 L 29.34375,20.3125 C 29.341222,20.290279 29.345427,20.272063 29.34375,20.25 C 29.343717,20.239684 29.343595,20.229063 29.34375,20.21875 L 29.375,20.21875 C 29.346497,19.666757 29.511903,19.134006 29.8125,18.78125 C 30.132861,18.405301 30.540009,18.174634 30.9375,18 C 30.977174,17.9754 31.019015,17.95448 31.0625,17.9375 C 31.696621,17.770723 32.248279,17.858028 32.65625,17.84375 C 33.064221,17.829472 33.233673,17.77583 33.40625,17.59375 C 33.444611,17.55832 33.486496,17.526906 33.53125,17.5 C 33.602959,17.450132 33.595134,17.430693 33.625,17.34375 C 33.654866,17.256807 33.695685,17.094514 33.71875,16.875 C 33.741815,16.655486 33.760739,16.3782 33.875,16.0625 C 33.910196,15.965255 34.03512,15.880481 34.09375,15.78125 C 34.053762,15.747114 34.00594,15.758936 33.96875,15.71875 C 33.877515,15.622352 33.812903,15.503896 33.78125,15.375 C 33.626509,14.749156 33.631978,14.374443 33.53125,14.21875 C 33.457141,14.085502 33.424498,13.933165 33.4375,13.78125 C 33.46474,13.322125 33.616037,12.976917 33.71875,12.71875 C 33.821463,12.460583 33.877024,12.269036 33.875,12.15625 C 33.869066,12.038381 33.890456,11.920736 33.9375,11.8125 C 33.954256,11.779284 34.110777,11.593388 34.21875,11.4375 C 34.057986,11.610698 33.806038,11.819424 33.4375,11.84375 C 33.375236,11.851431 33.312264,11.851431 33.25,11.84375 C 32.933393,11.795485 32.373566,11.919855 31.65625,11.75 C 31.628213,11.743361 31.622274,11.75758 31.59375,11.75 L 31.59375,11.71875 C 31.22681,11.629779 30.898626,11.360114 30.78125,11.0625 C 30.656181,10.745379 30.678622,10.442873 30.78125,10.15625 C 30.79071,10.134952 30.801138,10.114097 30.8125,10.09375 C 30.831459,10.052324 30.864455,9.8695586 30.90625,9.65625 C 30.898138,9.6580623 30.883056,9.6545072 30.875,9.65625 C 30.419633,9.7547578 29.998512,9.7323685 29.59375,9.75 C 29.188988,9.7676315 28.822574,9.8160312 28.6875,9.875 C 28.552426,9.9339688 28.625,9.8200674 28.625,10 C 28.625,10.269424 28.42024,10.575285 28.25,10.6875 C 28.07976,10.799715 27.937937,10.828612 27.84375,10.84375 C 27.709198,10.865376 27.626848,10.847431 27.53125,10.84375 C 27.61079,10.957696 27.733796,11.061059 27.75,11.375 C 27.758102,11.531971 27.700431,11.766587 27.5625,11.9375 C 27.424569,12.108413 27.249535,12.186179 27.125,12.21875 C 26.87593,12.283892 26.742606,12.273024 26.625,12.25 C 26.154577,12.157905 25.724314,11.928478 25.1875,11.65625 C 24.650686,11.384022 24.078726,11.064551 23.625,10.78125 C 23.398137,10.6396 23.224035,10.497566 23.0625,10.375 C 22.981733,10.313717 22.890969,10.266321 22.8125,10.1875 C 22.773265,10.148089 22.739277,10.108265 22.6875,10.03125 C 22.635723,9.9542348 22.531248,9.8371278 22.53125,9.5625 C 22.531251,8.5623651 22.694012,7.7766129 22.65625,7.40625 C 22.637369,7.2210686 22.608074,7.1719128 22.5625,7.125 C 22.516926,7.0780872 22.383724,6.9779512 22.03125,6.90625 C 21.653645,6.8294384 21.562152,6.6087073 21.5,6.5 C 21.437848,6.3912927 21.395896,6.3232343 21.375,6.25 C 21.333207,6.1035313 21.327729,5.9651167 21.3125,5.8125 C 21.282042,5.5072667 21.272295,5.1295438 21.3125,4.75 C 21.352705,4.3704562 21.429184,4.0052223 21.625,3.625 C 21.820816,3.2447777 22.266125,2.7812488 22.84375,2.78125 C 22.580184,2.7812484 22.672304,2.8270891 22.75,2.78125 C 22.827696,2.7354109 22.946517,2.6435696 23.09375,2.53125 C 23.388216,2.3066108 23.758164,2.0105901 24.125,1.6875 C 24.263277,1.5657132 24.367515,1.4622582 24.5,1.34375 C 24.344314,1.3272266 24.150095,1.28125 24,1.28125 z M 33.40625,3.875 C 33.414651,4.2027873 33.406112,4.537379 33.375,4.90625 C 33.293934,5.8673928 33.156249,6.9692079 33.15625,7.375 C 33.156251,7.7877811 32.861756,8.1231938 32.65625,8.28125 C 32.633005,8.2991278 32.616309,8.2966467 32.59375,8.3125 C 32.610918,8.3105382 32.639695,8.3146477 32.65625,8.3125 C 32.677075,8.3116494 32.697925,8.3116494 32.71875,8.3125 C 32.775021,8.3097289 32.835737,8.2850575 32.84375,8.28125 C 32.851763,8.2774425 32.753148,8.3134878 32.71875,8.4375 L 32.8125,8.46875 C 32.885802,8.2023794 32.979013,7.9355083 33.15625,7.8125 C 33.377037,7.6592668 33.614333,7.6043824 33.84375,7.59375 C 33.95622,7.5885369 34.053881,7.6020049 34.15625,7.625 C 34.166535,7.6262078 34.177297,7.6235932 34.1875,7.625 C 34.238978,7.6379919 34.293534,7.6364903 34.34375,7.65625 L 34.34375,7.6875 C 34.840618,7.8162146 35.23465,8.1419012 35.40625,8.59375 C 35.42016,8.6344648 35.430614,8.6762794 35.4375,8.71875 C 35.574274,9.3131137 35.424878,9.84194 35.1875,10.3125 L 35.21875,10.3125 C 35.209374,10.336881 35.197496,10.320748 35.1875,10.34375 C 35.182208,10.355928 35.19295,10.3632 35.1875,10.375 L 35.15625,10.375 C 34.923706,10.852879 34.582663,11.039125 34.5,11.09375 C 34.498016,11.095061 34.501663,11.123804 34.5,11.125 C 34.803558,10.976123 35.021588,11.031696 35.03125,11.03125 C 35.467252,11.01113 35.865086,11.201255 36.15625,11.53125 L 36.1875,11.5 C 36.20579,11.519317 36.202288,11.542154 36.21875,11.5625 C 36.405176,11.792909 36.430525,12.078572 36.4375,12.3125 C 36.462274,12.310871 36.474599,12.281774 36.5,12.28125 C 36.658542,12.277982 36.821419,12.451826 37,12.53125 C 36.926233,12.419344 36.88313,12.290035 36.875,12.15625 C 36.840827,11.770134 36.896403,11.391216 37.09375,11.09375 C 37.291097,10.796284 37.587459,10.605573 37.8125,10.5 C 38.221597,10.308082 38.473598,10.251649 38.46875,10.28125 C 38.518137,10.216539 38.576285,9.9341334 38.65625,9.40625 C 38.6976,9.133282 38.756279,8.8030151 38.9375,8.46875 C 38.959862,8.4275029 39.035312,8.4156164 39.0625,8.375 C 37.496469,6.5170957 35.551319,5.0505076 33.40625,3.875 z M 35.8125,12.46875 L 35.84375,12.53125 C 35.872808,12.513849 35.907711,12.514954 35.9375,12.5 C 35.892827,12.503185 35.870204,12.444474 35.8125,12.46875 z M 37.59375,12.96875 C 37.690363,13.166105 37.756054,13.390253 37.78125,13.65625 C 37.989173,13.595732 38.169562,13.514547 38.25,13.46875 C 38.306734,13.436448 38.301628,13.424479 38.3125,13.40625 C 38.280287,13.400101 38.251608,13.413925 38.21875,13.40625 C 37.984853,13.351619 37.801876,13.119892 37.59375,12.96875 z M 5.5625,14 C 4.7259427,16.191069 4.25,18.544734 4.25,21.03125 C 4.25,29.884501 10.079113,37.321219 18.09375,39.84375 C 18.053617,39.505951 17.962844,39.057263 17.9375,38.875 C 17.935103,38.857764 17.939864,38.79658 17.9375,38.78125 C 17.625119,37.584809 17.865706,36.454613 17.96875,35.5 C 18.069855,34.563346 18.027562,33.885179 17.5625,33.28125 C 17.429649,33.201935 17.168327,33.052779 16.78125,32.9375 C 16.34951,32.80892 15.837284,32.693722 15.34375,32.5 C 14.850216,32.306278 14.345112,32.0599 14,31.53125 C 13.654888,31.0026 13.652392,30.245142 13.96875,29.5625 C 14.037251,29.40198 14.158531,29.269675 14.3125,29.1875 C 15.235165,28.735089 15.886691,27.902137 16.625,26.9375 C 16.713872,26.821384 16.844732,26.712367 16.9375,26.59375 C 14.379045,26.300809 12.205464,24.660264 10.28125,23.6875 C 10.259858,23.679021 10.240087,23.664939 10.21875,23.65625 C 9.2141113,23.247142 8.2756547,22.614285 7.65625,21.71875 C 7.0462198,20.836769 6.8073855,19.648574 7.25,18.46875 C 7.454463,17.502724 7.4031724,16.45049 7.0625,15.59375 C 6.7837237,14.89267 6.2678662,14.371532 5.5625,14 z M 38.5,19.15625 C 38.095085,19.16542 37.629333,19.210842 37.125,19.25 C 37.083403,19.253406 37.041597,19.253406 37,19.25 C 36.748895,19.22542 36.61137,19.302913 36.34375,19.5625 C 36.096157,19.802662 35.788336,20.179281 35.375,20.53125 L 35.375,20.5625 L 35.40625,20.5625 C 35.964373,20.406097 36.52401,20.226086 37.09375,20.21875 C 37.703151,20.210901 38.326535,20.284488 38.8125,20.75 C 38.635908,20.580841 38.567064,20.672804 38.6875,20.65625 C 38.807936,20.639696 39.020498,20.566869 39.25,20.5 C 39.461848,20.438275 39.687383,20.367599 39.96875,20.34375 C 39.942828,20.239498 39.870055,20.090188 39.84375,20 C 39.741969,19.651037 39.616561,19.495752 39.4375,19.34375 C 39.177607,19.220948 38.880468,19.147634 38.5,19.15625 z M 42.25,19.28125 C 42.238135,19.293138 42.207302,19.371268 42.1875,19.5 C 42.147896,19.757464 42.264081,20.230337 42.375,20.40625 L 42.3125,20.4375 C 42.53653,20.731865 42.724032,21.096017 42.625,21.46875 C 42.527347,21.836291 42.240209,22.025128 41.96875,22.15625 C 42.238074,22.107026 42.586007,22.075707 42.9375,22.03125 C 42.934336,22.009753 42.908491,21.989728 42.90625,21.96875 C 42.855029,21.489255 42.946486,21.075495 42.96875,20.8125 C 43.002295,20.478821 42.945233,20.041354 42.8125,19.75 C 42.687548,19.475726 42.536194,19.351143 42.28125,19.28125 C 42.272845,19.278946 42.258667,19.283384 42.25,19.28125 z M 20.96875,21.90625 C 20.979166,21.906037 20.989584,21.906037 21,21.90625 C 20.970013,21.902045 21.268604,21.895212 21.5625,21.96875 C 21.709448,22.005519 21.935621,22.019896 22.1875,22.375 C 22.313439,22.552552 22.369495,22.844448 22.3125,23.0625 C 22.255505,23.280552 22.153184,23.407257 22.0625,23.5 C 21.952794,23.61295 21.810936,23.689335 21.65625,23.71875 C 21.653417,23.722653 21.628109,23.714531 21.625,23.71875 C 21.535412,23.840324 21.416488,24.050013 21.0625,24.15625 C 20.91977,24.198796 20.76773,24.198796 20.625,24.15625 C 20.511036,24.120547 20.264541,24.072557 19.96875,23.9375 C 19.672959,23.802443 19.241159,23.479328 19.15625,22.96875 C 19.104192,22.630591 19.282778,22.298932 19.59375,22.15625 C 20.023436,21.954361 20.495258,21.875856 20.96875,21.90625 z "
           style="opacity:0.45045046;fill:url(#linearGradient3772);fill-opacity:1;stroke:none;stroke-width:0.20900001;stroke-linecap:square;stroke-linejoin:round;stroke-miterlimit:4;stroke-dashoffset:0;stroke-opacity:1;display:inline"
           id="path3762" />
        <path
           transform="translate(7.2946014,37.258534)"
           d="M 33.410797 -23.329399 A 16.705399 13.169865 0 1 1  0,-23.329399 A 16.705399 13.169865 0 1 1  33.410797 -23.329399 z"
           sodipodi:ry="13.169865"
           sodipodi:rx="16.705399"
           sodipodi:cy="-23.329399"
           sodipodi:cx="16.705399"
           id="path3804"
           style="opacity:0.8558559;fill:url(#linearGradient3824);fill-opacity:1;stroke:none;stroke-width:0.20900001;stroke-linecap:square;stroke-linejoin:round;stroke-miterlimit:4;stroke-dasharray:none;stroke-dashoffset:0;stroke-opacity:1"
           sodipodi:type="arc" />
      </g>
    </g>
    <path
       style="opacity:0.49494946;fill:url(#radialGradient3321);fill-opacity:1;fill-rule:evenodd;stroke:#000000;stroke-width:0.68711728;stroke-linecap:butt;stroke-linejoin:round;stroke-miterlimit:4;stroke-dasharray:none;stroke-opacity:0;display:inline"
       d="M 6.0408596,38.79926 C 5.5812346,33.771481 10.239956,9.2841579 41.557868,5.1915569 C 41.557868,0.92696947 41.665301,6.7153248 41.665301,2.4507365 C 30.269992,2.4507365 16.738868,2.4507365 5.3435586,2.4507365 C 5.3435586,14.419976 6.0408596,26.830021 6.0408596,38.79926 z "
       id="path3201"
       sodipodi:nodetypes="ccccc" />
  </g>
</svg>
