<?xml version="1.0" encoding="UTF-8" standalone="no"?>
<!-- Created with Inkscape (http://www.inkscape.org/) -->
<svg
   xmlns:dc="http://purl.org/dc/elements/1.1/"
   xmlns:cc="http://creativecommons.org/ns#"
   xmlns:rdf="http://www.w3.org/1999/02/22-rdf-syntax-ns#"
   xmlns:svg="http://www.w3.org/2000/svg"
   xmlns="http://www.w3.org/2000/svg"
   xmlns:xlink="http://www.w3.org/1999/xlink"
   xmlns:sodipodi="http://sodipodi.sourceforge.net/DTD/sodipodi-0.dtd"
   xmlns:inkscape="http://www.inkscape.org/namespaces/inkscape"
   inkscape:export-ydpi="240.00000"
   inkscape:export-xdpi="240.00000"
   inkscape:export-filename="/home/jimmac/gfx/novell/pdes/trunk/docs/BIGmime-text.png"
   sodipodi:docname="text-x-java.svg"
   sodipodi:docbase="/home/marco/Scrivania/UltimateGnome/scalable/mimetypes"
   inkscape:version="0.46"
   sodipodi:version="0.32"
   id="svg249"
   height="48.000000px"
   width="48.000000px"
   inkscape:output_extension="org.inkscape.output.svg.inkscape">
  <defs
     id="defs3">
    <linearGradient
       id="linearGradient3177">
      <stop
         id="stop3179"
         offset="0"
         style="stop-color:#c8abeb;stop-opacity:1;" />
      <stop
         id="stop3181"
         offset="1"
         style="stop-color:#3b0054;stop-opacity:1;" />
    </linearGradient>
    <linearGradient
       id="linearGradient3187">
      <stop
         id="stop3189"
         offset="0"
         style="stop-color:#000000;stop-opacity:1;" />
      <stop
         id="stop3191"
         offset="1"
         style="stop-color:#ffffff;stop-opacity:0;" />
    </linearGradient>
    <linearGradient
       id="linearGradient269">
      <stop
         id="stop270"
         offset="0"
         style="stop-color:#ffffff;stop-opacity:1;" />
      <stop
         id="stop271"
         offset="1"
         style="stop-color:#ffffff;stop-opacity:0;" />
    </linearGradient>
    <linearGradient
       id="linearGradient259">
      <stop
         id="stop260"
         offset="0"
         style="stop-color:#ffffff;stop-opacity:1;" />
      <stop
         id="stop261"
         offset="1"
         style="stop-color:#e8e3dd;stop-opacity:1;" />
    </linearGradient>
    <radialGradient
       inkscape:collect="always"
       xlink:href="#linearGradient3187"
       id="radialGradient3185"
       cx="25.375"
       cy="44.75"
       fx="25.375"
       fy="44.75"
       r="15.896"
       gradientTransform="matrix(1,0,0,0.1821842,0,36.597257)"
       gradientUnits="userSpaceOnUse" />
    <radialGradient
       inkscape:collect="always"
       xlink:href="#linearGradient259"
       id="radialGradient3199"
       cx="27.651968"
       cy="-3.1861894"
       fx="27.651968"
       fy="-3.1861894"
       r="15.5"
       gradientTransform="matrix(-4.9392429e-2,2.3083425,-3.2444628,-4.0220357e-2,32.624704,-23.871905)"
       gradientUnits="userSpaceOnUse" />
    <radialGradient
       inkscape:collect="always"
       xlink:href="#linearGradient3177"
       id="radialGradient3420"
       cx="42.111099"
       cy="17.909124"
       fx="42.111099"
       fy="17.909124"
       r="19.849932"
       gradientTransform="matrix(-2.7967369e-3,-1.76227,1.8835,-6.4046003e-3,8.4397152,84.507527)"
       gradientUnits="userSpaceOnUse" />
    <radialGradient
       inkscape:collect="always"
       xlink:href="#linearGradient269"
       id="radialGradient2264"
       gradientUnits="userSpaceOnUse"
       gradientTransform="matrix(-4.9557361e-2,2.3082769,-3.2552968,-4.0219215e-2,32.068539,-23.855953)"
       cx="12.133117"
       cy="7.4347868"
       fx="12.133117"
       fy="7.4347868"
       r="15.5" />
  </defs>
  <sodipodi:namedview
     inkscape:window-y="25"
     inkscape:window-x="0"
     inkscape:window-height="918"
     inkscape:window-width="1272"
     inkscape:document-units="px"
     inkscape:grid-bbox="true"
     showgrid="true"
     inkscape:current-layer="layer5"
     inkscape:cy="-8.8184503"
     inkscape:cx="46.92909"
     inkscape:zoom="5.656854"
     inkscape:pageshadow="2"
     inkscape:pageopacity="0.0"
     borderopacity="1"
     bordercolor="#666"
     pagecolor="#ffffff"
     id="base"
     inkscape:showpageshadow="false" />
  <metadata
     id="metadata4">
    <rdf:RDF>
      <cc:Work
         rdf:about="">
        <dc:format>image/svg+xml</dc:format>
        <dc:type
           rdf:resource="http://purl.org/dc/dcmitype/StillImage" />
        <dc:title />
        <dc:subject>
          <rdf:Bag />
        </dc:subject>
        <cc:license
           rdf:resource="http://creativecommons.org/licenses/by-nc-sa/2.5/" />
        <dc:creator>
          <cc:Agent>
            <dc:title>Marco Tessarotto</dc:title>
          </cc:Agent>
        </dc:creator>
        <dc:source />
      </cc:Work>
      <cc:License
         rdf:about="http://creativecommons.org/licenses/by-nc-sa/2.5/">
        <cc:permits
           rdf:resource="http://web.resource.org/cc/Reproduction" />
        <cc:permits
           rdf:resource="http://web.resource.org/cc/Distribution" />
        <cc:requires
           rdf:resource="http://web.resource.org/cc/Notice" />
        <cc:requires
           rdf:resource="http://web.resource.org/cc/Attribution" />
        <cc:prohibits
           rdf:resource="http://web.resource.org/cc/CommercialUse" />
        <cc:permits
           rdf:resource="http://web.resource.org/cc/DerivativeWorks" />
        <cc:requires
           rdf:resource="http://web.resource.org/cc/ShareAlike" />
      </cc:License>
    </rdf:RDF>
  </metadata>
  <g
     inkscape:groupmode="layer"
     id="layer6"
     inkscape:label="Shadow">
    <path
       sodipodi:type="arc"
       style="opacity:0.41919191;fill:url(#radialGradient3185);fill-opacity:1;stroke:#000000;stroke-width:1.04200006;stroke-linecap:round;stroke-linejoin:round;stroke-miterlimit:4;stroke-dasharray:none;stroke-opacity:0"
       id="path2205"
       sodipodi:cx="25.375"
       sodipodi:cy="44.75"
       sodipodi:rx="15.375"
       sodipodi:ry="2.375"
       d="M 40.75,44.75 A 15.375,2.375 0 1 1 40.749997,44.748519"
       sodipodi:start="0"
       sodipodi:end="6.2825619"
       sodipodi:open="true"
       transform="matrix(1.4547318,0,0,1.9230325,-12.927908,-45.326953)" />
  </g>
  <g
     inkscape:groupmode="layer"
     id="layer1"
     inkscape:label="logo"
     style="display:inline" />
  <g
     inkscape:groupmode="layer"
     id="layer2"
     inkscape:label="logo2" />
  <g
     inkscape:groupmode="layer"
     id="layer5"
     inkscape:label="file"
     style="display:inline">
    <path
       style="fill:url(#radialGradient3199);fill-opacity:1;fill-rule:evenodd;stroke:#000000;stroke-width:0.68598264;stroke-linecap:butt;stroke-linejoin:round;stroke-miterlimit:4;stroke-dasharray:none;stroke-opacity:0.81420767"
       d="M 4.0790932,1.0536728 L 4.0790932,40.952269 L 43.39311,40.952269 L 43.39311,1.0536728 L 4.0790932,1.0536728 z "
       id="path2201" />
    <rect
       style="opacity:0.7474747;color:#000000;fill:url(#radialGradient3420);fill-opacity:1.0;fill-rule:nonzero;stroke:#000000;stroke-width:0.71400553;stroke-linecap:butt;stroke-linejoin:miter;marker:none;marker-start:none;marker-mid:none;marker-end:none;stroke-miterlimit:4;stroke-dasharray:none;stroke-dashoffset:0;stroke-opacity:0.68852461;visibility:visible;display:inline;overflow:visible;enable-background:accumulate"
       id="rect2443"
       width="38.985859"
       height="10.583426"
       x="4.2431722"
       y="1.0595703" />
    <text
       xml:space="preserve"
       style="font-size:25.26156235px;font-style:normal;font-weight:normal;line-height:125%;fill:#ffffff;fill-opacity:1;stroke:none;stroke-width:1px;stroke-linecap:butt;stroke-linejoin:miter;stroke-opacity:1;font-family:Bitstream Vera Sans"
       x="6.3270221"
       y="10.14875"
       id="text3428"
       sodipodi:linespacing="125%"><tspan
         sodipodi:role="line"
         x="6.3270221"
         y="10.14875"
         style="font-size:8.42052174px;font-style:normal;font-variant:normal;font-weight:normal;font-stretch:normal;text-align:start;line-height:125%;writing-mode:lr-tb;text-anchor:start;fill:#ffffff;fill-opacity:1;font-family:FreeSans"
         id="tspan2231">.JAVA</tspan></text>
    <g
       id="g3777"
       transform="matrix(0.1631462,0,0,0.1631462,13.657725,26.08485)"
       style="opacity:0.12121211">
      <g
         id="g3848"
         transform="translate(12.258943,0)"
         style="opacity:1" />
    </g>
    <path
       style="opacity:0.49494946;fill:url(#radialGradient2264);fill-opacity:1;fill-rule:evenodd;stroke:#000000;stroke-width:0.68711728;stroke-linecap:butt;stroke-linejoin:round;stroke-miterlimit:4;stroke-dasharray:none;stroke-opacity:0;display:inline"
       d="M 6.0408586,38.983976 C 5.5812346,33.956197 10.239955,9.4688736 41.557867,5.3762726 C 41.557867,1.1116846 41.6653,6.9000406 41.6653,2.6354516 C 30.269992,2.6354516 16.738868,2.6354516 5.3435586,2.6354516 C 5.3435586,14.604691 6.0408586,27.014737 6.0408586,38.983976 z "
       id="path3201"
       sodipodi:nodetypes="ccccc" />
    <path
       id="path3239"
       style="fill:#7600bd;fill-rule:evenodd;fill-opacity:1;opacity:0.16161616"
       d="M 20.183536,33.269264 C 20.183536,33.269264 19.14495,33.873767 20.923511,34.077755 C 23.078529,34.323793 24.179737,34.28836 26.55384,33.8396 C 26.55384,33.8396 27.179276,34.230852 28.051234,34.569708 C 22.727397,36.850633 16.002297,34.437547 20.183536,33.269264 L 20.183536,33.269264 z M 19.532653,30.292281 C 19.532653,30.292281 18.367617,31.154852 20.147504,31.33881 C 22.44972,31.576485 24.267143,31.595974 27.413825,30.990387 C 27.413825,30.990387 27.848026,31.431449 28.531814,31.672492 C 22.096004,33.555004 14.927801,31.820595 19.532653,30.292281 L 19.532653,30.292281 z M 25.016621,25.241674 C 26.329098,26.752483 24.672472,28.110918 24.672472,28.110918 C 24.672472,28.110918 28.003107,26.39185 26.473832,24.238097 C 25.045016,22.230523 23.949579,21.233262 29.880025,17.793985 C 29.880086,17.793985 20.570698,20.118458 25.016621,25.241674 L 25.016621,25.241674 z M 32.057718,35.471562 C 32.057718,35.471562 32.826567,36.105362 31.210909,36.59551 C 28.138701,37.526056 18.421576,37.806745 15.722636,36.632748 C 14.753105,36.210455 16.572092,35.625139 17.144415,35.50152 C 17.741156,35.372425 18.081881,35.396006 18.081881,35.396006 C 17.002867,34.636181 11.107736,36.888282 15.087813,37.534177 C 25.941636,39.293494 34.872702,36.741752 32.057718,35.471562 L 32.057718,35.471562 z M 20.683368,27.207381 C 20.683368,27.207381 15.741284,28.381558 18.933321,28.808303 C 20.281528,28.988708 22.96754,28.9472 25.471337,28.737137 C 27.516989,28.565453 29.569923,28.198263 29.569923,28.198263 C 29.569923,28.198263 28.849139,28.507463 28.327287,28.863585 C 23.307661,30.183821 13.612496,29.56897 16.404016,28.219197 C 18.763742,27.077625 20.683368,27.207381 20.683368,27.207381 L 20.683368,27.207381 z M 29.549469,32.162761 C 34.65175,29.512123 32.292385,26.96459 30.645687,27.30772 C 30.243005,27.391757 30.062356,27.464546 30.062356,27.464546 C 30.062356,27.464546 30.212383,27.229518 30.498063,27.128396 C 33.755794,25.983634 36.260613,30.505895 29.447503,32.296909 C 29.447446,32.296909 29.525827,32.225925 29.549469,32.162761 L 29.549469,32.162761 z M 26.473893,12.239332 C 26.473893,12.239332 29.298982,15.066046 23.793536,19.411509 C 19.378532,22.898672 22.78689,24.886214 23.791974,27.158233 C 21.214602,24.833037 19.324152,22.78588 20.592173,20.880871 C 22.454229,18.084897 27.613481,16.728869 26.473893,12.239332 L 26.473893,12.239332 z M 21.185009,39.347693 C 26.081497,39.660744 33.602697,39.173484 33.780696,36.856342 C 33.780696,36.856342 33.43853,37.734742 29.733665,38.431705 C 25.553991,39.218597 20.39769,39.126984 17.340641,38.622209 C 17.340641,38.622209 17.966922,39.140578 21.185009,39.347693 L 21.185009,39.347693 z " />
    <text
       xml:space="preserve"
       style="font-size:13.55346012px;font-style:normal;font-weight:normal;opacity:0.16483513;fill:#000000;fill-opacity:1;stroke:none;stroke-width:1px;stroke-linecap:butt;stroke-linejoin:miter;stroke-opacity:1;font-family:Bitstream Vera Sans"
       x="4.5918489"
       y="29.335169"
       id="text2196"><tspan
         sodipodi:role="line"
         id="tspan2198"
         x="4.5918489"
         y="29.335169"
         style="font-family:FreeSans">.JAVA</tspan></text>
  </g>
</svg>
